<?xml version="1.0" encoding="utf-8" standalone="no"?>
<!DOCTYPE svg PUBLIC "-//W3C//DTD SVG 1.1//EN"
  "http://www.w3.org/Graphics/SVG/1.1/DTD/svg11.dtd">
<!-- Created with matplotlib (http://matplotlib.org/) -->
<svg height="396pt" version="1.1" viewBox="0 0 576 396" width="576pt" xmlns="http://www.w3.org/2000/svg" xmlns:xlink="http://www.w3.org/1999/xlink">
 <defs>
  <style type="text/css">
*{stroke-linecap:butt;stroke-linejoin:round;}
  </style>
 </defs>
 <g id="figure_1">
  <g id="patch_1">
   <path d="
M0 396
L576 396
L576 0
L0 0
z
" style="fill:#ffffff;"/>
  </g>
  <g id="axes_1">
   <g id="patch_2">
    <path d="
M72 356.4
L518.4 356.4
L518.4 39.6
L72 39.6
z
" style="fill:#eaeaf2;"/>
   </g>
   <g id="matplotlib.axis_1">
    <g id="xtick_1">
     <g id="line2d_1">
      <path clip-path="url(#p3d386a08f4)" d="
M72 356.4
L72 39.6" style="fill:none;stroke:#ffffff;stroke-linecap:round;"/>
     </g>
     <g id="line2d_2">
      <defs>
       <path d="
M0 0
L0 0" id="m219da94a98" style="stroke:#262626;"/>
      </defs>
      <g>
       <use style="fill:#262626;stroke:#262626;" x="72.0" xlink:href="#m219da94a98" y="356.4"/>
      </g>
     </g>
     <g id="line2d_3">
      <g>
       <use style="fill:#262626;stroke:#262626;" x="72.0" xlink:href="#m219da94a98" y="39.6"/>
      </g>
     </g>
    </g>
    <g id="xtick_2">
     <g id="line2d_4">
      <path clip-path="url(#p3d386a08f4)" d="
M135.324 356.4
L135.324 39.6" style="fill:none;stroke:#ffffff;stroke-linecap:round;"/>
     </g>
     <g id="line2d_5">
      <g>
       <use style="fill:#262626;stroke:#262626;" x="135.323595506" xlink:href="#m219da94a98" y="356.4"/>
      </g>
     </g>
     <g id="line2d_6">
      <g>
       <use style="fill:#262626;stroke:#262626;" x="135.323595506" xlink:href="#m219da94a98" y="39.6"/>
      </g>
     </g>
     <g id="text_1">
      <!-- 1998 -->
      <defs>
       <path d="
M50.875 35.7969
Q50.875 26.6094 49.1406 19.7031
Q47.4062 12.7969 44.1875 8.20312
Q40.9688 3.60938 36.3438 1.3125
Q31.7344 -0.984375 25.9844 -0.984375
Q22.0156 -0.984375 18.8438 -0.171875
Q15.6719 0.640625 13.1719 2.34375
Q10.6875 4.04688 8.92188 6.78125
Q7.17188 9.51562 6.10938 13.375
L14.5 14.7031
Q15.875 10.25 18.7812 8.17188
Q21.6875 6.10938 26.125 6.10938
Q29.6875 6.10938 32.6406 7.78125
Q35.5938 9.46875 37.6719 12.8438
Q39.75 16.2188 40.9219 21.2969
Q42.0938 26.375 42.1875 33.2031
Q41.1562 30.9062 39.375 29.0938
Q37.5938 27.2969 35.3281 26.0469
Q33.0625 24.8125 30.4219 24.1406
Q27.7812 23.4844 25.0938 23.4844
Q20.4062 23.4844 16.625 25.1719
Q12.8438 26.8594 10.2031 29.875
Q7.5625 32.9062 6.125 37.1719
Q4.6875 41.4531 4.6875 46.6875
Q4.6875 52 6.21875 56.2969
Q7.76562 60.5938 10.6875 63.5938
Q13.625 66.6094 17.8906 68.2188
Q22.1719 69.8281 27.5938 69.8281
Q39.0625 69.8281 44.9688 61.3281
Q50.875 52.8281 50.875 35.7969
M41.3125 44.2812
Q41.3125 48.0938 40.4062 51.4531
Q39.5 54.8281 37.7188 57.3125
Q35.9375 59.8125 33.3281 61.25
Q30.7188 62.7031 27.2969 62.7031
Q24.125 62.7031 21.5781 61.5781
Q19.0469 60.4531 17.2812 58.375
Q15.5312 56.2969 14.5781 53.3125
Q13.625 50.3438 13.625 46.6875
Q13.625 43.2188 14.4688 40.2344
Q15.3281 37.25 17.0312 35.0781
Q18.75 32.9062 21.2812 31.6562
Q23.8281 30.4219 27.2031 30.4219
Q29.6406 30.4219 32.1562 31.25
Q34.6719 32.0781 36.6875 33.7812
Q38.7188 35.5 40.0156 38.1094
Q41.3125 40.7188 41.3125 44.2812" id="LiberationSans-39"/>
       <path d="
M7.625 0
L7.625 7.46875
L25.1406 7.46875
L25.1406 60.4062
L9.625 49.3125
L9.625 57.625
L25.875 68.7969
L33.9844 68.7969
L33.9844 7.46875
L50.7344 7.46875
L50.7344 0
z
" id="LiberationSans-31"/>
       <path d="
M51.2656 19.1875
Q51.2656 14.7969 49.875 11.1094
Q48.4844 7.42188 45.625 4.73438
Q42.7812 2.04688 38.3281 0.53125
Q33.8906 -0.984375 27.8281 -0.984375
Q21.7812 -0.984375 17.3594 0.53125
Q12.9375 2.04688 10.0312 4.70312
Q7.125 7.375 5.73438 11.0625
Q4.34375 14.75 4.34375 19.0938
Q4.34375 22.8594 5.48438 25.7812
Q6.64062 28.7188 8.5625 30.8281
Q10.5 32.9531 12.9688 34.25
Q15.4375 35.5469 18.0625 35.9844
L18.0625 36.1875
Q15.1875 36.8594 12.9062 38.375
Q10.6406 39.8906 9.09375 42.0156
Q7.5625 44.1406 6.75 46.7188
Q5.95312 49.3125 5.95312 52.2031
Q5.95312 55.8125 7.34375 59
Q8.73438 62.2031 11.4688 64.625
Q14.2031 67.0469 18.25 68.4375
Q22.3125 69.8281 27.6406 69.8281
Q33.25 69.8281 37.375 68.4062
Q41.5 67 44.2031 64.5781
Q46.9219 62.1562 48.2344 58.9375
Q49.5625 55.7188 49.5625 52.0938
Q49.5625 49.2656 48.75 46.6719
Q47.9531 44.0938 46.4062 41.9688
Q44.875 39.8438 42.5938 38.3438
Q40.3281 36.8594 37.3594 36.2812
L37.3594 36.0781
Q40.3281 35.5938 42.8594 34.2969
Q45.4062 33.0156 47.2656 30.8906
Q49.125 28.7656 50.1875 25.8281
Q51.2656 22.9062 51.2656 19.1875
M40.4375 51.6094
Q40.4375 54.2031 39.7656 56.3438
Q39.1094 58.5 37.5938 60.0312
Q36.0781 61.5781 33.6406 62.4219
Q31.2031 63.2812 27.6406 63.2812
Q24.1719 63.2812 21.7812 62.4219
Q19.3906 61.5781 17.8438 60.0312
Q16.3125 58.5 15.625 56.3438
Q14.9375 54.2031 14.9375 51.6094
Q14.9375 49.5625 15.4688 47.4062
Q16.0156 45.2656 17.4219 43.5
Q18.8438 41.75 21.3281 40.625
Q23.8281 39.5 27.7344 39.5
Q31.8906 39.5 34.4062 40.625
Q36.9219 41.75 38.25 43.5
Q39.5938 45.2656 40.0156 47.4062
Q40.4375 49.5625 40.4375 51.6094
M42.1406 20.0156
Q42.1406 22.5156 41.4531 24.8281
Q40.7656 27.1562 39.1094 28.9375
Q37.4531 30.7188 34.6406 31.8125
Q31.8438 32.9062 27.6406 32.9062
Q23.7812 32.9062 21.0625 31.8125
Q18.3594 30.7188 16.6719 28.9062
Q14.9844 27.0938 14.2031 24.7188
Q13.4219 22.3594 13.4219 19.8281
Q13.4219 16.6562 14.2031 14.0312
Q14.9844 11.4219 16.6875 9.54688
Q18.4062 7.67188 21.1875 6.64062
Q23.9688 5.60938 27.9375 5.60938
Q31.9375 5.60938 34.6719 6.64062
Q37.4062 7.67188 39.0625 9.54688
Q40.7188 11.4219 41.4219 14.0781
Q42.1406 16.75 42.1406 20.0156" id="LiberationSans-38"/>
      </defs>
      <g style="fill:#262626;" transform="translate(124.800158006 370.646875)scale(0.1 -0.1)">
       <use xlink:href="#LiberationSans-31"/>
       <use x="55.615234375" xlink:href="#LiberationSans-39"/>
       <use x="111.23046875" xlink:href="#LiberationSans-39"/>
       <use x="166.845703125" xlink:href="#LiberationSans-38"/>
      </g>
     </g>
    </g>
    <g id="xtick_3">
     <g id="line2d_7">
      <path clip-path="url(#p3d386a08f4)" d="
M200.528 356.4
L200.528 39.6" style="fill:none;stroke:#ffffff;stroke-linecap:round;"/>
     </g>
     <g id="line2d_8">
      <g>
       <use style="fill:#262626;stroke:#262626;" x="200.528089888" xlink:href="#m219da94a98" y="356.4"/>
      </g>
     </g>
     <g id="line2d_9">
      <g>
       <use style="fill:#262626;stroke:#262626;" x="200.528089888" xlink:href="#m219da94a98" y="39.6"/>
      </g>
     </g>
     <g id="text_2">
      <!-- 2000 -->
      <defs>
       <path d="
M5.03125 0
L5.03125 6.20312
Q7.51562 11.9219 11.1094 16.2812
Q14.7031 20.6562 18.6562 24.1875
Q22.6094 27.7344 26.4844 30.7656
Q30.375 33.7969 33.5 36.8125
Q36.625 39.8438 38.5469 43.1562
Q40.4844 46.4844 40.4844 50.6875
Q40.4844 53.6094 39.5938 55.8281
Q38.7188 58.0625 37.0625 59.5625
Q35.4062 61.0781 33.0781 61.8281
Q30.7656 62.5938 27.9375 62.5938
Q25.2969 62.5938 22.9688 61.8594
Q20.6562 61.1406 18.8438 59.6719
Q17.0469 58.2031 15.8906 56.0312
Q14.75 53.8594 14.4062 50.9844
L5.42188 51.8125
Q5.85938 55.5156 7.46875 58.7812
Q9.07812 62.0625 11.9062 64.5312
Q14.75 67 18.7188 68.4062
Q22.7031 69.8281 27.9375 69.8281
Q33.0625 69.8281 37.0625 68.6094
Q41.0625 67.3906 43.8125 64.9844
Q46.5781 62.5938 48.0469 59.0781
Q49.5156 55.5625 49.5156 50.9844
Q49.5156 47.5156 48.2656 44.3906
Q47.0156 41.2656 44.9375 38.4219
Q42.875 35.5938 40.1406 32.9531
Q37.4062 30.3281 34.4219 27.8125
Q31.4531 25.2969 28.4219 22.8281
Q25.3906 20.3594 22.7188 17.8594
Q20.0625 15.375 17.9688 12.8125
Q15.875 10.25 14.7031 7.46875
L50.5938 7.46875
L50.5938 0
z
" id="LiberationSans-32"/>
       <path d="
M51.7031 34.4219
Q51.7031 24.5156 49.8281 17.75
Q47.9531 10.9844 44.7031 6.8125
Q41.4531 2.64062 37.0625 0.828125
Q32.6719 -0.984375 27.6875 -0.984375
Q22.6562 -0.984375 18.3125 0.828125
Q13.9688 2.64062 10.7656 6.78125
Q7.5625 10.9375 5.73438 17.7031
Q3.90625 24.4688 3.90625 34.4219
Q3.90625 44.8281 5.73438 51.6406
Q7.5625 58.4531 10.7812 62.5
Q14.0156 66.5469 18.4062 68.1875
Q22.7969 69.8281 27.9844 69.8281
Q32.9062 69.8281 37.2188 68.1875
Q41.5469 66.5469 44.7656 62.5
Q48 58.4531 49.8438 51.6406
Q51.7031 44.8281 51.7031 34.4219
M42.7812 34.4219
Q42.7812 42.625 41.7969 48.0625
Q40.8281 53.5156 38.9219 56.7656
Q37.0156 60.0156 34.25 61.3594
Q31.5 62.7031 27.9844 62.7031
Q24.2656 62.7031 21.4375 61.3281
Q18.6094 59.9688 16.6719 56.7188
Q14.75 53.4688 13.7656 48.0156
Q12.7969 42.5781 12.7969 34.4219
Q12.7969 26.5156 13.7969 21.0938
Q14.7969 15.6719 16.7188 12.375
Q18.6562 9.07812 21.4375 7.64062
Q24.2188 6.20312 27.7812 6.20312
Q31.25 6.20312 34.0312 7.64062
Q36.8125 9.07812 38.7344 12.375
Q40.6719 15.6719 41.7188 21.0938
Q42.7812 26.5156 42.7812 34.4219" id="LiberationSans-30"/>
      </defs>
      <g style="fill:#262626;" transform="translate(189.853089888 370.646875)scale(0.1 -0.1)">
       <use xlink:href="#LiberationSans-32"/>
       <use x="55.615234375" xlink:href="#LiberationSans-30"/>
       <use x="111.23046875" xlink:href="#LiberationSans-30"/>
       <use x="166.845703125" xlink:href="#LiberationSans-30"/>
      </g>
     </g>
    </g>
    <g id="xtick_4">
     <g id="line2d_10">
      <path clip-path="url(#p3d386a08f4)" d="
M266.36 356.4
L266.36 39.6" style="fill:none;stroke:#ffffff;stroke-linecap:round;"/>
     </g>
     <g id="line2d_11">
      <g>
       <use style="fill:#262626;stroke:#262626;" x="266.359550562" xlink:href="#m219da94a98" y="356.4"/>
      </g>
     </g>
     <g id="line2d_12">
      <g>
       <use style="fill:#262626;stroke:#262626;" x="266.359550562" xlink:href="#m219da94a98" y="39.6"/>
      </g>
     </g>
     <g id="text_3">
      <!-- 2002 -->
      <g style="fill:#262626;" transform="translate(255.740019312 370.646875)scale(0.1 -0.1)">
       <use xlink:href="#LiberationSans-32"/>
       <use x="55.615234375" xlink:href="#LiberationSans-30"/>
       <use x="111.23046875" xlink:href="#LiberationSans-30"/>
       <use x="166.845703125" xlink:href="#LiberationSans-32"/>
      </g>
     </g>
    </g>
    <g id="xtick_5">
     <g id="line2d_13">
      <path clip-path="url(#p3d386a08f4)" d="
M331.564 356.4
L331.564 39.6" style="fill:none;stroke:#ffffff;stroke-linecap:round;"/>
     </g>
     <g id="line2d_14">
      <g>
       <use style="fill:#262626;stroke:#262626;" x="331.564044944" xlink:href="#m219da94a98" y="356.4"/>
      </g>
     </g>
     <g id="line2d_15">
      <g>
       <use style="fill:#262626;stroke:#262626;" x="331.564044944" xlink:href="#m219da94a98" y="39.6"/>
      </g>
     </g>
     <g id="text_4">
      <!-- 2004 -->
      <defs>
       <path d="
M43.0156 15.5781
L43.0156 0
L34.7188 0
L34.7188 15.5781
L2.29688 15.5781
L2.29688 22.4062
L33.7969 68.7969
L43.0156 68.7969
L43.0156 22.5156
L52.6875 22.5156
L52.6875 15.5781
z

M34.7188 58.8906
Q34.625 58.6406 34.2344 57.9375
Q33.8438 57.2344 33.3438 56.3438
Q32.8594 55.4688 32.3438 54.5625
Q31.8438 53.6562 31.4531 53.0781
L13.8125 27.0938
Q13.5781 26.7031 13.1094 26.0625
Q12.6406 25.4375 12.1562 24.7812
Q11.6719 24.125 11.1719 23.4844
Q10.6875 22.8594 10.4062 22.5156
L34.7188 22.5156
z
" id="LiberationSans-34"/>
      </defs>
      <g style="fill:#262626;" transform="translate(320.839826194 370.646875)scale(0.1 -0.1)">
       <use xlink:href="#LiberationSans-32"/>
       <use x="55.615234375" xlink:href="#LiberationSans-30"/>
       <use x="111.23046875" xlink:href="#LiberationSans-30"/>
       <use x="166.845703125" xlink:href="#LiberationSans-34"/>
      </g>
     </g>
    </g>
    <g id="xtick_6">
     <g id="line2d_16">
      <path clip-path="url(#p3d386a08f4)" d="
M396.769 356.4
L396.769 39.6" style="fill:none;stroke:#ffffff;stroke-linecap:round;"/>
     </g>
     <g id="line2d_17">
      <g>
       <use style="fill:#262626;stroke:#262626;" x="396.768539326" xlink:href="#m219da94a98" y="356.4"/>
      </g>
     </g>
     <g id="line2d_18">
      <g>
       <use style="fill:#262626;stroke:#262626;" x="396.768539326" xlink:href="#m219da94a98" y="39.6"/>
      </g>
     </g>
     <g id="text_5">
      <!-- 2006 -->
      <defs>
       <path d="
M51.2188 22.5156
Q51.2188 17.3281 49.7812 13
Q48.3438 8.6875 45.5312 5.57812
Q42.7188 2.48438 38.5625 0.75
Q34.4219 -0.984375 29 -0.984375
Q23 -0.984375 18.5 1.3125
Q14.0156 3.60938 11.0312 7.92188
Q8.0625 12.25 6.5625 18.5312
Q5.07812 24.8125 5.07812 32.8125
Q5.07812 42 6.76562 48.9219
Q8.45312 55.8594 11.625 60.5
Q14.7969 65.1406 19.3594 67.4844
Q23.9219 69.8281 29.6875 69.8281
Q33.2031 69.8281 36.2812 69.0938
Q39.3594 68.3594 41.875 66.7188
Q44.3906 65.0938 46.2812 62.4062
Q48.1875 59.7188 49.3125 55.8125
L40.9219 54.2969
Q39.5469 58.7344 36.5469 60.7188
Q33.5469 62.7031 29.5938 62.7031
Q25.9844 62.7031 23.0469 60.9844
Q20.125 59.2812 18.0625 55.875
Q16.0156 52.4844 14.9062 47.3594
Q13.8125 42.2344 13.8125 35.4062
Q16.2188 39.8438 20.5625 42.1562
Q24.9062 44.4844 30.5156 44.4844
Q35.2031 44.4844 39.0156 42.9688
Q42.8281 41.4531 45.5312 38.5938
Q48.25 35.75 49.7344 31.6719
Q51.2188 27.5938 51.2188 22.5156
M42.2812 22.125
Q42.2812 25.6875 41.4062 28.5625
Q40.5312 31.4531 38.7656 33.4688
Q37.0156 35.5 34.4219 36.5938
Q31.8438 37.7031 28.4219 37.7031
Q26.0312 37.7031 23.5781 36.9844
Q21.1406 36.2812 19.1562 34.6875
Q17.1875 33.1094 15.9375 30.5156
Q14.7031 27.9375 14.7031 24.2188
Q14.7031 20.4062 15.6719 17.1094
Q16.6562 13.8125 18.4844 11.375
Q20.3125 8.9375 22.8906 7.51562
Q25.4844 6.10938 28.7188 6.10938
Q31.8906 6.10938 34.4062 7.20312
Q36.9219 8.29688 38.6719 10.375
Q40.4375 12.4531 41.3594 15.4219
Q42.2812 18.4062 42.2812 22.125" id="LiberationSans-36"/>
      </defs>
      <g style="fill:#262626;" transform="translate(386.117758076 370.646875)scale(0.1 -0.1)">
       <use xlink:href="#LiberationSans-32"/>
       <use x="55.615234375" xlink:href="#LiberationSans-30"/>
       <use x="111.23046875" xlink:href="#LiberationSans-30"/>
       <use x="166.845703125" xlink:href="#LiberationSans-36"/>
      </g>
     </g>
    </g>
    <g id="xtick_7">
     <g id="line2d_19">
      <path clip-path="url(#p3d386a08f4)" d="
M462.6 356.4
L462.6 39.6" style="fill:none;stroke:#ffffff;stroke-linecap:round;"/>
     </g>
     <g id="line2d_20">
      <g>
       <use style="fill:#262626;stroke:#262626;" x="462.6" xlink:href="#m219da94a98" y="356.4"/>
      </g>
     </g>
     <g id="line2d_21">
      <g>
       <use style="fill:#262626;stroke:#262626;" x="462.6" xlink:href="#m219da94a98" y="39.6"/>
      </g>
     </g>
     <g id="text_6">
      <!-- 2008 -->
      <g style="fill:#262626;" transform="translate(451.946875 370.646875)scale(0.1 -0.1)">
       <use xlink:href="#LiberationSans-32"/>
       <use x="55.615234375" xlink:href="#LiberationSans-30"/>
       <use x="111.23046875" xlink:href="#LiberationSans-30"/>
       <use x="166.845703125" xlink:href="#LiberationSans-38"/>
      </g>
     </g>
    </g>
    <g id="xtick_8">
     <g id="line2d_22">
      <path clip-path="url(#p3d386a08f4)" d="
M518.4 356.4
L518.4 39.6" style="fill:none;stroke:#ffffff;stroke-linecap:round;"/>
     </g>
     <g id="line2d_23">
      <g>
       <use style="fill:#262626;stroke:#262626;" x="518.4" xlink:href="#m219da94a98" y="356.4"/>
      </g>
     </g>
     <g id="line2d_24">
      <g>
       <use style="fill:#262626;stroke:#262626;" x="518.4" xlink:href="#m219da94a98" y="39.6"/>
      </g>
     </g>
    </g>
    <g id="xtick_9">
     <g id="line2d_25">
      <defs>
       <path d="
M0 0
L0 0" id="m8735711441" style="stroke:#262626;stroke-width:0.5;"/>
      </defs>
      <g>
       <use style="fill:#262626;stroke:#262626;stroke-width:0.5;" x="102.721348315" xlink:href="#m8735711441" y="356.4"/>
      </g>
     </g>
     <g id="line2d_26">
      <g>
       <use style="fill:#262626;stroke:#262626;stroke-width:0.5;" x="102.721348315" xlink:href="#m8735711441" y="39.6"/>
      </g>
     </g>
    </g>
    <g id="xtick_10">
     <g id="line2d_27">
      <g>
       <use style="fill:#262626;stroke:#262626;stroke-width:0.5;" x="135.323595506" xlink:href="#m8735711441" y="356.4"/>
      </g>
     </g>
     <g id="line2d_28">
      <g>
       <use style="fill:#262626;stroke:#262626;stroke-width:0.5;" x="135.323595506" xlink:href="#m8735711441" y="39.6"/>
      </g>
     </g>
    </g>
    <g id="xtick_11">
     <g id="line2d_29">
      <g>
       <use style="fill:#262626;stroke:#262626;stroke-width:0.5;" x="167.925842697" xlink:href="#m8735711441" y="356.4"/>
      </g>
     </g>
     <g id="line2d_30">
      <g>
       <use style="fill:#262626;stroke:#262626;stroke-width:0.5;" x="167.925842697" xlink:href="#m8735711441" y="39.6"/>
      </g>
     </g>
    </g>
    <g id="xtick_12">
     <g id="line2d_31">
      <g>
       <use style="fill:#262626;stroke:#262626;stroke-width:0.5;" x="200.528089888" xlink:href="#m8735711441" y="356.4"/>
      </g>
     </g>
     <g id="line2d_32">
      <g>
       <use style="fill:#262626;stroke:#262626;stroke-width:0.5;" x="200.528089888" xlink:href="#m8735711441" y="39.6"/>
      </g>
     </g>
    </g>
    <g id="xtick_13">
     <g id="line2d_33">
      <g>
       <use style="fill:#262626;stroke:#262626;stroke-width:0.5;" x="233.130337079" xlink:href="#m8735711441" y="356.4"/>
      </g>
     </g>
     <g id="line2d_34">
      <g>
       <use style="fill:#262626;stroke:#262626;stroke-width:0.5;" x="233.130337079" xlink:href="#m8735711441" y="39.6"/>
      </g>
     </g>
    </g>
    <g id="xtick_14">
     <g id="line2d_35">
      <g>
       <use style="fill:#262626;stroke:#262626;stroke-width:0.5;" x="266.359550562" xlink:href="#m8735711441" y="356.4"/>
      </g>
     </g>
     <g id="line2d_36">
      <g>
       <use style="fill:#262626;stroke:#262626;stroke-width:0.5;" x="266.359550562" xlink:href="#m8735711441" y="39.6"/>
      </g>
     </g>
    </g>
    <g id="xtick_15">
     <g id="line2d_37">
      <g>
       <use style="fill:#262626;stroke:#262626;stroke-width:0.5;" x="298.961797753" xlink:href="#m8735711441" y="356.4"/>
      </g>
     </g>
     <g id="line2d_38">
      <g>
       <use style="fill:#262626;stroke:#262626;stroke-width:0.5;" x="298.961797753" xlink:href="#m8735711441" y="39.6"/>
      </g>
     </g>
    </g>
    <g id="xtick_16">
     <g id="line2d_39">
      <g>
       <use style="fill:#262626;stroke:#262626;stroke-width:0.5;" x="331.564044944" xlink:href="#m8735711441" y="356.4"/>
      </g>
     </g>
     <g id="line2d_40">
      <g>
       <use style="fill:#262626;stroke:#262626;stroke-width:0.5;" x="331.564044944" xlink:href="#m8735711441" y="39.6"/>
      </g>
     </g>
    </g>
    <g id="xtick_17">
     <g id="line2d_41">
      <g>
       <use style="fill:#262626;stroke:#262626;stroke-width:0.5;" x="364.166292135" xlink:href="#m8735711441" y="356.4"/>
      </g>
     </g>
     <g id="line2d_42">
      <g>
       <use style="fill:#262626;stroke:#262626;stroke-width:0.5;" x="364.166292135" xlink:href="#m8735711441" y="39.6"/>
      </g>
     </g>
    </g>
    <g id="xtick_18">
     <g id="line2d_43">
      <g>
       <use style="fill:#262626;stroke:#262626;stroke-width:0.5;" x="396.768539326" xlink:href="#m8735711441" y="356.4"/>
      </g>
     </g>
     <g id="line2d_44">
      <g>
       <use style="fill:#262626;stroke:#262626;stroke-width:0.5;" x="396.768539326" xlink:href="#m8735711441" y="39.6"/>
      </g>
     </g>
    </g>
    <g id="xtick_19">
     <g id="line2d_45">
      <g>
       <use style="fill:#262626;stroke:#262626;stroke-width:0.5;" x="429.370786517" xlink:href="#m8735711441" y="356.4"/>
      </g>
     </g>
     <g id="line2d_46">
      <g>
       <use style="fill:#262626;stroke:#262626;stroke-width:0.5;" x="429.370786517" xlink:href="#m8735711441" y="39.6"/>
      </g>
     </g>
    </g>
    <g id="xtick_20">
     <g id="line2d_47">
      <g>
       <use style="fill:#262626;stroke:#262626;stroke-width:0.5;" x="462.6" xlink:href="#m8735711441" y="356.4"/>
      </g>
     </g>
     <g id="line2d_48">
      <g>
       <use style="fill:#262626;stroke:#262626;stroke-width:0.5;" x="462.6" xlink:href="#m8735711441" y="39.6"/>
      </g>
     </g>
    </g>
    <g id="xtick_21">
     <g id="line2d_49">
      <g>
       <use style="fill:#262626;stroke:#262626;stroke-width:0.5;" x="495.202247191" xlink:href="#m8735711441" y="356.4"/>
      </g>
     </g>
     <g id="line2d_50">
      <g>
       <use style="fill:#262626;stroke:#262626;stroke-width:0.5;" x="495.202247191" xlink:href="#m8735711441" y="39.6"/>
      </g>
     </g>
    </g>
    <g id="text_7">
     <!-- time -->
     <defs>
      <path d="
M37.5 0
L37.5 33.5
Q37.5 37.3594 37.0156 39.9375
Q36.5312 42.5312 35.375 44.1094
Q34.2344 45.7031 32.375 46.3594
Q30.5156 47.0156 27.8281 47.0156
Q25.0469 47.0156 22.7969 45.9219
Q20.5625 44.8281 18.9688 42.75
Q17.3906 40.6719 16.5312 37.625
Q15.6719 34.5781 15.6719 30.6094
L15.6719 0
L6.9375 0
L6.9375 41.5469
Q6.9375 43.2188 6.90625 45.0469
Q6.89062 46.875 6.82812 48.5
Q6.78125 50.1406 6.73438 51.3125
Q6.6875 52.4844 6.64062 52.8281
L14.9375 52.8281
Q14.9844 52.5938 15.0312 51.5156
Q15.0938 50.4375 15.1562 49.0469
Q15.2344 47.6562 15.2812 46.2188
Q15.3281 44.7812 15.3281 43.7969
L15.4844 43.7969
Q16.6562 46.0938 18.0156 47.9531
Q19.3906 49.8125 21.2188 51.0938
Q23.0469 52.3906 25.4062 53.0938
Q27.7812 53.8125 30.9062 53.8125
Q36.9219 53.8125 40.4062 51.4219
Q43.8906 49.0312 45.2656 43.7969
L45.4062 43.7969
Q46.5781 46.0938 48.0469 47.9531
Q49.5156 49.8125 51.4688 51.0938
Q53.4219 52.3906 55.8594 53.0938
Q58.2969 53.8125 61.4219 53.8125
Q65.4375 53.8125 68.3281 52.7344
Q71.2344 51.6562 73.0938 49.4062
Q74.9531 47.1719 75.8281 43.625
Q76.7031 40.0938 76.7031 35.2031
L76.7031 0
L68.0156 0
L68.0156 33.5
Q68.0156 37.3594 67.5312 39.9375
Q67.0469 42.5312 65.8906 44.1094
Q64.75 45.7031 62.8906 46.3594
Q61.0312 47.0156 58.3438 47.0156
Q55.5625 47.0156 53.3125 45.9688
Q51.0781 44.9219 49.4844 42.875
Q47.9062 40.8281 47.0469 37.75
Q46.1875 34.6719 46.1875 30.6094
L46.1875 0
z
" id="LiberationSans-6d"/>
      <path d="
M13.4844 24.5625
Q13.4844 20.4062 14.3281 16.9062
Q15.1875 13.4219 16.9688 10.9062
Q18.75 8.40625 21.5312 7
Q24.3125 5.60938 28.2188 5.60938
Q33.9375 5.60938 37.375 7.90625
Q40.8281 10.2031 42.0469 13.7188
L49.75 11.5312
Q48.9219 9.32812 47.4375 7.10938
Q45.9531 4.89062 43.4531 3.09375
Q40.9688 1.3125 37.2344 0.15625
Q33.5 -0.984375 28.2188 -0.984375
Q16.5 -0.984375 10.375 6
Q4.25 12.9844 4.25 26.7656
Q4.25 34.1875 6.09375 39.3281
Q7.95312 44.4844 11.1719 47.7031
Q14.4062 50.9219 18.7031 52.3594
Q23 53.8125 27.875 53.8125
Q34.5156 53.8125 38.9844 51.6562
Q43.4531 49.5156 46.1562 45.7188
Q48.875 41.9375 50.0156 36.8125
Q51.1719 31.6875 51.1719 25.7344
L51.1719 24.5625
z

M42.0938 31.2969
Q41.3594 39.6562 37.8438 43.4844
Q34.3281 47.3125 27.7344 47.3125
Q25.5312 47.3125 23.1094 46.6094
Q20.7031 45.9062 18.6562 44.0938
Q16.6094 42.2812 15.1875 39.1719
Q13.7656 36.0781 13.5781 31.2969
z
" id="LiberationSans-65"/>
      <path d="
M6.6875 64.0625
L6.6875 72.4688
L15.4844 72.4688
L15.4844 64.0625
z

M6.6875 0
L6.6875 52.8281
L15.4844 52.8281
L15.4844 0
z
" id="LiberationSans-69"/>
      <path d="
M27.0469 0.390625
Q25.0469 -0.140625 22.9688 -0.453125
Q20.9062 -0.78125 18.1719 -0.78125
Q7.625 -0.78125 7.625 11.1875
L7.625 46.4375
L1.51562 46.4375
L1.51562 52.8281
L7.95312 52.8281
L10.5469 64.6562
L16.4062 64.6562
L16.4062 52.8281
L26.1719 52.8281
L26.1719 46.4375
L16.4062 46.4375
L16.4062 13.0938
Q16.4062 9.28125 17.6406 7.73438
Q18.8906 6.20312 21.9688 6.20312
Q23.25 6.20312 24.4375 6.39062
Q25.6406 6.59375 27.0469 6.89062
z
" id="LiberationSans-74"/>
     </defs>
     <g style="fill:#262626;" transform="translate(285.137578125 385.6934375)scale(0.11 -0.11)">
      <use xlink:href="#LiberationSans-74"/>
      <use x="27.783203125" xlink:href="#LiberationSans-69"/>
      <use x="50.0" xlink:href="#LiberationSans-6d"/>
      <use x="133.30078125" xlink:href="#LiberationSans-65"/>
     </g>
    </g>
   </g>
   <g id="matplotlib.axis_2">
    <g id="ytick_1">
     <g id="line2d_51">
      <path clip-path="url(#p3d386a08f4)" d="
M72 356.4
L518.4 356.4" style="fill:none;stroke:#ffffff;stroke-linecap:round;"/>
     </g>
     <g id="line2d_52">
      <g>
       <use style="fill:#262626;stroke:#262626;" x="72.0" xlink:href="#m219da94a98" y="356.4"/>
      </g>
     </g>
     <g id="line2d_53">
      <g>
       <use style="fill:#262626;stroke:#262626;" x="518.4" xlink:href="#m219da94a98" y="356.4"/>
      </g>
     </g>
     <g id="text_8">
      <!-- 0.0 -->
      <defs>
       <path d="
M9.125 0
L9.125 10.6875
L18.6562 10.6875
L18.6562 0
z
" id="LiberationSans-2e"/>
      </defs>
      <g style="fill:#262626;" transform="translate(51.88125 358.9859375)scale(0.1 -0.1)">
       <use xlink:href="#LiberationSans-30"/>
       <use x="55.615234375" xlink:href="#LiberationSans-2e"/>
       <use x="83.3984375" xlink:href="#LiberationSans-30"/>
      </g>
     </g>
    </g>
    <g id="ytick_2">
     <g id="line2d_54">
      <path clip-path="url(#p3d386a08f4)" d="
M72 293.04
L518.4 293.04" style="fill:none;stroke:#ffffff;stroke-linecap:round;"/>
     </g>
     <g id="line2d_55">
      <g>
       <use style="fill:#262626;stroke:#262626;" x="72.0" xlink:href="#m219da94a98" y="293.04"/>
      </g>
     </g>
     <g id="line2d_56">
      <g>
       <use style="fill:#262626;stroke:#262626;" x="518.4" xlink:href="#m219da94a98" y="293.04"/>
      </g>
     </g>
     <g id="text_9">
      <!-- 0.2 -->
      <g style="fill:#262626;" transform="translate(51.9921875 295.6259375)scale(0.1 -0.1)">
       <use xlink:href="#LiberationSans-30"/>
       <use x="55.615234375" xlink:href="#LiberationSans-2e"/>
       <use x="83.3984375" xlink:href="#LiberationSans-32"/>
      </g>
     </g>
    </g>
    <g id="ytick_3">
     <g id="line2d_57">
      <path clip-path="url(#p3d386a08f4)" d="
M72 229.68
L518.4 229.68" style="fill:none;stroke:#ffffff;stroke-linecap:round;"/>
     </g>
     <g id="line2d_58">
      <g>
       <use style="fill:#262626;stroke:#262626;" x="72.0" xlink:href="#m219da94a98" y="229.68"/>
      </g>
     </g>
     <g id="line2d_59">
      <g>
       <use style="fill:#262626;stroke:#262626;" x="518.4" xlink:href="#m219da94a98" y="229.68"/>
      </g>
     </g>
     <g id="text_10">
      <!-- 0.4 -->
      <g style="fill:#262626;" transform="translate(51.7828125 232.2659375)scale(0.1 -0.1)">
       <use xlink:href="#LiberationSans-30"/>
       <use x="55.615234375" xlink:href="#LiberationSans-2e"/>
       <use x="83.3984375" xlink:href="#LiberationSans-34"/>
      </g>
     </g>
    </g>
    <g id="ytick_4">
     <g id="line2d_60">
      <path clip-path="url(#p3d386a08f4)" d="
M72 166.32
L518.4 166.32" style="fill:none;stroke:#ffffff;stroke-linecap:round;"/>
     </g>
     <g id="line2d_61">
      <g>
       <use style="fill:#262626;stroke:#262626;" x="72.0" xlink:href="#m219da94a98" y="166.32"/>
      </g>
     </g>
     <g id="line2d_62">
      <g>
       <use style="fill:#262626;stroke:#262626;" x="518.4" xlink:href="#m219da94a98" y="166.32"/>
      </g>
     </g>
     <g id="text_11">
      <!-- 0.6 -->
      <g style="fill:#262626;" transform="translate(51.9296875 168.9059375)scale(0.1 -0.1)">
       <use xlink:href="#LiberationSans-30"/>
       <use x="55.615234375" xlink:href="#LiberationSans-2e"/>
       <use x="83.3984375" xlink:href="#LiberationSans-36"/>
      </g>
     </g>
    </g>
    <g id="ytick_5">
     <g id="line2d_63">
      <path clip-path="url(#p3d386a08f4)" d="
M72 102.96
L518.4 102.96" style="fill:none;stroke:#ffffff;stroke-linecap:round;"/>
     </g>
     <g id="line2d_64">
      <g>
       <use style="fill:#262626;stroke:#262626;" x="72.0" xlink:href="#m219da94a98" y="102.96"/>
      </g>
     </g>
     <g id="line2d_65">
      <g>
       <use style="fill:#262626;stroke:#262626;" x="518.4" xlink:href="#m219da94a98" y="102.96"/>
      </g>
     </g>
     <g id="text_12">
      <!-- 0.8 -->
      <g style="fill:#262626;" transform="translate(51.925 105.5459375)scale(0.1 -0.1)">
       <use xlink:href="#LiberationSans-30"/>
       <use x="55.615234375" xlink:href="#LiberationSans-2e"/>
       <use x="83.3984375" xlink:href="#LiberationSans-38"/>
      </g>
     </g>
    </g>
    <g id="ytick_6">
     <g id="line2d_66">
      <path clip-path="url(#p3d386a08f4)" d="
M72 39.6
L518.4 39.6" style="fill:none;stroke:#ffffff;stroke-linecap:round;"/>
     </g>
     <g id="line2d_67">
      <g>
       <use style="fill:#262626;stroke:#262626;" x="72.0" xlink:href="#m219da94a98" y="39.6"/>
      </g>
     </g>
     <g id="line2d_68">
      <g>
       <use style="fill:#262626;stroke:#262626;" x="518.4" xlink:href="#m219da94a98" y="39.6"/>
      </g>
     </g>
     <g id="text_13">
      <!-- 1.0 -->
      <g style="fill:#262626;" transform="translate(52.253125 42.1859375)scale(0.1 -0.1)">
       <use xlink:href="#LiberationSans-31"/>
       <use x="55.615234375" xlink:href="#LiberationSans-2e"/>
       <use x="83.3984375" xlink:href="#LiberationSans-30"/>
      </g>
     </g>
    </g>
   </g>
   <g id="PolyCollection_1">
    <defs>
     <path d="
M72 -352.687
L72 -77.4903
L72.627 -77.49
L73.2539 -77.4897
L73.8809 -77.4894
L74.5079 -77.4891
L75.1348 -77.4888
L75.7618 -77.4885
L76.3888 -77.4882
L77.0157 -77.4878
L77.6427 -77.4874
L78.2697 -77.4871
L78.8966 -77.4868
L79.5236 -77.4866
L80.1506 -77.4864
L80.7775 -77.4862
L81.4045 -77.486
L82.0315 -77.4858
L82.6584 -77.4857
L83.2854 -77.4855
L83.9124 -77.4853
L84.5393 -77.4851
L85.1663 -77.485
L85.7933 -77.4848
L86.4202 -77.4846
L87.0472 -77.4845
L87.6742 -77.4843
L87.6742 -349.38
L87.6742 -349.38
L87.0472 -349.405
L86.4202 -349.438
L85.7933 -349.485
L85.1663 -349.549
L84.5393 -349.627
L83.9124 -349.725
L83.2854 -349.854
L82.6584 -350.016
L82.0315 -350.199
L81.4045 -350.407
L80.7775 -350.678
L80.1506 -351.081
L79.5236 -351.462
L78.8966 -351.749
L78.2697 -351.997
L77.6427 -352.267
L77.0157 -352.454
L76.3888 -352.548
L75.7618 -352.601
L75.1348 -352.631
L74.5079 -352.653
L73.8809 -352.668
L73.2539 -352.678
L72.627 -352.684
L72 -352.687
z
" id="m28f0660406" style="stroke:#000000;stroke-opacity:0.2;stroke-width:0.3;"/>
    </defs>
    <g clip-path="url(#p3d386a08f4)">
     <use style="fill:#0000ff;fill-opacity:0.2;stroke:#000000;stroke-opacity:0.2;stroke-width:0.3;" x="0.0" xlink:href="#m28f0660406" y="396.0"/>
    </g>
   </g>
   <g id="PolyCollection_2">
    <defs>
     <path d="
M72 -41.1452
L72 -39.8785
L72.627 -39.8765
L73.2539 -39.8735
L73.8809 -39.8683
L74.5079 -39.8608
L75.1348 -39.8518
L75.7618 -39.8406
L76.3888 -39.8251
L77.0157 -39.8057
L77.6427 -39.7822
L78.2697 -39.762
L78.8966 -39.7508
L79.5236 -39.7439
L80.1506 -39.74
L80.7775 -39.7376
L81.4045 -39.7363
L82.0315 -39.7355
L82.6584 -39.7348
L83.2854 -39.7343
L83.9124 -39.7338
L84.5393 -39.7334
L85.1663 -39.733
L85.7933 -39.7326
L86.4202 -39.7322
L87.0472 -39.7319
L87.6742 -39.7316
L87.6742 -40.8825
L87.6742 -40.8825
L87.0472 -40.8829
L86.4202 -40.8834
L85.7933 -40.8842
L85.1663 -40.8855
L84.5393 -40.8873
L83.9124 -40.8897
L83.2854 -40.8933
L82.6584 -40.8983
L82.0315 -40.9049
L81.4045 -40.9132
L80.7775 -40.9254
L80.1506 -40.9457
L79.5236 -40.9711
L78.8966 -41.0036
L78.2697 -41.0389
L77.6427 -41.0788
L77.0157 -41.106
L76.3888 -41.1204
L75.7618 -41.1288
L75.1348 -41.1339
L74.5079 -41.1376
L73.8809 -41.1406
L73.2539 -41.1427
L72.627 -41.1441
L72 -41.1452
z
" id="mdfbdfcb5f8" style="stroke:#000000;stroke-opacity:0.2;stroke-width:0.3;"/>
    </defs>
    <g clip-path="url(#p3d386a08f4)">
     <use style="fill:#008000;fill-opacity:0.2;stroke:#000000;stroke-opacity:0.2;stroke-width:0.3;" x="0.0" xlink:href="#mdfbdfcb5f8" y="396.0"/>
    </g>
   </g>
   <g id="PolyCollection_3">
    <defs>
     <path d="
M133.443 -40.5619
L133.443 -40.3387
L134.07 -40.3382
L134.697 -40.3375
L135.324 -40.336
L135.951 -40.3323
L136.578 -40.3268
L137.204 -40.321
L137.831 -40.3159
L138.458 -40.3112
L139.085 -40.3062
L139.712 -40.3006
L140.339 -40.2921
L140.966 -40.2758
L141.593 -40.2305
L142.22 -40.1207
L142.847 -39.9322
L143.474 -39.8028
L144.101 -39.7773
L144.728 -39.769
L145.355 -39.7662
L145.982 -39.7648
L146.609 -39.7642
L147.236 -39.764
L147.863 -39.7638
L148.49 -39.7638
L149.117 -39.7638
L149.744 -39.7638
L150.371 -39.7638
L150.998 -39.7638
L151.625 -39.7638
L152.252 -39.7638
L152.879 -39.7638
L153.506 -39.7638
L154.133 -39.7638
L154.76 -39.7637
L155.387 -39.7637
L156.013 -39.7637
L156.64 -39.7637
L157.267 -39.7637
L157.894 -39.7637
L158.521 -39.7637
L159.148 -39.7637
L159.775 -39.7637
L159.775 -39.8189
L159.775 -39.8189
L159.148 -39.8189
L158.521 -39.8189
L157.894 -39.8189
L157.267 -39.8189
L156.64 -39.8189
L156.013 -39.8189
L155.387 -39.8189
L154.76 -39.8189
L154.133 -39.8189
L153.506 -39.8189
L152.879 -39.8189
L152.252 -39.8189
L151.625 -39.8189
L150.998 -39.8189
L150.371 -39.8189
L149.744 -39.8189
L149.117 -39.8189
L148.49 -39.819
L147.863 -39.819
L147.236 -39.8192
L146.609 -39.8196
L145.982 -39.8204
L145.355 -39.8226
L144.728 -39.8266
L144.101 -39.8387
L143.474 -39.873
L142.847 -40.0321
L142.22 -40.2795
L141.593 -40.4233
L140.966 -40.4982
L140.339 -40.5167
L139.712 -40.5253
L139.085 -40.5309
L138.458 -40.5357
L137.831 -40.5402
L137.204 -40.5452
L136.578 -40.5507
L135.951 -40.5559
L135.324 -40.5593
L134.697 -40.5608
L134.07 -40.5614
L133.443 -40.5619
z
" id="m4fd34ef790" style="stroke:#000000;stroke-opacity:0.2;stroke-width:0.3;"/>
    </defs>
    <g clip-path="url(#p3d386a08f4)">
     <use style="fill:#ff0000;fill-opacity:0.2;stroke:#000000;stroke-opacity:0.2;stroke-width:0.3;" x="0.0" xlink:href="#m4fd34ef790" y="396.0"/>
    </g>
   </g>
   <g id="PolyCollection_4">
    <defs>
     <path d="
M166.672 -40.0844
L166.672 -39.9489
L167.299 -39.9476
L167.926 -39.9448
L168.553 -39.9397
L169.18 -39.9352
L169.807 -39.9308
L170.434 -39.9239
L171.061 -39.9125
L171.688 -39.8994
L172.315 -39.8844
L172.942 -39.8691
L173.569 -39.8556
L174.196 -39.8466
L174.822 -39.8332
L175.449 -39.8103
L176.076 -39.7813
L176.703 -39.7692
L177.33 -39.7644
L177.957 -39.7622
L178.584 -39.7606
L179.211 -39.7595
L179.838 -39.7586
L180.465 -39.758
L181.092 -39.7574
L181.719 -39.757
L182.346 -39.7565
L182.973 -39.756
L183.6 -39.7556
L184.227 -39.7551
L184.854 -39.7546
L185.481 -39.754
L186.108 -39.7534
L186.735 -39.753
L187.362 -39.7525
L187.989 -39.752
L187.989 -39.8663
L187.989 -39.8663
L187.362 -39.8663
L186.735 -39.8664
L186.108 -39.8665
L185.481 -39.8665
L184.854 -39.8666
L184.227 -39.8667
L183.6 -39.8668
L182.973 -39.8669
L182.346 -39.867
L181.719 -39.8672
L181.092 -39.8675
L180.465 -39.868
L179.838 -39.8689
L179.211 -39.8704
L178.584 -39.873
L177.957 -39.8775
L177.33 -39.8842
L176.703 -39.8985
L176.076 -39.9271
L175.449 -39.9833
L174.822 -40.0189
L174.196 -40.0347
L173.569 -40.0452
L172.942 -40.0534
L172.315 -40.0605
L171.688 -40.0661
L171.061 -40.0703
L170.434 -40.0735
L169.807 -40.0757
L169.18 -40.0777
L168.553 -40.0797
L167.926 -40.0821
L167.299 -40.0835
L166.672 -40.0844
z
" id="m0fd16bdd43" style="stroke:#000000;stroke-opacity:0.2;stroke-width:0.3;"/>
    </defs>
    <g clip-path="url(#p3d386a08f4)">
     <use style="fill:#00bfbf;fill-opacity:0.2;stroke:#000000;stroke-opacity:0.2;stroke-width:0.3;" x="0.0" xlink:href="#m0fd16bdd43" y="396.0"/>
    </g>
   </g>
   <g id="PolyCollection_5">
    <defs>
     <path d="
M198.647 -347.568
L198.647 -40.1165
L199.274 -40.1158
L199.901 -40.1145
L200.528 -40.1118
L201.155 -40.1077
L201.782 -40.101
L202.409 -40.0926
L203.036 -40.0833
L203.663 -40.0751
L204.29 -40.0679
L204.917 -40.0611
L205.544 -40.0549
L206.171 -40.049
L206.798 -40.0428
L207.425 -40.0358
L208.052 -40.0273
L208.679 -40.0187
L209.306 -40.011
L209.933 -40.0043
L210.56 -39.9982
L211.187 -39.9923
L211.813 -39.9872
L212.44 -39.9828
L213.067 -39.9794
L213.694 -39.9769
L214.321 -39.9753
L214.948 -39.9741
L215.575 -39.9733
L216.202 -39.9726
L216.829 -39.9721
L217.456 -39.9717
L218.083 -39.9713
L218.71 -39.9709
L219.337 -39.9705
L219.964 -39.9702
L220.591 -39.9698
L221.218 -39.9694
L221.845 -39.9689
L222.472 -39.9685
L223.099 -39.9681
L223.726 -39.9676
L224.353 -39.967
L224.353 -347.356
L224.353 -347.356
L223.726 -347.357
L223.099 -347.358
L222.472 -347.359
L221.845 -347.36
L221.218 -347.362
L220.591 -347.363
L219.964 -347.364
L219.337 -347.365
L218.71 -347.367
L218.083 -347.37
L217.456 -347.372
L216.829 -347.375
L216.202 -347.379
L215.575 -347.385
L214.948 -347.392
L214.321 -347.401
L213.694 -347.412
L213.067 -347.427
L212.44 -347.443
L211.813 -347.46
L211.187 -347.476
L210.56 -347.489
L209.933 -347.501
L209.306 -347.511
L208.679 -347.52
L208.052 -347.528
L207.425 -347.535
L206.798 -347.54
L206.171 -347.543
L205.544 -347.546
L204.917 -347.549
L204.29 -347.551
L203.663 -347.554
L203.036 -347.557
L202.409 -347.56
L201.782 -347.563
L201.155 -347.565
L200.528 -347.566
L199.901 -347.567
L199.274 -347.568
L198.647 -347.568
z
" id="m6662afbfcf" style="stroke:#000000;stroke-opacity:0.2;stroke-width:0.3;"/>
    </defs>
    <g clip-path="url(#p3d386a08f4)">
     <use style="fill:#bf00bf;fill-opacity:0.2;stroke:#000000;stroke-opacity:0.2;stroke-width:0.3;" x="0.0" xlink:href="#m6662afbfcf" y="396.0"/>
    </g>
   </g>
   <g id="PolyCollection_6">
    <defs>
     <path d="
M231.876 -44.5817
L231.876 -43.8674
L232.503 -43.8666
L233.13 -43.8656
L233.757 -43.8633
L234.384 -43.8562
L235.011 -43.8357
L235.638 -43.7755
L236.265 -43.6697
L236.892 -43.5456
L237.519 -43.4475
L238.146 -43.374
L238.773 -43.3066
L239.4 -43.2355
L240.027 -43.1611
L240.654 -43.083
L241.281 -42.9911
L241.908 -42.8935
L242.535 -42.8068
L243.162 -42.727
L243.789 -42.6542
L244.416 -42.5937
L245.043 -42.5537
L245.67 -42.5306
L246.297 -42.5169
L246.924 -42.5073
L247.551 -42.5002
L248.178 -42.4956
L248.804 -42.4928
L249.431 -42.491
L250.058 -42.4899
L250.685 -42.4892
L251.312 -42.4888
L251.939 -42.4885
L252.566 -42.4882
L253.193 -42.488
L253.82 -42.4879
L254.447 -42.4877
L255.074 -42.4875
L255.074 -43.0995
L255.074 -43.0995
L254.447 -43.0996
L253.82 -43.0998
L253.193 -43.0999
L252.566 -43.1002
L251.939 -43.1005
L251.312 -43.1009
L250.685 -43.1016
L250.058 -43.1028
L249.431 -43.1046
L248.804 -43.1076
L248.178 -43.1123
L247.551 -43.1201
L246.924 -43.1317
L246.297 -43.1473
L245.67 -43.1692
L245.043 -43.2052
L244.416 -43.2658
L243.789 -43.3549
L243.162 -43.4575
L242.535 -43.5646
L241.908 -43.6751
L241.281 -43.7923
L240.654 -43.8957
L240.027 -43.9782
L239.4 -44.0523
L238.773 -44.1195
L238.146 -44.1804
L237.519 -44.2443
L236.892 -44.3267
L236.265 -44.4274
L235.638 -44.5107
L235.011 -44.5572
L234.384 -44.5729
L233.757 -44.5784
L233.13 -44.5802
L232.503 -44.581
L231.876 -44.5817
z
" id="m02cc37f0df" style="stroke:#000000;stroke-opacity:0.2;stroke-width:0.3;"/>
    </defs>
    <g clip-path="url(#p3d386a08f4)">
     <use style="fill:#bfbf00;fill-opacity:0.2;stroke:#000000;stroke-opacity:0.2;stroke-width:0.3;" x="0.0" xlink:href="#m02cc37f0df" y="396.0"/>
    </g>
   </g>
   <g id="PolyCollection_7">
    <defs>
     <path d="
M255.701 -56.2579
L255.701 -47.352
L256.328 -47.3478
L256.955 -47.344
L257.582 -47.34
L258.209 -47.3351
L258.836 -47.3283
L259.463 -47.3197
L260.09 -47.3112
L260.717 -47.3029
L261.344 -47.2946
L261.971 -47.2846
L262.598 -47.2719
L263.225 -47.2536
L263.852 -47.2228
L264.479 -47.1742
L265.106 -47.0934
L265.733 -46.9454
L266.36 -46.6785
L266.987 -46.0685
L267.613 -45.1206
L268.24 -44.3344
L268.867 -43.8534
L269.494 -43.5905
L270.121 -43.4407
L270.748 -43.3509
L271.375 -43.2938
L272.002 -43.2571
L272.629 -43.2368
L273.256 -43.2268
L273.883 -43.2222
L274.51 -43.2201
L275.137 -43.2189
L275.764 -43.2183
L276.391 -43.2179
L277.018 -43.2177
L277.645 -43.2175
L278.272 -43.2174
L278.899 -43.2173
L279.526 -43.2172
L280.153 -43.217
L280.78 -43.2169
L281.407 -43.2167
L282.034 -43.2166
L282.661 -43.2164
L283.288 -43.2162
L283.915 -43.216
L284.542 -43.2158
L285.169 -43.2156
L285.796 -43.2154
L286.422 -43.2151
L287.049 -43.2149
L287.049 -49.6186
L287.049 -49.6186
L286.422 -49.6186
L285.796 -49.6187
L285.169 -49.6187
L284.542 -49.6188
L283.915 -49.6188
L283.288 -49.6188
L282.661 -49.6189
L282.034 -49.6189
L281.407 -49.6189
L280.78 -49.619
L280.153 -49.619
L279.526 -49.6191
L278.899 -49.6192
L278.272 -49.6194
L277.645 -49.6199
L277.018 -49.6207
L276.391 -49.6221
L275.764 -49.6246
L275.137 -49.6295
L274.51 -49.639
L273.883 -49.6563
L273.256 -49.69
L272.629 -49.7579
L272.002 -49.8802
L271.375 -50.0717
L270.748 -50.3267
L270.121 -50.6687
L269.494 -51.1521
L268.867 -51.8577
L268.24 -52.8885
L267.613 -54.1511
L266.987 -55.2484
L266.36 -55.7841
L265.733 -55.9834
L265.106 -56.0853
L264.479 -56.1385
L263.852 -56.1696
L263.225 -56.1891
L262.598 -56.2007
L261.971 -56.2088
L261.344 -56.2153
L260.717 -56.2208
L260.09 -56.2265
L259.463 -56.2323
L258.836 -56.2385
L258.209 -56.2435
L257.582 -56.2473
L256.955 -56.2507
L256.328 -56.254
L255.701 -56.2579
z
" id="m6ff4b3a9ec" style="stroke:#000000;stroke-opacity:0.2;stroke-width:0.3;"/>
    </defs>
    <g clip-path="url(#p3d386a08f4)">
     <use style="fill-opacity:0.2;stroke:#000000;stroke-opacity:0.2;stroke-width:0.3;" x="0.0" xlink:href="#m6ff4b3a9ec" y="396.0"/>
    </g>
   </g>
   <g id="PolyCollection_8">
    <defs>
     <path d="
M384.229 -47.0566
L384.229 -43.2675
L384.856 -43.2671
L385.483 -43.2668
L386.11 -43.2665
L386.737 -43.2661
L387.364 -43.2657
L387.991 -43.2652
L388.618 -43.2647
L389.245 -43.2642
L389.872 -43.2636
L390.499 -43.2629
L391.126 -43.2621
L391.753 -43.2612
L392.38 -43.2603
L393.007 -43.2587
L393.634 -43.2554
L394.261 -43.25
L394.888 -43.244
L395.515 -43.2382
L396.142 -43.2318
L396.769 -43.2233
L397.396 -43.2085
L398.022 -43.1806
L398.649 -43.1363
L399.276 -43.0822
L399.903 -43.0273
L400.53 -42.9777
L401.157 -42.9338
L401.784 -42.8919
L402.411 -42.8506
L403.038 -42.8114
L403.665 -42.777
L404.292 -42.7478
L404.919 -42.7245
L405.546 -42.7071
L406.173 -42.6946
L406.8 -42.6854
L407.427 -42.6785
L408.054 -42.6736
L408.681 -42.6701
L409.308 -42.6677
L409.935 -42.666
L410.562 -42.6648
L411.189 -42.6639
L411.816 -42.6632
L412.443 -42.6627
L413.07 -42.6623
L413.697 -42.662
L414.324 -42.6618
L414.951 -42.6616
L414.951 -46.2845
L414.951 -46.2845
L414.324 -46.2851
L413.697 -46.2858
L413.07 -46.2867
L412.443 -46.288
L411.816 -46.2898
L411.189 -46.2919
L410.562 -46.2943
L409.935 -46.2975
L409.308 -46.3017
L408.681 -46.3074
L408.054 -46.3155
L407.427 -46.3263
L406.8 -46.3405
L406.173 -46.3586
L405.546 -46.382
L404.919 -46.4128
L404.292 -46.4517
L403.665 -46.4976
L403.038 -46.5483
L402.411 -46.6028
L401.784 -46.6567
L401.157 -46.7083
L400.53 -46.7597
L399.903 -46.8152
L399.276 -46.8741
L398.649 -46.9298
L398.022 -46.974
L397.396 -47.0011
L396.769 -47.0153
L396.142 -47.0233
L395.515 -47.0294
L394.888 -47.0348
L394.261 -47.0403
L393.634 -47.0453
L393.007 -47.0483
L392.38 -47.0497
L391.753 -47.0507
L391.126 -47.0515
L390.499 -47.0522
L389.872 -47.0529
L389.245 -47.0534
L388.618 -47.054
L387.991 -47.0544
L387.364 -47.0548
L386.737 -47.0553
L386.11 -47.0557
L385.483 -47.056
L384.856 -47.0562
L384.229 -47.0566
z
" id="m3a53735459" style="stroke:#000000;stroke-opacity:0.2;stroke-width:0.3;"/>
    </defs>
    <g clip-path="url(#p3d386a08f4)">
     <use style="fill:#0000ff;fill-opacity:0.2;stroke:#000000;stroke-opacity:0.2;stroke-width:0.3;" x="0.0" xlink:href="#m3a53735459" y="396.0"/>
    </g>
   </g>
   <g id="PolyCollection_9">
    <defs>
     <path d="
M420.593 -51.4583
L420.593 -45.5308
L421.22 -45.5296
L421.847 -45.5282
L422.474 -45.5266
L423.101 -45.5248
L423.728 -45.5229
L424.355 -45.5211
L424.982 -45.5189
L425.609 -45.5162
L426.236 -45.5128
L426.863 -45.508
L427.49 -45.5016
L428.117 -45.4936
L428.744 -45.4837
L429.371 -45.4724
L429.998 -45.4589
L430.625 -45.4417
L431.252 -45.4165
L431.879 -45.3832
L432.506 -45.3447
L433.133 -45.3058
L433.76 -45.2638
L434.387 -45.2137
L435.013 -45.1522
L435.64 -45.0835
L436.267 -45.018
L436.894 -44.9589
L437.521 -44.9044
L438.148 -44.8531
L438.775 -44.8088
L439.402 -44.7727
L440.029 -44.743
L440.656 -44.717
L441.283 -44.6958
L441.91 -44.6804
L442.537 -44.6697
L443.164 -44.6617
L443.791 -44.6552
L444.418 -44.6499
L445.045 -44.6458
L445.672 -44.6428
L446.299 -44.6404
L446.926 -44.6384
L447.553 -44.6369
L448.18 -44.6357
L448.807 -44.6348
L449.434 -44.634
L450.061 -44.6334
L450.061 -50.3974
L450.061 -50.3974
L449.434 -50.3996
L448.807 -50.402
L448.18 -50.4047
L447.553 -50.408
L446.926 -50.4125
L446.299 -50.4179
L445.672 -50.4241
L445.045 -50.4314
L444.418 -50.4412
L443.791 -50.4532
L443.164 -50.4671
L442.537 -50.4834
L441.91 -50.5041
L441.283 -50.5326
L440.656 -50.5695
L440.029 -50.6123
L439.402 -50.6584
L438.775 -50.7111
L438.148 -50.7722
L437.521 -50.8389
L436.894 -50.9055
L436.267 -50.9741
L435.64 -51.046
L435.013 -51.1176
L434.387 -51.1788
L433.76 -51.2266
L433.133 -51.2652
L432.506 -51.3002
L431.879 -51.3339
L431.252 -51.3624
L430.625 -51.3838
L429.998 -51.3981
L429.371 -51.4092
L428.744 -51.4185
L428.117 -51.4267
L427.49 -51.4332
L426.863 -51.4385
L426.236 -51.4425
L425.609 -51.4453
L424.982 -51.4475
L424.355 -51.4494
L423.728 -51.451
L423.101 -51.4527
L422.474 -51.4543
L421.847 -51.4558
L421.22 -51.457
L420.593 -51.4583
z
" id="m0eea38d27f" style="stroke:#000000;stroke-opacity:0.2;stroke-width:0.3;"/>
    </defs>
    <g clip-path="url(#p3d386a08f4)">
     <use style="fill:#008000;fill-opacity:0.2;stroke:#000000;stroke-opacity:0.2;stroke-width:0.3;" x="0.0" xlink:href="#m0eea38d27f" y="396.0"/>
    </g>
   </g>
   <g id="PolyCollection_10">
    <defs>
     <path d="
M450.688 -82.248
L450.688 -81.5508
L451.315 -81.5468
L451.942 -81.5424
L452.569 -81.5379
L453.196 -81.5332
L453.822 -81.5283
L454.449 -81.5218
L455.076 -81.5124
L455.703 -81.5006
L456.33 -81.4857
L456.957 -81.4674
L457.584 -81.4443
L458.211 -81.4132
L458.838 -81.3769
L459.465 -81.3338
L460.092 -81.2814
L460.719 -81.2184
L461.346 -81.1343
L461.973 -81.0058
L462.6 -80.8146
L463.227 -80.5725
L463.854 -80.3399
L464.481 -80.1382
L465.108 -79.9422
L465.735 -79.703
L466.362 -79.3891
L466.989 -79.001
L467.616 -78.5383
L468.243 -78.0109
L468.87 -77.4109
L469.497 -76.7406
L470.124 -76.1257
L470.751 -75.6543
L471.378 -75.3464
L472.004 -75.1469
L472.631 -75.0183
L473.258 -74.9388
L473.885 -74.8918
L474.512 -74.8626
L475.139 -74.8435
L475.766 -74.8299
L476.393 -74.8207
L477.02 -74.8148
L477.647 -74.8105
L478.274 -74.8075
L478.901 -74.805
L479.528 -74.8028
L480.155 -74.8009
L480.782 -74.7993
L481.409 -74.7981
L482.036 -74.797
L482.663 -74.7959
L483.29 -74.7949
L483.29 -75.4274
L483.29 -75.4274
L482.663 -75.4285
L482.036 -75.4296
L481.409 -75.4307
L480.782 -75.432
L480.155 -75.4336
L479.528 -75.4355
L478.901 -75.4378
L478.274 -75.4404
L477.647 -75.4434
L477.02 -75.4478
L476.393 -75.4538
L475.766 -75.4633
L475.139 -75.4771
L474.512 -75.4966
L473.885 -75.5264
L473.258 -75.5743
L472.631 -75.6552
L472.004 -75.786
L471.378 -75.9888
L470.751 -76.3015
L470.124 -76.7798
L469.497 -77.4029
L468.87 -78.0812
L468.243 -78.6875
L467.616 -79.2198
L466.989 -79.6864
L466.362 -80.0772
L465.735 -80.3931
L465.108 -80.6336
L464.481 -80.8306
L463.854 -81.0333
L463.227 -81.2668
L462.6 -81.5098
L461.973 -81.7017
L461.346 -81.8306
L460.719 -81.9149
L460.092 -81.978
L459.465 -82.0306
L458.838 -82.0737
L458.211 -82.1101
L457.584 -82.1412
L456.957 -82.1645
L456.33 -82.1827
L455.703 -82.1977
L455.076 -82.2096
L454.449 -82.2189
L453.822 -82.2254
L453.196 -82.2304
L452.569 -82.2351
L451.942 -82.2396
L451.315 -82.2439
L450.688 -82.248
z
" id="mf738784fcf" style="stroke:#000000;stroke-opacity:0.2;stroke-width:0.3;"/>
    </defs>
    <g clip-path="url(#p3d386a08f4)">
     <use style="fill:#ff0000;fill-opacity:0.2;stroke:#000000;stroke-opacity:0.2;stroke-width:0.3;" x="0.0" xlink:href="#mf738784fcf" y="396.0"/>
    </g>
   </g>
   <g id="PolyCollection_11">
    <defs>
     <path d="
M483.917 -51.9312
L483.917 -40.6644
L484.544 -40.6619
L485.171 -40.6594
L485.798 -40.6566
L486.425 -40.6532
L487.052 -40.6488
L487.679 -40.6433
L488.306 -40.6373
L488.933 -40.6305
L489.56 -40.6228
L490.187 -40.613
L490.813 -40.6009
L491.44 -40.5877
L492.067 -40.5731
L492.694 -40.5597
L493.321 -40.5467
L493.948 -40.5276
L494.575 -40.5081
L495.202 -40.4916
L495.829 -40.4789
L496.456 -40.4687
L497.083 -40.4583
L497.71 -40.4495
L498.337 -40.4417
L498.964 -40.4364
L499.591 -40.4324
L500.218 -40.4293
L500.845 -40.4264
L501.472 -40.4243
L502.099 -40.4223
L502.726 -40.4209
L503.353 -40.4197
L503.98 -40.4187
L504.607 -40.4178
L505.234 -40.4171
L505.861 -40.4163
L506.488 -40.4156
L507.115 -40.4148
L507.742 -40.4141
L508.369 -40.4134
L508.996 -40.4126
L509.622 -40.4118
L510.249 -40.4109
L510.876 -40.41
L511.503 -40.409
L512.13 -40.4081
L512.757 -40.4075
L513.384 -40.4069
L514.011 -40.4064
L514.638 -40.4058
L515.265 -40.4052
L515.892 -40.4044
L516.519 -40.4037
L517.146 -40.4028
L517.773 -40.402
L518.4 -40.4012
L518.4 -51.5133
L518.4 -51.5133
L517.773 -51.5142
L517.146 -51.5151
L516.519 -51.5162
L515.892 -51.5172
L515.265 -51.5182
L514.638 -51.5191
L514.011 -51.5202
L513.384 -51.5212
L512.757 -51.5226
L512.13 -51.5244
L511.503 -51.527
L510.876 -51.5296
L510.249 -51.5326
L509.622 -51.5352
L508.996 -51.538
L508.369 -51.5407
L507.742 -51.5436
L507.115 -51.5467
L506.488 -51.5506
L505.861 -51.5543
L505.234 -51.5588
L504.607 -51.5632
L503.98 -51.5693
L503.353 -51.576
L502.726 -51.5847
L502.099 -51.5942
L501.472 -51.6064
L500.845 -51.6187
L500.218 -51.6335
L499.591 -51.6475
L498.964 -51.6641
L498.337 -51.6831
L497.71 -51.7072
L497.083 -51.73
L496.456 -51.7525
L495.829 -51.7711
L495.202 -51.7894
L494.575 -51.8089
L493.948 -51.8279
L493.321 -51.8437
L492.694 -51.8559
L492.067 -51.8673
L491.44 -51.8787
L490.813 -51.8883
L490.187 -51.8965
L489.56 -51.903
L488.933 -51.9078
L488.306 -51.9122
L487.679 -51.916
L487.052 -51.9195
L486.425 -51.9225
L485.798 -51.9248
L485.171 -51.927
L484.544 -51.929
L483.917 -51.9312
z
" id="m20984a6ab7" style="stroke:#000000;stroke-opacity:0.2;stroke-width:0.3;"/>
    </defs>
    <g clip-path="url(#p3d386a08f4)">
     <use style="fill:#00bfbf;fill-opacity:0.2;stroke:#000000;stroke-opacity:0.2;stroke-width:0.3;" x="0.0" xlink:href="#m20984a6ab7" y="396.0"/>
    </g>
   </g>
   <g id="line2d_69">
    <path clip-path="url(#p3d386a08f4)" d="
M72 133.184
L72.627 133.186
L73.2539 133.189
L73.8809 133.193
L74.5079 133.199
L75.1348 133.204
L75.7618 133.211
L76.3888 133.22
L77.0157 133.232
L77.6427 133.248
L78.2697 133.266
L78.8966 133.279
L79.5236 133.29
L80.1506 133.299
L80.7775 133.305
L81.4045 133.309
L82.0315 133.312
L82.6584 133.315
L83.2854 133.318
L83.9124 133.321
L84.5393 133.323
L85.1663 133.325
L85.7933 133.327
L86.4202 133.328
L87.0472 133.33
L87.6742 133.331" style="fill:none;stroke:#000000;stroke-linecap:round;stroke-width:1.75;"/>
   </g>
   <g id="line2d_70">
    <path clip-path="url(#p3d386a08f4)" d="
M72 355.794
L72.627 355.795
L73.2539 355.796
L73.8809 355.799
L74.5079 355.802
L75.1348 355.806
L75.7618 355.811
L76.3888 355.82
L77.0157 355.834
L77.6427 355.859
L78.2697 355.892
L78.8966 355.917
L79.5236 355.936
L80.1506 355.95
L80.7775 355.96
L81.4045 355.965
L82.0315 355.968
L82.6584 355.971
L83.2854 355.972
L83.9124 355.973
L84.5393 355.974
L85.1663 355.974
L85.7933 355.975
L86.4202 355.975
L87.0472 355.975
L87.6742 355.975" style="fill:none;stroke:#000000;stroke-linecap:round;stroke-width:1.75;"/>
   </g>
   <g id="line2d_71">
    <path clip-path="url(#p3d386a08f4)" d="
M133.443 355.521
L134.07 355.521
L134.697 355.522
L135.324 355.524
L135.951 355.528
L136.578 355.535
L137.204 355.542
L137.831 355.548
L138.458 355.554
L139.085 355.56
L139.712 355.567
L140.339 355.577
L140.966 355.597
L141.593 355.652
L142.22 355.78
L142.847 356.004
L143.474 356.16
L144.101 356.191
L144.728 356.2
L145.355 356.204
L145.982 356.205
L146.609 356.206
L147.236 356.206
L147.863 356.206
L148.49 356.207
L149.117 356.207
L149.744 356.207
L150.371 356.207
L150.998 356.207
L151.625 356.207
L152.252 356.207
L152.879 356.207
L153.506 356.207
L154.133 356.207
L154.76 356.207
L155.387 356.207
L156.013 356.207
L156.64 356.207
L157.267 356.207
L157.894 356.207
L158.521 356.207
L159.148 356.207
L159.775 356.207" style="fill:none;stroke:#000000;stroke-linecap:round;stroke-width:1.75;"/>
   </g>
   <g id="line2d_72">
    <path clip-path="url(#p3d386a08f4)" d="
M166.672 356.003
L167.299 356.004
L167.926 356.005
L168.553 356.008
L169.18 356.011
L169.807 356.013
L170.434 356.016
L171.061 356.021
L171.688 356.026
L172.315 356.035
L172.942 356.044
L173.569 356.055
L174.196 356.067
L174.822 356.085
L175.449 356.117
L176.076 356.16
L176.703 356.18
L177.33 356.189
L177.957 356.194
L178.584 356.197
L179.211 356.198
L179.838 356.199
L180.465 356.2
L181.092 356.2
L181.719 356.2
L182.346 356.201
L182.973 356.201
L183.6 356.201
L184.227 356.201
L184.854 356.201
L185.481 356.201
L186.108 356.201
L186.735 356.202
L187.362 356.202
L187.989 356.202" style="fill:none;stroke:#000000;stroke-linecap:round;stroke-width:1.75;"/>
   </g>
   <g id="line2d_73">
    <path clip-path="url(#p3d386a08f4)" d="
M198.647 216.359
L199.274 216.359
L199.901 216.36
L200.528 216.361
L201.155 216.362
L201.782 216.364
L202.409 216.366
L203.036 216.369
L203.663 216.372
L204.29 216.375
L204.917 216.377
L205.544 216.38
L206.171 216.383
L206.798 216.386
L207.425 216.39
L208.052 216.396
L208.679 216.404
L209.306 216.413
L209.933 216.422
L210.56 216.433
L211.187 216.446
L211.813 216.46
L212.44 216.476
L213.067 216.491
L213.694 216.505
L214.321 216.516
L214.948 216.524
L215.575 216.531
L216.202 216.536
L216.829 216.539
L217.456 216.542
L218.083 216.545
L218.71 216.547
L219.337 216.549
L219.964 216.55
L220.591 216.551
L221.218 216.552
L221.845 216.553
L222.472 216.554
L223.099 216.555
L223.726 216.556
L224.353 216.557" style="fill:none;stroke:#000000;stroke-linecap:round;stroke-width:1.75;"/>
   </g>
   <g id="line2d_74">
    <path clip-path="url(#p3d386a08f4)" d="
M231.876 351.799
L232.503 351.8
L233.13 351.801
L233.757 351.803
L234.384 351.808
L235.011 351.824
L235.638 351.875
L236.265 351.982
L236.892 352.107
L237.519 352.188
L238.146 352.251
L238.773 352.315
L239.4 352.389
L240.027 352.468
L240.654 352.551
L241.281 352.646
L241.908 352.753
L242.535 352.852
L243.162 352.946
L243.789 353.032
L244.416 353.102
L245.043 353.148
L245.67 353.175
L246.297 353.191
L246.924 353.205
L247.551 353.215
L248.178 353.221
L248.804 353.225
L249.431 353.228
L250.058 353.229
L250.685 353.23
L251.312 353.231
L251.939 353.231
L252.566 353.231
L253.193 353.232
L253.82 353.232
L254.447 353.232
L255.074 353.232" style="fill:none;stroke:#000000;stroke-linecap:round;stroke-width:1.75;"/>
   </g>
   <g id="line2d_75">
    <path clip-path="url(#p3d386a08f4)" d="
M255.701 345.919
L256.328 345.923
L256.955 345.927
L257.582 345.931
L258.209 345.936
L258.836 345.942
L259.463 345.95
L260.09 345.958
L260.717 345.966
L261.344 345.974
L261.971 345.983
L262.598 345.995
L263.225 346.013
L263.852 346.042
L264.479 346.088
L265.106 346.167
L265.733 346.313
L266.36 346.586
L266.987 347.25
L267.613 348.387
L268.24 349.431
L268.867 350.123
L269.494 350.523
L270.121 350.762
L270.748 350.91
L271.375 351.009
L272.002 351.074
L272.629 351.112
L273.256 351.131
L273.883 351.14
L274.51 351.144
L275.137 351.146
L275.764 351.147
L276.391 351.148
L277.018 351.148
L277.645 351.149
L278.272 351.149
L278.899 351.149
L279.526 351.149
L280.153 351.149
L280.78 351.149
L281.407 351.149
L282.034 351.15
L282.661 351.15
L283.288 351.15
L283.915 351.15
L284.542 351.15
L285.169 351.15
L285.796 351.151
L286.422 351.151
L287.049 351.151" style="fill:none;stroke:#000000;stroke-linecap:round;stroke-width:1.75;"/>
   </g>
   <g id="line2d_76">
    <path clip-path="url(#p3d386a08f4)" d="
M384.229 351.449
L384.856 351.45
L385.483 351.45
L386.11 351.45
L386.737 351.451
L387.364 351.451
L387.991 351.452
L388.618 351.452
L389.245 351.453
L389.872 351.453
L390.499 351.454
L391.126 351.455
L391.753 351.455
L392.38 351.456
L393.007 351.458
L393.634 351.461
L394.261 351.466
L394.888 351.472
L395.515 351.477
L396.142 351.483
L396.769 351.491
L397.396 351.505
L398.022 351.532
L398.649 351.575
L399.276 351.629
L399.903 351.685
L400.53 351.736
L401.157 351.783
L401.784 351.829
L402.411 351.875
L403.038 351.921
L403.665 351.962
L404.292 351.999
L404.919 352.028
L405.546 352.051
L406.173 352.068
L406.8 352.081
L407.427 352.091
L408.054 352.098
L408.681 352.103
L409.308 352.107
L409.935 352.109
L410.562 352.111
L411.189 352.113
L411.816 352.114
L412.443 352.115
L413.07 352.116
L413.697 352.116
L414.324 352.116
L414.951 352.117" style="fill:none;stroke:#000000;stroke-linecap:round;stroke-width:1.75;"/>
   </g>
   <g id="line2d_77">
    <path clip-path="url(#p3d386a08f4)" d="
M420.593 347.985
L421.22 347.987
L421.847 347.988
L422.474 347.989
L423.101 347.991
L423.728 347.993
L424.355 347.994
L424.982 347.996
L425.609 347.999
L426.236 348.001
L426.863 348.005
L427.49 348.011
L428.117 348.017
L428.744 348.025
L429.371 348.034
L429.998 348.045
L430.625 348.059
L431.252 348.08
L431.879 348.108
L432.506 348.141
L433.133 348.175
L433.76 348.212
L434.387 348.257
L435.013 348.315
L435.64 348.393
L436.267 348.47
L436.894 348.54
L437.521 348.607
L438.148 348.671
L438.775 348.729
L439.402 348.773
L440.029 348.81
L440.656 348.844
L441.283 348.873
L441.91 348.895
L442.537 348.91
L443.164 348.922
L443.791 348.932
L444.418 348.941
L445.045 348.947
L445.672 348.952
L446.299 348.957
L446.926 348.96
L447.553 348.963
L448.18 348.965
L448.807 348.967
L449.434 348.968
L450.061 348.97" style="fill:none;stroke:#000000;stroke-linecap:round;stroke-width:1.75;"/>
   </g>
   <g id="line2d_78">
    <path clip-path="url(#p3d386a08f4)" d="
M450.688 314.393
L451.315 314.397
L451.942 314.401
L452.569 314.406
L453.196 314.41
L453.822 314.415
L454.449 314.422
L455.076 314.431
L455.703 314.443
L456.33 314.458
L456.957 314.476
L457.584 314.499
L458.211 314.53
L458.838 314.567
L459.465 314.61
L460.092 314.662
L460.719 314.725
L461.346 314.809
L461.973 314.937
L462.6 315.128
L463.227 315.37
L463.854 315.603
L464.481 315.804
L465.108 316
L465.735 316.239
L466.362 316.553
L466.989 316.941
L467.616 317.404
L468.243 317.931
L468.87 318.531
L469.497 319.201
L470.124 319.817
L470.751 320.289
L471.378 320.597
L472.004 320.797
L472.631 320.926
L473.258 321.005
L473.885 321.052
L474.512 321.082
L475.139 321.101
L475.766 321.114
L476.393 321.124
L477.02 321.13
L477.647 321.134
L478.274 321.137
L478.901 321.139
L479.528 321.142
L480.155 321.143
L480.782 321.145
L481.409 321.146
L482.036 321.147
L482.663 321.149
L483.29 321.15" style="fill:none;stroke:#000000;stroke-linecap:round;stroke-width:1.75;"/>
   </g>
   <g id="line2d_79">
    <path clip-path="url(#p3d386a08f4)" d="
M483.917 353.642
L484.544 353.644
L485.171 353.646
L485.798 353.648
L486.425 353.651
L487.052 353.655
L487.679 353.659
L488.306 353.664
L488.933 353.669
L489.56 353.673
L490.187 353.679
L490.813 353.688
L491.44 353.697
L492.067 353.707
L492.694 353.717
L493.321 353.728
L493.948 353.742
L494.575 353.76
L495.202 353.776
L495.829 353.793
L496.456 353.809
L497.083 353.827
L497.71 353.843
L498.337 353.861
L498.964 353.874
L499.591 353.884
L500.218 353.892
L500.845 353.9
L501.472 353.906
L502.099 353.912
L502.726 353.916
L503.353 353.92
L503.98 353.923
L504.607 353.925
L505.234 353.927
L505.861 353.929
L506.488 353.93
L507.115 353.932
L507.742 353.933
L508.369 353.934
L508.996 353.935
L509.622 353.936
L510.249 353.937
L510.876 353.938
L511.503 353.939
L512.13 353.94
L512.757 353.94
L513.384 353.941
L514.011 353.941
L514.638 353.941
L515.265 353.941
L515.892 353.942
L516.519 353.942
L517.146 353.943
L517.773 353.943
L518.4 353.943" style="fill:none;stroke:#000000;stroke-linecap:round;stroke-width:1.75;"/>
   </g>
   <g id="patch_3">
    <path d="
M72 39.6
L518.4 39.6" style="fill:none;"/>
   </g>
   <g id="patch_4">
    <path d="
M518.4 356.4
L518.4 39.6" style="fill:none;"/>
   </g>
   <g id="patch_5">
    <path d="
M72 356.4
L518.4 356.4" style="fill:none;"/>
   </g>
   <g id="patch_6">
    <path d="
M72 356.4
L72 39.6" style="fill:none;"/>
   </g>
  </g>
 </g>
 <defs>
  <clipPath id="p3d386a08f4">
   <rect height="316.8" width="446.4" x="72.0" y="39.6"/>
  </clipPath>
 </defs>
</svg>
