<?xml version="1.0" encoding="utf-8" standalone="no"?>
<!DOCTYPE svg PUBLIC "-//W3C//DTD SVG 1.1//EN"
  "http://www.w3.org/Graphics/SVG/1.1/DTD/svg11.dtd">
<!-- Created with matplotlib (http://matplotlib.org/) -->
<svg height="396pt" version="1.1" viewBox="0 0 576 396" width="576pt" xmlns="http://www.w3.org/2000/svg" xmlns:xlink="http://www.w3.org/1999/xlink">
 <defs>
  <style type="text/css">
*{stroke-linecap:butt;stroke-linejoin:round;}
  </style>
 </defs>
 <g id="figure_1">
  <g id="patch_1">
   <path d="
M0 396
L576 396
L576 0
L0 0
z
" style="fill:#ffffff;"/>
  </g>
  <g id="axes_1">
   <g id="patch_2">
    <path d="
M72 356.4
L518.4 356.4
L518.4 39.6
L72 39.6
z
" style="fill:#eaeaf2;"/>
   </g>
   <g id="matplotlib.axis_1">
    <g id="xtick_1">
     <g id="line2d_1">
      <path clip-path="url(#p3d386a08f4)" d="
M72 356.4
L72 39.6" style="fill:none;stroke:#ffffff;stroke-linecap:round;"/>
     </g>
     <g id="line2d_2">
      <defs>
       <path d="
M0 0
L0 0" id="m219da94a98" style="stroke:#262626;"/>
      </defs>
      <g>
       <use style="fill:#262626;stroke:#262626;" x="72.0" xlink:href="#m219da94a98" y="356.4"/>
      </g>
     </g>
     <g id="line2d_3">
      <g>
       <use style="fill:#262626;stroke:#262626;" x="72.0" xlink:href="#m219da94a98" y="39.6"/>
      </g>
     </g>
    </g>
    <g id="xtick_2">
     <g id="line2d_4">
      <path clip-path="url(#p3d386a08f4)" d="
M135.324 356.4
L135.324 39.6" style="fill:none;stroke:#ffffff;stroke-linecap:round;"/>
     </g>
     <g id="line2d_5">
      <g>
       <use style="fill:#262626;stroke:#262626;" x="135.323595506" xlink:href="#m219da94a98" y="356.4"/>
      </g>
     </g>
     <g id="line2d_6">
      <g>
       <use style="fill:#262626;stroke:#262626;" x="135.323595506" xlink:href="#m219da94a98" y="39.6"/>
      </g>
     </g>
     <g id="text_1">
      <!-- 1998 -->
      <defs>
       <path d="
M50.875 35.7969
Q50.875 26.6094 49.1406 19.7031
Q47.4062 12.7969 44.1875 8.20312
Q40.9688 3.60938 36.3438 1.3125
Q31.7344 -0.984375 25.9844 -0.984375
Q22.0156 -0.984375 18.8438 -0.171875
Q15.6719 0.640625 13.1719 2.34375
Q10.6875 4.04688 8.92188 6.78125
Q7.17188 9.51562 6.10938 13.375
L14.5 14.7031
Q15.875 10.25 18.7812 8.17188
Q21.6875 6.10938 26.125 6.10938
Q29.6875 6.10938 32.6406 7.78125
Q35.5938 9.46875 37.6719 12.8438
Q39.75 16.2188 40.9219 21.2969
Q42.0938 26.375 42.1875 33.2031
Q41.1562 30.9062 39.375 29.0938
Q37.5938 27.2969 35.3281 26.0469
Q33.0625 24.8125 30.4219 24.1406
Q27.7812 23.4844 25.0938 23.4844
Q20.4062 23.4844 16.625 25.1719
Q12.8438 26.8594 10.2031 29.875
Q7.5625 32.9062 6.125 37.1719
Q4.6875 41.4531 4.6875 46.6875
Q4.6875 52 6.21875 56.2969
Q7.76562 60.5938 10.6875 63.5938
Q13.625 66.6094 17.8906 68.2188
Q22.1719 69.8281 27.5938 69.8281
Q39.0625 69.8281 44.9688 61.3281
Q50.875 52.8281 50.875 35.7969
M41.3125 44.2812
Q41.3125 48.0938 40.4062 51.4531
Q39.5 54.8281 37.7188 57.3125
Q35.9375 59.8125 33.3281 61.25
Q30.7188 62.7031 27.2969 62.7031
Q24.125 62.7031 21.5781 61.5781
Q19.0469 60.4531 17.2812 58.375
Q15.5312 56.2969 14.5781 53.3125
Q13.625 50.3438 13.625 46.6875
Q13.625 43.2188 14.4688 40.2344
Q15.3281 37.25 17.0312 35.0781
Q18.75 32.9062 21.2812 31.6562
Q23.8281 30.4219 27.2031 30.4219
Q29.6406 30.4219 32.1562 31.25
Q34.6719 32.0781 36.6875 33.7812
Q38.7188 35.5 40.0156 38.1094
Q41.3125 40.7188 41.3125 44.2812" id="LiberationSans-39"/>
       <path d="
M7.625 0
L7.625 7.46875
L25.1406 7.46875
L25.1406 60.4062
L9.625 49.3125
L9.625 57.625
L25.875 68.7969
L33.9844 68.7969
L33.9844 7.46875
L50.7344 7.46875
L50.7344 0
z
" id="LiberationSans-31"/>
       <path d="
M51.2656 19.1875
Q51.2656 14.7969 49.875 11.1094
Q48.4844 7.42188 45.625 4.73438
Q42.7812 2.04688 38.3281 0.53125
Q33.8906 -0.984375 27.8281 -0.984375
Q21.7812 -0.984375 17.3594 0.53125
Q12.9375 2.04688 10.0312 4.70312
Q7.125 7.375 5.73438 11.0625
Q4.34375 14.75 4.34375 19.0938
Q4.34375 22.8594 5.48438 25.7812
Q6.64062 28.7188 8.5625 30.8281
Q10.5 32.9531 12.9688 34.25
Q15.4375 35.5469 18.0625 35.9844
L18.0625 36.1875
Q15.1875 36.8594 12.9062 38.375
Q10.6406 39.8906 9.09375 42.0156
Q7.5625 44.1406 6.75 46.7188
Q5.95312 49.3125 5.95312 52.2031
Q5.95312 55.8125 7.34375 59
Q8.73438 62.2031 11.4688 64.625
Q14.2031 67.0469 18.25 68.4375
Q22.3125 69.8281 27.6406 69.8281
Q33.25 69.8281 37.375 68.4062
Q41.5 67 44.2031 64.5781
Q46.9219 62.1562 48.2344 58.9375
Q49.5625 55.7188 49.5625 52.0938
Q49.5625 49.2656 48.75 46.6719
Q47.9531 44.0938 46.4062 41.9688
Q44.875 39.8438 42.5938 38.3438
Q40.3281 36.8594 37.3594 36.2812
L37.3594 36.0781
Q40.3281 35.5938 42.8594 34.2969
Q45.4062 33.0156 47.2656 30.8906
Q49.125 28.7656 50.1875 25.8281
Q51.2656 22.9062 51.2656 19.1875
M40.4375 51.6094
Q40.4375 54.2031 39.7656 56.3438
Q39.1094 58.5 37.5938 60.0312
Q36.0781 61.5781 33.6406 62.4219
Q31.2031 63.2812 27.6406 63.2812
Q24.1719 63.2812 21.7812 62.4219
Q19.3906 61.5781 17.8438 60.0312
Q16.3125 58.5 15.625 56.3438
Q14.9375 54.2031 14.9375 51.6094
Q14.9375 49.5625 15.4688 47.4062
Q16.0156 45.2656 17.4219 43.5
Q18.8438 41.75 21.3281 40.625
Q23.8281 39.5 27.7344 39.5
Q31.8906 39.5 34.4062 40.625
Q36.9219 41.75 38.25 43.5
Q39.5938 45.2656 40.0156 47.4062
Q40.4375 49.5625 40.4375 51.6094
M42.1406 20.0156
Q42.1406 22.5156 41.4531 24.8281
Q40.7656 27.1562 39.1094 28.9375
Q37.4531 30.7188 34.6406 31.8125
Q31.8438 32.9062 27.6406 32.9062
Q23.7812 32.9062 21.0625 31.8125
Q18.3594 30.7188 16.6719 28.9062
Q14.9844 27.0938 14.2031 24.7188
Q13.4219 22.3594 13.4219 19.8281
Q13.4219 16.6562 14.2031 14.0312
Q14.9844 11.4219 16.6875 9.54688
Q18.4062 7.67188 21.1875 6.64062
Q23.9688 5.60938 27.9375 5.60938
Q31.9375 5.60938 34.6719 6.64062
Q37.4062 7.67188 39.0625 9.54688
Q40.7188 11.4219 41.4219 14.0781
Q42.1406 16.75 42.1406 20.0156" id="LiberationSans-38"/>
      </defs>
      <g style="fill:#262626;" transform="translate(124.800158006 370.646875)scale(0.1 -0.1)">
       <use xlink:href="#LiberationSans-31"/>
       <use x="55.615234375" xlink:href="#LiberationSans-39"/>
       <use x="111.23046875" xlink:href="#LiberationSans-39"/>
       <use x="166.845703125" xlink:href="#LiberationSans-38"/>
      </g>
     </g>
    </g>
    <g id="xtick_3">
     <g id="line2d_7">
      <path clip-path="url(#p3d386a08f4)" d="
M200.528 356.4
L200.528 39.6" style="fill:none;stroke:#ffffff;stroke-linecap:round;"/>
     </g>
     <g id="line2d_8">
      <g>
       <use style="fill:#262626;stroke:#262626;" x="200.528089888" xlink:href="#m219da94a98" y="356.4"/>
      </g>
     </g>
     <g id="line2d_9">
      <g>
       <use style="fill:#262626;stroke:#262626;" x="200.528089888" xlink:href="#m219da94a98" y="39.6"/>
      </g>
     </g>
     <g id="text_2">
      <!-- 2000 -->
      <defs>
       <path d="
M5.03125 0
L5.03125 6.20312
Q7.51562 11.9219 11.1094 16.2812
Q14.7031 20.6562 18.6562 24.1875
Q22.6094 27.7344 26.4844 30.7656
Q30.375 33.7969 33.5 36.8125
Q36.625 39.8438 38.5469 43.1562
Q40.4844 46.4844 40.4844 50.6875
Q40.4844 53.6094 39.5938 55.8281
Q38.7188 58.0625 37.0625 59.5625
Q35.4062 61.0781 33.0781 61.8281
Q30.7656 62.5938 27.9375 62.5938
Q25.2969 62.5938 22.9688 61.8594
Q20.6562 61.1406 18.8438 59.6719
Q17.0469 58.2031 15.8906 56.0312
Q14.75 53.8594 14.4062 50.9844
L5.42188 51.8125
Q5.85938 55.5156 7.46875 58.7812
Q9.07812 62.0625 11.9062 64.5312
Q14.75 67 18.7188 68.4062
Q22.7031 69.8281 27.9375 69.8281
Q33.0625 69.8281 37.0625 68.6094
Q41.0625 67.3906 43.8125 64.9844
Q46.5781 62.5938 48.0469 59.0781
Q49.5156 55.5625 49.5156 50.9844
Q49.5156 47.5156 48.2656 44.3906
Q47.0156 41.2656 44.9375 38.4219
Q42.875 35.5938 40.1406 32.9531
Q37.4062 30.3281 34.4219 27.8125
Q31.4531 25.2969 28.4219 22.8281
Q25.3906 20.3594 22.7188 17.8594
Q20.0625 15.375 17.9688 12.8125
Q15.875 10.25 14.7031 7.46875
L50.5938 7.46875
L50.5938 0
z
" id="LiberationSans-32"/>
       <path d="
M51.7031 34.4219
Q51.7031 24.5156 49.8281 17.75
Q47.9531 10.9844 44.7031 6.8125
Q41.4531 2.64062 37.0625 0.828125
Q32.6719 -0.984375 27.6875 -0.984375
Q22.6562 -0.984375 18.3125 0.828125
Q13.9688 2.64062 10.7656 6.78125
Q7.5625 10.9375 5.73438 17.7031
Q3.90625 24.4688 3.90625 34.4219
Q3.90625 44.8281 5.73438 51.6406
Q7.5625 58.4531 10.7812 62.5
Q14.0156 66.5469 18.4062 68.1875
Q22.7969 69.8281 27.9844 69.8281
Q32.9062 69.8281 37.2188 68.1875
Q41.5469 66.5469 44.7656 62.5
Q48 58.4531 49.8438 51.6406
Q51.7031 44.8281 51.7031 34.4219
M42.7812 34.4219
Q42.7812 42.625 41.7969 48.0625
Q40.8281 53.5156 38.9219 56.7656
Q37.0156 60.0156 34.25 61.3594
Q31.5 62.7031 27.9844 62.7031
Q24.2656 62.7031 21.4375 61.3281
Q18.6094 59.9688 16.6719 56.7188
Q14.75 53.4688 13.7656 48.0156
Q12.7969 42.5781 12.7969 34.4219
Q12.7969 26.5156 13.7969 21.0938
Q14.7969 15.6719 16.7188 12.375
Q18.6562 9.07812 21.4375 7.64062
Q24.2188 6.20312 27.7812 6.20312
Q31.25 6.20312 34.0312 7.64062
Q36.8125 9.07812 38.7344 12.375
Q40.6719 15.6719 41.7188 21.0938
Q42.7812 26.5156 42.7812 34.4219" id="LiberationSans-30"/>
      </defs>
      <g style="fill:#262626;" transform="translate(189.853089888 370.646875)scale(0.1 -0.1)">
       <use xlink:href="#LiberationSans-32"/>
       <use x="55.615234375" xlink:href="#LiberationSans-30"/>
       <use x="111.23046875" xlink:href="#LiberationSans-30"/>
       <use x="166.845703125" xlink:href="#LiberationSans-30"/>
      </g>
     </g>
    </g>
    <g id="xtick_4">
     <g id="line2d_10">
      <path clip-path="url(#p3d386a08f4)" d="
M266.36 356.4
L266.36 39.6" style="fill:none;stroke:#ffffff;stroke-linecap:round;"/>
     </g>
     <g id="line2d_11">
      <g>
       <use style="fill:#262626;stroke:#262626;" x="266.359550562" xlink:href="#m219da94a98" y="356.4"/>
      </g>
     </g>
     <g id="line2d_12">
      <g>
       <use style="fill:#262626;stroke:#262626;" x="266.359550562" xlink:href="#m219da94a98" y="39.6"/>
      </g>
     </g>
     <g id="text_3">
      <!-- 2002 -->
      <g style="fill:#262626;" transform="translate(255.740019312 370.646875)scale(0.1 -0.1)">
       <use xlink:href="#LiberationSans-32"/>
       <use x="55.615234375" xlink:href="#LiberationSans-30"/>
       <use x="111.23046875" xlink:href="#LiberationSans-30"/>
       <use x="166.845703125" xlink:href="#LiberationSans-32"/>
      </g>
     </g>
    </g>
    <g id="xtick_5">
     <g id="line2d_13">
      <path clip-path="url(#p3d386a08f4)" d="
M331.564 356.4
L331.564 39.6" style="fill:none;stroke:#ffffff;stroke-linecap:round;"/>
     </g>
     <g id="line2d_14">
      <g>
       <use style="fill:#262626;stroke:#262626;" x="331.564044944" xlink:href="#m219da94a98" y="356.4"/>
      </g>
     </g>
     <g id="line2d_15">
      <g>
       <use style="fill:#262626;stroke:#262626;" x="331.564044944" xlink:href="#m219da94a98" y="39.6"/>
      </g>
     </g>
     <g id="text_4">
      <!-- 2004 -->
      <defs>
       <path d="
M43.0156 15.5781
L43.0156 0
L34.7188 0
L34.7188 15.5781
L2.29688 15.5781
L2.29688 22.4062
L33.7969 68.7969
L43.0156 68.7969
L43.0156 22.5156
L52.6875 22.5156
L52.6875 15.5781
z

M34.7188 58.8906
Q34.625 58.6406 34.2344 57.9375
Q33.8438 57.2344 33.3438 56.3438
Q32.8594 55.4688 32.3438 54.5625
Q31.8438 53.6562 31.4531 53.0781
L13.8125 27.0938
Q13.5781 26.7031 13.1094 26.0625
Q12.6406 25.4375 12.1562 24.7812
Q11.6719 24.125 11.1719 23.4844
Q10.6875 22.8594 10.4062 22.5156
L34.7188 22.5156
z
" id="LiberationSans-34"/>
      </defs>
      <g style="fill:#262626;" transform="translate(320.839826194 370.646875)scale(0.1 -0.1)">
       <use xlink:href="#LiberationSans-32"/>
       <use x="55.615234375" xlink:href="#LiberationSans-30"/>
       <use x="111.23046875" xlink:href="#LiberationSans-30"/>
       <use x="166.845703125" xlink:href="#LiberationSans-34"/>
      </g>
     </g>
    </g>
    <g id="xtick_6">
     <g id="line2d_16">
      <path clip-path="url(#p3d386a08f4)" d="
M396.769 356.4
L396.769 39.6" style="fill:none;stroke:#ffffff;stroke-linecap:round;"/>
     </g>
     <g id="line2d_17">
      <g>
       <use style="fill:#262626;stroke:#262626;" x="396.768539326" xlink:href="#m219da94a98" y="356.4"/>
      </g>
     </g>
     <g id="line2d_18">
      <g>
       <use style="fill:#262626;stroke:#262626;" x="396.768539326" xlink:href="#m219da94a98" y="39.6"/>
      </g>
     </g>
     <g id="text_5">
      <!-- 2006 -->
      <defs>
       <path d="
M51.2188 22.5156
Q51.2188 17.3281 49.7812 13
Q48.3438 8.6875 45.5312 5.57812
Q42.7188 2.48438 38.5625 0.75
Q34.4219 -0.984375 29 -0.984375
Q23 -0.984375 18.5 1.3125
Q14.0156 3.60938 11.0312 7.92188
Q8.0625 12.25 6.5625 18.5312
Q5.07812 24.8125 5.07812 32.8125
Q5.07812 42 6.76562 48.9219
Q8.45312 55.8594 11.625 60.5
Q14.7969 65.1406 19.3594 67.4844
Q23.9219 69.8281 29.6875 69.8281
Q33.2031 69.8281 36.2812 69.0938
Q39.3594 68.3594 41.875 66.7188
Q44.3906 65.0938 46.2812 62.4062
Q48.1875 59.7188 49.3125 55.8125
L40.9219 54.2969
Q39.5469 58.7344 36.5469 60.7188
Q33.5469 62.7031 29.5938 62.7031
Q25.9844 62.7031 23.0469 60.9844
Q20.125 59.2812 18.0625 55.875
Q16.0156 52.4844 14.9062 47.3594
Q13.8125 42.2344 13.8125 35.4062
Q16.2188 39.8438 20.5625 42.1562
Q24.9062 44.4844 30.5156 44.4844
Q35.2031 44.4844 39.0156 42.9688
Q42.8281 41.4531 45.5312 38.5938
Q48.25 35.75 49.7344 31.6719
Q51.2188 27.5938 51.2188 22.5156
M42.2812 22.125
Q42.2812 25.6875 41.4062 28.5625
Q40.5312 31.4531 38.7656 33.4688
Q37.0156 35.5 34.4219 36.5938
Q31.8438 37.7031 28.4219 37.7031
Q26.0312 37.7031 23.5781 36.9844
Q21.1406 36.2812 19.1562 34.6875
Q17.1875 33.1094 15.9375 30.5156
Q14.7031 27.9375 14.7031 24.2188
Q14.7031 20.4062 15.6719 17.1094
Q16.6562 13.8125 18.4844 11.375
Q20.3125 8.9375 22.8906 7.51562
Q25.4844 6.10938 28.7188 6.10938
Q31.8906 6.10938 34.4062 7.20312
Q36.9219 8.29688 38.6719 10.375
Q40.4375 12.4531 41.3594 15.4219
Q42.2812 18.4062 42.2812 22.125" id="LiberationSans-36"/>
      </defs>
      <g style="fill:#262626;" transform="translate(386.117758076 370.646875)scale(0.1 -0.1)">
       <use xlink:href="#LiberationSans-32"/>
       <use x="55.615234375" xlink:href="#LiberationSans-30"/>
       <use x="111.23046875" xlink:href="#LiberationSans-30"/>
       <use x="166.845703125" xlink:href="#LiberationSans-36"/>
      </g>
     </g>
    </g>
    <g id="xtick_7">
     <g id="line2d_19">
      <path clip-path="url(#p3d386a08f4)" d="
M462.6 356.4
L462.6 39.6" style="fill:none;stroke:#ffffff;stroke-linecap:round;"/>
     </g>
     <g id="line2d_20">
      <g>
       <use style="fill:#262626;stroke:#262626;" x="462.6" xlink:href="#m219da94a98" y="356.4"/>
      </g>
     </g>
     <g id="line2d_21">
      <g>
       <use style="fill:#262626;stroke:#262626;" x="462.6" xlink:href="#m219da94a98" y="39.6"/>
      </g>
     </g>
     <g id="text_6">
      <!-- 2008 -->
      <g style="fill:#262626;" transform="translate(451.946875 370.646875)scale(0.1 -0.1)">
       <use xlink:href="#LiberationSans-32"/>
       <use x="55.615234375" xlink:href="#LiberationSans-30"/>
       <use x="111.23046875" xlink:href="#LiberationSans-30"/>
       <use x="166.845703125" xlink:href="#LiberationSans-38"/>
      </g>
     </g>
    </g>
    <g id="xtick_8">
     <g id="line2d_22">
      <path clip-path="url(#p3d386a08f4)" d="
M518.4 356.4
L518.4 39.6" style="fill:none;stroke:#ffffff;stroke-linecap:round;"/>
     </g>
     <g id="line2d_23">
      <g>
       <use style="fill:#262626;stroke:#262626;" x="518.4" xlink:href="#m219da94a98" y="356.4"/>
      </g>
     </g>
     <g id="line2d_24">
      <g>
       <use style="fill:#262626;stroke:#262626;" x="518.4" xlink:href="#m219da94a98" y="39.6"/>
      </g>
     </g>
    </g>
    <g id="xtick_9">
     <g id="line2d_25">
      <defs>
       <path d="
M0 0
L0 0" id="m8735711441" style="stroke:#262626;stroke-width:0.5;"/>
      </defs>
      <g>
       <use style="fill:#262626;stroke:#262626;stroke-width:0.5;" x="102.721348315" xlink:href="#m8735711441" y="356.4"/>
      </g>
     </g>
     <g id="line2d_26">
      <g>
       <use style="fill:#262626;stroke:#262626;stroke-width:0.5;" x="102.721348315" xlink:href="#m8735711441" y="39.6"/>
      </g>
     </g>
    </g>
    <g id="xtick_10">
     <g id="line2d_27">
      <g>
       <use style="fill:#262626;stroke:#262626;stroke-width:0.5;" x="135.323595506" xlink:href="#m8735711441" y="356.4"/>
      </g>
     </g>
     <g id="line2d_28">
      <g>
       <use style="fill:#262626;stroke:#262626;stroke-width:0.5;" x="135.323595506" xlink:href="#m8735711441" y="39.6"/>
      </g>
     </g>
    </g>
    <g id="xtick_11">
     <g id="line2d_29">
      <g>
       <use style="fill:#262626;stroke:#262626;stroke-width:0.5;" x="167.925842697" xlink:href="#m8735711441" y="356.4"/>
      </g>
     </g>
     <g id="line2d_30">
      <g>
       <use style="fill:#262626;stroke:#262626;stroke-width:0.5;" x="167.925842697" xlink:href="#m8735711441" y="39.6"/>
      </g>
     </g>
    </g>
    <g id="xtick_12">
     <g id="line2d_31">
      <g>
       <use style="fill:#262626;stroke:#262626;stroke-width:0.5;" x="200.528089888" xlink:href="#m8735711441" y="356.4"/>
      </g>
     </g>
     <g id="line2d_32">
      <g>
       <use style="fill:#262626;stroke:#262626;stroke-width:0.5;" x="200.528089888" xlink:href="#m8735711441" y="39.6"/>
      </g>
     </g>
    </g>
    <g id="xtick_13">
     <g id="line2d_33">
      <g>
       <use style="fill:#262626;stroke:#262626;stroke-width:0.5;" x="233.130337079" xlink:href="#m8735711441" y="356.4"/>
      </g>
     </g>
     <g id="line2d_34">
      <g>
       <use style="fill:#262626;stroke:#262626;stroke-width:0.5;" x="233.130337079" xlink:href="#m8735711441" y="39.6"/>
      </g>
     </g>
    </g>
    <g id="xtick_14">
     <g id="line2d_35">
      <g>
       <use style="fill:#262626;stroke:#262626;stroke-width:0.5;" x="266.359550562" xlink:href="#m8735711441" y="356.4"/>
      </g>
     </g>
     <g id="line2d_36">
      <g>
       <use style="fill:#262626;stroke:#262626;stroke-width:0.5;" x="266.359550562" xlink:href="#m8735711441" y="39.6"/>
      </g>
     </g>
    </g>
    <g id="xtick_15">
     <g id="line2d_37">
      <g>
       <use style="fill:#262626;stroke:#262626;stroke-width:0.5;" x="298.961797753" xlink:href="#m8735711441" y="356.4"/>
      </g>
     </g>
     <g id="line2d_38">
      <g>
       <use style="fill:#262626;stroke:#262626;stroke-width:0.5;" x="298.961797753" xlink:href="#m8735711441" y="39.6"/>
      </g>
     </g>
    </g>
    <g id="xtick_16">
     <g id="line2d_39">
      <g>
       <use style="fill:#262626;stroke:#262626;stroke-width:0.5;" x="331.564044944" xlink:href="#m8735711441" y="356.4"/>
      </g>
     </g>
     <g id="line2d_40">
      <g>
       <use style="fill:#262626;stroke:#262626;stroke-width:0.5;" x="331.564044944" xlink:href="#m8735711441" y="39.6"/>
      </g>
     </g>
    </g>
    <g id="xtick_17">
     <g id="line2d_41">
      <g>
       <use style="fill:#262626;stroke:#262626;stroke-width:0.5;" x="364.166292135" xlink:href="#m8735711441" y="356.4"/>
      </g>
     </g>
     <g id="line2d_42">
      <g>
       <use style="fill:#262626;stroke:#262626;stroke-width:0.5;" x="364.166292135" xlink:href="#m8735711441" y="39.6"/>
      </g>
     </g>
    </g>
    <g id="xtick_18">
     <g id="line2d_43">
      <g>
       <use style="fill:#262626;stroke:#262626;stroke-width:0.5;" x="396.768539326" xlink:href="#m8735711441" y="356.4"/>
      </g>
     </g>
     <g id="line2d_44">
      <g>
       <use style="fill:#262626;stroke:#262626;stroke-width:0.5;" x="396.768539326" xlink:href="#m8735711441" y="39.6"/>
      </g>
     </g>
    </g>
    <g id="xtick_19">
     <g id="line2d_45">
      <g>
       <use style="fill:#262626;stroke:#262626;stroke-width:0.5;" x="429.370786517" xlink:href="#m8735711441" y="356.4"/>
      </g>
     </g>
     <g id="line2d_46">
      <g>
       <use style="fill:#262626;stroke:#262626;stroke-width:0.5;" x="429.370786517" xlink:href="#m8735711441" y="39.6"/>
      </g>
     </g>
    </g>
    <g id="xtick_20">
     <g id="line2d_47">
      <g>
       <use style="fill:#262626;stroke:#262626;stroke-width:0.5;" x="462.6" xlink:href="#m8735711441" y="356.4"/>
      </g>
     </g>
     <g id="line2d_48">
      <g>
       <use style="fill:#262626;stroke:#262626;stroke-width:0.5;" x="462.6" xlink:href="#m8735711441" y="39.6"/>
      </g>
     </g>
    </g>
    <g id="xtick_21">
     <g id="line2d_49">
      <g>
       <use style="fill:#262626;stroke:#262626;stroke-width:0.5;" x="495.202247191" xlink:href="#m8735711441" y="356.4"/>
      </g>
     </g>
     <g id="line2d_50">
      <g>
       <use style="fill:#262626;stroke:#262626;stroke-width:0.5;" x="495.202247191" xlink:href="#m8735711441" y="39.6"/>
      </g>
     </g>
    </g>
    <g id="text_7">
     <!-- time -->
     <defs>
      <path d="
M37.5 0
L37.5 33.5
Q37.5 37.3594 37.0156 39.9375
Q36.5312 42.5312 35.375 44.1094
Q34.2344 45.7031 32.375 46.3594
Q30.5156 47.0156 27.8281 47.0156
Q25.0469 47.0156 22.7969 45.9219
Q20.5625 44.8281 18.9688 42.75
Q17.3906 40.6719 16.5312 37.625
Q15.6719 34.5781 15.6719 30.6094
L15.6719 0
L6.9375 0
L6.9375 41.5469
Q6.9375 43.2188 6.90625 45.0469
Q6.89062 46.875 6.82812 48.5
Q6.78125 50.1406 6.73438 51.3125
Q6.6875 52.4844 6.64062 52.8281
L14.9375 52.8281
Q14.9844 52.5938 15.0312 51.5156
Q15.0938 50.4375 15.1562 49.0469
Q15.2344 47.6562 15.2812 46.2188
Q15.3281 44.7812 15.3281 43.7969
L15.4844 43.7969
Q16.6562 46.0938 18.0156 47.9531
Q19.3906 49.8125 21.2188 51.0938
Q23.0469 52.3906 25.4062 53.0938
Q27.7812 53.8125 30.9062 53.8125
Q36.9219 53.8125 40.4062 51.4219
Q43.8906 49.0312 45.2656 43.7969
L45.4062 43.7969
Q46.5781 46.0938 48.0469 47.9531
Q49.5156 49.8125 51.4688 51.0938
Q53.4219 52.3906 55.8594 53.0938
Q58.2969 53.8125 61.4219 53.8125
Q65.4375 53.8125 68.3281 52.7344
Q71.2344 51.6562 73.0938 49.4062
Q74.9531 47.1719 75.8281 43.625
Q76.7031 40.0938 76.7031 35.2031
L76.7031 0
L68.0156 0
L68.0156 33.5
Q68.0156 37.3594 67.5312 39.9375
Q67.0469 42.5312 65.8906 44.1094
Q64.75 45.7031 62.8906 46.3594
Q61.0312 47.0156 58.3438 47.0156
Q55.5625 47.0156 53.3125 45.9688
Q51.0781 44.9219 49.4844 42.875
Q47.9062 40.8281 47.0469 37.75
Q46.1875 34.6719 46.1875 30.6094
L46.1875 0
z
" id="LiberationSans-6d"/>
      <path d="
M13.4844 24.5625
Q13.4844 20.4062 14.3281 16.9062
Q15.1875 13.4219 16.9688 10.9062
Q18.75 8.40625 21.5312 7
Q24.3125 5.60938 28.2188 5.60938
Q33.9375 5.60938 37.375 7.90625
Q40.8281 10.2031 42.0469 13.7188
L49.75 11.5312
Q48.9219 9.32812 47.4375 7.10938
Q45.9531 4.89062 43.4531 3.09375
Q40.9688 1.3125 37.2344 0.15625
Q33.5 -0.984375 28.2188 -0.984375
Q16.5 -0.984375 10.375 6
Q4.25 12.9844 4.25 26.7656
Q4.25 34.1875 6.09375 39.3281
Q7.95312 44.4844 11.1719 47.7031
Q14.4062 50.9219 18.7031 52.3594
Q23 53.8125 27.875 53.8125
Q34.5156 53.8125 38.9844 51.6562
Q43.4531 49.5156 46.1562 45.7188
Q48.875 41.9375 50.0156 36.8125
Q51.1719 31.6875 51.1719 25.7344
L51.1719 24.5625
z

M42.0938 31.2969
Q41.3594 39.6562 37.8438 43.4844
Q34.3281 47.3125 27.7344 47.3125
Q25.5312 47.3125 23.1094 46.6094
Q20.7031 45.9062 18.6562 44.0938
Q16.6094 42.2812 15.1875 39.1719
Q13.7656 36.0781 13.5781 31.2969
z
" id="LiberationSans-65"/>
      <path d="
M6.6875 64.0625
L6.6875 72.4688
L15.4844 72.4688
L15.4844 64.0625
z

M6.6875 0
L6.6875 52.8281
L15.4844 52.8281
L15.4844 0
z
" id="LiberationSans-69"/>
      <path d="
M27.0469 0.390625
Q25.0469 -0.140625 22.9688 -0.453125
Q20.9062 -0.78125 18.1719 -0.78125
Q7.625 -0.78125 7.625 11.1875
L7.625 46.4375
L1.51562 46.4375
L1.51562 52.8281
L7.95312 52.8281
L10.5469 64.6562
L16.4062 64.6562
L16.4062 52.8281
L26.1719 52.8281
L26.1719 46.4375
L16.4062 46.4375
L16.4062 13.0938
Q16.4062 9.28125 17.6406 7.73438
Q18.8906 6.20312 21.9688 6.20312
Q23.25 6.20312 24.4375 6.39062
Q25.6406 6.59375 27.0469 6.89062
z
" id="LiberationSans-74"/>
     </defs>
     <g style="fill:#262626;" transform="translate(285.137578125 385.6934375)scale(0.11 -0.11)">
      <use xlink:href="#LiberationSans-74"/>
      <use x="27.783203125" xlink:href="#LiberationSans-69"/>
      <use x="50.0" xlink:href="#LiberationSans-6d"/>
      <use x="133.30078125" xlink:href="#LiberationSans-65"/>
     </g>
    </g>
   </g>
   <g id="matplotlib.axis_2">
    <g id="ytick_1">
     <g id="line2d_51">
      <path clip-path="url(#p3d386a08f4)" d="
M72 356.4
L518.4 356.4" style="fill:none;stroke:#ffffff;stroke-linecap:round;"/>
     </g>
     <g id="line2d_52">
      <g>
       <use style="fill:#262626;stroke:#262626;" x="72.0" xlink:href="#m219da94a98" y="356.4"/>
      </g>
     </g>
     <g id="line2d_53">
      <g>
       <use style="fill:#262626;stroke:#262626;" x="518.4" xlink:href="#m219da94a98" y="356.4"/>
      </g>
     </g>
     <g id="text_8">
      <!-- 0.00 -->
      <defs>
       <path d="
M9.125 0
L9.125 10.6875
L18.6562 10.6875
L18.6562 0
z
" id="LiberationSans-2e"/>
      </defs>
      <g style="fill:#262626;" transform="translate(46.3203125 358.9859375)scale(0.1 -0.1)">
       <use xlink:href="#LiberationSans-30"/>
       <use x="55.615234375" xlink:href="#LiberationSans-2e"/>
       <use x="83.3984375" xlink:href="#LiberationSans-30"/>
       <use x="139.013671875" xlink:href="#LiberationSans-30"/>
      </g>
     </g>
    </g>
    <g id="ytick_2">
     <g id="line2d_54">
      <path clip-path="url(#p3d386a08f4)" d="
M72 311.143
L518.4 311.143" style="fill:none;stroke:#ffffff;stroke-linecap:round;"/>
     </g>
     <g id="line2d_55">
      <g>
       <use style="fill:#262626;stroke:#262626;" x="72.0" xlink:href="#m219da94a98" y="311.142857143"/>
      </g>
     </g>
     <g id="line2d_56">
      <g>
       <use style="fill:#262626;stroke:#262626;" x="518.4" xlink:href="#m219da94a98" y="311.142857143"/>
      </g>
     </g>
     <g id="text_9">
      <!-- 0.02 -->
      <g style="fill:#262626;" transform="translate(46.43125 313.728794643)scale(0.1 -0.1)">
       <use xlink:href="#LiberationSans-30"/>
       <use x="55.615234375" xlink:href="#LiberationSans-2e"/>
       <use x="83.3984375" xlink:href="#LiberationSans-30"/>
       <use x="139.013671875" xlink:href="#LiberationSans-32"/>
      </g>
     </g>
    </g>
    <g id="ytick_3">
     <g id="line2d_57">
      <path clip-path="url(#p3d386a08f4)" d="
M72 265.886
L518.4 265.886" style="fill:none;stroke:#ffffff;stroke-linecap:round;"/>
     </g>
     <g id="line2d_58">
      <g>
       <use style="fill:#262626;stroke:#262626;" x="72.0" xlink:href="#m219da94a98" y="265.885714286"/>
      </g>
     </g>
     <g id="line2d_59">
      <g>
       <use style="fill:#262626;stroke:#262626;" x="518.4" xlink:href="#m219da94a98" y="265.885714286"/>
      </g>
     </g>
     <g id="text_10">
      <!-- 0.04 -->
      <g style="fill:#262626;" transform="translate(46.221875 268.471651786)scale(0.1 -0.1)">
       <use xlink:href="#LiberationSans-30"/>
       <use x="55.615234375" xlink:href="#LiberationSans-2e"/>
       <use x="83.3984375" xlink:href="#LiberationSans-30"/>
       <use x="139.013671875" xlink:href="#LiberationSans-34"/>
      </g>
     </g>
    </g>
    <g id="ytick_4">
     <g id="line2d_60">
      <path clip-path="url(#p3d386a08f4)" d="
M72 220.629
L518.4 220.629" style="fill:none;stroke:#ffffff;stroke-linecap:round;"/>
     </g>
     <g id="line2d_61">
      <g>
       <use style="fill:#262626;stroke:#262626;" x="72.0" xlink:href="#m219da94a98" y="220.628571429"/>
      </g>
     </g>
     <g id="line2d_62">
      <g>
       <use style="fill:#262626;stroke:#262626;" x="518.4" xlink:href="#m219da94a98" y="220.628571429"/>
      </g>
     </g>
     <g id="text_11">
      <!-- 0.06 -->
      <g style="fill:#262626;" transform="translate(46.36875 223.214508929)scale(0.1 -0.1)">
       <use xlink:href="#LiberationSans-30"/>
       <use x="55.615234375" xlink:href="#LiberationSans-2e"/>
       <use x="83.3984375" xlink:href="#LiberationSans-30"/>
       <use x="139.013671875" xlink:href="#LiberationSans-36"/>
      </g>
     </g>
    </g>
    <g id="ytick_5">
     <g id="line2d_63">
      <path clip-path="url(#p3d386a08f4)" d="
M72 175.371
L518.4 175.371" style="fill:none;stroke:#ffffff;stroke-linecap:round;"/>
     </g>
     <g id="line2d_64">
      <g>
       <use style="fill:#262626;stroke:#262626;" x="72.0" xlink:href="#m219da94a98" y="175.371428571"/>
      </g>
     </g>
     <g id="line2d_65">
      <g>
       <use style="fill:#262626;stroke:#262626;" x="518.4" xlink:href="#m219da94a98" y="175.371428571"/>
      </g>
     </g>
     <g id="text_12">
      <!-- 0.08 -->
      <g style="fill:#262626;" transform="translate(46.3640625 177.957366071)scale(0.1 -0.1)">
       <use xlink:href="#LiberationSans-30"/>
       <use x="55.615234375" xlink:href="#LiberationSans-2e"/>
       <use x="83.3984375" xlink:href="#LiberationSans-30"/>
       <use x="139.013671875" xlink:href="#LiberationSans-38"/>
      </g>
     </g>
    </g>
    <g id="ytick_6">
     <g id="line2d_66">
      <path clip-path="url(#p3d386a08f4)" d="
M72 130.114
L518.4 130.114" style="fill:none;stroke:#ffffff;stroke-linecap:round;"/>
     </g>
     <g id="line2d_67">
      <g>
       <use style="fill:#262626;stroke:#262626;" x="72.0" xlink:href="#m219da94a98" y="130.114285714"/>
      </g>
     </g>
     <g id="line2d_68">
      <g>
       <use style="fill:#262626;stroke:#262626;" x="518.4" xlink:href="#m219da94a98" y="130.114285714"/>
      </g>
     </g>
     <g id="text_13">
      <!-- 0.10 -->
      <g style="fill:#262626;" transform="translate(46.3203125 132.700223214)scale(0.1 -0.1)">
       <use xlink:href="#LiberationSans-30"/>
       <use x="55.615234375" xlink:href="#LiberationSans-2e"/>
       <use x="83.3984375" xlink:href="#LiberationSans-31"/>
       <use x="139.013671875" xlink:href="#LiberationSans-30"/>
      </g>
     </g>
    </g>
    <g id="ytick_7">
     <g id="line2d_69">
      <path clip-path="url(#p3d386a08f4)" d="
M72 84.8571
L518.4 84.8571" style="fill:none;stroke:#ffffff;stroke-linecap:round;"/>
     </g>
     <g id="line2d_70">
      <g>
       <use style="fill:#262626;stroke:#262626;" x="72.0" xlink:href="#m219da94a98" y="84.8571428571"/>
      </g>
     </g>
     <g id="line2d_71">
      <g>
       <use style="fill:#262626;stroke:#262626;" x="518.4" xlink:href="#m219da94a98" y="84.8571428571"/>
      </g>
     </g>
     <g id="text_14">
      <!-- 0.12 -->
      <g style="fill:#262626;" transform="translate(46.43125 87.4430803571)scale(0.1 -0.1)">
       <use xlink:href="#LiberationSans-30"/>
       <use x="55.615234375" xlink:href="#LiberationSans-2e"/>
       <use x="83.3984375" xlink:href="#LiberationSans-31"/>
       <use x="139.013671875" xlink:href="#LiberationSans-32"/>
      </g>
     </g>
    </g>
    <g id="ytick_8">
     <g id="line2d_72">
      <path clip-path="url(#p3d386a08f4)" d="
M72 39.6
L518.4 39.6" style="fill:none;stroke:#ffffff;stroke-linecap:round;"/>
     </g>
     <g id="line2d_73">
      <g>
       <use style="fill:#262626;stroke:#262626;" x="72.0" xlink:href="#m219da94a98" y="39.6"/>
      </g>
     </g>
     <g id="line2d_74">
      <g>
       <use style="fill:#262626;stroke:#262626;" x="518.4" xlink:href="#m219da94a98" y="39.6"/>
      </g>
     </g>
     <g id="text_15">
      <!-- 0.14 -->
      <g style="fill:#262626;" transform="translate(46.221875 42.1859375)scale(0.1 -0.1)">
       <use xlink:href="#LiberationSans-30"/>
       <use x="55.615234375" xlink:href="#LiberationSans-2e"/>
       <use x="83.3984375" xlink:href="#LiberationSans-31"/>
       <use x="139.013671875" xlink:href="#LiberationSans-34"/>
      </g>
     </g>
    </g>
   </g>
   <g id="PolyCollection_1">
    <defs>
     <path d="
M72 -50.6372
L72 -41.5893
L72.627 -41.5751
L73.2539 -41.5534
L73.8809 -41.5166
L74.5079 -41.4632
L75.1348 -41.3983
L75.7618 -41.3186
L76.3888 -41.2077
L77.0157 -41.069
L77.6427 -40.9011
L78.2697 -40.7569
L78.8966 -40.6774
L79.5236 -40.6278
L80.1506 -40.5998
L80.7775 -40.5825
L81.4045 -40.5737
L82.0315 -40.5678
L82.6584 -40.5631
L83.2854 -40.559
L83.9124 -40.5555
L84.5393 -40.5525
L85.1663 -40.5497
L85.7933 -40.547
L86.4202 -40.5445
L87.0472 -40.5423
L87.6742 -40.5402
L87.6742 -48.7607
L87.6742 -48.7607
L87.0472 -48.7633
L86.4202 -48.7671
L85.7933 -48.7731
L85.1663 -48.7822
L84.5393 -48.7947
L83.9124 -48.812
L83.2854 -48.8376
L82.6584 -48.8739
L82.0315 -48.9205
L81.4045 -48.9802
L80.7775 -49.0668
L80.1506 -49.2119
L79.5236 -49.3937
L78.8966 -49.6259
L78.2697 -49.8782
L77.6427 -50.1627
L77.0157 -50.3573
L76.3888 -50.4598
L75.7618 -50.5202
L75.1348 -50.5563
L74.5079 -50.583
L73.8809 -50.6041
L73.2539 -50.6192
L72.627 -50.6291
L72 -50.6372
z
" id="m05c8cf86bc" style="stroke:#000000;stroke-opacity:0.2;stroke-width:0.3;"/>
    </defs>
    <g clip-path="url(#p3d386a08f4)">
     <use style="fill:#0000ff;fill-opacity:0.2;stroke:#000000;stroke-opacity:0.2;stroke-width:0.3;" x="0.0" xlink:href="#m05c8cf86bc" y="396.0"/>
    </g>
   </g>
   <g id="PolyCollection_2">
    <defs>
     <path d="
M133.443 -46.4709
L133.443 -44.8767
L134.07 -44.873
L134.697 -44.8681
L135.324 -44.8569
L135.951 -44.831
L136.578 -44.7915
L137.204 -44.7503
L137.831 -44.7134
L138.458 -44.6797
L139.085 -44.6445
L139.712 -44.6043
L140.339 -44.5432
L140.966 -44.4274
L141.593 -44.1033
L142.22 -43.3194
L142.847 -41.9732
L143.474 -41.0484
L144.101 -40.8662
L144.728 -40.8074
L145.355 -40.7875
L145.982 -40.777
L146.609 -40.7729
L147.236 -40.7711
L147.863 -40.7703
L148.49 -40.77
L149.117 -40.7699
L149.744 -40.7698
L150.371 -40.7698
L150.998 -40.7697
L151.625 -40.7697
L152.252 -40.7697
L152.879 -40.7697
L153.506 -40.7697
L154.133 -40.7696
L154.76 -40.7696
L155.387 -40.7696
L156.013 -40.7696
L156.64 -40.7696
L157.267 -40.7696
L157.894 -40.7695
L158.521 -40.7695
L159.148 -40.7695
L159.775 -40.7695
L159.775 -41.1636
L159.775 -41.1636
L159.148 -41.1636
L158.521 -41.1636
L157.894 -41.1636
L157.267 -41.1636
L156.64 -41.1636
L156.013 -41.1636
L155.387 -41.1636
L154.76 -41.1636
L154.133 -41.1636
L153.506 -41.1636
L152.879 -41.1636
L152.252 -41.1637
L151.625 -41.1637
L150.998 -41.1637
L150.371 -41.1637
L149.744 -41.1637
L149.117 -41.1638
L148.49 -41.164
L147.863 -41.1645
L147.236 -41.1656
L146.609 -41.1682
L145.982 -41.1742
L145.355 -41.1897
L144.728 -41.2189
L144.101 -41.3051
L143.474 -41.5497
L142.847 -42.6867
L142.22 -44.4537
L141.593 -45.4807
L140.966 -46.0155
L140.339 -46.1477
L139.712 -46.2093
L139.085 -46.2492
L138.458 -46.2835
L137.831 -46.316
L137.204 -46.3512
L136.578 -46.3904
L135.951 -46.4278
L135.324 -46.4521
L134.697 -46.4626
L134.07 -46.4673
L133.443 -46.4709
z
" id="m8919ab771e" style="stroke:#000000;stroke-opacity:0.2;stroke-width:0.3;"/>
    </defs>
    <g clip-path="url(#p3d386a08f4)">
     <use style="fill:#008000;fill-opacity:0.2;stroke:#000000;stroke-opacity:0.2;stroke-width:0.3;" x="0.0" xlink:href="#m8919ab771e" y="396.0"/>
    </g>
   </g>
   <g id="PolyCollection_3">
    <defs>
     <path d="
M166.672 -43.0599
L166.672 -42.0924
L167.299 -42.0826
L167.926 -42.0625
L168.553 -42.0264
L169.18 -41.9946
L169.807 -41.9632
L170.434 -41.9134
L171.061 -41.832
L171.688 -41.7383
L172.315 -41.6314
L172.942 -41.5219
L173.569 -41.4258
L174.196 -41.3615
L174.822 -41.2657
L175.449 -41.1018
L176.076 -40.8947
L176.703 -40.8086
L177.33 -40.7746
L177.957 -40.7587
L178.584 -40.747
L179.211 -40.7392
L179.838 -40.7331
L180.465 -40.7284
L181.092 -40.7245
L181.719 -40.7211
L182.346 -40.7179
L182.973 -40.7144
L183.6 -40.7111
L184.227 -40.7079
L184.854 -40.7042
L185.481 -40.6999
L186.108 -40.696
L186.735 -40.6926
L187.362 -40.689
L187.989 -40.6856
L187.989 -41.5018
L187.989 -41.5018
L187.362 -41.5023
L186.735 -41.5029
L186.108 -41.5033
L185.481 -41.5039
L184.854 -41.5045
L184.227 -41.5051
L183.6 -41.5057
L182.973 -41.5064
L182.346 -41.5073
L181.719 -41.5086
L181.092 -41.5106
L180.465 -41.5141
L179.838 -41.5205
L179.211 -41.5317
L178.584 -41.5501
L177.957 -41.5823
L177.33 -41.6297
L176.703 -41.7323
L176.076 -41.9367
L175.449 -42.3377
L174.822 -42.5922
L174.196 -42.7049
L173.569 -42.7802
L172.942 -42.8387
L172.315 -42.8891
L171.688 -42.9292
L171.061 -42.9591
L170.434 -42.9825
L169.807 -42.9979
L169.18 -43.0119
L168.553 -43.0264
L167.926 -43.0436
L167.299 -43.0538
L166.672 -43.0599
z
" id="m4b5993aabc" style="stroke:#000000;stroke-opacity:0.2;stroke-width:0.3;"/>
    </defs>
    <g clip-path="url(#p3d386a08f4)">
     <use style="fill:#ff0000;fill-opacity:0.2;stroke:#000000;stroke-opacity:0.2;stroke-width:0.3;" x="0.0" xlink:href="#m4b5993aabc" y="396.0"/>
    </g>
   </g>
   <g id="PolyCollection_4">
    <defs>
     <path d="
M231.876 -75.1838
L231.876 -70.0815
L232.503 -70.0758
L233.13 -70.0689
L233.757 -70.0522
L234.384 -70.0014
L235.011 -69.8547
L235.638 -69.4253
L236.265 -68.6694
L236.892 -67.7828
L237.519 -67.0819
L238.146 -66.5574
L238.773 -66.0757
L239.4 -65.5678
L240.027 -65.0367
L240.654 -64.4785
L241.281 -63.8225
L241.908 -63.1252
L242.535 -62.5056
L243.162 -61.9357
L243.789 -61.4159
L244.416 -60.9832
L245.043 -60.6982
L245.67 -60.5331
L246.297 -60.4351
L246.924 -60.3662
L247.551 -60.3157
L248.178 -60.2828
L248.804 -60.2627
L249.431 -60.2503
L250.058 -60.2424
L250.685 -60.2375
L251.312 -60.2342
L251.939 -60.232
L252.566 -60.2303
L253.193 -60.2289
L253.82 -60.2275
L254.447 -60.2262
L255.074 -60.2249
L255.074 -64.5963
L255.074 -64.5963
L254.447 -64.5971
L253.82 -64.5983
L253.193 -64.5996
L252.566 -64.6012
L251.939 -64.6034
L251.312 -64.6066
L250.685 -64.6118
L250.058 -64.6198
L249.431 -64.6332
L248.804 -64.6542
L248.178 -64.6882
L247.551 -64.7434
L246.924 -64.8264
L246.297 -64.9382
L245.67 -65.0943
L245.043 -65.3511
L244.416 -65.7842
L243.789 -66.4204
L243.162 -67.1534
L242.535 -67.9186
L241.908 -68.7079
L241.281 -69.5451
L240.654 -70.2833
L240.027 -70.8728
L239.4 -71.4022
L238.773 -71.8823
L238.146 -72.3174
L237.519 -72.7736
L236.892 -73.3622
L236.265 -74.0817
L235.638 -74.6767
L235.011 -75.0082
L234.384 -75.1206
L233.757 -75.1599
L233.13 -75.1731
L232.503 -75.1788
L231.876 -75.1838
z
" id="mc83921dcc6" style="stroke:#000000;stroke-opacity:0.2;stroke-width:0.3;"/>
    </defs>
    <g clip-path="url(#p3d386a08f4)">
     <use style="fill:#00bfbf;fill-opacity:0.2;stroke:#000000;stroke-opacity:0.2;stroke-width:0.3;" x="0.0" xlink:href="#mc83921dcc6" y="396.0"/>
    </g>
   </g>
   <g id="PolyCollection_5">
    <defs>
     <path d="
M255.701 -158.585
L255.701 -94.9717
L256.328 -94.9418
L256.955 -94.9146
L257.582 -94.8854
L258.209 -94.8507
L258.836 -94.8021
L259.463 -94.7405
L260.09 -94.6802
L260.717 -94.621
L261.344 -94.5616
L261.971 -94.4902
L262.598 -94.3995
L263.225 -94.2688
L263.852 -94.0485
L264.479 -93.7015
L265.106 -93.1245
L265.733 -92.0671
L266.36 -90.1605
L266.987 -85.8038
L267.613 -79.0326
L268.24 -73.4173
L268.867 -69.9812
L269.494 -68.1036
L270.121 -67.0334
L270.748 -66.3918
L271.375 -65.9839
L272.002 -65.722
L272.629 -65.577
L273.256 -65.5056
L273.883 -65.4732
L274.51 -65.4575
L275.137 -65.4493
L275.764 -65.4449
L276.391 -65.4425
L277.018 -65.4408
L277.645 -65.4395
L278.272 -65.4384
L278.899 -65.4376
L279.526 -65.4369
L280.153 -65.4361
L280.78 -65.435
L281.407 -65.4338
L282.034 -65.4327
L282.661 -65.4314
L283.288 -65.4301
L283.915 -65.4288
L284.542 -65.4274
L285.169 -65.426
L285.796 -65.4242
L286.422 -65.4223
L287.049 -65.4207
L287.049 -111.162
L287.049 -111.162
L286.422 -111.162
L285.796 -111.162
L285.169 -111.162
L284.542 -111.163
L283.915 -111.163
L283.288 -111.163
L282.661 -111.163
L282.034 -111.164
L281.407 -111.164
L280.78 -111.164
L280.153 -111.165
L279.526 -111.165
L278.899 -111.166
L278.272 -111.167
L277.645 -111.17
L277.018 -111.176
L276.391 -111.186
L275.764 -111.204
L275.137 -111.24
L274.51 -111.307
L273.883 -111.431
L273.256 -111.672
L272.629 -112.156
L272.002 -113.03
L271.375 -114.398
L270.748 -116.219
L270.121 -118.662
L269.494 -122.115
L268.867 -127.155
L268.24 -134.518
L267.613 -143.536
L266.987 -151.374
L266.36 -155.201
L265.733 -156.625
L265.106 -157.352
L264.479 -157.732
L263.852 -157.954
L263.225 -158.094
L262.598 -158.176
L261.971 -158.234
L261.344 -158.281
L260.717 -158.32
L260.09 -158.36
L259.463 -158.402
L258.836 -158.446
L258.209 -158.482
L257.582 -158.509
L256.955 -158.533
L256.328 -158.557
L255.701 -158.585
z
" id="medee6be21f" style="stroke:#000000;stroke-opacity:0.2;stroke-width:0.3;"/>
    </defs>
    <g clip-path="url(#p3d386a08f4)">
     <use style="fill:#bf00bf;fill-opacity:0.2;stroke:#000000;stroke-opacity:0.2;stroke-width:0.3;" x="0.0" xlink:href="#medee6be21f" y="396.0"/>
    </g>
   </g>
   <g id="PolyCollection_6">
    <defs>
     <path d="
M384.229 -92.8617
L384.229 -65.7965
L384.856 -65.7937
L385.483 -65.7917
L386.11 -65.7895
L386.737 -65.7867
L387.364 -65.7834
L387.991 -65.7802
L388.618 -65.7767
L389.245 -65.7727
L389.872 -65.7685
L390.499 -65.7636
L391.126 -65.758
L391.753 -65.7517
L392.38 -65.7447
L393.007 -65.7333
L393.634 -65.7098
L394.261 -65.6714
L394.888 -65.6287
L395.515 -65.5873
L396.142 -65.5416
L396.769 -65.4805
L397.396 -65.3748
L398.022 -65.1757
L398.649 -64.8592
L399.276 -64.4731
L399.903 -64.0808
L400.53 -63.7266
L401.157 -63.4127
L401.784 -63.1136
L402.411 -62.8186
L403.038 -62.5383
L403.665 -62.293
L404.292 -62.0844
L404.919 -61.9179
L405.546 -61.7939
L406.173 -61.7042
L406.8 -61.6387
L407.427 -61.5894
L408.054 -61.5542
L408.681 -61.529
L409.308 -61.5121
L409.935 -61.5
L410.562 -61.4915
L411.189 -61.4852
L411.816 -61.4802
L412.443 -61.4761
L413.07 -61.4732
L413.697 -61.4713
L414.324 -61.4699
L414.951 -61.4687
L414.951 -87.3465
L414.951 -87.3465
L414.324 -87.351
L413.697 -87.3557
L413.07 -87.3622
L412.443 -87.3715
L411.816 -87.3842
L411.189 -87.399
L410.562 -87.4165
L409.935 -87.4391
L409.308 -87.4693
L408.681 -87.5102
L408.054 -87.568
L407.427 -87.6447
L406.8 -87.7467
L406.173 -87.8755
L405.546 -88.043
L404.919 -88.2625
L404.292 -88.5407
L403.665 -88.8687
L403.038 -89.231
L402.411 -89.6199
L401.784 -90.0047
L401.157 -90.3732
L400.53 -90.7409
L399.903 -91.1371
L399.276 -91.5576
L398.649 -91.9556
L398.022 -92.2713
L397.396 -92.465
L396.769 -92.5661
L396.142 -92.6239
L395.515 -92.6668
L394.888 -92.7054
L394.261 -92.7449
L393.634 -92.7804
L393.007 -92.802
L392.38 -92.8125
L391.753 -92.819
L391.126 -92.8249
L390.499 -92.8302
L389.872 -92.8347
L389.245 -92.8387
L388.618 -92.8425
L387.991 -92.8457
L387.364 -92.8489
L386.737 -92.852
L386.11 -92.8548
L385.483 -92.857
L384.856 -92.8589
L384.229 -92.8617
z
" id="m60a3b94ff4" style="stroke:#000000;stroke-opacity:0.2;stroke-width:0.3;"/>
    </defs>
    <g clip-path="url(#p3d386a08f4)">
     <use style="fill:#bfbf00;fill-opacity:0.2;stroke:#000000;stroke-opacity:0.2;stroke-width:0.3;" x="0.0" xlink:href="#m60a3b94ff4" y="396.0"/>
    </g>
   </g>
   <g id="PolyCollection_7">
    <defs>
     <path d="
M420.593 -124.302
L420.593 -81.9631
L421.22 -81.954
L421.847 -81.9444
L422.474 -81.9329
L423.101 -81.9199
L423.728 -81.9067
L424.355 -81.8935
L424.982 -81.8776
L425.609 -81.8584
L426.236 -81.8344
L426.863 -81.8003
L427.49 -81.7541
L428.117 -81.6974
L428.744 -81.6263
L429.371 -81.5454
L429.998 -81.4496
L430.625 -81.3267
L431.252 -81.1461
L431.879 -80.9088
L432.506 -80.6336
L433.133 -80.3554
L433.76 -80.0559
L434.387 -79.6979
L435.013 -79.2585
L435.64 -78.768
L436.267 -78.3003
L436.894 -77.8775
L437.521 -77.4887
L438.148 -77.1223
L438.775 -76.8055
L439.402 -76.5478
L440.029 -76.3355
L440.656 -76.1498
L441.283 -75.9988
L441.91 -75.8883
L442.537 -75.8121
L443.164 -75.7549
L443.791 -75.7084
L444.418 -75.6704
L445.045 -75.6411
L445.672 -75.62
L446.299 -75.6031
L446.926 -75.5889
L447.553 -75.5776
L448.18 -75.5694
L448.807 -75.563
L449.434 -75.5575
L450.061 -75.5526
L450.061 -116.724
L450.061 -116.724
L449.434 -116.74
L448.807 -116.757
L448.18 -116.776
L447.553 -116.8
L446.926 -116.832
L446.299 -116.871
L445.672 -116.915
L445.045 -116.967
L444.418 -117.037
L443.791 -117.123
L443.164 -117.222
L442.537 -117.339
L441.91 -117.486
L441.283 -117.69
L440.656 -117.954
L440.029 -118.259
L439.402 -118.588
L438.775 -118.965
L438.148 -119.402
L437.521 -119.878
L436.894 -120.354
L436.267 -120.843
L435.64 -121.357
L435.013 -121.869
L434.387 -122.305
L433.76 -122.647
L433.133 -122.923
L432.506 -123.173
L431.879 -123.414
L431.252 -123.617
L430.625 -123.77
L429.998 -123.872
L429.371 -123.952
L428.744 -124.018
L428.117 -124.076
L427.49 -124.123
L426.863 -124.161
L426.236 -124.189
L425.609 -124.209
L424.982 -124.225
L424.355 -124.239
L423.728 -124.25
L423.101 -124.262
L422.474 -124.274
L421.847 -124.284
L421.22 -124.293
L420.593 -124.302
z
" id="m773d3b29be" style="stroke:#000000;stroke-opacity:0.2;stroke-width:0.3;"/>
    </defs>
    <g clip-path="url(#p3d386a08f4)">
     <use style="fill-opacity:0.2;stroke:#000000;stroke-opacity:0.2;stroke-width:0.3;" x="0.0" xlink:href="#m773d3b29be" y="396.0"/>
    </g>
   </g>
   <g id="PolyCollection_8">
    <defs>
     <path d="
M450.688 -344.229
L450.688 -339.249
L451.315 -339.22
L451.942 -339.189
L452.569 -339.157
L453.196 -339.123
L453.822 -339.088
L454.449 -339.041
L455.076 -338.975
L455.703 -338.89
L456.33 -338.783
L456.957 -338.653
L457.584 -338.488
L458.211 -338.266
L458.838 -338.006
L459.465 -337.699
L460.092 -337.324
L460.719 -336.874
L461.346 -336.274
L461.973 -335.356
L462.6 -333.99
L463.227 -332.261
L463.854 -330.6
L464.481 -329.158
L465.108 -327.758
L465.735 -326.05
L466.362 -323.808
L466.989 -321.036
L467.616 -317.731
L468.243 -313.963
L468.87 -309.678
L469.497 -304.89
L470.124 -300.498
L470.751 -297.13
L471.378 -294.931
L472.004 -293.506
L472.631 -292.588
L473.258 -292.02
L473.885 -291.685
L474.512 -291.475
L475.139 -291.339
L475.766 -291.242
L476.393 -291.176
L477.02 -291.134
L477.647 -291.103
L478.274 -291.082
L478.901 -291.064
L479.528 -291.048
L480.155 -291.035
L480.782 -291.024
L481.409 -291.015
L482.036 -291.007
L482.663 -291
L483.29 -290.992
L483.29 -295.51
L483.29 -295.51
L482.663 -295.518
L482.036 -295.526
L481.409 -295.533
L480.782 -295.543
L480.155 -295.554
L479.528 -295.568
L478.901 -295.584
L478.274 -295.603
L477.647 -295.624
L477.02 -295.655
L476.393 -295.699
L475.766 -295.766
L475.139 -295.865
L474.512 -296.004
L473.885 -296.217
L473.258 -296.559
L472.631 -297.137
L472.004 -298.072
L471.378 -299.52
L470.751 -301.753
L470.124 -305.17
L469.497 -309.621
L468.87 -314.466
L468.243 -318.796
L467.616 -322.599
L466.989 -325.931
L466.362 -328.723
L465.735 -330.979
L465.108 -332.697
L464.481 -334.104
L463.854 -335.552
L463.227 -337.22
L462.6 -338.956
L461.973 -340.326
L461.346 -341.247
L460.719 -341.849
L460.092 -342.3
L459.465 -342.675
L458.838 -342.984
L458.211 -343.244
L457.584 -343.466
L456.957 -343.632
L456.33 -343.762
L455.703 -343.869
L455.076 -343.954
L454.449 -344.021
L453.822 -344.067
L453.196 -344.103
L452.569 -344.136
L451.942 -344.169
L451.315 -344.2
L450.688 -344.229
z
" id="m63cec23b30" style="stroke:#000000;stroke-opacity:0.2;stroke-width:0.3;"/>
    </defs>
    <g clip-path="url(#p3d386a08f4)">
     <use style="fill:#0000ff;fill-opacity:0.2;stroke:#000000;stroke-opacity:0.2;stroke-width:0.3;" x="0.0" xlink:href="#m63cec23b30" y="396.0"/>
    </g>
   </g>
   <g id="PolyCollection_9">
    <defs>
     <path d="
M483.917 -127.68
L483.917 -47.2031
L484.544 -47.1851
L485.171 -47.167
L485.798 -47.1469
L486.425 -47.1229
L487.052 -47.0911
L487.679 -47.0524
L488.306 -47.0095
L488.933 -46.9604
L489.56 -46.9059
L490.187 -46.8355
L490.813 -46.7494
L491.44 -46.6547
L492.067 -46.5508
L492.694 -46.4549
L493.321 -46.362
L493.948 -46.2258
L494.575 -46.0866
L495.202 -45.9689
L495.829 -45.8775
L496.456 -45.8049
L497.083 -45.7309
L497.71 -45.668
L498.337 -45.6123
L498.964 -45.5745
L499.591 -45.5455
L500.218 -45.5236
L500.845 -45.5032
L501.472 -45.4877
L502.099 -45.4736
L502.726 -45.4637
L503.353 -45.4547
L503.98 -45.4477
L504.607 -45.4414
L505.234 -45.4362
L505.861 -45.4307
L506.488 -45.4255
L507.115 -45.4198
L507.742 -45.4148
L508.369 -45.4097
L508.996 -45.4043
L509.622 -45.3983
L510.249 -45.3923
L510.876 -45.3854
L511.503 -45.3788
L512.13 -45.3724
L512.757 -45.3676
L513.384 -45.3637
L514.011 -45.36
L514.638 -45.3557
L515.265 -45.3513
L515.892 -45.3459
L516.519 -45.3406
L517.146 -45.334
L517.773 -45.3283
L518.4 -45.3227
L518.4 -124.695
L518.4 -124.695
L517.773 -124.701
L517.146 -124.708
L516.519 -124.716
L515.892 -124.723
L515.265 -124.73
L514.638 -124.737
L514.011 -124.745
L513.384 -124.752
L512.757 -124.761
L512.13 -124.774
L511.503 -124.793
L510.876 -124.812
L510.249 -124.833
L509.622 -124.851
L508.996 -124.871
L508.369 -124.891
L507.742 -124.911
L507.115 -124.933
L506.488 -124.961
L505.861 -124.988
L505.234 -125.02
L504.607 -125.052
L503.98 -125.095
L503.353 -125.143
L502.726 -125.205
L502.099 -125.273
L501.472 -125.36
L500.845 -125.448
L500.218 -125.553
L499.591 -125.654
L498.964 -125.772
L498.337 -125.908
L497.71 -126.08
L497.083 -126.243
L496.456 -126.404
L495.829 -126.537
L495.202 -126.667
L494.575 -126.806
L493.948 -126.942
L493.321 -127.055
L492.694 -127.142
L492.067 -127.224
L491.44 -127.305
L490.813 -127.374
L490.187 -127.432
L489.56 -127.478
L488.933 -127.513
L488.306 -127.544
L487.679 -127.571
L487.052 -127.596
L486.425 -127.618
L485.798 -127.635
L485.171 -127.65
L484.544 -127.664
L483.917 -127.68
z
" id="m8ca22f497c" style="stroke:#000000;stroke-opacity:0.2;stroke-width:0.3;"/>
    </defs>
    <g clip-path="url(#p3d386a08f4)">
     <use style="fill:#008000;fill-opacity:0.2;stroke:#000000;stroke-opacity:0.2;stroke-width:0.3;" x="0.0" xlink:href="#m8ca22f497c" y="396.0"/>
    </g>
   </g>
   <g id="PolyCollection_10">
    <defs>
     <path d="
M198.647 -44.952
L198.647 -44.1023
L199.274 -44.0999
L199.901 -44.0961
L200.528 -44.0895
L201.155 -44.0798
L201.782 -44.0651
L202.409 -44.0464
L203.036 -44.0158
L203.663 -43.9846
L204.29 -43.9577
L204.917 -43.9286
L205.544 -43.8986
L206.171 -43.8684
L206.798 -43.8346
L207.425 -43.7935
L208.052 -43.7406
L208.679 -43.6869
L209.306 -43.6322
L209.933 -43.5813
L210.56 -43.5277
L211.187 -43.4718
L211.813 -43.4195
L212.44 -43.3719
L213.067 -43.333
L213.694 -43.3036
L214.321 -43.2841
L214.948 -43.271
L215.575 -43.2616
L216.202 -43.2551
L216.829 -43.2506
L217.456 -43.2473
L218.083 -43.2446
L218.71 -43.2422
L219.337 -43.2401
L219.964 -43.2385
L220.591 -43.2371
L221.218 -43.2356
L221.845 -43.2336
L222.472 -43.2318
L223.099 -43.2303
L223.726 -43.2286
L224.353 -43.2265
L224.353 -44.2282
L224.353 -44.2282
L223.726 -44.2288
L223.099 -44.2295
L222.472 -44.23
L221.845 -44.2308
L221.218 -44.2318
L220.591 -44.2327
L219.964 -44.2337
L219.337 -44.235
L218.71 -44.2368
L218.083 -44.2394
L217.456 -44.2424
L216.829 -44.2461
L216.202 -44.2517
L215.575 -44.2599
L214.948 -44.2716
L214.321 -44.2876
L213.694 -44.3106
L213.067 -44.3437
L212.44 -44.3855
L211.813 -44.4334
L211.187 -44.4827
L210.56 -44.532
L209.933 -44.577
L209.306 -44.6194
L208.679 -44.6628
L208.052 -44.7038
L207.425 -44.7387
L206.798 -44.7644
L206.171 -44.7848
L205.544 -44.8026
L204.917 -44.8199
L204.29 -44.8378
L203.663 -44.8558
L203.036 -44.8753
L202.409 -44.8966
L201.782 -44.9152
L201.155 -44.9298
L200.528 -44.9393
L199.901 -44.9459
L199.274 -44.9496
L198.647 -44.952
z
" id="m52f2eacb52" style="stroke:#000000;stroke-opacity:0.2;stroke-width:0.3;"/>
    </defs>
    <g clip-path="url(#p3d386a08f4)">
     <use style="fill:#ff0000;fill-opacity:0.2;stroke:#000000;stroke-opacity:0.2;stroke-width:0.3;" x="0.0" xlink:href="#m52f2eacb52" y="396.0"/>
    </g>
   </g>
   <g id="line2d_75">
    <path clip-path="url(#p3d386a08f4)" d="
M72 352.069
L72.627 352.078
L73.2539 352.088
L73.8809 352.105
L74.5079 352.127
L75.1348 352.156
L75.7618 352.195
L76.3888 352.257
L77.0157 352.358
L77.6427 352.533
L78.2697 352.771
L78.8966 352.947
L79.5236 353.089
L80.1506 353.189
L80.7775 353.257
L81.4045 353.293
L82.0315 353.316
L82.6584 353.333
L83.2854 353.345
L83.9124 353.352
L84.5393 353.357
L85.1663 353.361
L85.7933 353.363
L86.4202 353.365
L87.0472 353.366
L87.6742 353.367" style="fill:none;stroke:#000000;stroke-linecap:round;stroke-width:1.75;"/>
   </g>
   <g id="line2d_76">
    <path clip-path="url(#p3d386a08f4)" d="
M133.443 350.118
L134.07 350.122
L134.697 350.128
L135.324 350.141
L135.951 350.172
L136.578 350.22
L137.204 350.27
L137.831 350.315
L138.458 350.356
L139.085 350.4
L139.712 350.449
L140.339 350.524
L140.966 350.667
L141.593 351.057
L142.22 351.971
L142.847 353.574
L143.474 354.686
L144.101 354.904
L144.728 354.974
L145.355 354.997
L145.982 355.01
L146.609 355.014
L147.236 355.017
L147.863 355.018
L148.49 355.018
L149.117 355.018
L149.744 355.018
L150.371 355.018
L150.998 355.018
L151.625 355.018
L152.252 355.018
L152.879 355.019
L153.506 355.019
L154.133 355.019
L154.76 355.019
L155.387 355.019
L156.013 355.019
L156.64 355.019
L157.267 355.019
L157.894 355.019
L158.521 355.019
L159.148 355.019
L159.775 355.019" style="fill:none;stroke:#000000;stroke-linecap:round;stroke-width:1.75;"/>
   </g>
   <g id="line2d_77">
    <path clip-path="url(#p3d386a08f4)" d="
M166.672 353.563
L167.299 353.569
L167.926 353.581
L168.553 353.602
L169.18 353.621
L169.807 353.638
L170.434 353.658
L171.061 353.69
L171.688 353.732
L172.315 353.79
L172.942 353.859
L173.569 353.935
L174.196 354.025
L174.822 354.148
L175.449 354.38
L176.076 354.686
L176.703 354.829
L177.33 354.896
L177.957 354.927
L178.584 354.947
L179.211 354.958
L179.838 354.965
L180.465 354.969
L181.092 354.972
L181.719 354.974
L182.346 354.975
L182.973 354.976
L183.6 354.977
L184.227 354.979
L184.854 354.98
L185.481 354.981
L186.108 354.982
L186.735 354.983
L187.362 354.984
L187.989 354.985" style="fill:none;stroke:#000000;stroke-linecap:round;stroke-width:1.75;"/>
   </g>
   <g id="line2d_78">
    <path clip-path="url(#p3d386a08f4)" d="
M231.876 323.538
L232.503 323.543
L233.13 323.548
L233.757 323.562
L234.384 323.601
L235.011 323.713
L235.638 324.077
L236.265 324.839
L236.892 325.738
L237.519 326.315
L238.146 326.761
L238.773 327.218
L239.4 327.753
L240.027 328.316
L240.654 328.906
L241.281 329.586
L241.908 330.347
L242.535 331.054
L243.162 331.732
L243.789 332.343
L244.416 332.844
L245.043 333.175
L245.67 333.367
L246.297 333.482
L246.924 333.577
L247.551 333.648
L248.178 333.694
L248.804 333.723
L249.431 333.741
L250.058 333.752
L250.685 333.759
L251.312 333.763
L251.939 333.766
L252.566 333.767
L253.193 333.769
L253.82 333.77
L254.447 333.771
L255.074 333.772" style="fill:none;stroke:#000000;stroke-linecap:round;stroke-width:1.75;"/>
   </g>
   <g id="line2d_79">
    <path clip-path="url(#p3d386a08f4)" d="
M255.701 281.537
L256.328 281.567
L256.955 281.593
L257.582 281.621
L258.209 281.655
L258.836 281.701
L259.463 281.76
L260.09 281.817
L260.717 281.873
L261.344 281.929
L261.971 281.996
L262.598 282.081
L263.225 282.205
L263.852 282.414
L264.479 282.746
L265.106 283.305
L265.733 284.351
L266.36 286.3
L266.987 291.042
L267.613 299.162
L268.24 306.62
L268.867 311.562
L269.494 314.421
L270.121 316.125
L270.748 317.189
L271.375 317.891
L272.002 318.36
L272.629 318.628
L273.256 318.764
L273.883 318.827
L274.51 318.857
L275.137 318.873
L275.764 318.881
L276.391 318.886
L277.018 318.888
L277.645 318.89
L278.272 318.891
L278.899 318.892
L279.526 318.893
L280.153 318.894
L280.78 318.895
L281.407 318.896
L282.034 318.897
L282.661 318.898
L283.288 318.899
L283.915 318.901
L284.542 318.902
L285.169 318.903
L285.796 318.905
L286.422 318.907
L287.049 318.908" style="fill:none;stroke:#000000;stroke-linecap:round;stroke-width:1.75;"/>
   </g>
   <g id="line2d_80">
    <path clip-path="url(#p3d386a08f4)" d="
M384.229 321.039
L384.856 321.042
L385.483 321.044
L386.11 321.046
L386.737 321.049
L387.364 321.052
L387.991 321.055
L388.618 321.058
L389.245 321.062
L389.872 321.066
L390.499 321.071
L391.126 321.076
L391.753 321.082
L392.38 321.089
L393.007 321.099
L393.634 321.121
L394.261 321.157
L394.888 321.197
L395.515 321.236
L396.142 321.279
L396.769 321.337
L397.396 321.438
L398.022 321.63
L398.649 321.939
L399.276 322.322
L399.903 322.72
L400.53 323.088
L401.157 323.422
L401.784 323.749
L402.411 324.082
L403.038 324.408
L403.665 324.702
L404.292 324.961
L404.919 325.174
L405.546 325.337
L406.173 325.458
L406.8 325.549
L407.427 325.619
L408.054 325.67
L408.681 325.708
L409.308 325.734
L409.935 325.753
L410.562 325.766
L411.189 325.777
L411.816 325.785
L412.443 325.792
L413.07 325.797
L413.697 325.801
L414.324 325.803
L414.951 325.806" style="fill:none;stroke:#000000;stroke-linecap:round;stroke-width:1.75;"/>
   </g>
   <g id="line2d_81">
    <path clip-path="url(#p3d386a08f4)" d="
M420.593 296.296
L421.22 296.305
L421.847 296.314
L422.474 296.325
L423.101 296.336
L423.728 296.348
L424.355 296.36
L424.982 296.373
L425.609 296.389
L426.236 296.409
L426.863 296.437
L427.49 296.475
L428.117 296.521
L428.744 296.579
L429.371 296.645
L429.998 296.724
L430.625 296.825
L431.252 296.974
L431.879 297.173
L432.506 297.407
L433.133 297.648
L433.76 297.912
L434.387 298.235
L435.013 298.653
L435.64 299.21
L436.267 299.755
L436.894 300.259
L437.521 300.735
L438.148 301.196
L438.775 301.605
L439.402 301.923
L440.029 302.189
L440.656 302.431
L441.283 302.635
L441.91 302.791
L442.537 302.901
L443.164 302.987
L443.791 303.058
L444.418 303.119
L445.045 303.168
L445.672 303.204
L446.299 303.233
L446.926 303.258
L447.553 303.279
L448.18 303.294
L448.807 303.306
L449.434 303.317
L450.061 303.326" style="fill:none;stroke:#000000;stroke-linecap:round;stroke-width:1.75;"/>
   </g>
   <g id="line2d_82">
    <path clip-path="url(#p3d386a08f4)" d="
M450.688 56.3475
L451.315 56.3766
L451.942 56.4076
L452.569 56.4397
L453.196 56.4735
L453.822 56.5088
L454.449 56.5554
L455.076 56.6218
L455.703 56.7063
L456.33 56.8129
L456.957 56.9429
L457.584 57.1084
L458.211 57.33
L458.838 57.5893
L459.465 57.8965
L460.092 58.271
L460.719 58.7203
L461.346 59.3205
L461.973 60.2377
L462.6 61.6024
L463.227 63.3309
L463.854 64.9907
L464.481 66.4307
L465.108 67.83
L465.735 69.5373
L466.362 71.7782
L466.989 74.5489
L467.616 77.8536
L468.243 81.6206
L468.87 85.9063
L469.497 90.6963
L470.124 95.0914
L470.751 98.4628
L471.378 100.665
L472.004 102.092
L472.631 103.011
L473.258 103.58
L473.885 103.917
L474.512 104.126
L475.139 104.263
L475.766 104.36
L476.393 104.426
L477.02 104.469
L477.647 104.499
L478.274 104.52
L478.901 104.538
L479.528 104.554
L480.155 104.568
L480.782 104.579
L481.409 104.588
L482.036 104.596
L482.663 104.604
L483.29 104.611" style="fill:none;stroke:#000000;stroke-linecap:round;stroke-width:1.75;"/>
   </g>
   <g id="line2d_83">
    <path clip-path="url(#p3d386a08f4)" d="
M483.917 336.697
L484.544 336.713
L485.171 336.729
L485.798 336.746
L486.425 336.766
L487.052 336.792
L487.679 336.822
L488.306 336.856
L488.933 336.89
L489.56 336.923
L490.187 336.965
L490.813 337.028
L491.44 337.092
L492.067 337.166
L492.694 337.239
L493.321 337.316
L493.948 337.414
L494.575 337.543
L495.202 337.656
L495.829 337.776
L496.456 337.891
L497.083 338.024
L497.71 338.138
L498.337 338.266
L498.964 338.359
L499.591 338.43
L500.218 338.486
L500.845 338.542
L501.472 338.588
L502.099 338.629
L502.726 338.659
L503.353 338.687
L503.98 338.707
L504.607 338.725
L505.234 338.737
L505.861 338.749
L506.488 338.759
L507.115 338.769
L507.742 338.777
L508.369 338.784
L508.996 338.791
L509.622 338.798
L510.249 338.805
L510.876 338.812
L511.503 338.819
L512.13 338.825
L512.757 338.83
L513.384 338.833
L514.011 338.835
L514.638 338.837
L515.265 338.839
L515.892 338.841
L516.519 338.844
L517.146 338.847
L517.773 338.849
L518.4 338.851" style="fill:none;stroke:#000000;stroke-linecap:round;stroke-width:1.75;"/>
   </g>
   <g id="line2d_84">
    <path clip-path="url(#p3d386a08f4)" d="
M198.647 351.839
L199.274 351.841
L199.901 351.845
L200.528 351.853
L201.155 351.864
L201.782 351.881
L202.409 351.902
L203.036 351.927
L203.663 351.95
L204.29 351.971
L204.917 351.991
L205.544 352.011
L206.171 352.031
L206.798 352.054
L207.425 352.083
L208.052 352.121
L208.679 352.166
L209.306 352.212
L209.933 352.256
L210.56 352.301
L211.187 352.35
L211.813 352.397
L212.44 352.442
L213.067 352.48
L213.694 352.51
L214.321 352.53
L214.948 352.543
L215.575 352.553
L216.202 352.56
L216.829 352.565
L217.456 352.568
L218.083 352.57
L218.71 352.573
L219.337 352.574
L219.964 352.576
L220.591 352.577
L221.218 352.578
L221.845 352.579
L222.472 352.58
L223.099 352.58
L223.726 352.581
L224.353 352.582" style="fill:none;stroke:#000000;stroke-linecap:round;stroke-width:1.75;"/>
   </g>
   <g id="patch_3">
    <path d="
M72 39.6
L518.4 39.6" style="fill:none;"/>
   </g>
   <g id="patch_4">
    <path d="
M518.4 356.4
L518.4 39.6" style="fill:none;"/>
   </g>
   <g id="patch_5">
    <path d="
M72 356.4
L518.4 356.4" style="fill:none;"/>
   </g>
   <g id="patch_6">
    <path d="
M72 356.4
L72 39.6" style="fill:none;"/>
   </g>
  </g>
 </g>
 <defs>
  <clipPath id="p3d386a08f4">
   <rect height="316.8" width="446.4" x="72.0" y="39.6"/>
  </clipPath>
 </defs>
</svg>
