<?xml version="1.0" encoding="utf-8" standalone="no"?>
<!DOCTYPE svg PUBLIC "-//W3C//DTD SVG 1.1//EN"
  "http://www.w3.org/Graphics/SVG/1.1/DTD/svg11.dtd">
<!-- Created with matplotlib (http://matplotlib.org/) -->
<svg height="432pt" version="1.1" viewBox="0 0 576 432" width="576pt" xmlns="http://www.w3.org/2000/svg" xmlns:xlink="http://www.w3.org/1999/xlink">
 <defs>
  <style type="text/css">
*{stroke-linecap:butt;stroke-linejoin:round;}
  </style>
 </defs>
 <g id="figure_1">
  <g id="patch_1">
   <path d="
M0 432
L576 432
L576 0
L0 0
z
" style="fill:#ffffff;"/>
  </g>
  <g id="axes_1">
   <g id="patch_2">
    <path d="
M72 180.655
L518.4 180.655
L518.4 43.2
L72 43.2
z
" style="fill:#ffffff;"/>
   </g>
   <g id="PolyCollection_1">
    <defs>
     <path d="
M72 -382.816
L72 -318.294
L82.8878 -318.111
L93.7756 -317.823
L104.663 -317.32
L115.551 -316.587
L126.439 -315.468
L137.327 -314.05
L148.215 -311.729
L159.102 -309.356
L169.99 -307.314
L180.878 -305.109
L191.766 -302.825
L202.654 -300.537
L213.541 -297.97
L224.429 -294.851
L235.317 -290.833
L246.205 -286.754
L257.093 -282.602
L267.98 -278.732
L278.868 -274.666
L289.756 -270.421
L300.644 -266.453
L311.532 -262.836
L322.42 -259.88
L333.307 -257.647
L344.195 -256.168
L355.083 -255.177
L365.971 -254.459
L376.859 -253.964
L387.746 -253.623
L398.634 -253.379
L409.522 -253.173
L420.41 -252.985
L431.298 -252.831
L442.185 -252.708
L453.073 -252.604
L463.961 -252.483
L474.849 -252.334
L485.737 -252.198
L496.624 -252.088
L507.512 -251.956
L518.4 -251.792
L518.4 -327.851
L518.4 -327.851
L507.512 -327.904
L496.624 -327.949
L485.737 -327.994
L474.849 -328.053
L463.961 -328.125
L453.073 -328.197
L442.185 -328.269
L431.298 -328.369
L420.41 -328.511
L409.522 -328.702
L398.634 -328.93
L387.746 -329.217
L376.859 -329.64
L365.971 -330.259
L355.083 -331.15
L344.195 -332.361
L333.307 -334.108
L322.42 -336.627
L311.532 -339.796
L300.644 -343.438
L289.756 -347.18
L278.868 -350.922
L267.98 -354.337
L257.093 -357.555
L246.205 -360.851
L235.317 -363.965
L224.429 -366.619
L213.541 -368.57
L202.654 -370.117
L191.766 -371.469
L180.878 -372.784
L169.99 -374.138
L159.102 -375.507
L148.215 -376.992
L137.327 -378.605
L126.439 -380.015
L115.551 -381.124
L104.663 -381.849
L93.7756 -382.348
L82.8878 -382.633
L72 -382.816
z
" id="mc88f5c158b" style="stroke:#000000;stroke-opacity:0.2;"/>
    </defs>
    <g clip-path="url(#p93aeaf4644)">
     <use style="fill:#0000ff;fill-opacity:0.2;stroke:#000000;stroke-opacity:0.2;" x="0.0" xlink:href="#mc88f5c158b" y="432.0"/>
    </g>
   </g>
   <g id="line2d_1">
    <path clip-path="url(#p93aeaf4644)" d="
M72 109.216
L82.8878 109.41
L93.7756 109.726
L104.663 110.29
L115.551 111.121
L126.439 112.406
L137.327 114.048
L148.215 115.935
L159.102 117.661
L169.99 119.242
L180.878 120.8
L191.766 122.312
L202.654 123.847
L213.541 125.595
L224.429 127.766
L235.317 130.689
L246.205 134.053
L257.093 137.548
L267.98 140.879
L278.868 144.327
L289.756 148.012
L300.644 151.609
L311.532 155.022
L322.42 157.916
L333.307 160.162
L344.195 161.688
L355.083 162.722
L365.971 163.477
L376.859 163.995
L387.746 164.347
L398.634 164.59
L409.522 164.784
L420.41 164.953
L431.298 165.081
L442.185 165.175
L453.073 165.247
L463.961 165.323
L474.849 165.407
L485.737 165.481
L496.624 165.539
L507.512 165.601
L518.4 165.674" style="fill:none;stroke:#000000;stroke-linecap:square;"/>
   </g>
   <g id="line2d_2">
    <path clip-path="url(#p93aeaf4644)" d="
M72 95.2513
L82.8878 95.4511
L93.7756 95.7805
L104.663 96.3757
L115.551 97.2601
L126.439 98.6313
L137.327 100.385
L148.215 102.402
L159.102 104.25
L169.99 105.94
L180.878 107.605
L191.766 109.218
L202.654 110.857
L213.541 112.721
L224.429 115.035
L235.317 118.13
L246.205 121.683
L257.093 125.359
L267.98 128.857
L278.868 132.476
L289.756 136.333
L300.644 140.073
L311.532 143.611
L322.42 146.606
L333.307 148.929
L344.195 150.508
L355.083 151.582
L365.971 152.366
L376.859 152.905
L387.746 153.272
L398.634 153.526
L409.522 153.731
L420.41 153.908
L431.298 154.044
L442.185 154.145
L453.073 154.222
L463.961 154.306
L474.849 154.4
L485.737 154.483
L496.624 154.548
L507.512 154.62
L518.4 154.707" style="fill:none;stroke:#000000;stroke-dasharray:6.000000,6.000000;stroke-dashoffset:0.0;"/>
   </g>
   <g id="patch_3">
    <path d="
M72 43.2
L518.4 43.2" style="fill:none;stroke:#000000;stroke-linecap:square;stroke-linejoin:miter;"/>
   </g>
   <g id="patch_4">
    <path d="
M518.4 180.655
L518.4 43.2" style="fill:none;stroke:#000000;stroke-linecap:square;stroke-linejoin:miter;"/>
   </g>
   <g id="patch_5">
    <path d="
M72 180.655
L518.4 180.655" style="fill:none;stroke:#000000;stroke-linecap:square;stroke-linejoin:miter;"/>
   </g>
   <g id="patch_6">
    <path d="
M72 180.655
L72 43.2" style="fill:none;stroke:#000000;stroke-linecap:square;stroke-linejoin:miter;"/>
   </g>
   <g id="matplotlib.axis_1">
    <g id="xtick_1">
     <g id="line2d_3">
      <path clip-path="url(#p93aeaf4644)" d="
M101.553 180.655
L101.553 43.2" style="fill:none;stroke:#000000;stroke-dasharray:1.000000,3.000000;stroke-dashoffset:0.0;stroke-width:0.5;"/>
     </g>
     <g id="line2d_4">
      <defs>
       <path d="
M0 0
L0 -4" id="m93b0483c22" style="stroke:#000000;stroke-width:0.5;"/>
      </defs>
      <g>
       <use style="stroke:#000000;stroke-width:0.5;" x="101.55261324" xlink:href="#m93b0483c22" y="180.654545455"/>
      </g>
     </g>
     <g id="line2d_5">
      <defs>
       <path d="
M0 0
L0 4" id="m741efc42ff" style="stroke:#000000;stroke-width:0.5;"/>
      </defs>
      <g>
       <use style="stroke:#000000;stroke-width:0.5;" x="101.55261324" xlink:href="#m741efc42ff" y="43.2"/>
      </g>
     </g>
    </g>
    <g id="xtick_2">
     <g id="line2d_6">
      <path clip-path="url(#p93aeaf4644)" d="
M149.77 180.655
L149.77 43.2" style="fill:none;stroke:#000000;stroke-dasharray:1.000000,3.000000;stroke-dashoffset:0.0;stroke-width:0.5;"/>
     </g>
     <g id="line2d_7">
      <g>
       <use style="stroke:#000000;stroke-width:0.5;" x="149.770034843" xlink:href="#m93b0483c22" y="180.654545455"/>
      </g>
     </g>
     <g id="line2d_8">
      <g>
       <use style="stroke:#000000;stroke-width:0.5;" x="149.770034843" xlink:href="#m741efc42ff" y="43.2"/>
      </g>
     </g>
    </g>
    <g id="xtick_3">
     <g id="line2d_9">
      <path clip-path="url(#p93aeaf4644)" d="
M194.877 180.655
L194.877 43.2" style="fill:none;stroke:#000000;stroke-dasharray:1.000000,3.000000;stroke-dashoffset:0.0;stroke-width:0.5;"/>
     </g>
     <g id="line2d_10">
      <g>
       <use style="stroke:#000000;stroke-width:0.5;" x="194.876655052" xlink:href="#m93b0483c22" y="180.654545455"/>
      </g>
     </g>
     <g id="line2d_11">
      <g>
       <use style="stroke:#000000;stroke-width:0.5;" x="194.876655052" xlink:href="#m741efc42ff" y="43.2"/>
      </g>
     </g>
    </g>
    <g id="xtick_4">
     <g id="line2d_12">
      <path clip-path="url(#p93aeaf4644)" d="
M243.094 180.655
L243.094 43.2" style="fill:none;stroke:#000000;stroke-dasharray:1.000000,3.000000;stroke-dashoffset:0.0;stroke-width:0.5;"/>
     </g>
     <g id="line2d_13">
      <g>
       <use style="stroke:#000000;stroke-width:0.5;" x="243.094076655" xlink:href="#m93b0483c22" y="180.654545455"/>
      </g>
     </g>
     <g id="line2d_14">
      <g>
       <use style="stroke:#000000;stroke-width:0.5;" x="243.094076655" xlink:href="#m741efc42ff" y="43.2"/>
      </g>
     </g>
    </g>
    <g id="xtick_5">
     <g id="line2d_15">
      <path clip-path="url(#p93aeaf4644)" d="
M289.756 180.655
L289.756 43.2" style="fill:none;stroke:#000000;stroke-dasharray:1.000000,3.000000;stroke-dashoffset:0.0;stroke-width:0.5;"/>
     </g>
     <g id="line2d_16">
      <g>
       <use style="stroke:#000000;stroke-width:0.5;" x="289.756097561" xlink:href="#m93b0483c22" y="180.654545455"/>
      </g>
     </g>
     <g id="line2d_17">
      <g>
       <use style="stroke:#000000;stroke-width:0.5;" x="289.756097561" xlink:href="#m741efc42ff" y="43.2"/>
      </g>
     </g>
    </g>
    <g id="xtick_6">
     <g id="line2d_18">
      <path clip-path="url(#p93aeaf4644)" d="
M337.974 180.655
L337.974 43.2" style="fill:none;stroke:#000000;stroke-dasharray:1.000000,3.000000;stroke-dashoffset:0.0;stroke-width:0.5;"/>
     </g>
     <g id="line2d_19">
      <g>
       <use style="stroke:#000000;stroke-width:0.5;" x="337.973519164" xlink:href="#m93b0483c22" y="180.654545455"/>
      </g>
     </g>
     <g id="line2d_20">
      <g>
       <use style="stroke:#000000;stroke-width:0.5;" x="337.973519164" xlink:href="#m741efc42ff" y="43.2"/>
      </g>
     </g>
    </g>
    <g id="xtick_7">
     <g id="line2d_21">
      <path clip-path="url(#p93aeaf4644)" d="
M384.636 180.655
L384.636 43.2" style="fill:none;stroke:#000000;stroke-dasharray:1.000000,3.000000;stroke-dashoffset:0.0;stroke-width:0.5;"/>
     </g>
     <g id="line2d_22">
      <g>
       <use style="stroke:#000000;stroke-width:0.5;" x="384.63554007" xlink:href="#m93b0483c22" y="180.654545455"/>
      </g>
     </g>
     <g id="line2d_23">
      <g>
       <use style="stroke:#000000;stroke-width:0.5;" x="384.63554007" xlink:href="#m741efc42ff" y="43.2"/>
      </g>
     </g>
    </g>
    <g id="xtick_8">
     <g id="line2d_24">
      <path clip-path="url(#p93aeaf4644)" d="
M432.853 180.655
L432.853 43.2" style="fill:none;stroke:#000000;stroke-dasharray:1.000000,3.000000;stroke-dashoffset:0.0;stroke-width:0.5;"/>
     </g>
     <g id="line2d_25">
      <g>
       <use style="stroke:#000000;stroke-width:0.5;" x="432.852961672" xlink:href="#m93b0483c22" y="180.654545455"/>
      </g>
     </g>
     <g id="line2d_26">
      <g>
       <use style="stroke:#000000;stroke-width:0.5;" x="432.852961672" xlink:href="#m741efc42ff" y="43.2"/>
      </g>
     </g>
    </g>
    <g id="xtick_9">
     <g id="line2d_27">
      <path clip-path="url(#p93aeaf4644)" d="
M481.07 180.655
L481.07 43.2" style="fill:none;stroke:#000000;stroke-dasharray:1.000000,3.000000;stroke-dashoffset:0.0;stroke-width:0.5;"/>
     </g>
     <g id="line2d_28">
      <g>
       <use style="stroke:#000000;stroke-width:0.5;" x="481.070383275" xlink:href="#m93b0483c22" y="180.654545455"/>
      </g>
     </g>
     <g id="line2d_29">
      <g>
       <use style="stroke:#000000;stroke-width:0.5;" x="481.070383275" xlink:href="#m741efc42ff" y="43.2"/>
      </g>
     </g>
    </g>
   </g>
   <g id="matplotlib.axis_2">
    <g id="ytick_1">
     <g id="line2d_30">
      <path clip-path="url(#p93aeaf4644)" d="
M72 180.655
L518.4 180.655" style="fill:none;stroke:#000000;stroke-dasharray:1.000000,3.000000;stroke-dashoffset:0.0;stroke-width:0.5;"/>
     </g>
     <g id="line2d_31">
      <defs>
       <path d="
M0 0
L4 0" id="m728421d6d4" style="stroke:#000000;stroke-width:0.5;"/>
      </defs>
      <g>
       <use style="stroke:#000000;stroke-width:0.5;" x="72.0" xlink:href="#m728421d6d4" y="180.654545455"/>
      </g>
     </g>
     <g id="line2d_32">
      <defs>
       <path d="
M0 0
L-4 0" id="mcb0005524f" style="stroke:#000000;stroke-width:0.5;"/>
      </defs>
      <g>
       <use style="stroke:#000000;stroke-width:0.5;" x="518.4" xlink:href="#mcb0005524f" y="180.654545455"/>
      </g>
     </g>
     <g id="text_1">
      <!-- 0.0016 -->
      <defs>
       <path d="
M33.0156 40.375
Q26.375 40.375 22.4844 35.8281
Q18.6094 31.2969 18.6094 23.3906
Q18.6094 15.5312 22.4844 10.9531
Q26.375 6.39062 33.0156 6.39062
Q39.6562 6.39062 43.5312 10.9531
Q47.4062 15.5312 47.4062 23.3906
Q47.4062 31.2969 43.5312 35.8281
Q39.6562 40.375 33.0156 40.375
M52.5938 71.2969
L52.5938 62.3125
Q48.875 64.0625 45.0938 64.9844
Q41.3125 65.9219 37.5938 65.9219
Q27.8281 65.9219 22.6719 59.3281
Q17.5312 52.7344 16.7969 39.4062
Q19.6719 43.6562 24.0156 45.9219
Q28.375 48.1875 33.5938 48.1875
Q44.5781 48.1875 50.9531 41.5156
Q57.3281 34.8594 57.3281 23.3906
Q57.3281 12.1562 50.6875 5.35938
Q44.0469 -1.42188 33.0156 -1.42188
Q20.3594 -1.42188 13.6719 8.26562
Q6.98438 17.9688 6.98438 36.375
Q6.98438 53.6562 15.1875 63.9375
Q23.3906 74.2188 37.2031 74.2188
Q40.9219 74.2188 44.7031 73.4844
Q48.4844 72.75 52.5938 71.2969" id="BitstreamVeraSans-Roman-36"/>
       <path d="
M31.7812 66.4062
Q24.1719 66.4062 20.3281 58.9062
Q16.5 51.4219 16.5 36.375
Q16.5 21.3906 20.3281 13.8906
Q24.1719 6.39062 31.7812 6.39062
Q39.4531 6.39062 43.2812 13.8906
Q47.125 21.3906 47.125 36.375
Q47.125 51.4219 43.2812 58.9062
Q39.4531 66.4062 31.7812 66.4062
M31.7812 74.2188
Q44.0469 74.2188 50.5156 64.5156
Q56.9844 54.8281 56.9844 36.375
Q56.9844 17.9688 50.5156 8.26562
Q44.0469 -1.42188 31.7812 -1.42188
Q19.5312 -1.42188 13.0625 8.26562
Q6.59375 17.9688 6.59375 36.375
Q6.59375 54.8281 13.0625 64.5156
Q19.5312 74.2188 31.7812 74.2188" id="BitstreamVeraSans-Roman-30"/>
       <path d="
M12.4062 8.29688
L28.5156 8.29688
L28.5156 63.9219
L10.9844 60.4062
L10.9844 69.3906
L28.4219 72.9062
L38.2812 72.9062
L38.2812 8.29688
L54.3906 8.29688
L54.3906 0
L12.4062 0
z
" id="BitstreamVeraSans-Roman-31"/>
       <path d="
M10.6875 12.4062
L21 12.4062
L21 0
L10.6875 0
z
" id="BitstreamVeraSans-Roman-2e"/>
      </defs>
      <g transform="translate(41.03875 182.862045455)scale(0.08 -0.08)">
       <use xlink:href="#BitstreamVeraSans-Roman-30"/>
       <use x="63.623046875" xlink:href="#BitstreamVeraSans-Roman-2e"/>
       <use x="95.41015625" xlink:href="#BitstreamVeraSans-Roman-30"/>
       <use x="159.033203125" xlink:href="#BitstreamVeraSans-Roman-30"/>
       <use x="222.65625" xlink:href="#BitstreamVeraSans-Roman-31"/>
       <use x="286.279296875" xlink:href="#BitstreamVeraSans-Roman-36"/>
      </g>
     </g>
    </g>
    <g id="ytick_2">
     <g id="line2d_33">
      <path clip-path="url(#p93aeaf4644)" d="
M72 163.473
L518.4 163.473" style="fill:none;stroke:#000000;stroke-dasharray:1.000000,3.000000;stroke-dashoffset:0.0;stroke-width:0.5;"/>
     </g>
     <g id="line2d_34">
      <g>
       <use style="stroke:#000000;stroke-width:0.5;" x="72.0" xlink:href="#m728421d6d4" y="163.472727273"/>
      </g>
     </g>
     <g id="line2d_35">
      <g>
       <use style="stroke:#000000;stroke-width:0.5;" x="518.4" xlink:href="#mcb0005524f" y="163.472727273"/>
      </g>
     </g>
     <g id="text_2">
      <!-- 0.0017 -->
      <defs>
       <path d="
M8.20312 72.9062
L55.0781 72.9062
L55.0781 68.7031
L28.6094 0
L18.3125 0
L43.2188 64.5938
L8.20312 64.5938
z
" id="BitstreamVeraSans-Roman-37"/>
      </defs>
      <g transform="translate(41.21875 165.680227273)scale(0.08 -0.08)">
       <use xlink:href="#BitstreamVeraSans-Roman-30"/>
       <use x="63.623046875" xlink:href="#BitstreamVeraSans-Roman-2e"/>
       <use x="95.41015625" xlink:href="#BitstreamVeraSans-Roman-30"/>
       <use x="159.033203125" xlink:href="#BitstreamVeraSans-Roman-30"/>
       <use x="222.65625" xlink:href="#BitstreamVeraSans-Roman-31"/>
       <use x="286.279296875" xlink:href="#BitstreamVeraSans-Roman-37"/>
      </g>
     </g>
    </g>
    <g id="ytick_3">
     <g id="line2d_36">
      <path clip-path="url(#p93aeaf4644)" d="
M72 146.291
L518.4 146.291" style="fill:none;stroke:#000000;stroke-dasharray:1.000000,3.000000;stroke-dashoffset:0.0;stroke-width:0.5;"/>
     </g>
     <g id="line2d_37">
      <g>
       <use style="stroke:#000000;stroke-width:0.5;" x="72.0" xlink:href="#m728421d6d4" y="146.290909091"/>
      </g>
     </g>
     <g id="line2d_38">
      <g>
       <use style="stroke:#000000;stroke-width:0.5;" x="518.4" xlink:href="#mcb0005524f" y="146.290909091"/>
      </g>
     </g>
     <g id="text_3">
      <!-- 0.0018 -->
      <defs>
       <path d="
M31.7812 34.625
Q24.75 34.625 20.7188 30.8594
Q16.7031 27.0938 16.7031 20.5156
Q16.7031 13.9219 20.7188 10.1562
Q24.75 6.39062 31.7812 6.39062
Q38.8125 6.39062 42.8594 10.1719
Q46.9219 13.9688 46.9219 20.5156
Q46.9219 27.0938 42.8906 30.8594
Q38.875 34.625 31.7812 34.625
M21.9219 38.8125
Q15.5781 40.375 12.0312 44.7188
Q8.5 49.0781 8.5 55.3281
Q8.5 64.0625 14.7188 69.1406
Q20.9531 74.2188 31.7812 74.2188
Q42.6719 74.2188 48.875 69.1406
Q55.0781 64.0625 55.0781 55.3281
Q55.0781 49.0781 51.5312 44.7188
Q48 40.375 41.7031 38.8125
Q48.8281 37.1562 52.7969 32.3125
Q56.7812 27.4844 56.7812 20.5156
Q56.7812 9.90625 50.3125 4.23438
Q43.8438 -1.42188 31.7812 -1.42188
Q19.7344 -1.42188 13.25 4.23438
Q6.78125 9.90625 6.78125 20.5156
Q6.78125 27.4844 10.7812 32.3125
Q14.7969 37.1562 21.9219 38.8125
M18.3125 54.3906
Q18.3125 48.7344 21.8438 45.5625
Q25.3906 42.3906 31.7812 42.3906
Q38.1406 42.3906 41.7188 45.5625
Q45.3125 48.7344 45.3125 54.3906
Q45.3125 60.0625 41.7188 63.2344
Q38.1406 66.4062 31.7812 66.4062
Q25.3906 66.4062 21.8438 63.2344
Q18.3125 60.0625 18.3125 54.3906" id="BitstreamVeraSans-Roman-38"/>
      </defs>
      <g transform="translate(41.0825 148.498409091)scale(0.08 -0.08)">
       <use xlink:href="#BitstreamVeraSans-Roman-30"/>
       <use x="63.623046875" xlink:href="#BitstreamVeraSans-Roman-2e"/>
       <use x="95.41015625" xlink:href="#BitstreamVeraSans-Roman-30"/>
       <use x="159.033203125" xlink:href="#BitstreamVeraSans-Roman-30"/>
       <use x="222.65625" xlink:href="#BitstreamVeraSans-Roman-31"/>
       <use x="286.279296875" xlink:href="#BitstreamVeraSans-Roman-38"/>
      </g>
     </g>
    </g>
    <g id="ytick_4">
     <g id="line2d_39">
      <path clip-path="url(#p93aeaf4644)" d="
M72 129.109
L518.4 129.109" style="fill:none;stroke:#000000;stroke-dasharray:1.000000,3.000000;stroke-dashoffset:0.0;stroke-width:0.5;"/>
     </g>
     <g id="line2d_40">
      <g>
       <use style="stroke:#000000;stroke-width:0.5;" x="72.0" xlink:href="#m728421d6d4" y="129.109090909"/>
      </g>
     </g>
     <g id="line2d_41">
      <g>
       <use style="stroke:#000000;stroke-width:0.5;" x="518.4" xlink:href="#mcb0005524f" y="129.109090909"/>
      </g>
     </g>
     <g id="text_4">
      <!-- 0.0019 -->
      <defs>
       <path d="
M10.9844 1.51562
L10.9844 10.5
Q14.7031 8.73438 18.5 7.8125
Q22.3125 6.89062 25.9844 6.89062
Q35.75 6.89062 40.8906 13.4531
Q46.0469 20.0156 46.7812 33.4062
Q43.9531 29.2031 39.5938 26.9531
Q35.25 24.7031 29.9844 24.7031
Q19.0469 24.7031 12.6719 31.3125
Q6.29688 37.9375 6.29688 49.4219
Q6.29688 60.6406 12.9375 67.4219
Q19.5781 74.2188 30.6094 74.2188
Q43.2656 74.2188 49.9219 64.5156
Q56.5938 54.8281 56.5938 36.375
Q56.5938 19.1406 48.4062 8.85938
Q40.2344 -1.42188 26.4219 -1.42188
Q22.7031 -1.42188 18.8906 -0.6875
Q15.0938 0.046875 10.9844 1.51562
M30.6094 32.4219
Q37.25 32.4219 41.125 36.9531
Q45.0156 41.5 45.0156 49.4219
Q45.0156 57.2812 41.125 61.8438
Q37.25 66.4062 30.6094 66.4062
Q23.9688 66.4062 20.0938 61.8438
Q16.2188 57.2812 16.2188 49.4219
Q16.2188 41.5 20.0938 36.9531
Q23.9688 32.4219 30.6094 32.4219" id="BitstreamVeraSans-Roman-39"/>
      </defs>
      <g transform="translate(41.0975 131.316590909)scale(0.08 -0.08)">
       <use xlink:href="#BitstreamVeraSans-Roman-30"/>
       <use x="63.623046875" xlink:href="#BitstreamVeraSans-Roman-2e"/>
       <use x="95.41015625" xlink:href="#BitstreamVeraSans-Roman-30"/>
       <use x="159.033203125" xlink:href="#BitstreamVeraSans-Roman-30"/>
       <use x="222.65625" xlink:href="#BitstreamVeraSans-Roman-31"/>
       <use x="286.279296875" xlink:href="#BitstreamVeraSans-Roman-39"/>
      </g>
     </g>
    </g>
    <g id="ytick_5">
     <g id="line2d_42">
      <path clip-path="url(#p93aeaf4644)" d="
M72 111.927
L518.4 111.927" style="fill:none;stroke:#000000;stroke-dasharray:1.000000,3.000000;stroke-dashoffset:0.0;stroke-width:0.5;"/>
     </g>
     <g id="line2d_43">
      <g>
       <use style="stroke:#000000;stroke-width:0.5;" x="72.0" xlink:href="#m728421d6d4" y="111.927272727"/>
      </g>
     </g>
     <g id="line2d_44">
      <g>
       <use style="stroke:#000000;stroke-width:0.5;" x="518.4" xlink:href="#mcb0005524f" y="111.927272727"/>
      </g>
     </g>
     <g id="text_5">
      <!-- 0.002 -->
      <defs>
       <path d="
M19.1875 8.29688
L53.6094 8.29688
L53.6094 0
L7.32812 0
L7.32812 8.29688
Q12.9375 14.1094 22.625 23.8906
Q32.3281 33.6875 34.8125 36.5312
Q39.5469 41.8438 41.4219 45.5312
Q43.3125 49.2188 43.3125 52.7812
Q43.3125 58.5938 39.2344 62.25
Q35.1562 65.9219 28.6094 65.9219
Q23.9688 65.9219 18.8125 64.3125
Q13.6719 62.7031 7.8125 59.4219
L7.8125 69.3906
Q13.7656 71.7812 18.9375 73
Q24.125 74.2188 28.4219 74.2188
Q39.75 74.2188 46.4844 68.5469
Q53.2188 62.8906 53.2188 53.4219
Q53.2188 48.9219 51.5312 44.8906
Q49.8594 40.875 45.4062 35.4062
Q44.1875 33.9844 37.6406 27.2188
Q31.1094 20.4531 19.1875 8.29688" id="BitstreamVeraSans-Roman-32"/>
      </defs>
      <g transform="translate(46.42625 114.134772727)scale(0.08 -0.08)">
       <use xlink:href="#BitstreamVeraSans-Roman-30"/>
       <use x="63.623046875" xlink:href="#BitstreamVeraSans-Roman-2e"/>
       <use x="95.41015625" xlink:href="#BitstreamVeraSans-Roman-30"/>
       <use x="159.033203125" xlink:href="#BitstreamVeraSans-Roman-30"/>
       <use x="222.65625" xlink:href="#BitstreamVeraSans-Roman-32"/>
      </g>
     </g>
    </g>
    <g id="ytick_6">
     <g id="line2d_45">
      <path clip-path="url(#p93aeaf4644)" d="
M72 94.7455
L518.4 94.7455" style="fill:none;stroke:#000000;stroke-dasharray:1.000000,3.000000;stroke-dashoffset:0.0;stroke-width:0.5;"/>
     </g>
     <g id="line2d_46">
      <g>
       <use style="stroke:#000000;stroke-width:0.5;" x="72.0" xlink:href="#m728421d6d4" y="94.7454545455"/>
      </g>
     </g>
     <g id="line2d_47">
      <g>
       <use style="stroke:#000000;stroke-width:0.5;" x="518.4" xlink:href="#mcb0005524f" y="94.7454545455"/>
      </g>
     </g>
     <g id="text_6">
      <!-- 0.0021 -->
      <g transform="translate(41.27375 96.9529545455)scale(0.08 -0.08)">
       <use xlink:href="#BitstreamVeraSans-Roman-30"/>
       <use x="63.623046875" xlink:href="#BitstreamVeraSans-Roman-2e"/>
       <use x="95.41015625" xlink:href="#BitstreamVeraSans-Roman-30"/>
       <use x="159.033203125" xlink:href="#BitstreamVeraSans-Roman-30"/>
       <use x="222.65625" xlink:href="#BitstreamVeraSans-Roman-32"/>
       <use x="286.279296875" xlink:href="#BitstreamVeraSans-Roman-31"/>
      </g>
     </g>
    </g>
    <g id="ytick_7">
     <g id="line2d_48">
      <path clip-path="url(#p93aeaf4644)" d="
M72 77.5636
L518.4 77.5636" style="fill:none;stroke:#000000;stroke-dasharray:1.000000,3.000000;stroke-dashoffset:0.0;stroke-width:0.5;"/>
     </g>
     <g id="line2d_49">
      <g>
       <use style="stroke:#000000;stroke-width:0.5;" x="72.0" xlink:href="#m728421d6d4" y="77.5636363636"/>
      </g>
     </g>
     <g id="line2d_50">
      <g>
       <use style="stroke:#000000;stroke-width:0.5;" x="518.4" xlink:href="#mcb0005524f" y="77.5636363636"/>
      </g>
     </g>
     <g id="text_7">
      <!-- 0.0022 -->
      <g transform="translate(41.33625 79.7711363636)scale(0.08 -0.08)">
       <use xlink:href="#BitstreamVeraSans-Roman-30"/>
       <use x="63.623046875" xlink:href="#BitstreamVeraSans-Roman-2e"/>
       <use x="95.41015625" xlink:href="#BitstreamVeraSans-Roman-30"/>
       <use x="159.033203125" xlink:href="#BitstreamVeraSans-Roman-30"/>
       <use x="222.65625" xlink:href="#BitstreamVeraSans-Roman-32"/>
       <use x="286.279296875" xlink:href="#BitstreamVeraSans-Roman-32"/>
      </g>
     </g>
    </g>
    <g id="ytick_8">
     <g id="line2d_51">
      <path clip-path="url(#p93aeaf4644)" d="
M72 60.3818
L518.4 60.3818" style="fill:none;stroke:#000000;stroke-dasharray:1.000000,3.000000;stroke-dashoffset:0.0;stroke-width:0.5;"/>
     </g>
     <g id="line2d_52">
      <g>
       <use style="stroke:#000000;stroke-width:0.5;" x="72.0" xlink:href="#m728421d6d4" y="60.3818181818"/>
      </g>
     </g>
     <g id="line2d_53">
      <g>
       <use style="stroke:#000000;stroke-width:0.5;" x="518.4" xlink:href="#mcb0005524f" y="60.3818181818"/>
      </g>
     </g>
     <g id="text_8">
      <!-- 0.0023 -->
      <defs>
       <path d="
M40.5781 39.3125
Q47.6562 37.7969 51.625 33
Q55.6094 28.2188 55.6094 21.1875
Q55.6094 10.4062 48.1875 4.48438
Q40.7656 -1.42188 27.0938 -1.42188
Q22.5156 -1.42188 17.6562 -0.515625
Q12.7969 0.390625 7.625 2.20312
L7.625 11.7188
Q11.7188 9.32812 16.5938 8.10938
Q21.4844 6.89062 26.8125 6.89062
Q36.0781 6.89062 40.9375 10.5469
Q45.7969 14.2031 45.7969 21.1875
Q45.7969 27.6406 41.2812 31.2656
Q36.7656 34.9062 28.7188 34.9062
L20.2188 34.9062
L20.2188 43.0156
L29.1094 43.0156
Q36.375 43.0156 40.2344 45.9219
Q44.0938 48.8281 44.0938 54.2969
Q44.0938 59.9062 40.1094 62.9062
Q36.1406 65.9219 28.7188 65.9219
Q24.6562 65.9219 20.0156 65.0312
Q15.375 64.1562 9.8125 62.3125
L9.8125 71.0938
Q15.4375 72.6562 20.3438 73.4375
Q25.25 74.2188 29.5938 74.2188
Q40.8281 74.2188 47.3594 69.1094
Q53.9062 64.0156 53.9062 55.3281
Q53.9062 49.2656 50.4375 45.0938
Q46.9688 40.9219 40.5781 39.3125" id="BitstreamVeraSans-Roman-33"/>
      </defs>
      <g transform="translate(41.17625 62.5893181818)scale(0.08 -0.08)">
       <use xlink:href="#BitstreamVeraSans-Roman-30"/>
       <use x="63.623046875" xlink:href="#BitstreamVeraSans-Roman-2e"/>
       <use x="95.41015625" xlink:href="#BitstreamVeraSans-Roman-30"/>
       <use x="159.033203125" xlink:href="#BitstreamVeraSans-Roman-30"/>
       <use x="222.65625" xlink:href="#BitstreamVeraSans-Roman-32"/>
       <use x="286.279296875" xlink:href="#BitstreamVeraSans-Roman-33"/>
      </g>
     </g>
    </g>
    <g id="ytick_9">
     <g id="line2d_54">
      <path clip-path="url(#p93aeaf4644)" d="
M72 43.2
L518.4 43.2" style="fill:none;stroke:#000000;stroke-dasharray:1.000000,3.000000;stroke-dashoffset:0.0;stroke-width:0.5;"/>
     </g>
     <g id="line2d_55">
      <g>
       <use style="stroke:#000000;stroke-width:0.5;" x="72.0" xlink:href="#m728421d6d4" y="43.2"/>
      </g>
     </g>
     <g id="line2d_56">
      <g>
       <use style="stroke:#000000;stroke-width:0.5;" x="518.4" xlink:href="#mcb0005524f" y="43.2"/>
      </g>
     </g>
     <g id="text_9">
      <!-- 0.0024 -->
      <defs>
       <path d="
M37.7969 64.3125
L12.8906 25.3906
L37.7969 25.3906
z

M35.2031 72.9062
L47.6094 72.9062
L47.6094 25.3906
L58.0156 25.3906
L58.0156 17.1875
L47.6094 17.1875
L47.6094 0
L37.7969 0
L37.7969 17.1875
L4.89062 17.1875
L4.89062 26.7031
z
" id="BitstreamVeraSans-Roman-34"/>
      </defs>
      <g transform="translate(40.98375 45.4075)scale(0.08 -0.08)">
       <use xlink:href="#BitstreamVeraSans-Roman-30"/>
       <use x="63.623046875" xlink:href="#BitstreamVeraSans-Roman-2e"/>
       <use x="95.41015625" xlink:href="#BitstreamVeraSans-Roman-30"/>
       <use x="159.033203125" xlink:href="#BitstreamVeraSans-Roman-30"/>
       <use x="222.65625" xlink:href="#BitstreamVeraSans-Roman-32"/>
       <use x="286.279296875" xlink:href="#BitstreamVeraSans-Roman-34"/>
      </g>
     </g>
    </g>
   </g>
   <g id="text_10">
    <!-- Simulated vs Observed series -->
    <defs>
     <path id="BitstreamVeraSans-Roman-20"/>
     <path d="
M39.4062 66.2188
Q28.6562 66.2188 22.3281 58.2031
Q16.0156 50.2031 16.0156 36.375
Q16.0156 22.6094 22.3281 14.5938
Q28.6562 6.59375 39.4062 6.59375
Q50.1406 6.59375 56.4219 14.5938
Q62.7031 22.6094 62.7031 36.375
Q62.7031 50.2031 56.4219 58.2031
Q50.1406 66.2188 39.4062 66.2188
M39.4062 74.2188
Q54.7344 74.2188 63.9062 63.9375
Q73.0938 53.6562 73.0938 36.375
Q73.0938 19.1406 63.9062 8.85938
Q54.7344 -1.42188 39.4062 -1.42188
Q24.0312 -1.42188 14.8125 8.82812
Q5.60938 19.0938 5.60938 36.375
Q5.60938 53.6562 14.8125 63.9375
Q24.0312 74.2188 39.4062 74.2188" id="BitstreamVeraSans-Roman-4f"/>
     <path d="
M41.1094 46.2969
Q39.5938 47.1719 37.8125 47.5781
Q36.0312 48 33.8906 48
Q26.2656 48 22.1875 43.0469
Q18.1094 38.0938 18.1094 28.8125
L18.1094 0
L9.07812 0
L9.07812 54.6875
L18.1094 54.6875
L18.1094 46.1875
Q20.9531 51.1719 25.4844 53.5781
Q30.0312 56 36.5312 56
Q37.4531 56 38.5781 55.875
Q39.7031 55.7656 41.0625 55.5156
z
" id="BitstreamVeraSans-Roman-72"/>
     <path d="
M52 44.1875
Q55.375 50.25 60.0625 53.125
Q64.75 56 71.0938 56
Q79.6406 56 84.2812 50.0156
Q88.9219 44.0469 88.9219 33.0156
L88.9219 0
L79.8906 0
L79.8906 32.7188
Q79.8906 40.5781 77.0938 44.375
Q74.3125 48.1875 68.6094 48.1875
Q61.625 48.1875 57.5625 43.5469
Q53.5156 38.9219 53.5156 30.9062
L53.5156 0
L44.4844 0
L44.4844 32.7188
Q44.4844 40.625 41.7031 44.4062
Q38.9219 48.1875 33.1094 48.1875
Q26.2188 48.1875 22.1562 43.5312
Q18.1094 38.875 18.1094 30.9062
L18.1094 0
L9.07812 0
L9.07812 54.6875
L18.1094 54.6875
L18.1094 46.1875
Q21.1875 51.2188 25.4844 53.6094
Q29.7812 56 35.6875 56
Q41.6562 56 45.8281 52.9688
Q50 49.9531 52 44.1875" id="BitstreamVeraSans-Roman-6d"/>
     <path d="
M9.42188 75.9844
L18.4062 75.9844
L18.4062 0
L9.42188 0
z
" id="BitstreamVeraSans-Roman-6c"/>
     <path d="
M2.98438 54.6875
L12.5 54.6875
L29.5938 8.79688
L46.6875 54.6875
L56.2031 54.6875
L35.6875 0
L23.4844 0
z
" id="BitstreamVeraSans-Roman-76"/>
     <path d="
M53.5156 70.5156
L53.5156 60.8906
Q47.9062 63.5781 42.9219 64.8906
Q37.9375 66.2188 33.2969 66.2188
Q25.25 66.2188 20.875 63.0938
Q16.5 59.9688 16.5 54.2031
Q16.5 49.3594 19.4062 46.8906
Q22.3125 44.4375 30.4219 42.9219
L36.375 41.7031
Q47.4062 39.5938 52.6562 34.2969
Q57.9062 29 57.9062 20.125
Q57.9062 9.51562 50.7969 4.04688
Q43.7031 -1.42188 29.9844 -1.42188
Q24.8125 -1.42188 18.9688 -0.25
Q13.1406 0.921875 6.89062 3.21875
L6.89062 13.375
Q12.8906 10.0156 18.6562 8.29688
Q24.4219 6.59375 29.9844 6.59375
Q38.4219 6.59375 43.0156 9.90625
Q47.6094 13.2344 47.6094 19.3906
Q47.6094 24.75 44.3125 27.7812
Q41.0156 30.8125 33.5 32.3281
L27.4844 33.5
Q16.4531 35.6875 11.5156 40.375
Q6.59375 45.0625 6.59375 53.4219
Q6.59375 63.0938 13.4062 68.6562
Q20.2188 74.2188 32.1719 74.2188
Q37.3125 74.2188 42.625 73.2812
Q47.9531 72.3594 53.5156 70.5156" id="BitstreamVeraSans-Roman-53"/>
     <path d="
M9.42188 54.6875
L18.4062 54.6875
L18.4062 0
L9.42188 0
z

M9.42188 75.9844
L18.4062 75.9844
L18.4062 64.5938
L9.42188 64.5938
z
" id="BitstreamVeraSans-Roman-69"/>
     <path d="
M56.2031 29.5938
L56.2031 25.2031
L14.8906 25.2031
Q15.4844 15.9219 20.4844 11.0625
Q25.4844 6.20312 34.4219 6.20312
Q39.5938 6.20312 44.4531 7.46875
Q49.3125 8.73438 54.1094 11.2812
L54.1094 2.78125
Q49.2656 0.734375 44.1875 -0.34375
Q39.1094 -1.42188 33.8906 -1.42188
Q20.7969 -1.42188 13.1562 6.1875
Q5.51562 13.8125 5.51562 26.8125
Q5.51562 40.2344 12.7656 48.1094
Q20.0156 56 32.3281 56
Q43.3594 56 49.7812 48.8906
Q56.2031 41.7969 56.2031 29.5938
M47.2188 32.2344
Q47.125 39.5938 43.0938 43.9844
Q39.0625 48.3906 32.4219 48.3906
Q24.9062 48.3906 20.3906 44.1406
Q15.875 39.8906 15.1875 32.1719
z
" id="BitstreamVeraSans-Roman-65"/>
     <path d="
M45.4062 46.3906
L45.4062 75.9844
L54.3906 75.9844
L54.3906 0
L45.4062 0
L45.4062 8.20312
Q42.5781 3.32812 38.25 0.953125
Q33.9375 -1.42188 27.875 -1.42188
Q17.9688 -1.42188 11.7344 6.48438
Q5.51562 14.4062 5.51562 27.2969
Q5.51562 40.1875 11.7344 48.0938
Q17.9688 56 27.875 56
Q33.9375 56 38.25 53.625
Q42.5781 51.2656 45.4062 46.3906
M14.7969 27.2969
Q14.7969 17.3906 18.875 11.75
Q22.9531 6.10938 30.0781 6.10938
Q37.2031 6.10938 41.2969 11.75
Q45.4062 17.3906 45.4062 27.2969
Q45.4062 37.2031 41.2969 42.8438
Q37.2031 48.4844 30.0781 48.4844
Q22.9531 48.4844 18.875 42.8438
Q14.7969 37.2031 14.7969 27.2969" id="BitstreamVeraSans-Roman-64"/>
     <path d="
M18.3125 70.2188
L18.3125 54.6875
L36.8125 54.6875
L36.8125 47.7031
L18.3125 47.7031
L18.3125 18.0156
Q18.3125 11.3281 20.1406 9.42188
Q21.9688 7.51562 27.5938 7.51562
L36.8125 7.51562
L36.8125 0
L27.5938 0
Q17.1875 0 13.2344 3.875
Q9.28125 7.76562 9.28125 18.0156
L9.28125 47.7031
L2.6875 47.7031
L2.6875 54.6875
L9.28125 54.6875
L9.28125 70.2188
z
" id="BitstreamVeraSans-Roman-74"/>
     <path d="
M8.5 21.5781
L8.5 54.6875
L17.4844 54.6875
L17.4844 21.9219
Q17.4844 14.1562 20.5 10.2656
Q23.5312 6.39062 29.5938 6.39062
Q36.8594 6.39062 41.0781 11.0312
Q45.3125 15.6719 45.3125 23.6875
L45.3125 54.6875
L54.2969 54.6875
L54.2969 0
L45.3125 0
L45.3125 8.40625
Q42.0469 3.42188 37.7188 1
Q33.4062 -1.42188 27.6875 -1.42188
Q18.2656 -1.42188 13.375 4.4375
Q8.5 10.2969 8.5 21.5781" id="BitstreamVeraSans-Roman-75"/>
     <path d="
M34.2812 27.4844
Q23.3906 27.4844 19.1875 25
Q14.9844 22.5156 14.9844 16.5
Q14.9844 11.7188 18.1406 8.90625
Q21.2969 6.10938 26.7031 6.10938
Q34.1875 6.10938 38.7031 11.4062
Q43.2188 16.7031 43.2188 25.4844
L43.2188 27.4844
z

M52.2031 31.2031
L52.2031 0
L43.2188 0
L43.2188 8.29688
Q40.1406 3.32812 35.5469 0.953125
Q30.9531 -1.42188 24.3125 -1.42188
Q15.9219 -1.42188 10.9531 3.29688
Q6 8.01562 6 15.9219
Q6 25.1406 12.1719 29.8281
Q18.3594 34.5156 30.6094 34.5156
L43.2188 34.5156
L43.2188 35.4062
Q43.2188 41.6094 39.1406 45
Q35.0625 48.3906 27.6875 48.3906
Q23 48.3906 18.5469 47.2656
Q14.1094 46.1406 10.0156 43.8906
L10.0156 52.2031
Q14.9375 54.1094 19.5781 55.0469
Q24.2188 56 28.6094 56
Q40.4844 56 46.3438 49.8438
Q52.2031 43.7031 52.2031 31.2031" id="BitstreamVeraSans-Roman-61"/>
     <path d="
M44.2812 53.0781
L44.2812 44.5781
Q40.4844 46.5312 36.375 47.5
Q32.2812 48.4844 27.875 48.4844
Q21.1875 48.4844 17.8438 46.4375
Q14.5 44.3906 14.5 40.2812
Q14.5 37.1562 16.8906 35.375
Q19.2812 33.5938 26.5156 31.9844
L29.5938 31.2969
Q39.1562 29.25 43.1875 25.5156
Q47.2188 21.7812 47.2188 15.0938
Q47.2188 7.46875 41.1875 3.01562
Q35.1562 -1.42188 24.6094 -1.42188
Q20.2188 -1.42188 15.4531 -0.5625
Q10.6875 0.296875 5.42188 2
L5.42188 11.2812
Q10.4062 8.6875 15.2344 7.39062
Q20.0625 6.10938 24.8125 6.10938
Q31.1562 6.10938 34.5625 8.28125
Q37.9844 10.4531 37.9844 14.4062
Q37.9844 18.0625 35.5156 20.0156
Q33.0625 21.9688 24.7031 23.7812
L21.5781 24.5156
Q13.2344 26.2656 9.51562 29.9062
Q5.8125 33.5469 5.8125 39.8906
Q5.8125 47.6094 11.2812 51.7969
Q16.75 56 26.8125 56
Q31.7812 56 36.1719 55.2656
Q40.5781 54.5469 44.2812 53.0781" id="BitstreamVeraSans-Roman-73"/>
     <path d="
M48.6875 27.2969
Q48.6875 37.2031 44.6094 42.8438
Q40.5312 48.4844 33.4062 48.4844
Q26.2656 48.4844 22.1875 42.8438
Q18.1094 37.2031 18.1094 27.2969
Q18.1094 17.3906 22.1875 11.75
Q26.2656 6.10938 33.4062 6.10938
Q40.5312 6.10938 44.6094 11.75
Q48.6875 17.3906 48.6875 27.2969
M18.1094 46.3906
Q20.9531 51.2656 25.2656 53.625
Q29.5938 56 35.5938 56
Q45.5625 56 51.7812 48.0938
Q58.0156 40.1875 58.0156 27.2969
Q58.0156 14.4062 51.7812 6.48438
Q45.5625 -1.42188 35.5938 -1.42188
Q29.5938 -1.42188 25.2656 0.953125
Q20.9531 3.32812 18.1094 8.20312
L18.1094 0
L9.07812 0
L9.07812 75.9844
L18.1094 75.9844
z
" id="BitstreamVeraSans-Roman-62"/>
    </defs>
    <g transform="translate(188.326125 38.2)scale(0.144 -0.144)">
     <use xlink:href="#BitstreamVeraSans-Roman-53"/>
     <use x="63.4765625" xlink:href="#BitstreamVeraSans-Roman-69"/>
     <use x="91.259765625" xlink:href="#BitstreamVeraSans-Roman-6d"/>
     <use x="188.671875" xlink:href="#BitstreamVeraSans-Roman-75"/>
     <use x="252.05078125" xlink:href="#BitstreamVeraSans-Roman-6c"/>
     <use x="279.833984375" xlink:href="#BitstreamVeraSans-Roman-61"/>
     <use x="341.11328125" xlink:href="#BitstreamVeraSans-Roman-74"/>
     <use x="380.322265625" xlink:href="#BitstreamVeraSans-Roman-65"/>
     <use x="441.845703125" xlink:href="#BitstreamVeraSans-Roman-64"/>
     <use x="505.322265625" xlink:href="#BitstreamVeraSans-Roman-20"/>
     <use x="537.109375" xlink:href="#BitstreamVeraSans-Roman-76"/>
     <use x="596.2890625" xlink:href="#BitstreamVeraSans-Roman-73"/>
     <use x="648.388671875" xlink:href="#BitstreamVeraSans-Roman-20"/>
     <use x="680.17578125" xlink:href="#BitstreamVeraSans-Roman-4f"/>
     <use x="758.88671875" xlink:href="#BitstreamVeraSans-Roman-62"/>
     <use x="822.36328125" xlink:href="#BitstreamVeraSans-Roman-73"/>
     <use x="874.462890625" xlink:href="#BitstreamVeraSans-Roman-65"/>
     <use x="935.986328125" xlink:href="#BitstreamVeraSans-Roman-72"/>
     <use x="977.099609375" xlink:href="#BitstreamVeraSans-Roman-76"/>
     <use x="1036.27929688" xlink:href="#BitstreamVeraSans-Roman-65"/>
     <use x="1097.80273438" xlink:href="#BitstreamVeraSans-Roman-64"/>
     <use x="1161.27929688" xlink:href="#BitstreamVeraSans-Roman-20"/>
     <use x="1193.06640625" xlink:href="#BitstreamVeraSans-Roman-73"/>
     <use x="1245.16601562" xlink:href="#BitstreamVeraSans-Roman-65"/>
     <use x="1306.68945312" xlink:href="#BitstreamVeraSans-Roman-72"/>
     <use x="1347.80273438" xlink:href="#BitstreamVeraSans-Roman-69"/>
     <use x="1375.5859375" xlink:href="#BitstreamVeraSans-Roman-65"/>
     <use x="1437.109375" xlink:href="#BitstreamVeraSans-Roman-73"/>
    </g>
   </g>
   <g id="legend_1">
    <g id="patch_7">
     <path d="
M392.256 96.993
L511.2 96.993
L511.2 50.4
L392.256 50.4
z
" style="fill:#ffffff;stroke:#000000;stroke-linejoin:miter;"/>
    </g>
    <g id="line2d_57">
     <path d="
M402.336 62.0617
L422.496 62.0617" style="fill:none;stroke:#000000;stroke-linecap:square;"/>
    </g>
    <g id="line2d_58"/>
    <g id="text_11">
     <!-- $median\; S$ -->
     <defs>
      <path d="
M7.71875 1.70312
Q7.71875 2.29688 7.8125 2.59375
L15.2812 32.4219
Q16.0156 35.2031 16.0156 37.3125
Q16.0156 41.6094 13.0938 41.6094
Q9.96875 41.6094 8.45312 37.8594
Q6.9375 34.125 5.51562 28.4219
Q5.51562 28.125 5.21875 27.9531
Q4.9375 27.7812 4.6875 27.7812
L3.51562 27.7812
Q3.17188 27.7812 2.92188 28.1406
Q2.6875 28.5156 2.6875 28.8125
Q3.76562 33.1562 4.76562 36.1719
Q5.76562 39.2031 7.89062 41.6875
Q10.0156 44.1875 13.1875 44.1875
Q16.9375 44.1875 19.8125 41.8125
Q22.7031 39.4531 22.7031 35.7969
Q25.6875 39.7031 29.6875 41.9375
Q33.6875 44.1875 38.1875 44.1875
Q41.75 44.1875 44.3281 42.9688
Q46.9219 41.75 48.3594 39.2812
Q49.8125 36.8125 49.8125 33.4062
Q49.8125 29.2969 47.9688 23.4844
Q46.1406 17.6719 43.4062 10.5
Q42 7.23438 42 4.5
Q42 1.51562 44.2812 1.51562
Q48.1875 1.51562 50.7969 5.70312
Q53.4219 9.90625 54.5 14.7031
Q54.6875 15.2812 55.3281 15.2812
L56.5 15.2812
Q56.8906 15.2812 57.1562 15.0312
Q57.4219 14.7969 57.4219 14.4062
Q57.4219 14.3125 57.3281 14.1094
Q55.9531 8.45312 52.5625 3.65625
Q49.1719 -1.125 44.0938 -1.125
Q40.5781 -1.125 38.0781 1.29688
Q35.5938 3.71875 35.5938 7.17188
Q35.5938 9.03125 36.375 11.0781
Q37.6406 14.3594 39.2812 18.8906
Q40.9219 23.4375 41.9688 27.5781
Q43.0156 31.7344 43.0156 34.9062
Q43.0156 37.7031 41.8594 39.6562
Q40.7188 41.6094 37.9844 41.6094
Q34.3281 41.6094 31.25 39.9844
Q28.1719 38.375 25.875 35.7188
Q23.5781 33.0625 21.6875 29.3906
L14.8906 2.20312
Q14.5469 0.828125 13.3438 -0.140625
Q12.1562 -1.125 10.6875 -1.125
Q9.46875 -1.125 8.59375 -0.34375
Q7.71875 0.4375 7.71875 1.70312" id="Cmmi10-6e"/>
      <path d="
M7.71875 1.70312
Q7.71875 2.29688 7.8125 2.59375
L15.2812 32.4219
Q16.0156 35.2031 16.0156 37.3125
Q16.0156 41.6094 13.0938 41.6094
Q9.96875 41.6094 8.45312 37.8594
Q6.9375 34.125 5.51562 28.4219
Q5.51562 28.125 5.21875 27.9531
Q4.9375 27.7812 4.6875 27.7812
L3.51562 27.7812
Q3.17188 27.7812 2.92188 28.1406
Q2.6875 28.5156 2.6875 28.8125
Q3.76562 33.1562 4.76562 36.1719
Q5.76562 39.2031 7.89062 41.6875
Q10.0156 44.1875 13.1875 44.1875
Q16.9375 44.1875 19.8125 41.8125
Q22.7031 39.4531 22.7031 35.7969
Q25.6875 39.7031 29.6875 41.9375
Q33.6875 44.1875 38.1875 44.1875
Q42.9219 44.1875 46.3594 41.7656
Q49.8125 39.3594 49.8125 34.9062
Q52.875 39.2656 57 41.7188
Q61.1406 44.1875 66.0156 44.1875
Q71.1875 44.1875 74.3281 41.375
Q77.4844 38.5781 77.4844 33.4062
Q77.4844 29.2969 75.6562 23.4844
Q73.8281 17.6719 71.0938 10.5
Q69.6719 7.03125 69.6719 4.5
Q69.6719 1.51562 72.0156 1.51562
Q75.9219 1.51562 78.5156 5.70312
Q81.1094 9.90625 82.1719 14.7031
Q82.4688 15.2812 83.0156 15.2812
L84.1875 15.2812
Q84.5781 15.2812 84.8438 15.0156
Q85.1094 14.75 85.1094 14.4062
Q85.1094 14.3125 85.0156 14.1094
Q83.6406 8.45312 80.25 3.65625
Q76.8594 -1.125 71.7812 -1.125
Q68.2656 -1.125 65.7656 1.29688
Q63.2812 3.71875 63.2812 7.17188
Q63.2812 8.9375 64.1094 11.0781
Q66.9375 18.6094 68.8125 24.5156
Q70.7031 30.4219 70.7031 34.9062
Q70.7031 37.7031 69.5781 39.6562
Q68.4531 41.6094 65.8281 41.6094
Q60.3594 41.6094 56.3438 38.25
Q52.3438 34.9062 49.4219 29.3906
Q49.2188 28.4219 49.125 27.875
L42.6719 2.20312
Q42.3281 0.828125 41.125 -0.140625
Q39.9375 -1.125 38.4844 -1.125
Q37.3125 -1.125 36.4062 -0.34375
Q35.5 0.4375 35.5 1.70312
Q35.5 2.29688 35.5938 2.59375
L42 28.0781
Q43.0156 32.1719 43.0156 34.9062
Q43.0156 37.7031 41.8594 39.6562
Q40.7188 41.6094 37.9844 41.6094
Q34.3281 41.6094 31.25 39.9844
Q28.1719 38.375 25.875 35.7188
Q23.5781 33.0625 21.6875 29.3906
L14.8906 2.20312
Q14.5469 0.828125 13.3438 -0.140625
Q12.1562 -1.125 10.6875 -1.125
Q9.46875 -1.125 8.59375 -0.34375
Q7.71875 0.4375 7.71875 1.70312" id="Cmmi10-6d"/>
      <path d="
M6.10938 -2.20312
Q5.8125 -2.20312 5.5625 -1.85938
Q5.32812 -1.51562 5.32812 -1.21875
L11.0781 22.125
Q11.2812 22.7031 11.9219 22.7031
L13.0938 22.7031
Q13.4844 22.7031 13.7031 22.4062
Q13.9219 22.125 13.9219 21.6875
Q13.0938 18.2656 13.0938 15.5781
Q13.0938 8.34375 18.0625 4.82812
Q23.0469 1.3125 30.6094 1.3125
Q33.8906 1.3125 37.0625 2.92188
Q40.2344 4.54688 42.5938 7.125
Q44.9688 9.71875 46.375 12.9062
Q47.7969 16.1094 47.7969 19.3906
Q47.7969 22.9062 45.9375 25.6562
Q44.0938 28.4219 40.8281 29.2031
L28.6094 32.4219
Q23.6875 33.7344 20.75 37.7188
Q17.8281 41.7031 17.8281 46.6875
Q17.8281 52.6875 21.3906 58.25
Q24.9531 63.8125 30.6875 67.1562
Q36.4219 70.5156 42.3906 70.5156
Q46.9688 70.5156 50.7969 68.8281
Q54.6406 67.1406 56.6875 63.4844
L62.4062 70.2188
Q62.9844 70.5156 63.0938 70.5156
L63.7188 70.5156
Q64.1094 70.5156 64.3438 70.1719
Q64.5938 69.8281 64.5938 69.4844
L58.7969 46.2969
Q58.6406 45.6094 58.0156 45.6094
L56.7812 45.6094
Q55.9062 45.6094 55.9062 46.6875
Q56.3906 49.8594 56.3906 52.2031
Q56.3906 56.8438 54.7969 60.2812
Q53.2188 63.7188 50.0156 65.5
Q46.8281 67.2812 42.0938 67.2812
Q38.0938 67.2812 34.125 64.9844
Q30.1719 62.7031 27.7344 58.8906
Q25.2969 55.0781 25.2969 50.9844
Q25.2969 47.75 27.1719 45.2656
Q29.0469 42.7812 32.1719 41.8906
L44.3906 38.7188
Q47.7031 37.8438 50.1719 35.625
Q52.6406 33.4062 53.9062 30.3438
Q55.1719 27.2969 55.1719 23.6875
Q55.1719 18.9531 53.1719 14.3281
Q51.1719 9.71875 47.5781 5.90625
Q44 2.09375 39.4531 -0.046875
Q34.9062 -2.20312 30.1719 -2.20312
Q18.2656 -2.20312 13.0938 4.78125
L7.51562 -1.90625
Q6.9375 -2.20312 6.78125 -2.20312
z
" id="Cmmi10-53"/>
      <path d="
M17.3906 -1.125
Q11.0781 -1.125 7.4375 3.64062
Q3.8125 8.40625 3.8125 14.8906
Q3.8125 21.2969 7.125 28.1719
Q10.4531 35.0625 16.0938 39.625
Q21.7344 44.1875 28.2188 44.1875
Q31.2031 44.1875 33.5469 42.5781
Q35.8906 40.9688 37.2031 38.1875
Q38.3281 42.1875 41.6094 42.1875
Q42.875 42.1875 43.7188 41.4219
Q44.5781 40.6719 44.5781 39.4062
Q44.5781 39.1094 44.5469 38.9531
Q44.5312 38.8125 44.4844 38.625
L37.5 10.6875
Q36.8125 7.71875 36.8125 5.8125
Q36.8125 1.51562 39.7031 1.51562
Q42.8281 1.51562 44.4531 5.48438
Q46.0938 9.46875 47.2188 14.7031
Q47.4062 15.2812 48 15.2812
L49.2188 15.2812
Q49.6094 15.2812 49.8438 14.9375
Q50.0938 14.5938 50.0938 14.3125
Q48.3438 7.32812 46.2656 3.09375
Q44.1875 -1.125 39.5 -1.125
Q36.1406 -1.125 33.5469 0.84375
Q30.9531 2.82812 30.3281 6.10938
Q23.875 -1.125 17.3906 -1.125
M17.4844 1.51562
Q21.0938 1.51562 24.4844 4.21875
Q27.875 6.9375 30.3281 10.5938
Q30.4219 10.6875 30.4219 10.8906
L35.7969 32.625
L35.8906 32.9062
Q35.2969 36.4688 33.3125 39.0312
Q31.3438 41.6094 27.9844 41.6094
Q24.6094 41.6094 21.7031 38.8438
Q18.7969 36.0781 16.7969 32.3281
Q14.8438 28.3281 13.0625 21.3438
Q11.2812 14.3594 11.2812 10.5
Q11.2812 7.03125 12.7656 4.26562
Q14.2656 1.51562 17.4844 1.51562" id="Cmmi10-61"/>
      <path d="
M20.125 -1.125
Q15.3281 -1.125 11.7344 1.35938
Q8.15625 3.85938 6.26562 8.07812
Q4.39062 12.3125 4.39062 17
Q4.39062 24.125 7.98438 30.3906
Q11.5781 36.6719 17.7188 40.4219
Q23.875 44.1875 30.9062 44.1875
Q35.2031 44.1875 38.4062 41.9688
Q41.6094 39.75 41.6094 35.5938
Q41.6094 29.8281 37.0156 27.0156
Q32.4219 24.2188 26.6562 23.5625
Q20.9062 22.9062 13.9219 22.9062
L13.625 22.9062
Q12.0156 16.9375 12.0156 12.7031
Q12.0156 8.25 14.0625 4.875
Q16.1094 1.51562 20.3125 1.51562
Q26.2656 1.51562 31.75 4.25
Q37.25 6.98438 40.7188 11.8125
Q41.0156 12.1094 41.5 12.1094
Q42 12.1094 42.5 11.5469
Q43.0156 10.9844 43.0156 10.5
Q43.0156 10.1094 42.8281 9.90625
Q39.1562 4.78125 32.9531 1.82812
Q26.7656 -1.125 20.125 -1.125
M14.2031 25.4844
Q20.0156 25.4844 24.9531 26.0156
Q29.8906 26.5625 33.8906 28.7344
Q37.8906 30.9062 37.8906 35.5
Q37.8906 37.3594 36.8594 38.75
Q35.8438 40.1406 34.2031 40.875
Q32.5625 41.6094 30.8125 41.6094
Q26.5625 41.6094 23.1719 39.3125
Q19.7812 37.0156 17.5781 33.3281
Q15.375 29.6406 14.2031 25.4844" id="Cmmi10-65"/>
      <path d="
M17.3906 -1.125
Q11.0781 -1.125 7.4375 3.64062
Q3.8125 8.40625 3.8125 14.8906
Q3.8125 21.2969 7.125 28.1719
Q10.4531 35.0625 16.0938 39.625
Q21.7344 44.1875 28.2188 44.1875
Q31.1562 44.1875 33.5156 42.5469
Q35.8906 40.9219 37.2031 38.1875
L42.8281 60.5
Q43.2188 62.2031 43.3125 63.1875
Q43.3125 64.7969 36.8125 64.7969
Q35.7969 64.7969 35.7969 66.1094
Q35.8438 66.3594 36.0156 66.9844
Q36.1875 67.625 36.4531 67.9688
Q36.7188 68.3125 37.2031 68.3125
L50.6875 69.3906
Q51.9062 69.3906 51.9062 68.1094
L37.5 10.5938
Q36.8125 8.9375 36.8125 5.8125
Q36.8125 1.51562 39.7031 1.51562
Q42.8281 1.51562 44.4531 5.48438
Q46.0938 9.46875 47.2188 14.7031
Q47.4062 15.2812 48 15.2812
L49.2188 15.2812
Q49.6094 15.2812 49.8438 14.9375
Q50.0938 14.5938 50.0938 14.3125
Q48.3438 7.32812 46.2656 3.09375
Q44.1875 -1.125 39.5 -1.125
Q36.1406 -1.125 33.5469 0.84375
Q30.9531 2.82812 30.3281 6.10938
Q23.875 -1.125 17.3906 -1.125
M17.4844 1.51562
Q21.0938 1.51562 24.4844 4.21875
Q27.875 6.9375 30.3281 10.5938
Q30.4219 10.6875 30.4219 10.9844
L35.8906 33.0156
Q35.2969 36.5312 33.2969 39.0625
Q31.2969 41.6094 27.9844 41.6094
Q24.6094 41.6094 21.7031 38.8438
Q18.7969 36.0781 16.7969 32.3281
Q14.8438 28.3281 13.0625 21.3438
Q11.2812 14.3594 11.2812 10.5
Q11.2812 7.03125 12.7656 4.26562
Q14.2656 1.51562 17.4844 1.51562" id="Cmmi10-64"/>
      <path d="
M7.8125 7.17188
Q7.8125 9.03125 8.59375 11.0781
L16.7031 32.625
Q18.0156 36.2812 18.0156 38.625
Q18.0156 41.6094 15.8281 41.6094
Q11.8594 41.6094 9.29688 37.5312
Q6.73438 33.4531 5.51562 28.4219
Q5.32812 27.7812 4.6875 27.7812
L3.51562 27.7812
Q2.6875 27.7812 2.6875 28.7188
L2.6875 29
Q4.29688 34.9688 7.60938 39.5781
Q10.9375 44.1875 16.0156 44.1875
Q19.5781 44.1875 22.0469 41.8438
Q24.5156 39.5 24.5156 35.8906
Q24.5156 34.0312 23.6875 31.9844
L15.5781 10.5
Q14.2031 7.17188 14.2031 4.5
Q14.2031 1.51562 16.5 1.51562
Q20.4062 1.51562 23.0156 5.6875
Q25.6406 9.85938 26.7031 14.7031
Q26.9062 15.2812 27.4844 15.2812
L28.7188 15.2812
Q29.1094 15.2812 29.3438 15.0156
Q29.5938 14.75 29.5938 14.4062
Q29.5938 14.3125 29.5 14.1094
Q28.125 8.45312 24.7344 3.65625
Q21.3438 -1.125 16.3125 -1.125
Q12.7969 -1.125 10.2969 1.29688
Q7.8125 3.71875 7.8125 7.17188
M19.0938 60.5938
Q19.0938 62.7031 20.8438 64.4062
Q22.6094 66.1094 24.7031 66.1094
Q26.4219 66.1094 27.5156 65.0625
Q28.6094 64.0156 28.6094 62.4062
Q28.6094 60.1562 26.8281 58.4688
Q25.0469 56.7812 22.9062 56.7812
Q21.2969 56.7812 20.1875 57.875
Q19.0938 58.9844 19.0938 60.5938" id="Cmmi10-69"/>
     </defs>
     <g transform="translate(438.336 67.10175)scale(0.144 -0.144)">
      <use transform="translate(0.0 0.484375)" xlink:href="#Cmmi10-6d"/>
      <use transform="translate(87.79296875 0.484375)" xlink:href="#Cmmi10-65"/>
      <use transform="translate(134.27734375 0.484375)" xlink:href="#Cmmi10-64"/>
      <use transform="translate(186.279296875 0.484375)" xlink:href="#Cmmi10-69"/>
      <use transform="translate(220.703125 0.484375)" xlink:href="#Cmmi10-61"/>
      <use transform="translate(273.486328125 0.484375)" xlink:href="#Cmmi10-6e"/>
      <use transform="translate(403.73046875 0.484375)" xlink:href="#Cmmi10-53"/>
     </g>
    </g>
    <g id="line2d_59">
     <path d="
M402.336 83.1982
L422.496 83.1982" style="fill:none;stroke:#000000;stroke-dasharray:6.000000,6.000000;stroke-dashoffset:0.0;"/>
    </g>
    <g id="line2d_60"/>
    <g id="text_12">
     <!-- $mean\; S$ -->
     <g transform="translate(438.336 88.23825)scale(0.144 -0.144)">
      <use transform="translate(0.0 0.484375)" xlink:href="#Cmmi10-6d"/>
      <use transform="translate(87.79296875 0.484375)" xlink:href="#Cmmi10-65"/>
      <use transform="translate(134.27734375 0.484375)" xlink:href="#Cmmi10-61"/>
      <use transform="translate(187.060546875 0.484375)" xlink:href="#Cmmi10-6e"/>
      <use transform="translate(317.3046875 0.484375)" xlink:href="#Cmmi10-53"/>
     </g>
    </g>
   </g>
  </g>
  <g id="axes_2">
   <g id="patch_8">
    <path d="
M72 345.6
L518.4 345.6
L518.4 208.145
L72 208.145
z
" style="fill:#ffffff;"/>
   </g>
   <g id="PolyCollection_2">
    <defs>
     <path d="
M72 -91.31
L72 -91.31
L82.8878 -90.7499
L93.7756 -92.1342
L104.663 -95.3084
L115.551 -99.6572
L126.439 -106.069
L137.327 -112.423
L148.215 -116.869
L159.102 -116.606
L169.99 -114.919
L180.878 -114.081
L191.766 -113.099
L202.654 -113.43
L213.541 -115.9
L224.429 -122.319
L235.317 -133.122
L246.205 -142.454
L257.093 -147.583
L267.98 -148.285
L278.868 -151.464
L289.756 -155.843
L300.644 -157.45
L311.532 -156.277
L322.42 -149.885
L333.307 -139.378
L344.195 -126.165
L355.083 -115.134
L365.971 -107.168
L376.859 -100.955
L387.746 -96.5162
L398.634 -93.4564
L409.522 -91.6274
L420.41 -90.4981
L431.298 -89.446
L442.185 -88.5688
L453.073 -87.9182
L463.961 -87.6545
L474.849 -87.5699
L485.737 -87.3653
L496.624 -87.1139
L507.512 -87.0178
L518.4 -87.0052
L518.4 -89.9355
L518.4 -89.9355
L507.512 -89.4117
L496.624 -89.1972
L485.737 -89.5766
L474.849 -89.6806
L463.961 -89.2987
L453.073 -89.2068
L442.185 -89.7605
L431.298 -90.7316
L420.41 -91.9353
L409.522 -93.1437
L398.634 -95.3008
L387.746 -99.2205
L376.859 -104.848
L365.971 -112.564
L355.083 -122.794
L344.195 -137.466
L333.307 -155.739
L322.42 -171.521
L311.532 -182.569
L300.644 -186.954
L289.756 -187.301
L278.868 -185.041
L267.98 -185.512
L257.093 -189.441
L246.205 -185.288
L235.317 -170.846
L224.429 -153.621
L213.541 -143.199
L202.654 -139.379
L191.766 -139.513
L180.878 -141.77
L169.99 -143.654
L159.102 -147.095
L148.215 -147.625
L137.327 -138.108
L126.439 -124.663
L115.551 -111
L104.663 -101.703
L93.7756 -94.9229
L82.8878 -91.6709
L72 -91.31
z
" id="m26cbbe91fb" style="stroke:#000000;stroke-opacity:0.2;"/>
    </defs>
    <g clip-path="url(#pf128fae7d4)">
     <use style="fill:#008000;fill-opacity:0.2;stroke:#000000;stroke-opacity:0.2;" x="0.0" xlink:href="#m26cbbe91fb" y="432.0"/>
    </g>
   </g>
   <g id="line2d_61">
    <defs>
     <path d="
M0 3
C0.795609 3 1.55874 2.6839 2.12132 2.12132
C2.6839 1.55874 3 0.795609 3 0
C3 -0.795609 2.6839 -1.55874 2.12132 -2.12132
C1.55874 -2.6839 0.795609 -3 0 -3
C-0.795609 -3 -1.55874 -2.6839 -2.12132 -2.12132
C-2.6839 -1.55874 -3 -0.795609 -3 0
C-3 0.795609 -2.6839 1.55874 -2.12132 2.12132
C-1.55874 2.6839 -0.795609 3 0 3
z
" id="mf1e9a9e4ae" style="stroke:#000000;stroke-width:0.5;"/>
    </defs>
    <g clip-path="url(#pf128fae7d4)">
     <use style="fill:#0000ff;stroke:#000000;stroke-width:0.5;" x="72.0" xlink:href="#mf1e9a9e4ae" y="340.689992849"/>
     <use style="fill:#0000ff;stroke:#000000;stroke-width:0.5;" x="82.8878048779" xlink:href="#mf1e9a9e4ae" y="341.391422442"/>
     <use style="fill:#0000ff;stroke:#000000;stroke-width:0.5;" x="93.7756097561" xlink:href="#mf1e9a9e4ae" y="332.272837732"/>
     <use style="fill:#0000ff;stroke:#000000;stroke-width:0.5;" x="104.663414634" xlink:href="#mf1e9a9e4ae" y="334.873234311"/>
     <use style="fill:#0000ff;stroke:#000000;stroke-width:0.5;" x="115.551219512" xlink:href="#mf1e9a9e4ae" y="327.4985829"/>
     <use style="fill:#0000ff;stroke:#000000;stroke-width:0.5;" x="126.43902439" xlink:href="#mf1e9a9e4ae" y="320.794354344"/>
     <use style="fill:#0000ff;stroke:#000000;stroke-width:0.5;" x="137.326829268" xlink:href="#mf1e9a9e4ae" y="319.453508633"/>
     <use style="fill:#0000ff;stroke:#000000;stroke-width:0.5;" x="148.214634146" xlink:href="#mf1e9a9e4ae" y="323.476045767"/>
     <use style="fill:#0000ff;stroke:#000000;stroke-width:0.5;" x="159.102439024" xlink:href="#mf1e9a9e4ae" y="324.146468622"/>
     <use style="fill:#0000ff;stroke:#000000;stroke-width:0.5;" x="169.990243902" xlink:href="#mf1e9a9e4ae" y="321.4647772"/>
     <use style="fill:#0000ff;stroke:#000000;stroke-width:0.5;" x="180.87804878" xlink:href="#mf1e9a9e4ae" y="322.135200055"/>
     <use style="fill:#0000ff;stroke:#000000;stroke-width:0.5;" x="191.765853659" xlink:href="#mf1e9a9e4ae" y="326.828160044"/>
     <use style="fill:#0000ff;stroke:#000000;stroke-width:0.5;" x="202.653658536" xlink:href="#mf1e9a9e4ae" y="313.419702933"/>
     <use style="fill:#0000ff;stroke:#000000;stroke-width:0.5;" x="213.541463415" xlink:href="#mf1e9a9e4ae" y="312.749280078"/>
     <use style="fill:#0000ff;stroke:#000000;stroke-width:0.5;" x="224.429268293" xlink:href="#mf1e9a9e4ae" y="296.659131544"/>
     <use style="fill:#0000ff;stroke:#000000;stroke-width:0.5;" x="235.317073171" xlink:href="#mf1e9a9e4ae" y="281.239405866"/>
     <use style="fill:#0000ff;stroke:#000000;stroke-width:0.5;" x="246.204878049" xlink:href="#mf1e9a9e4ae" y="281.909828722"/>
     <use style="fill:#0000ff;stroke:#000000;stroke-width:0.5;" x="257.092682927" xlink:href="#mf1e9a9e4ae" y="278.557714444"/>
     <use style="fill:#0000ff;stroke:#000000;stroke-width:0.5;" x="267.980487805" xlink:href="#mf1e9a9e4ae" y="268.501371611"/>
     <use style="fill:#0000ff;stroke:#000000;stroke-width:0.5;" x="278.868292683" xlink:href="#mf1e9a9e4ae" y="238.33234311"/>
     <use style="fill:#0000ff;stroke:#000000;stroke-width:0.5;" x="289.756097561" xlink:href="#mf1e9a9e4ae" y="249.059108799"/>
     <use style="fill:#0000ff;stroke:#000000;stroke-width:0.5;" x="300.643902439" xlink:href="#mf1e9a9e4ae" y="228.946423133"/>
     <use style="fill:#0000ff;stroke:#000000;stroke-width:0.5;" x="311.531707317" xlink:href="#mf1e9a9e4ae" y="222.912617433"/>
     <use style="fill:#0000ff;stroke:#000000;stroke-width:0.5;" x="322.419512195" xlink:href="#mf1e9a9e4ae" y="253.752068788"/>
     <use style="fill:#0000ff;stroke:#000000;stroke-width:0.5;" x="333.307317073" xlink:href="#mf1e9a9e4ae" y="272.523908744"/>
     <use style="fill:#0000ff;stroke:#000000;stroke-width:0.5;" x="344.195121951" xlink:href="#mf1e9a9e4ae" y="293.307017266"/>
     <use style="fill:#0000ff;stroke:#000000;stroke-width:0.5;" x="355.082926829" xlink:href="#mf1e9a9e4ae" y="297.3295544"/>
     <use style="fill:#0000ff;stroke:#000000;stroke-width:0.5;" x="365.970731707" xlink:href="#mf1e9a9e4ae" y="314.090125789"/>
     <use style="fill:#0000ff;stroke:#000000;stroke-width:0.5;" x="376.858536585" xlink:href="#mf1e9a9e4ae" y="326.828160044"/>
     <use style="fill:#0000ff;stroke:#000000;stroke-width:0.5;" x="387.746341463" xlink:href="#mf1e9a9e4ae" y="326.157737189"/>
     <use style="fill:#0000ff;stroke:#000000;stroke-width:0.5;" x="398.634146341" xlink:href="#mf1e9a9e4ae" y="332.861965744"/>
     <use style="fill:#0000ff;stroke:#000000;stroke-width:0.5;" x="409.52195122" xlink:href="#mf1e9a9e4ae" y="332.861965744"/>
     <use style="fill:#0000ff;stroke:#000000;stroke-width:0.5;" x="420.409756097" xlink:href="#mf1e9a9e4ae" y="333.5323886"/>
     <use style="fill:#0000ff;stroke:#000000;stroke-width:0.5;" x="431.297560976" xlink:href="#mf1e9a9e4ae" y="341.577462867"/>
     <use style="fill:#0000ff;stroke:#000000;stroke-width:0.5;" x="442.185365854" xlink:href="#mf1e9a9e4ae" y="340.236617156"/>
     <use style="fill:#0000ff;stroke:#000000;stroke-width:0.5;" x="453.073170732" xlink:href="#mf1e9a9e4ae" y="339.5661943"/>
     <use style="fill:#0000ff;stroke:#000000;stroke-width:0.5;" x="463.96097561" xlink:href="#mf1e9a9e4ae" y="339.5661943"/>
     <use style="fill:#0000ff;stroke:#000000;stroke-width:0.5;" x="474.848780488" xlink:href="#mf1e9a9e4ae" y="340.907040011"/>
     <use style="fill:#0000ff;stroke:#000000;stroke-width:0.5;" x="485.736585366" xlink:href="#mf1e9a9e4ae" y="342.247885722"/>
     <use style="fill:#0000ff;stroke:#000000;stroke-width:0.5;" x="496.624390244" xlink:href="#mf1e9a9e4ae" y="343.588731433"/>
     <use style="fill:#0000ff;stroke:#000000;stroke-width:0.5;" x="507.512195122" xlink:href="#mf1e9a9e4ae" y="338.895771444"/>
     <use style="fill:#0000ff;stroke:#000000;stroke-width:0.5;" x="518.4" xlink:href="#mf1e9a9e4ae" y="342.247885722"/>
    </g>
   </g>
   <g id="line2d_62">
    <path clip-path="url(#pf128fae7d4)" d="
M72 340.69
L82.8878 340.922
L93.7756 338.886
L104.663 334.567
L115.551 328.551
L126.439 319.681
L137.327 310.959
L148.215 304.705
L159.102 304.974
L169.99 307.104
L180.878 308.098
L191.766 309.327
L202.654 308.851
L213.541 305.456
L224.429 297.141
L235.317 283.008
L246.205 271.451
L257.093 265.562
L267.98 266.027
L278.868 263.332
L289.756 259.929
L300.644 260.08
L311.532 264.139
L322.42 273.84
L333.307 287.4
L344.195 302.987
L355.083 315.315
L365.971 323.91
L376.859 330.382
L387.746 335.079
L398.634 338.315
L409.522 340.086
L420.41 341.104
L431.298 342.089
L442.185 342.915
L453.073 343.522
L463.961 343.648
L474.849 343.548
L485.737 343.705
L496.624 344.038
L507.512 344.005
L518.4 343.851" style="fill:none;stroke:#000000;stroke-linecap:square;"/>
   </g>
   <g id="line2d_63">
    <path clip-path="url(#pf128fae7d4)" d="
M72 340.69
L82.8878 340.892
L93.7756 338.792
L104.663 334.304
L115.551 328.073
L126.439 318.91
L137.327 309.874
L148.215 303.378
L159.102 303.624
L169.99 305.842
L180.878 306.902
L191.766 308.215
L202.654 307.88
L213.541 304.579
L224.429 296.09
L235.317 281.985
L246.205 270.454
L257.093 264.966
L267.98 265.609
L278.868 263.295
L289.756 259.791
L300.644 259.987
L311.532 263.566
L322.42 272.844
L333.307 286.182
L344.195 301.763
L355.083 314.306
L365.971 323.108
L376.859 329.779
L387.746 334.633
L398.634 337.996
L409.522 339.866
L420.41 340.952
L431.298 341.986
L442.185 342.864
L453.073 343.493
L463.961 343.616
L474.849 343.498
L485.737 343.656
L496.624 343.968
L507.512 343.935
L518.4 343.741" style="fill:none;stroke:#000000;stroke-dasharray:6.000000,6.000000;stroke-dashoffset:0.0;"/>
   </g>
   <g id="patch_9">
    <path d="
M72 208.145
L518.4 208.145" style="fill:none;stroke:#000000;stroke-linecap:square;stroke-linejoin:miter;"/>
   </g>
   <g id="patch_10">
    <path d="
M518.4 345.6
L518.4 208.145" style="fill:none;stroke:#000000;stroke-linecap:square;stroke-linejoin:miter;"/>
   </g>
   <g id="patch_11">
    <path d="
M72 345.6
L518.4 345.6" style="fill:none;stroke:#000000;stroke-linecap:square;stroke-linejoin:miter;"/>
   </g>
   <g id="patch_12">
    <path d="
M72 345.6
L72 208.145" style="fill:none;stroke:#000000;stroke-linecap:square;stroke-linejoin:miter;"/>
   </g>
   <g id="matplotlib.axis_3">
    <g id="xtick_10">
     <g id="line2d_64">
      <path clip-path="url(#pf128fae7d4)" d="
M101.553 345.6
L101.553 208.145" style="fill:none;stroke:#000000;stroke-dasharray:1.000000,3.000000;stroke-dashoffset:0.0;stroke-width:0.5;"/>
     </g>
     <g id="line2d_65">
      <g>
       <use style="stroke:#000000;stroke-width:0.5;" x="101.55261324" xlink:href="#m93b0483c22" y="345.6"/>
      </g>
     </g>
     <g id="line2d_66">
      <g>
       <use style="stroke:#000000;stroke-width:0.5;" x="101.55261324" xlink:href="#m741efc42ff" y="208.145454545"/>
      </g>
     </g>
     <g id="text_13">
      <!-- Jan 2000 -->
      <defs>
       <path d="
M54.8906 33.0156
L54.8906 0
L45.9062 0
L45.9062 32.7188
Q45.9062 40.4844 42.875 44.3281
Q39.8438 48.1875 33.7969 48.1875
Q26.5156 48.1875 22.3125 43.5469
Q18.1094 38.9219 18.1094 30.9062
L18.1094 0
L9.07812 0
L9.07812 54.6875
L18.1094 54.6875
L18.1094 46.1875
Q21.3438 51.125 25.7031 53.5625
Q30.0781 56 35.7969 56
Q45.2188 56 50.0469 50.1719
Q54.8906 44.3438 54.8906 33.0156" id="BitstreamVeraSans-Roman-6e"/>
       <path d="
M9.8125 72.9062
L19.6719 72.9062
L19.6719 5.07812
Q19.6719 -8.10938 14.6719 -14.0625
Q9.67188 -20.0156 -1.42188 -20.0156
L-5.17188 -20.0156
L-5.17188 -11.7188
L-2.09375 -11.7188
Q4.4375 -11.7188 7.125 -8.04688
Q9.8125 -4.39062 9.8125 5.07812
z
" id="BitstreamVeraSans-Roman-4a"/>
      </defs>
      <g transform="translate(70.308091123 372.423101923)rotate(-30.0)scale(0.08 -0.08)">
       <use xlink:href="#BitstreamVeraSans-Roman-4a"/>
       <use x="29.4921875" xlink:href="#BitstreamVeraSans-Roman-61"/>
       <use x="90.771484375" xlink:href="#BitstreamVeraSans-Roman-6e"/>
       <use x="154.150390625" xlink:href="#BitstreamVeraSans-Roman-20"/>
       <use x="185.9375" xlink:href="#BitstreamVeraSans-Roman-32"/>
       <use x="249.560546875" xlink:href="#BitstreamVeraSans-Roman-30"/>
       <use x="313.18359375" xlink:href="#BitstreamVeraSans-Roman-30"/>
       <use x="376.806640625" xlink:href="#BitstreamVeraSans-Roman-30"/>
      </g>
     </g>
    </g>
    <g id="xtick_11">
     <g id="line2d_67">
      <path clip-path="url(#pf128fae7d4)" d="
M149.77 345.6
L149.77 208.145" style="fill:none;stroke:#000000;stroke-dasharray:1.000000,3.000000;stroke-dashoffset:0.0;stroke-width:0.5;"/>
     </g>
     <g id="line2d_68">
      <g>
       <use style="stroke:#000000;stroke-width:0.5;" x="149.770034843" xlink:href="#m93b0483c22" y="345.6"/>
      </g>
     </g>
     <g id="line2d_69">
      <g>
       <use style="stroke:#000000;stroke-width:0.5;" x="149.770034843" xlink:href="#m741efc42ff" y="208.145454545"/>
      </g>
     </g>
     <g id="text_14">
      <!-- Fev 2000 -->
      <defs>
       <path d="
M9.8125 72.9062
L51.7031 72.9062
L51.7031 64.5938
L19.6719 64.5938
L19.6719 43.1094
L48.5781 43.1094
L48.5781 34.8125
L19.6719 34.8125
L19.6719 0
L9.8125 0
z
" id="BitstreamVeraSans-Roman-46"/>
      </defs>
      <g transform="translate(117.59670048 372.959351923)rotate(-30.0)scale(0.08 -0.08)">
       <use xlink:href="#BitstreamVeraSans-Roman-46"/>
       <use x="52.01953125" xlink:href="#BitstreamVeraSans-Roman-65"/>
       <use x="113.54296875" xlink:href="#BitstreamVeraSans-Roman-76"/>
       <use x="172.72265625" xlink:href="#BitstreamVeraSans-Roman-20"/>
       <use x="204.509765625" xlink:href="#BitstreamVeraSans-Roman-32"/>
       <use x="268.1328125" xlink:href="#BitstreamVeraSans-Roman-30"/>
       <use x="331.755859375" xlink:href="#BitstreamVeraSans-Roman-30"/>
       <use x="395.37890625" xlink:href="#BitstreamVeraSans-Roman-30"/>
      </g>
     </g>
    </g>
    <g id="xtick_12">
     <g id="line2d_70">
      <path clip-path="url(#pf128fae7d4)" d="
M194.877 345.6
L194.877 208.145" style="fill:none;stroke:#000000;stroke-dasharray:1.000000,3.000000;stroke-dashoffset:0.0;stroke-width:0.5;"/>
     </g>
     <g id="line2d_71">
      <g>
       <use style="stroke:#000000;stroke-width:0.5;" x="194.876655052" xlink:href="#m93b0483c22" y="345.6"/>
      </g>
     </g>
     <g id="line2d_72">
      <g>
       <use style="stroke:#000000;stroke-width:0.5;" x="194.876655052" xlink:href="#m741efc42ff" y="208.145454545"/>
      </g>
     </g>
     <g id="text_15">
      <!-- Mar 2000 -->
      <defs>
       <path d="
M9.8125 72.9062
L24.5156 72.9062
L43.1094 23.2969
L61.8125 72.9062
L76.5156 72.9062
L76.5156 0
L66.8906 0
L66.8906 64.0156
L48.0938 14.0156
L38.1875 14.0156
L19.3906 64.0156
L19.3906 0
L9.8125 0
z
" id="BitstreamVeraSans-Roman-4d"/>
      </defs>
      <g transform="translate(161.599138299 373.596851923)rotate(-30.0)scale(0.08 -0.08)">
       <use xlink:href="#BitstreamVeraSans-Roman-4d"/>
       <use x="86.279296875" xlink:href="#BitstreamVeraSans-Roman-61"/>
       <use x="147.55859375" xlink:href="#BitstreamVeraSans-Roman-72"/>
       <use x="188.671875" xlink:href="#BitstreamVeraSans-Roman-20"/>
       <use x="220.458984375" xlink:href="#BitstreamVeraSans-Roman-32"/>
       <use x="284.08203125" xlink:href="#BitstreamVeraSans-Roman-30"/>
       <use x="347.705078125" xlink:href="#BitstreamVeraSans-Roman-30"/>
       <use x="411.328125" xlink:href="#BitstreamVeraSans-Roman-30"/>
      </g>
     </g>
    </g>
    <g id="xtick_13">
     <g id="line2d_73">
      <path clip-path="url(#pf128fae7d4)" d="
M243.094 345.6
L243.094 208.145" style="fill:none;stroke:#000000;stroke-dasharray:1.000000,3.000000;stroke-dashoffset:0.0;stroke-width:0.5;"/>
     </g>
     <g id="line2d_74">
      <g>
       <use style="stroke:#000000;stroke-width:0.5;" x="243.094076655" xlink:href="#m93b0483c22" y="345.6"/>
      </g>
     </g>
     <g id="line2d_75">
      <g>
       <use style="stroke:#000000;stroke-width:0.5;" x="243.094076655" xlink:href="#m741efc42ff" y="208.145454545"/>
      </g>
     </g>
     <g id="text_16">
      <!-- Abr 2000 -->
      <defs>
       <path d="
M34.1875 63.1875
L20.7969 26.9062
L47.6094 26.9062
z

M28.6094 72.9062
L39.7969 72.9062
L67.5781 0
L57.3281 0
L50.6875 18.7031
L17.8281 18.7031
L11.1875 0
L0.78125 0
z
" id="BitstreamVeraSans-Roman-41"/>
      </defs>
      <g transform="translate(210.902339252 372.969976923)rotate(-30.0)scale(0.08 -0.08)">
       <use xlink:href="#BitstreamVeraSans-Roman-41"/>
       <use x="68.408203125" xlink:href="#BitstreamVeraSans-Roman-62"/>
       <use x="131.884765625" xlink:href="#BitstreamVeraSans-Roman-72"/>
       <use x="172.998046875" xlink:href="#BitstreamVeraSans-Roman-20"/>
       <use x="204.78515625" xlink:href="#BitstreamVeraSans-Roman-32"/>
       <use x="268.408203125" xlink:href="#BitstreamVeraSans-Roman-30"/>
       <use x="332.03125" xlink:href="#BitstreamVeraSans-Roman-30"/>
       <use x="395.654296875" xlink:href="#BitstreamVeraSans-Roman-30"/>
      </g>
     </g>
    </g>
    <g id="xtick_14">
     <g id="line2d_76">
      <path clip-path="url(#pf128fae7d4)" d="
M289.756 345.6
L289.756 208.145" style="fill:none;stroke:#000000;stroke-dasharray:1.000000,3.000000;stroke-dashoffset:0.0;stroke-width:0.5;"/>
     </g>
     <g id="line2d_77">
      <g>
       <use style="stroke:#000000;stroke-width:0.5;" x="289.756097561" xlink:href="#m93b0483c22" y="345.6"/>
      </g>
     </g>
     <g id="line2d_78">
      <g>
       <use style="stroke:#000000;stroke-width:0.5;" x="289.756097561" xlink:href="#m741efc42ff" y="208.145454545"/>
      </g>
     </g>
     <g id="text_17">
      <!-- Mai 2000 -->
      <g transform="translate(257.401980395 373.063726923)rotate(-30.0)scale(0.08 -0.08)">
       <use xlink:href="#BitstreamVeraSans-Roman-4d"/>
       <use x="86.279296875" xlink:href="#BitstreamVeraSans-Roman-61"/>
       <use x="147.55859375" xlink:href="#BitstreamVeraSans-Roman-69"/>
       <use x="175.341796875" xlink:href="#BitstreamVeraSans-Roman-20"/>
       <use x="207.12890625" xlink:href="#BitstreamVeraSans-Roman-32"/>
       <use x="270.751953125" xlink:href="#BitstreamVeraSans-Roman-30"/>
       <use x="334.375" xlink:href="#BitstreamVeraSans-Roman-30"/>
       <use x="397.998046875" xlink:href="#BitstreamVeraSans-Roman-30"/>
      </g>
     </g>
    </g>
    <g id="xtick_15">
     <g id="line2d_79">
      <path clip-path="url(#pf128fae7d4)" d="
M337.974 345.6
L337.974 208.145" style="fill:none;stroke:#000000;stroke-dasharray:1.000000,3.000000;stroke-dashoffset:0.0;stroke-width:0.5;"/>
     </g>
     <g id="line2d_80">
      <g>
       <use style="stroke:#000000;stroke-width:0.5;" x="337.973519164" xlink:href="#m93b0483c22" y="345.6"/>
      </g>
     </g>
     <g id="line2d_81">
      <g>
       <use style="stroke:#000000;stroke-width:0.5;" x="337.973519164" xlink:href="#m741efc42ff" y="208.145454545"/>
      </g>
     </g>
     <g id="text_18">
      <!-- Jun 2000 -->
      <g transform="translate(306.583937791 372.506851923)rotate(-30.0)scale(0.08 -0.08)">
       <use xlink:href="#BitstreamVeraSans-Roman-4a"/>
       <use x="29.4921875" xlink:href="#BitstreamVeraSans-Roman-75"/>
       <use x="92.87109375" xlink:href="#BitstreamVeraSans-Roman-6e"/>
       <use x="156.25" xlink:href="#BitstreamVeraSans-Roman-20"/>
       <use x="188.037109375" xlink:href="#BitstreamVeraSans-Roman-32"/>
       <use x="251.66015625" xlink:href="#BitstreamVeraSans-Roman-30"/>
       <use x="315.283203125" xlink:href="#BitstreamVeraSans-Roman-30"/>
       <use x="378.90625" xlink:href="#BitstreamVeraSans-Roman-30"/>
      </g>
     </g>
    </g>
    <g id="xtick_16">
     <g id="line2d_82">
      <path clip-path="url(#pf128fae7d4)" d="
M384.636 345.6
L384.636 208.145" style="fill:none;stroke:#000000;stroke-dasharray:1.000000,3.000000;stroke-dashoffset:0.0;stroke-width:0.5;"/>
     </g>
     <g id="line2d_83">
      <g>
       <use style="stroke:#000000;stroke-width:0.5;" x="384.63554007" xlink:href="#m93b0483c22" y="345.6"/>
      </g>
     </g>
     <g id="line2d_84">
      <g>
       <use style="stroke:#000000;stroke-width:0.5;" x="384.63554007" xlink:href="#m741efc42ff" y="208.145454545"/>
      </g>
     </g>
     <g id="text_19">
      <!-- Jul 2000 -->
      <g transform="translate(355.711966034 371.083101923)rotate(-30.0)scale(0.08 -0.08)">
       <use xlink:href="#BitstreamVeraSans-Roman-4a"/>
       <use x="29.4921875" xlink:href="#BitstreamVeraSans-Roman-75"/>
       <use x="92.87109375" xlink:href="#BitstreamVeraSans-Roman-6c"/>
       <use x="120.654296875" xlink:href="#BitstreamVeraSans-Roman-20"/>
       <use x="152.44140625" xlink:href="#BitstreamVeraSans-Roman-32"/>
       <use x="216.064453125" xlink:href="#BitstreamVeraSans-Roman-30"/>
       <use x="279.6875" xlink:href="#BitstreamVeraSans-Roman-30"/>
       <use x="343.310546875" xlink:href="#BitstreamVeraSans-Roman-30"/>
      </g>
     </g>
    </g>
    <g id="xtick_17">
     <g id="line2d_85">
      <path clip-path="url(#pf128fae7d4)" d="
M432.853 345.6
L432.853 208.145" style="fill:none;stroke:#000000;stroke-dasharray:1.000000,3.000000;stroke-dashoffset:0.0;stroke-width:0.5;"/>
     </g>
     <g id="line2d_86">
      <g>
       <use style="stroke:#000000;stroke-width:0.5;" x="432.852961672" xlink:href="#m93b0483c22" y="345.6"/>
      </g>
     </g>
     <g id="line2d_87">
      <g>
       <use style="stroke:#000000;stroke-width:0.5;" x="432.852961672" xlink:href="#m741efc42ff" y="208.145454545"/>
      </g>
     </g>
     <g id="text_20">
      <!-- Ago 2000 -->
      <defs>
       <path d="
M45.4062 27.9844
Q45.4062 37.75 41.375 43.1094
Q37.3594 48.4844 30.0781 48.4844
Q22.8594 48.4844 18.8281 43.1094
Q14.7969 37.75 14.7969 27.9844
Q14.7969 18.2656 18.8281 12.8906
Q22.8594 7.51562 30.0781 7.51562
Q37.3594 7.51562 41.375 12.8906
Q45.4062 18.2656 45.4062 27.9844
M54.3906 6.78125
Q54.3906 -7.17188 48.1875 -13.9844
Q42 -20.7969 29.2031 -20.7969
Q24.4688 -20.7969 20.2656 -20.0938
Q16.0625 -19.3906 12.1094 -17.9219
L12.1094 -9.1875
Q16.0625 -11.3281 19.9219 -12.3438
Q23.7812 -13.375 27.7812 -13.375
Q36.625 -13.375 41.0156 -8.76562
Q45.4062 -4.15625 45.4062 5.17188
L45.4062 9.625
Q42.625 4.78125 38.2812 2.39062
Q33.9375 0 27.875 0
Q17.8281 0 11.6719 7.65625
Q5.51562 15.3281 5.51562 27.9844
Q5.51562 40.6719 11.6719 48.3281
Q17.8281 56 27.875 56
Q33.9375 56 38.2812 53.6094
Q42.625 51.2188 45.4062 46.3906
L45.4062 54.6875
L54.3906 54.6875
z
" id="BitstreamVeraSans-Roman-67"/>
       <path d="
M30.6094 48.3906
Q23.3906 48.3906 19.1875 42.75
Q14.9844 37.1094 14.9844 27.2969
Q14.9844 17.4844 19.1562 11.8438
Q23.3438 6.20312 30.6094 6.20312
Q37.7969 6.20312 41.9844 11.8594
Q46.1875 17.5312 46.1875 27.2969
Q46.1875 37.0156 41.9844 42.7031
Q37.7969 48.3906 30.6094 48.3906
M30.6094 56
Q42.3281 56 49.0156 48.375
Q55.7188 40.7656 55.7188 27.2969
Q55.7188 13.875 49.0156 6.21875
Q42.3281 -1.42188 30.6094 -1.42188
Q18.8438 -1.42188 12.1719 6.21875
Q5.51562 13.875 5.51562 27.2969
Q5.51562 40.7656 12.1719 48.375
Q18.8438 56 30.6094 56" id="BitstreamVeraSans-Roman-6f"/>
      </defs>
      <g transform="translate(399.270170965 373.773101923)rotate(-30.0)scale(0.08 -0.08)">
       <use xlink:href="#BitstreamVeraSans-Roman-41"/>
       <use x="68.408203125" xlink:href="#BitstreamVeraSans-Roman-67"/>
       <use x="131.884765625" xlink:href="#BitstreamVeraSans-Roman-6f"/>
       <use x="193.06640625" xlink:href="#BitstreamVeraSans-Roman-20"/>
       <use x="224.853515625" xlink:href="#BitstreamVeraSans-Roman-32"/>
       <use x="288.4765625" xlink:href="#BitstreamVeraSans-Roman-30"/>
       <use x="352.099609375" xlink:href="#BitstreamVeraSans-Roman-30"/>
       <use x="415.72265625" xlink:href="#BitstreamVeraSans-Roman-30"/>
      </g>
     </g>
    </g>
    <g id="xtick_18">
     <g id="line2d_88">
      <path clip-path="url(#pf128fae7d4)" d="
M481.07 345.6
L481.07 208.145" style="fill:none;stroke:#000000;stroke-dasharray:1.000000,3.000000;stroke-dashoffset:0.0;stroke-width:0.5;"/>
     </g>
     <g id="line2d_89">
      <g>
       <use style="stroke:#000000;stroke-width:0.5;" x="481.070383275" xlink:href="#m93b0483c22" y="345.6"/>
      </g>
     </g>
     <g id="line2d_90">
      <g>
       <use style="stroke:#000000;stroke-width:0.5;" x="481.070383275" xlink:href="#m741efc42ff" y="208.145454545"/>
      </g>
     </g>
     <g id="text_21">
      <!-- Set 2000 -->
      <g transform="translate(449.487028719 372.618726923)rotate(-30.0)scale(0.08 -0.08)">
       <use xlink:href="#BitstreamVeraSans-Roman-53"/>
       <use x="63.4765625" xlink:href="#BitstreamVeraSans-Roman-65"/>
       <use x="125.0" xlink:href="#BitstreamVeraSans-Roman-74"/>
       <use x="164.208984375" xlink:href="#BitstreamVeraSans-Roman-20"/>
       <use x="195.99609375" xlink:href="#BitstreamVeraSans-Roman-32"/>
       <use x="259.619140625" xlink:href="#BitstreamVeraSans-Roman-30"/>
       <use x="323.2421875" xlink:href="#BitstreamVeraSans-Roman-30"/>
       <use x="386.865234375" xlink:href="#BitstreamVeraSans-Roman-30"/>
      </g>
     </g>
    </g>
    <g id="text_22">
     <!-- days -->
     <defs>
      <path d="
M32.1719 -5.07812
Q28.375 -14.8438 24.75 -17.8125
Q21.1406 -20.7969 15.0938 -20.7969
L7.90625 -20.7969
L7.90625 -13.2812
L13.1875 -13.2812
Q16.8906 -13.2812 18.9375 -11.5156
Q21 -9.76562 23.4844 -3.21875
L25.0938 0.875
L2.98438 54.6875
L12.5 54.6875
L29.5938 11.9219
L46.6875 54.6875
L56.2031 54.6875
z
" id="BitstreamVeraSans-Roman-79"/>
     </defs>
     <g transform="translate(281.660625 389.332076689)scale(0.12 -0.12)">
      <use xlink:href="#BitstreamVeraSans-Roman-64"/>
      <use x="63.4765625" xlink:href="#BitstreamVeraSans-Roman-61"/>
      <use x="124.755859375" xlink:href="#BitstreamVeraSans-Roman-79"/>
      <use x="183.935546875" xlink:href="#BitstreamVeraSans-Roman-73"/>
     </g>
    </g>
   </g>
   <g id="matplotlib.axis_4">
    <g id="ytick_10">
     <g id="line2d_91">
      <path clip-path="url(#pf128fae7d4)" d="
M72 345.6
L518.4 345.6" style="fill:none;stroke:#000000;stroke-dasharray:1.000000,3.000000;stroke-dashoffset:0.0;stroke-width:0.5;"/>
     </g>
     <g id="line2d_92">
      <g>
       <use style="stroke:#000000;stroke-width:0.5;" x="72.0" xlink:href="#m728421d6d4" y="345.6"/>
      </g>
     </g>
     <g id="line2d_93">
      <g>
       <use style="stroke:#000000;stroke-width:0.5;" x="518.4" xlink:href="#mcb0005524f" y="345.6"/>
      </g>
     </g>
     <g id="text_23">
      <!-- 0 -->
      <g transform="translate(63.96875 347.8075)scale(0.08 -0.08)">
       <use xlink:href="#BitstreamVeraSans-Roman-30"/>
      </g>
     </g>
    </g>
    <g id="ytick_11">
     <g id="line2d_94">
      <path clip-path="url(#pf128fae7d4)" d="
M72 325.964
L518.4 325.964" style="fill:none;stroke:#000000;stroke-dasharray:1.000000,3.000000;stroke-dashoffset:0.0;stroke-width:0.5;"/>
     </g>
     <g id="line2d_95">
      <g>
       <use style="stroke:#000000;stroke-width:0.5;" x="72.0" xlink:href="#m728421d6d4" y="325.963636364"/>
      </g>
     </g>
     <g id="line2d_96">
      <g>
       <use style="stroke:#000000;stroke-width:0.5;" x="518.4" xlink:href="#mcb0005524f" y="325.963636364"/>
      </g>
     </g>
     <g id="text_24">
      <!-- 5e-06 -->
      <defs>
       <path d="
M4.89062 31.3906
L31.2031 31.3906
L31.2031 23.3906
L4.89062 23.3906
z
" id="BitstreamVeraSans-Roman-2d"/>
       <path d="
M10.7969 72.9062
L49.5156 72.9062
L49.5156 64.5938
L19.8281 64.5938
L19.8281 46.7344
Q21.9688 47.4688 24.1094 47.8281
Q26.2656 48.1875 28.4219 48.1875
Q40.625 48.1875 47.75 41.5
Q54.8906 34.8125 54.8906 23.3906
Q54.8906 11.625 47.5625 5.09375
Q40.2344 -1.42188 26.9062 -1.42188
Q22.3125 -1.42188 17.5469 -0.640625
Q12.7969 0.140625 7.71875 1.70312
L7.71875 11.625
Q12.1094 9.23438 16.7969 8.0625
Q21.4844 6.89062 26.7031 6.89062
Q35.1562 6.89062 40.0781 11.3281
Q45.0156 15.7656 45.0156 23.3906
Q45.0156 31 40.0781 35.4375
Q35.1562 39.8906 26.7031 39.8906
Q22.75 39.8906 18.8125 39.0156
Q14.8906 38.1406 10.7969 36.2812
z
" id="BitstreamVeraSans-Roman-35"/>
      </defs>
      <g transform="translate(46.0425 328.171136364)scale(0.08 -0.08)">
       <use xlink:href="#BitstreamVeraSans-Roman-35"/>
       <use x="63.623046875" xlink:href="#BitstreamVeraSans-Roman-65"/>
       <use x="125.146484375" xlink:href="#BitstreamVeraSans-Roman-2d"/>
       <use x="161.23046875" xlink:href="#BitstreamVeraSans-Roman-30"/>
       <use x="224.853515625" xlink:href="#BitstreamVeraSans-Roman-36"/>
      </g>
     </g>
    </g>
    <g id="ytick_12">
     <g id="line2d_97">
      <path clip-path="url(#pf128fae7d4)" d="
M72 306.327
L518.4 306.327" style="fill:none;stroke:#000000;stroke-dasharray:1.000000,3.000000;stroke-dashoffset:0.0;stroke-width:0.5;"/>
     </g>
     <g id="line2d_98">
      <g>
       <use style="stroke:#000000;stroke-width:0.5;" x="72.0" xlink:href="#m728421d6d4" y="306.327272727"/>
      </g>
     </g>
     <g id="line2d_99">
      <g>
       <use style="stroke:#000000;stroke-width:0.5;" x="518.4" xlink:href="#mcb0005524f" y="306.327272727"/>
      </g>
     </g>
     <g id="text_25">
      <!-- 1e-05 -->
      <g transform="translate(46.49875 308.534772727)scale(0.08 -0.08)">
       <use xlink:href="#BitstreamVeraSans-Roman-31"/>
       <use x="63.623046875" xlink:href="#BitstreamVeraSans-Roman-65"/>
       <use x="125.146484375" xlink:href="#BitstreamVeraSans-Roman-2d"/>
       <use x="161.23046875" xlink:href="#BitstreamVeraSans-Roman-30"/>
       <use x="224.853515625" xlink:href="#BitstreamVeraSans-Roman-35"/>
      </g>
     </g>
    </g>
    <g id="ytick_13">
     <g id="line2d_100">
      <path clip-path="url(#pf128fae7d4)" d="
M72 286.691
L518.4 286.691" style="fill:none;stroke:#000000;stroke-dasharray:1.000000,3.000000;stroke-dashoffset:0.0;stroke-width:0.5;"/>
     </g>
     <g id="line2d_101">
      <g>
       <use style="stroke:#000000;stroke-width:0.5;" x="72.0" xlink:href="#m728421d6d4" y="286.690909091"/>
      </g>
     </g>
     <g id="line2d_102">
      <g>
       <use style="stroke:#000000;stroke-width:0.5;" x="518.4" xlink:href="#mcb0005524f" y="286.690909091"/>
      </g>
     </g>
     <g id="text_26">
      <!-- 1.5e-05 -->
      <g transform="translate(38.86625 288.898409091)scale(0.08 -0.08)">
       <use xlink:href="#BitstreamVeraSans-Roman-31"/>
       <use x="63.623046875" xlink:href="#BitstreamVeraSans-Roman-2e"/>
       <use x="95.41015625" xlink:href="#BitstreamVeraSans-Roman-35"/>
       <use x="159.033203125" xlink:href="#BitstreamVeraSans-Roman-65"/>
       <use x="220.556640625" xlink:href="#BitstreamVeraSans-Roman-2d"/>
       <use x="256.640625" xlink:href="#BitstreamVeraSans-Roman-30"/>
       <use x="320.263671875" xlink:href="#BitstreamVeraSans-Roman-35"/>
      </g>
     </g>
    </g>
    <g id="ytick_14">
     <g id="line2d_103">
      <path clip-path="url(#pf128fae7d4)" d="
M72 267.055
L518.4 267.055" style="fill:none;stroke:#000000;stroke-dasharray:1.000000,3.000000;stroke-dashoffset:0.0;stroke-width:0.5;"/>
     </g>
     <g id="line2d_104">
      <g>
       <use style="stroke:#000000;stroke-width:0.5;" x="72.0" xlink:href="#m728421d6d4" y="267.054545455"/>
      </g>
     </g>
     <g id="line2d_105">
      <g>
       <use style="stroke:#000000;stroke-width:0.5;" x="518.4" xlink:href="#mcb0005524f" y="267.054545455"/>
      </g>
     </g>
     <g id="text_27">
      <!-- 2e-05 -->
      <g transform="translate(46.20625 269.262045455)scale(0.08 -0.08)">
       <use xlink:href="#BitstreamVeraSans-Roman-32"/>
       <use x="63.623046875" xlink:href="#BitstreamVeraSans-Roman-65"/>
       <use x="125.146484375" xlink:href="#BitstreamVeraSans-Roman-2d"/>
       <use x="161.23046875" xlink:href="#BitstreamVeraSans-Roman-30"/>
       <use x="224.853515625" xlink:href="#BitstreamVeraSans-Roman-35"/>
      </g>
     </g>
    </g>
    <g id="ytick_15">
     <g id="line2d_106">
      <path clip-path="url(#pf128fae7d4)" d="
M72 247.418
L518.4 247.418" style="fill:none;stroke:#000000;stroke-dasharray:1.000000,3.000000;stroke-dashoffset:0.0;stroke-width:0.5;"/>
     </g>
     <g id="line2d_107">
      <g>
       <use style="stroke:#000000;stroke-width:0.5;" x="72.0" xlink:href="#m728421d6d4" y="247.418181818"/>
      </g>
     </g>
     <g id="line2d_108">
      <g>
       <use style="stroke:#000000;stroke-width:0.5;" x="518.4" xlink:href="#mcb0005524f" y="247.418181818"/>
      </g>
     </g>
     <g id="text_28">
      <!-- 2.5e-05 -->
      <g transform="translate(38.57375 249.625681818)scale(0.08 -0.08)">
       <use xlink:href="#BitstreamVeraSans-Roman-32"/>
       <use x="63.623046875" xlink:href="#BitstreamVeraSans-Roman-2e"/>
       <use x="95.41015625" xlink:href="#BitstreamVeraSans-Roman-35"/>
       <use x="159.033203125" xlink:href="#BitstreamVeraSans-Roman-65"/>
       <use x="220.556640625" xlink:href="#BitstreamVeraSans-Roman-2d"/>
       <use x="256.640625" xlink:href="#BitstreamVeraSans-Roman-30"/>
       <use x="320.263671875" xlink:href="#BitstreamVeraSans-Roman-35"/>
      </g>
     </g>
    </g>
    <g id="ytick_16">
     <g id="line2d_109">
      <path clip-path="url(#pf128fae7d4)" d="
M72 227.782
L518.4 227.782" style="fill:none;stroke:#000000;stroke-dasharray:1.000000,3.000000;stroke-dashoffset:0.0;stroke-width:0.5;"/>
     </g>
     <g id="line2d_110">
      <g>
       <use style="stroke:#000000;stroke-width:0.5;" x="72.0" xlink:href="#m728421d6d4" y="227.781818182"/>
      </g>
     </g>
     <g id="line2d_111">
      <g>
       <use style="stroke:#000000;stroke-width:0.5;" x="518.4" xlink:href="#mcb0005524f" y="227.781818182"/>
      </g>
     </g>
     <g id="text_29">
      <!-- 3e-05 -->
      <g transform="translate(46.23 229.989318182)scale(0.08 -0.08)">
       <use xlink:href="#BitstreamVeraSans-Roman-33"/>
       <use x="63.623046875" xlink:href="#BitstreamVeraSans-Roman-65"/>
       <use x="125.146484375" xlink:href="#BitstreamVeraSans-Roman-2d"/>
       <use x="161.23046875" xlink:href="#BitstreamVeraSans-Roman-30"/>
       <use x="224.853515625" xlink:href="#BitstreamVeraSans-Roman-35"/>
      </g>
     </g>
    </g>
    <g id="ytick_17">
     <g id="line2d_112">
      <path clip-path="url(#pf128fae7d4)" d="
M72 208.145
L518.4 208.145" style="fill:none;stroke:#000000;stroke-dasharray:1.000000,3.000000;stroke-dashoffset:0.0;stroke-width:0.5;"/>
     </g>
     <g id="line2d_113">
      <g>
       <use style="stroke:#000000;stroke-width:0.5;" x="72.0" xlink:href="#m728421d6d4" y="208.145454545"/>
      </g>
     </g>
     <g id="line2d_114">
      <g>
       <use style="stroke:#000000;stroke-width:0.5;" x="518.4" xlink:href="#mcb0005524f" y="208.145454545"/>
      </g>
     </g>
     <g id="text_30">
      <!-- 3.5e-05 -->
      <g transform="translate(38.5975 210.352954545)scale(0.08 -0.08)">
       <use xlink:href="#BitstreamVeraSans-Roman-33"/>
       <use x="63.623046875" xlink:href="#BitstreamVeraSans-Roman-2e"/>
       <use x="95.41015625" xlink:href="#BitstreamVeraSans-Roman-35"/>
       <use x="159.033203125" xlink:href="#BitstreamVeraSans-Roman-65"/>
       <use x="220.556640625" xlink:href="#BitstreamVeraSans-Roman-2d"/>
       <use x="256.640625" xlink:href="#BitstreamVeraSans-Roman-30"/>
       <use x="320.263671875" xlink:href="#BitstreamVeraSans-Roman-35"/>
      </g>
     </g>
    </g>
   </g>
   <g id="legend_2">
    <g id="patch_13">
     <path d="
M384.624 283.075
L511.2 283.075
L511.2 215.345
L384.624 215.345
z
" style="fill:#ffffff;stroke:#000000;stroke-linejoin:miter;"/>
    </g>
    <g id="line2d_115"/>
    <g id="line2d_116">
     <g>
      <use style="fill:#0000ff;stroke:#000000;stroke-width:0.5;" x="394.704" xlink:href="#mf1e9a9e4ae" y="227.007204545"/>
      <use style="fill:#0000ff;stroke:#000000;stroke-width:0.5;" x="414.864" xlink:href="#mf1e9a9e4ae" y="227.007204545"/>
     </g>
    </g>
    <g id="text_31">
     <!-- $Observed\; I$ -->
     <defs>
      <path d="
M30.4219 -2.20312
Q22.9062 -2.20312 17.0938 1.23438
Q11.2812 4.6875 8.125 10.8125
Q4.98438 16.9375 4.98438 24.4219
Q4.98438 35.2969 11.1562 46.0938
Q17.3281 56.8906 27.4375 63.7031
Q37.5469 70.5156 48.5781 70.5156
Q54.2969 70.5156 59.0312 68.4531
Q63.7656 66.4062 67.0312 62.7656
Q70.3125 59.125 72.0938 54.2344
Q73.875 49.3594 73.875 43.6094
Q73.875 35.3594 70.3594 27.1719
Q66.8438 19 60.6094 12.2812
Q54.3906 5.5625 46.625 1.67188
Q38.875 -2.20312 30.4219 -2.20312
M31.2031 0.78125
Q38.4844 0.78125 44.7812 5.39062
Q51.0781 10.0156 55.5156 17.3125
Q59.9688 24.6094 62.3281 32.6406
Q64.7031 40.6719 64.7031 47.6094
Q64.7031 53.0312 62.8438 57.5469
Q60.9844 62.0625 57.125 64.8125
Q53.2656 67.5781 47.9062 67.5781
Q42.625 67.5781 37.6406 65.0312
Q32.6719 62.5 28.6094 58.2969
Q24.4688 54.0469 21.2344 47.7656
Q18.0156 41.5 16.3594 34.5938
Q14.7031 27.6875 14.7031 21.5781
Q14.7031 13.0938 18.875 6.9375
Q23.0469 0.78125 31.2031 0.78125" id="Cmmi10-4f"/>
      <path d="
M7.71875 1.70312
Q7.71875 2.29688 7.8125 2.59375
L15.2812 32.4219
Q16.0156 35.2031 16.0156 37.3125
Q16.0156 41.6094 13.0938 41.6094
Q9.96875 41.6094 8.45312 37.8594
Q6.9375 34.125 5.51562 28.4219
Q5.51562 28.125 5.21875 27.9531
Q4.9375 27.7812 4.6875 27.7812
L3.51562 27.7812
Q3.17188 27.7812 2.92188 28.1406
Q2.6875 28.5156 2.6875 28.8125
Q3.76562 33.1562 4.76562 36.1719
Q5.76562 39.2031 7.89062 41.6875
Q10.0156 44.1875 13.1875 44.1875
Q16.6562 44.1875 19.2656 42.1875
Q21.875 40.1875 22.5156 36.9219
Q25.0469 40.2344 28.2969 42.2031
Q31.5469 44.1875 35.4062 44.1875
Q38.5781 44.1875 40.9844 42.3281
Q43.4062 40.4844 43.4062 37.3125
Q43.4062 34.7656 41.8125 32.875
Q40.2344 31 37.5938 31
Q35.9844 31 34.8906 32
Q33.7969 33.0156 33.7969 34.625
Q33.7969 36.8125 35.4062 38.5469
Q37.0156 40.2812 39.1094 40.2812
Q37.5 41.6094 35.2031 41.6094
Q30.9062 41.6094 27.7344 38.5469
Q24.5625 35.5 22.0156 30.8125
L14.8906 2.20312
Q14.5469 0.828125 13.3438 -0.140625
Q12.1562 -1.125 10.6875 -1.125
Q9.46875 -1.125 8.59375 -0.34375
Q7.71875 0.4375 7.71875 1.70312" id="Cmmi10-72"/>
      <path d="
M8.6875 6.10938
Q11.375 1.51562 19.4844 1.51562
Q23 1.51562 26.1719 2.70312
Q29.3438 3.90625 31.4219 6.29688
Q33.5 8.6875 33.5 12.1094
Q33.5 14.7031 31.6406 16.3594
Q29.7812 18.0156 27.0938 18.6094
L21.6875 19.6719
Q17.9688 20.6094 15.5781 23.1406
Q13.1875 25.6875 13.1875 29.2969
Q13.1875 33.7344 15.5938 37.1562
Q18.0156 40.5781 21.9688 42.375
Q25.9219 44.1875 30.1719 44.1875
Q34.7188 44.1875 38.2969 42.0156
Q41.8906 39.8438 41.8906 35.5938
Q41.8906 33.2969 40.5938 31.5312
Q39.3125 29.7812 37.0156 29.7812
Q35.6875 29.7812 34.7344 30.6406
Q33.7969 31.5 33.7969 32.8125
Q33.7969 33.9844 34.4531 35.0781
Q35.1094 36.1875 36.2031 36.8438
Q37.3125 37.5 38.4844 37.5
Q37.5938 39.6562 35.1719 40.625
Q32.7656 41.6094 29.9844 41.6094
Q27.4375 41.6094 24.8906 40.5781
Q22.3594 39.5469 20.8125 37.5625
Q19.2812 35.5938 19.2812 32.9062
Q19.2812 31.1094 20.5469 29.7344
Q21.8281 28.375 23.6875 27.7812
L29.5 26.6094
Q32.2812 26.0312 34.5938 24.5312
Q36.9219 23.0469 38.25 20.7656
Q39.5938 18.5 39.5938 15.5781
Q39.5938 11.8594 37.5156 8.25
Q35.4531 4.64062 32.4219 2.48438
Q27.0938 -1.125 19.3906 -1.125
Q14.0625 -1.125 9.60938 1.3125
Q5.17188 3.76562 5.17188 8.59375
Q5.17188 11.3281 6.75 13.3438
Q8.34375 15.375 11.0781 15.375
Q12.7031 15.375 13.7969 14.3906
Q14.8906 13.4219 14.8906 11.8125
Q14.8906 9.51562 13.1719 7.8125
Q11.4688 6.10938 9.1875 6.10938
z
" id="Cmmi10-73"/>
      <path d="
M17.2812 -1.125
Q11.2344 -1.125 7.85938 3.60938
Q4.5 8.34375 4.5 14.7031
Q4.5 15.625 4.95312 18.3281
Q5.42188 21.0469 5.42188 21.6875
L15.0938 60.5
Q15.4844 62.2031 15.5781 63.1875
Q15.5781 64.7969 9.07812 64.7969
Q8.10938 64.7969 8.10938 66.1094
Q8.15625 66.3594 8.32812 66.9844
Q8.5 67.625 8.76562 67.9688
Q9.03125 68.3125 9.51562 68.3125
L23 69.3906
Q24.2188 69.3906 24.2188 68.1094
L16.7969 38.625
Q22.4688 44.1875 28.2188 44.1875
Q32.4688 44.1875 35.5156 41.9375
Q38.5781 39.7031 40.0938 36.0312
Q41.6094 32.375 41.6094 28.2188
Q41.6094 23.3906 39.7188 18.2344
Q37.8438 13.0938 34.5156 8.67188
Q31.2031 4.25 26.75 1.5625
Q22.3125 -1.125 17.2812 -1.125
M17.4844 1.51562
Q20.9062 1.51562 23.875 4.375
Q26.8594 7.23438 28.7188 10.7969
Q30.7188 14.7969 32.4531 21.6562
Q34.1875 28.5156 34.1875 32.625
Q34.1875 36.1875 32.6875 38.8906
Q31.2031 41.6094 27.9844 41.6094
Q24.3594 41.6094 21.0625 38.9375
Q17.7812 36.2812 15.2812 32.625
L12.5 21.2969
Q10.8906 14.9844 10.7969 11.1875
Q10.7969 7.42188 12.4219 4.46875
Q14.0625 1.51562 17.4844 1.51562" id="Cmmi10-62"/>
      <path d="
M10.6875 11.2812
Q10.6875 13.5312 11.2188 16.2031
Q11.7656 18.8906 12.2969 20.625
Q12.8438 22.3594 14.75 27.3906
Q16.6562 32.4219 16.7031 32.625
Q18.0156 36.2812 18.0156 38.625
Q18.0156 41.6094 15.8281 41.6094
Q11.8594 41.6094 9.29688 37.5312
Q6.73438 33.4531 5.51562 28.4219
Q5.32812 27.7812 4.6875 27.7812
L3.51562 27.7812
Q2.6875 27.7812 2.6875 28.7188
L2.6875 29
Q4.29688 34.9688 7.60938 39.5781
Q10.9375 44.1875 16.0156 44.1875
Q19.5781 44.1875 22.0469 41.8438
Q24.5156 39.5 24.5156 35.8906
Q24.5156 34.0312 23.6875 31.9844
Q21.7344 26.9062 20.6094 23.8438
Q19.4844 20.7969 18.5312 17.0156
Q17.5781 13.2344 17.5781 10.0156
Q17.5781 6.25 19.3125 3.875
Q21.0469 1.51562 24.7031 1.51562
Q31.6406 1.51562 37.2031 12.2031
Q38.9688 15.6719 40.5312 20.3594
Q42.0938 25.0469 42.0938 27.9844
Q42.0938 31 41.1094 32.6875
Q40.1406 34.375 38.5781 36.2031
Q37.0156 38.0312 37.0156 39.1094
Q37.0156 41.0625 38.625 42.6719
Q40.2344 44.2812 42.1875 44.2812
Q44.5781 44.2812 45.625 42.0781
Q46.6875 39.8906 46.6875 37.1094
Q46.6875 33.7969 45.7344 29.2031
Q44.7812 24.6094 43.0938 19.6719
Q41.4062 14.75 39.9844 11.9219
Q33.4062 -1.125 24.6094 -1.125
Q18.3125 -1.125 14.5 2.01562
Q10.6875 5.17188 10.6875 11.2812" id="Cmmi10-76"/>
      <path d="
M4.20312 0
Q3.21875 0 3.21875 1.3125
Q3.60938 3.51562 4.5 3.51562
Q10.4062 3.51562 12.5 3.90625
Q14.7969 4.4375 15.375 6.89062
L29.1094 61.8125
Q29.2969 62.7969 29.2969 63.0938
Q29.2969 63.7188 28.9688 63.9844
Q28.6562 64.2656 27.9844 64.4062
Q25.9844 64.7969 20.4062 64.7969
Q19.3906 64.7969 19.3906 66.1094
Q19.7344 67.3906 19.9219 67.8438
Q20.125 68.3125 21.0938 68.3125
L49.0312 68.3125
Q50 68.3125 50 67
Q49.9531 66.75 49.7969 66.1562
Q49.6562 65.5781 49.4062 65.1875
Q49.1719 64.7969 48.6875 64.7969
Q42.8281 64.7969 40.5781 64.4062
Q38.375 63.875 37.7969 61.375
L24.125 6.5
Q23.875 5.28125 23.875 5.17188
Q23.875 4.9375 23.9531 4.71875
Q24.0312 4.5 24.25 4.32812
Q24.4688 4.15625 24.6875 4.07812
Q24.9062 4 25.2031 3.90625
Q27.0938 3.51562 32.8125 3.51562
Q33.7969 3.51562 33.7969 2.20312
Q33.4531 0.78125 33.25 0.390625
Q33.0625 0 32.0781 0
z
" id="Cmmi10-49"/>
     </defs>
     <g transform="translate(430.704 232.047204545)scale(0.144 -0.144)">
      <use transform="translate(0.0 0.484375)" xlink:href="#Cmmi10-4f"/>
      <use transform="translate(76.220703125 0.484375)" xlink:href="#Cmmi10-62"/>
      <use transform="translate(119.140625 0.484375)" xlink:href="#Cmmi10-73"/>
      <use transform="translate(165.91796875 0.484375)" xlink:href="#Cmmi10-65"/>
      <use transform="translate(212.40234375 0.484375)" xlink:href="#Cmmi10-72"/>
      <use transform="translate(257.51953125 0.484375)" xlink:href="#Cmmi10-76"/>
      <use transform="translate(305.908203125 0.484375)" xlink:href="#Cmmi10-65"/>
      <use transform="translate(352.392578125 0.484375)" xlink:href="#Cmmi10-64"/>
      <use transform="translate(474.62890625 0.484375)" xlink:href="#Cmmi10-49"/>
     </g>
    </g>
    <g id="line2d_117">
     <path d="
M394.704 248.144
L414.864 248.144" style="fill:none;stroke:#000000;stroke-linecap:square;"/>
    </g>
    <g id="line2d_118"/>
    <g id="text_32">
     <!-- $median\; I$ -->
     <g transform="translate(430.704 253.183704545)scale(0.144 -0.144)">
      <use transform="translate(0.0 0.609375)" xlink:href="#Cmmi10-6d"/>
      <use transform="translate(87.79296875 0.609375)" xlink:href="#Cmmi10-65"/>
      <use transform="translate(134.27734375 0.609375)" xlink:href="#Cmmi10-64"/>
      <use transform="translate(186.279296875 0.609375)" xlink:href="#Cmmi10-69"/>
      <use transform="translate(220.703125 0.609375)" xlink:href="#Cmmi10-61"/>
      <use transform="translate(273.486328125 0.609375)" xlink:href="#Cmmi10-6e"/>
      <use transform="translate(403.73046875 0.609375)" xlink:href="#Cmmi10-49"/>
     </g>
    </g>
    <g id="line2d_119">
     <path d="
M394.704 269.28
L414.864 269.28" style="fill:none;stroke:#000000;stroke-dasharray:6.000000,6.000000;stroke-dashoffset:0.0;"/>
    </g>
    <g id="line2d_120"/>
    <g id="text_33">
     <!-- $mean\; I$ -->
     <g transform="translate(430.704 274.320204545)scale(0.144 -0.144)">
      <use transform="translate(0.0 0.6875)" xlink:href="#Cmmi10-6d"/>
      <use transform="translate(87.79296875 0.6875)" xlink:href="#Cmmi10-65"/>
      <use transform="translate(134.27734375 0.6875)" xlink:href="#Cmmi10-61"/>
      <use transform="translate(187.060546875 0.6875)" xlink:href="#Cmmi10-6e"/>
      <use transform="translate(317.3046875 0.6875)" xlink:href="#Cmmi10-49"/>
     </g>
    </g>
   </g>
  </g>
 </g>
 <defs>
  <clipPath id="pf128fae7d4">
   <rect height="137.454545455" width="446.4" x="72.0" y="208.145454545"/>
  </clipPath>
  <clipPath id="p93aeaf4644">
   <rect height="137.454545455" width="446.4" x="72.0" y="43.2"/>
  </clipPath>
 </defs>
</svg>
