<?xml version="1.0" encoding="utf-8" standalone="no"?>
<!DOCTYPE svg PUBLIC "-//W3C//DTD SVG 1.1//EN"
  "http://www.w3.org/Graphics/SVG/1.1/DTD/svg11.dtd">
<!-- Created with matplotlib (http://matplotlib.org/) -->
<svg height="432pt" version="1.1" viewBox="0 0 576 432" width="576pt" xmlns="http://www.w3.org/2000/svg" xmlns:xlink="http://www.w3.org/1999/xlink">
 <defs>
  <style type="text/css">
*{stroke-linecap:butt;stroke-linejoin:round;}
  </style>
 </defs>
 <g id="figure_1">
  <g id="patch_1">
   <path d="
M0 432
L576 432
L576 0
L0 0
z
" style="fill:#ffffff;"/>
  </g>
  <g id="axes_1">
   <g id="patch_2">
    <path d="
M72 180.655
L518.4 180.655
L518.4 43.2
L72 43.2
z
" style="fill:#ffffff;"/>
   </g>
   <g id="PolyCollection_1">
    <defs>
     <path d="
M72 -384.826
L72 -282.073
L81.1102 -282.062
L90.2204 -282.055
L99.3306 -282.046
L108.441 -282.036
L117.551 -282.023
L126.661 -282.011
L135.771 -281.998
L144.882 -281.983
L153.992 -281.967
L163.102 -281.948
L172.212 -281.927
L181.322 -281.903
L190.433 -281.876
L199.543 -281.833
L208.653 -281.744
L217.763 -281.598
L226.873 -281.436
L235.984 -281.279
L245.094 -281.105
L254.204 -280.873
L263.314 -280.472
L272.424 -279.716
L281.535 -278.514
L290.645 -277.048
L299.755 -275.559
L308.865 -274.215
L317.976 -273.023
L327.086 -271.887
L336.196 -270.767
L345.306 -269.703
L354.416 -268.772
L363.527 -267.98
L372.637 -267.348
L381.747 -266.877
L390.857 -266.537
L399.967 -266.288
L409.078 -266.101
L418.188 -265.967
L427.298 -265.871
L436.408 -265.807
L445.518 -265.761
L454.629 -265.729
L463.739 -265.705
L472.849 -265.686
L481.959 -265.671
L491.069 -265.66
L500.18 -265.652
L509.29 -265.647
L518.4 -265.643
L518.4 -363.887
L518.4 -363.887
L509.29 -363.904
L500.18 -363.922
L491.069 -363.947
L481.959 -363.982
L472.849 -364.03
L463.739 -364.086
L454.629 -364.153
L445.518 -364.239
L436.408 -364.354
L427.298 -364.509
L418.188 -364.728
L409.078 -365.019
L399.967 -365.407
L390.857 -365.896
L381.747 -366.531
L372.637 -367.365
L363.527 -368.421
L354.416 -369.666
L345.306 -371.042
L336.196 -372.518
L327.086 -373.979
L317.976 -375.378
L308.865 -376.774
L299.755 -378.278
L290.645 -379.874
L281.535 -381.386
L272.424 -382.584
L263.314 -383.32
L254.204 -383.703
L245.094 -383.923
L235.984 -384.086
L226.873 -384.232
L217.763 -384.382
L208.653 -384.517
L199.543 -384.599
L190.433 -384.639
L181.322 -384.663
L172.212 -384.686
L163.102 -384.706
L153.992 -384.723
L144.882 -384.738
L135.771 -384.753
L126.661 -384.765
L117.551 -384.777
L108.441 -384.789
L99.3306 -384.799
L90.2204 -384.808
L81.1102 -384.815
L72 -384.826
z
" id="mda2fff552f" style="stroke:#000000;stroke-opacity:0.2;"/>
    </defs>
    <g clip-path="url(#p93aeaf4644)">
     <use style="fill:#0000ff;fill-opacity:0.2;stroke:#000000;stroke-opacity:0.2;" x="0.0" xlink:href="#mda2fff552f" y="432.0"/>
    </g>
   </g>
   <g id="line2d_1">
    <path clip-path="url(#p93aeaf4644)" d="
M72 115.135
L81.1102 115.145
L90.2204 115.153
L99.3306 115.161
L108.441 115.171
L117.551 115.183
L126.661 115.195
L135.771 115.208
L144.882 115.222
L153.992 115.237
L163.102 115.255
L172.212 115.275
L181.322 115.298
L190.433 115.323
L199.543 115.363
L208.653 115.447
L217.763 115.584
L226.873 115.736
L235.984 115.884
L245.094 116.047
L254.204 116.267
L263.314 116.65
L272.424 117.377
L281.535 118.549
L290.645 120.006
L299.755 121.517
L308.865 122.913
L317.976 124.182
L327.086 125.424
L336.196 126.686
L345.306 127.924
L354.416 129.042
L363.527 130.024
L372.637 130.833
L381.747 131.452
L390.857 131.911
L399.967 132.256
L409.078 132.522
L418.188 132.716
L427.298 132.86
L436.408 132.958
L445.518 133.03
L454.629 133.081
L463.739 133.121
L472.849 133.153
L481.959 133.18
L491.069 133.199
L500.18 133.213
L509.29 133.222
L518.4 133.231" style="fill:none;stroke:#000000;stroke-linecap:square;"/>
   </g>
   <g id="line2d_2">
    <path clip-path="url(#p93aeaf4644)" d="
M72 112.515
L81.1102 112.526
L90.2204 112.533
L99.3306 112.542
L108.441 112.552
L117.551 112.565
L126.661 112.577
L135.771 112.589
L144.882 112.604
L153.992 112.619
L163.102 112.637
L172.212 112.658
L181.322 112.681
L190.433 112.707
L199.543 112.748
L208.653 112.833
L217.763 112.973
L226.873 113.128
L235.984 113.279
L245.094 113.447
L254.204 113.671
L263.314 114.061
L272.424 114.804
L281.535 115.998
L290.645 117.481
L299.755 119.017
L308.865 120.435
L317.976 121.721
L327.086 122.978
L336.196 124.254
L345.306 125.505
L354.416 126.634
L363.527 127.625
L372.637 128.441
L381.747 129.066
L390.857 129.53
L399.967 129.878
L409.078 130.147
L418.188 130.344
L427.298 130.489
L436.408 130.589
L445.518 130.661
L454.629 130.714
L463.739 130.754
L472.849 130.787
L481.959 130.814
L491.069 130.834
L500.18 130.848
L509.29 130.857
L518.4 130.866" style="fill:none;stroke:#000000;stroke-dasharray:6.000000,6.000000;stroke-dashoffset:0.0;"/>
   </g>
   <g id="patch_3">
    <path d="
M72 43.2
L518.4 43.2" style="fill:none;stroke:#000000;stroke-linecap:square;stroke-linejoin:miter;"/>
   </g>
   <g id="patch_4">
    <path d="
M518.4 180.655
L518.4 43.2" style="fill:none;stroke:#000000;stroke-linecap:square;stroke-linejoin:miter;"/>
   </g>
   <g id="patch_5">
    <path d="
M72 180.655
L518.4 180.655" style="fill:none;stroke:#000000;stroke-linecap:square;stroke-linejoin:miter;"/>
   </g>
   <g id="patch_6">
    <path d="
M72 180.655
L72 43.2" style="fill:none;stroke:#000000;stroke-linecap:square;stroke-linejoin:miter;"/>
   </g>
   <g id="matplotlib.axis_1">
    <g id="xtick_1">
     <g id="line2d_3">
      <path clip-path="url(#p93aeaf4644)" d="
M94.1248 180.655
L94.1248 43.2" style="fill:none;stroke:#000000;stroke-dasharray:1.000000,3.000000;stroke-dashoffset:0.0;stroke-width:0.5;"/>
     </g>
     <g id="line2d_4">
      <defs>
       <path d="
M0 0
L0 -4" id="m93b0483c22" style="stroke:#000000;stroke-width:0.5;"/>
      </defs>
      <g>
       <use style="stroke:#000000;stroke-width:0.5;" x="94.1247813411" xlink:href="#m93b0483c22" y="180.654545455"/>
      </g>
     </g>
     <g id="line2d_5">
      <defs>
       <path d="
M0 0
L0 4" id="m741efc42ff" style="stroke:#000000;stroke-width:0.5;"/>
      </defs>
      <g>
       <use style="stroke:#000000;stroke-width:0.5;" x="94.1247813411" xlink:href="#m741efc42ff" y="43.2"/>
      </g>
     </g>
    </g>
    <g id="xtick_2">
     <g id="line2d_6">
      <path clip-path="url(#p93aeaf4644)" d="
M133.169 180.655
L133.169 43.2" style="fill:none;stroke:#000000;stroke-dasharray:1.000000,3.000000;stroke-dashoffset:0.0;stroke-width:0.5;"/>
     </g>
     <g id="line2d_7">
      <g>
       <use style="stroke:#000000;stroke-width:0.5;" x="133.168513119" xlink:href="#m93b0483c22" y="180.654545455"/>
      </g>
     </g>
     <g id="line2d_8">
      <g>
       <use style="stroke:#000000;stroke-width:0.5;" x="133.168513119" xlink:href="#m741efc42ff" y="43.2"/>
      </g>
     </g>
    </g>
    <g id="xtick_3">
     <g id="line2d_9">
      <path clip-path="url(#p93aeaf4644)" d="
M173.514 180.655
L173.514 43.2" style="fill:none;stroke:#000000;stroke-dasharray:1.000000,3.000000;stroke-dashoffset:0.0;stroke-width:0.5;"/>
     </g>
     <g id="line2d_10">
      <g>
       <use style="stroke:#000000;stroke-width:0.5;" x="173.513702624" xlink:href="#m93b0483c22" y="180.654545455"/>
      </g>
     </g>
     <g id="line2d_11">
      <g>
       <use style="stroke:#000000;stroke-width:0.5;" x="173.513702624" xlink:href="#m741efc42ff" y="43.2"/>
      </g>
     </g>
    </g>
    <g id="xtick_4">
     <g id="line2d_12">
      <path clip-path="url(#p93aeaf4644)" d="
M212.557 180.655
L212.557 43.2" style="fill:none;stroke:#000000;stroke-dasharray:1.000000,3.000000;stroke-dashoffset:0.0;stroke-width:0.5;"/>
     </g>
     <g id="line2d_13">
      <g>
       <use style="stroke:#000000;stroke-width:0.5;" x="212.557434402" xlink:href="#m93b0483c22" y="180.654545455"/>
      </g>
     </g>
     <g id="line2d_14">
      <g>
       <use style="stroke:#000000;stroke-width:0.5;" x="212.557434402" xlink:href="#m741efc42ff" y="43.2"/>
      </g>
     </g>
    </g>
    <g id="xtick_5">
     <g id="line2d_15">
      <path clip-path="url(#p93aeaf4644)" d="
M252.903 180.655
L252.903 43.2" style="fill:none;stroke:#000000;stroke-dasharray:1.000000,3.000000;stroke-dashoffset:0.0;stroke-width:0.5;"/>
     </g>
     <g id="line2d_16">
      <g>
       <use style="stroke:#000000;stroke-width:0.5;" x="252.902623907" xlink:href="#m93b0483c22" y="180.654545455"/>
      </g>
     </g>
     <g id="line2d_17">
      <g>
       <use style="stroke:#000000;stroke-width:0.5;" x="252.902623907" xlink:href="#m741efc42ff" y="43.2"/>
      </g>
     </g>
    </g>
    <g id="xtick_6">
     <g id="line2d_18">
      <path clip-path="url(#p93aeaf4644)" d="
M293.248 180.655
L293.248 43.2" style="fill:none;stroke:#000000;stroke-dasharray:1.000000,3.000000;stroke-dashoffset:0.0;stroke-width:0.5;"/>
     </g>
     <g id="line2d_19">
      <g>
       <use style="stroke:#000000;stroke-width:0.5;" x="293.247813411" xlink:href="#m93b0483c22" y="180.654545455"/>
      </g>
     </g>
     <g id="line2d_20">
      <g>
       <use style="stroke:#000000;stroke-width:0.5;" x="293.247813411" xlink:href="#m741efc42ff" y="43.2"/>
      </g>
     </g>
    </g>
    <g id="xtick_7">
     <g id="line2d_21">
      <path clip-path="url(#p93aeaf4644)" d="
M329.689 180.655
L329.689 43.2" style="fill:none;stroke:#000000;stroke-dasharray:1.000000,3.000000;stroke-dashoffset:0.0;stroke-width:0.5;"/>
     </g>
     <g id="line2d_22">
      <g>
       <use style="stroke:#000000;stroke-width:0.5;" x="329.688629738" xlink:href="#m93b0483c22" y="180.654545455"/>
      </g>
     </g>
     <g id="line2d_23">
      <g>
       <use style="stroke:#000000;stroke-width:0.5;" x="329.688629738" xlink:href="#m741efc42ff" y="43.2"/>
      </g>
     </g>
    </g>
    <g id="xtick_8">
     <g id="line2d_24">
      <path clip-path="url(#p93aeaf4644)" d="
M370.034 180.655
L370.034 43.2" style="fill:none;stroke:#000000;stroke-dasharray:1.000000,3.000000;stroke-dashoffset:0.0;stroke-width:0.5;"/>
     </g>
     <g id="line2d_25">
      <g>
       <use style="stroke:#000000;stroke-width:0.5;" x="370.033819242" xlink:href="#m93b0483c22" y="180.654545455"/>
      </g>
     </g>
     <g id="line2d_26">
      <g>
       <use style="stroke:#000000;stroke-width:0.5;" x="370.033819242" xlink:href="#m741efc42ff" y="43.2"/>
      </g>
     </g>
    </g>
    <g id="xtick_9">
     <g id="line2d_27">
      <path clip-path="url(#p93aeaf4644)" d="
M409.078 180.655
L409.078 43.2" style="fill:none;stroke:#000000;stroke-dasharray:1.000000,3.000000;stroke-dashoffset:0.0;stroke-width:0.5;"/>
     </g>
     <g id="line2d_28">
      <g>
       <use style="stroke:#000000;stroke-width:0.5;" x="409.07755102" xlink:href="#m93b0483c22" y="180.654545455"/>
      </g>
     </g>
     <g id="line2d_29">
      <g>
       <use style="stroke:#000000;stroke-width:0.5;" x="409.07755102" xlink:href="#m741efc42ff" y="43.2"/>
      </g>
     </g>
    </g>
    <g id="xtick_10">
     <g id="line2d_30">
      <path clip-path="url(#p93aeaf4644)" d="
M449.423 180.655
L449.423 43.2" style="fill:none;stroke:#000000;stroke-dasharray:1.000000,3.000000;stroke-dashoffset:0.0;stroke-width:0.5;"/>
     </g>
     <g id="line2d_31">
      <g>
       <use style="stroke:#000000;stroke-width:0.5;" x="449.422740525" xlink:href="#m93b0483c22" y="180.654545455"/>
      </g>
     </g>
     <g id="line2d_32">
      <g>
       <use style="stroke:#000000;stroke-width:0.5;" x="449.422740525" xlink:href="#m741efc42ff" y="43.2"/>
      </g>
     </g>
    </g>
    <g id="xtick_11">
     <g id="line2d_33">
      <path clip-path="url(#p93aeaf4644)" d="
M488.466 180.655
L488.466 43.2" style="fill:none;stroke:#000000;stroke-dasharray:1.000000,3.000000;stroke-dashoffset:0.0;stroke-width:0.5;"/>
     </g>
     <g id="line2d_34">
      <g>
       <use style="stroke:#000000;stroke-width:0.5;" x="488.466472303" xlink:href="#m93b0483c22" y="180.654545455"/>
      </g>
     </g>
     <g id="line2d_35">
      <g>
       <use style="stroke:#000000;stroke-width:0.5;" x="488.466472303" xlink:href="#m741efc42ff" y="43.2"/>
      </g>
     </g>
    </g>
   </g>
   <g id="matplotlib.axis_2">
    <g id="ytick_1">
     <g id="line2d_36">
      <path clip-path="url(#p93aeaf4644)" d="
M72 180.655
L518.4 180.655" style="fill:none;stroke:#000000;stroke-dasharray:1.000000,3.000000;stroke-dashoffset:0.0;stroke-width:0.5;"/>
     </g>
     <g id="line2d_37">
      <defs>
       <path d="
M0 0
L4 0" id="m728421d6d4" style="stroke:#000000;stroke-width:0.5;"/>
      </defs>
      <g>
       <use style="stroke:#000000;stroke-width:0.5;" x="72.0" xlink:href="#m728421d6d4" y="180.654545455"/>
      </g>
     </g>
     <g id="line2d_38">
      <defs>
       <path d="
M0 0
L-4 0" id="mcb0005524f" style="stroke:#000000;stroke-width:0.5;"/>
      </defs>
      <g>
       <use style="stroke:#000000;stroke-width:0.5;" x="518.4" xlink:href="#mcb0005524f" y="180.654545455"/>
      </g>
     </g>
     <g id="text_1">
      <!-- 0.008 -->
      <defs>
       <path d="
M31.7812 66.4062
Q24.1719 66.4062 20.3281 58.9062
Q16.5 51.4219 16.5 36.375
Q16.5 21.3906 20.3281 13.8906
Q24.1719 6.39062 31.7812 6.39062
Q39.4531 6.39062 43.2812 13.8906
Q47.125 21.3906 47.125 36.375
Q47.125 51.4219 43.2812 58.9062
Q39.4531 66.4062 31.7812 66.4062
M31.7812 74.2188
Q44.0469 74.2188 50.5156 64.5156
Q56.9844 54.8281 56.9844 36.375
Q56.9844 17.9688 50.5156 8.26562
Q44.0469 -1.42188 31.7812 -1.42188
Q19.5312 -1.42188 13.0625 8.26562
Q6.59375 17.9688 6.59375 36.375
Q6.59375 54.8281 13.0625 64.5156
Q19.5312 74.2188 31.7812 74.2188" id="BitstreamVeraSans-Roman-30"/>
       <path d="
M10.6875 12.4062
L21 12.4062
L21 0
L10.6875 0
z
" id="BitstreamVeraSans-Roman-2e"/>
       <path d="
M31.7812 34.625
Q24.75 34.625 20.7188 30.8594
Q16.7031 27.0938 16.7031 20.5156
Q16.7031 13.9219 20.7188 10.1562
Q24.75 6.39062 31.7812 6.39062
Q38.8125 6.39062 42.8594 10.1719
Q46.9219 13.9688 46.9219 20.5156
Q46.9219 27.0938 42.8906 30.8594
Q38.875 34.625 31.7812 34.625
M21.9219 38.8125
Q15.5781 40.375 12.0312 44.7188
Q8.5 49.0781 8.5 55.3281
Q8.5 64.0625 14.7188 69.1406
Q20.9531 74.2188 31.7812 74.2188
Q42.6719 74.2188 48.875 69.1406
Q55.0781 64.0625 55.0781 55.3281
Q55.0781 49.0781 51.5312 44.7188
Q48 40.375 41.7031 38.8125
Q48.8281 37.1562 52.7969 32.3125
Q56.7812 27.4844 56.7812 20.5156
Q56.7812 9.90625 50.3125 4.23438
Q43.8438 -1.42188 31.7812 -1.42188
Q19.7344 -1.42188 13.25 4.23438
Q6.78125 9.90625 6.78125 20.5156
Q6.78125 27.4844 10.7812 32.3125
Q14.7969 37.1562 21.9219 38.8125
M18.3125 54.3906
Q18.3125 48.7344 21.8438 45.5625
Q25.3906 42.3906 31.7812 42.3906
Q38.1406 42.3906 41.7188 45.5625
Q45.3125 48.7344 45.3125 54.3906
Q45.3125 60.0625 41.7188 63.2344
Q38.1406 66.4062 31.7812 66.4062
Q25.3906 66.4062 21.8438 63.2344
Q18.3125 60.0625 18.3125 54.3906" id="BitstreamVeraSans-Roman-38"/>
      </defs>
      <g transform="translate(46.1725 182.862045455)scale(0.08 -0.08)">
       <use xlink:href="#BitstreamVeraSans-Roman-30"/>
       <use x="63.623046875" xlink:href="#BitstreamVeraSans-Roman-2e"/>
       <use x="95.41015625" xlink:href="#BitstreamVeraSans-Roman-30"/>
       <use x="159.033203125" xlink:href="#BitstreamVeraSans-Roman-30"/>
       <use x="222.65625" xlink:href="#BitstreamVeraSans-Roman-38"/>
      </g>
     </g>
    </g>
    <g id="ytick_2">
     <g id="line2d_39">
      <path clip-path="url(#p93aeaf4644)" d="
M72 163.473
L518.4 163.473" style="fill:none;stroke:#000000;stroke-dasharray:1.000000,3.000000;stroke-dashoffset:0.0;stroke-width:0.5;"/>
     </g>
     <g id="line2d_40">
      <g>
       <use style="stroke:#000000;stroke-width:0.5;" x="72.0" xlink:href="#m728421d6d4" y="163.472727273"/>
      </g>
     </g>
     <g id="line2d_41">
      <g>
       <use style="stroke:#000000;stroke-width:0.5;" x="518.4" xlink:href="#mcb0005524f" y="163.472727273"/>
      </g>
     </g>
     <g id="text_2">
      <!-- 0.01 -->
      <defs>
       <path d="
M12.4062 8.29688
L28.5156 8.29688
L28.5156 63.9219
L10.9844 60.4062
L10.9844 69.3906
L28.4219 72.9062
L38.2812 72.9062
L38.2812 8.29688
L54.3906 8.29688
L54.3906 0
L12.4062 0
z
" id="BitstreamVeraSans-Roman-31"/>
      </defs>
      <g transform="translate(51.45375 165.680227273)scale(0.08 -0.08)">
       <use xlink:href="#BitstreamVeraSans-Roman-30"/>
       <use x="63.623046875" xlink:href="#BitstreamVeraSans-Roman-2e"/>
       <use x="95.41015625" xlink:href="#BitstreamVeraSans-Roman-30"/>
       <use x="159.033203125" xlink:href="#BitstreamVeraSans-Roman-31"/>
      </g>
     </g>
    </g>
    <g id="ytick_3">
     <g id="line2d_42">
      <path clip-path="url(#p93aeaf4644)" d="
M72 146.291
L518.4 146.291" style="fill:none;stroke:#000000;stroke-dasharray:1.000000,3.000000;stroke-dashoffset:0.0;stroke-width:0.5;"/>
     </g>
     <g id="line2d_43">
      <g>
       <use style="stroke:#000000;stroke-width:0.5;" x="72.0" xlink:href="#m728421d6d4" y="146.290909091"/>
      </g>
     </g>
     <g id="line2d_44">
      <g>
       <use style="stroke:#000000;stroke-width:0.5;" x="518.4" xlink:href="#mcb0005524f" y="146.290909091"/>
      </g>
     </g>
     <g id="text_3">
      <!-- 0.012 -->
      <defs>
       <path d="
M19.1875 8.29688
L53.6094 8.29688
L53.6094 0
L7.32812 0
L7.32812 8.29688
Q12.9375 14.1094 22.625 23.8906
Q32.3281 33.6875 34.8125 36.5312
Q39.5469 41.8438 41.4219 45.5312
Q43.3125 49.2188 43.3125 52.7812
Q43.3125 58.5938 39.2344 62.25
Q35.1562 65.9219 28.6094 65.9219
Q23.9688 65.9219 18.8125 64.3125
Q13.6719 62.7031 7.8125 59.4219
L7.8125 69.3906
Q13.7656 71.7812 18.9375 73
Q24.125 74.2188 28.4219 74.2188
Q39.75 74.2188 46.4844 68.5469
Q53.2188 62.8906 53.2188 53.4219
Q53.2188 48.9219 51.5312 44.8906
Q49.8594 40.875 45.4062 35.4062
Q44.1875 33.9844 37.6406 27.2188
Q31.1094 20.4531 19.1875 8.29688" id="BitstreamVeraSans-Roman-32"/>
      </defs>
      <g transform="translate(46.42625 148.498409091)scale(0.08 -0.08)">
       <use xlink:href="#BitstreamVeraSans-Roman-30"/>
       <use x="63.623046875" xlink:href="#BitstreamVeraSans-Roman-2e"/>
       <use x="95.41015625" xlink:href="#BitstreamVeraSans-Roman-30"/>
       <use x="159.033203125" xlink:href="#BitstreamVeraSans-Roman-31"/>
       <use x="222.65625" xlink:href="#BitstreamVeraSans-Roman-32"/>
      </g>
     </g>
    </g>
    <g id="ytick_4">
     <g id="line2d_45">
      <path clip-path="url(#p93aeaf4644)" d="
M72 129.109
L518.4 129.109" style="fill:none;stroke:#000000;stroke-dasharray:1.000000,3.000000;stroke-dashoffset:0.0;stroke-width:0.5;"/>
     </g>
     <g id="line2d_46">
      <g>
       <use style="stroke:#000000;stroke-width:0.5;" x="72.0" xlink:href="#m728421d6d4" y="129.109090909"/>
      </g>
     </g>
     <g id="line2d_47">
      <g>
       <use style="stroke:#000000;stroke-width:0.5;" x="518.4" xlink:href="#mcb0005524f" y="129.109090909"/>
      </g>
     </g>
     <g id="text_4">
      <!-- 0.014 -->
      <defs>
       <path d="
M37.7969 64.3125
L12.8906 25.3906
L37.7969 25.3906
z

M35.2031 72.9062
L47.6094 72.9062
L47.6094 25.3906
L58.0156 25.3906
L58.0156 17.1875
L47.6094 17.1875
L47.6094 0
L37.7969 0
L37.7969 17.1875
L4.89062 17.1875
L4.89062 26.7031
z
" id="BitstreamVeraSans-Roman-34"/>
      </defs>
      <g transform="translate(46.07375 131.316590909)scale(0.08 -0.08)">
       <use xlink:href="#BitstreamVeraSans-Roman-30"/>
       <use x="63.623046875" xlink:href="#BitstreamVeraSans-Roman-2e"/>
       <use x="95.41015625" xlink:href="#BitstreamVeraSans-Roman-30"/>
       <use x="159.033203125" xlink:href="#BitstreamVeraSans-Roman-31"/>
       <use x="222.65625" xlink:href="#BitstreamVeraSans-Roman-34"/>
      </g>
     </g>
    </g>
    <g id="ytick_5">
     <g id="line2d_48">
      <path clip-path="url(#p93aeaf4644)" d="
M72 111.927
L518.4 111.927" style="fill:none;stroke:#000000;stroke-dasharray:1.000000,3.000000;stroke-dashoffset:0.0;stroke-width:0.5;"/>
     </g>
     <g id="line2d_49">
      <g>
       <use style="stroke:#000000;stroke-width:0.5;" x="72.0" xlink:href="#m728421d6d4" y="111.927272727"/>
      </g>
     </g>
     <g id="line2d_50">
      <g>
       <use style="stroke:#000000;stroke-width:0.5;" x="518.4" xlink:href="#mcb0005524f" y="111.927272727"/>
      </g>
     </g>
     <g id="text_5">
      <!-- 0.016 -->
      <defs>
       <path d="
M33.0156 40.375
Q26.375 40.375 22.4844 35.8281
Q18.6094 31.2969 18.6094 23.3906
Q18.6094 15.5312 22.4844 10.9531
Q26.375 6.39062 33.0156 6.39062
Q39.6562 6.39062 43.5312 10.9531
Q47.4062 15.5312 47.4062 23.3906
Q47.4062 31.2969 43.5312 35.8281
Q39.6562 40.375 33.0156 40.375
M52.5938 71.2969
L52.5938 62.3125
Q48.875 64.0625 45.0938 64.9844
Q41.3125 65.9219 37.5938 65.9219
Q27.8281 65.9219 22.6719 59.3281
Q17.5312 52.7344 16.7969 39.4062
Q19.6719 43.6562 24.0156 45.9219
Q28.375 48.1875 33.5938 48.1875
Q44.5781 48.1875 50.9531 41.5156
Q57.3281 34.8594 57.3281 23.3906
Q57.3281 12.1562 50.6875 5.35938
Q44.0469 -1.42188 33.0156 -1.42188
Q20.3594 -1.42188 13.6719 8.26562
Q6.98438 17.9688 6.98438 36.375
Q6.98438 53.6562 15.1875 63.9375
Q23.3906 74.2188 37.2031 74.2188
Q40.9219 74.2188 44.7031 73.4844
Q48.4844 72.75 52.5938 71.2969" id="BitstreamVeraSans-Roman-36"/>
      </defs>
      <g transform="translate(46.12875 114.134772727)scale(0.08 -0.08)">
       <use xlink:href="#BitstreamVeraSans-Roman-30"/>
       <use x="63.623046875" xlink:href="#BitstreamVeraSans-Roman-2e"/>
       <use x="95.41015625" xlink:href="#BitstreamVeraSans-Roman-30"/>
       <use x="159.033203125" xlink:href="#BitstreamVeraSans-Roman-31"/>
       <use x="222.65625" xlink:href="#BitstreamVeraSans-Roman-36"/>
      </g>
     </g>
    </g>
    <g id="ytick_6">
     <g id="line2d_51">
      <path clip-path="url(#p93aeaf4644)" d="
M72 94.7455
L518.4 94.7455" style="fill:none;stroke:#000000;stroke-dasharray:1.000000,3.000000;stroke-dashoffset:0.0;stroke-width:0.5;"/>
     </g>
     <g id="line2d_52">
      <g>
       <use style="stroke:#000000;stroke-width:0.5;" x="72.0" xlink:href="#m728421d6d4" y="94.7454545455"/>
      </g>
     </g>
     <g id="line2d_53">
      <g>
       <use style="stroke:#000000;stroke-width:0.5;" x="518.4" xlink:href="#mcb0005524f" y="94.7454545455"/>
      </g>
     </g>
     <g id="text_6">
      <!-- 0.018 -->
      <g transform="translate(46.1725 96.9529545455)scale(0.08 -0.08)">
       <use xlink:href="#BitstreamVeraSans-Roman-30"/>
       <use x="63.623046875" xlink:href="#BitstreamVeraSans-Roman-2e"/>
       <use x="95.41015625" xlink:href="#BitstreamVeraSans-Roman-30"/>
       <use x="159.033203125" xlink:href="#BitstreamVeraSans-Roman-31"/>
       <use x="222.65625" xlink:href="#BitstreamVeraSans-Roman-38"/>
      </g>
     </g>
    </g>
    <g id="ytick_7">
     <g id="line2d_54">
      <path clip-path="url(#p93aeaf4644)" d="
M72 77.5636
L518.4 77.5636" style="fill:none;stroke:#000000;stroke-dasharray:1.000000,3.000000;stroke-dashoffset:0.0;stroke-width:0.5;"/>
     </g>
     <g id="line2d_55">
      <g>
       <use style="stroke:#000000;stroke-width:0.5;" x="72.0" xlink:href="#m728421d6d4" y="77.5636363636"/>
      </g>
     </g>
     <g id="line2d_56">
      <g>
       <use style="stroke:#000000;stroke-width:0.5;" x="518.4" xlink:href="#mcb0005524f" y="77.5636363636"/>
      </g>
     </g>
     <g id="text_7">
      <!-- 0.02 -->
      <g transform="translate(51.51625 79.7711363636)scale(0.08 -0.08)">
       <use xlink:href="#BitstreamVeraSans-Roman-30"/>
       <use x="63.623046875" xlink:href="#BitstreamVeraSans-Roman-2e"/>
       <use x="95.41015625" xlink:href="#BitstreamVeraSans-Roman-30"/>
       <use x="159.033203125" xlink:href="#BitstreamVeraSans-Roman-32"/>
      </g>
     </g>
    </g>
    <g id="ytick_8">
     <g id="line2d_57">
      <path clip-path="url(#p93aeaf4644)" d="
M72 60.3818
L518.4 60.3818" style="fill:none;stroke:#000000;stroke-dasharray:1.000000,3.000000;stroke-dashoffset:0.0;stroke-width:0.5;"/>
     </g>
     <g id="line2d_58">
      <g>
       <use style="stroke:#000000;stroke-width:0.5;" x="72.0" xlink:href="#m728421d6d4" y="60.3818181818"/>
      </g>
     </g>
     <g id="line2d_59">
      <g>
       <use style="stroke:#000000;stroke-width:0.5;" x="518.4" xlink:href="#mcb0005524f" y="60.3818181818"/>
      </g>
     </g>
     <g id="text_8">
      <!-- 0.022 -->
      <g transform="translate(46.42625 62.5893181818)scale(0.08 -0.08)">
       <use xlink:href="#BitstreamVeraSans-Roman-30"/>
       <use x="63.623046875" xlink:href="#BitstreamVeraSans-Roman-2e"/>
       <use x="95.41015625" xlink:href="#BitstreamVeraSans-Roman-30"/>
       <use x="159.033203125" xlink:href="#BitstreamVeraSans-Roman-32"/>
       <use x="222.65625" xlink:href="#BitstreamVeraSans-Roman-32"/>
      </g>
     </g>
    </g>
    <g id="ytick_9">
     <g id="line2d_60">
      <path clip-path="url(#p93aeaf4644)" d="
M72 43.2
L518.4 43.2" style="fill:none;stroke:#000000;stroke-dasharray:1.000000,3.000000;stroke-dashoffset:0.0;stroke-width:0.5;"/>
     </g>
     <g id="line2d_61">
      <g>
       <use style="stroke:#000000;stroke-width:0.5;" x="72.0" xlink:href="#m728421d6d4" y="43.2"/>
      </g>
     </g>
     <g id="line2d_62">
      <g>
       <use style="stroke:#000000;stroke-width:0.5;" x="518.4" xlink:href="#mcb0005524f" y="43.2"/>
      </g>
     </g>
     <g id="text_9">
      <!-- 0.024 -->
      <g transform="translate(46.07375 45.4075)scale(0.08 -0.08)">
       <use xlink:href="#BitstreamVeraSans-Roman-30"/>
       <use x="63.623046875" xlink:href="#BitstreamVeraSans-Roman-2e"/>
       <use x="95.41015625" xlink:href="#BitstreamVeraSans-Roman-30"/>
       <use x="159.033203125" xlink:href="#BitstreamVeraSans-Roman-32"/>
       <use x="222.65625" xlink:href="#BitstreamVeraSans-Roman-34"/>
      </g>
     </g>
    </g>
   </g>
   <g id="text_10">
    <!-- Simulated vs Observed series -->
    <defs>
     <path id="BitstreamVeraSans-Roman-20"/>
     <path d="
M39.4062 66.2188
Q28.6562 66.2188 22.3281 58.2031
Q16.0156 50.2031 16.0156 36.375
Q16.0156 22.6094 22.3281 14.5938
Q28.6562 6.59375 39.4062 6.59375
Q50.1406 6.59375 56.4219 14.5938
Q62.7031 22.6094 62.7031 36.375
Q62.7031 50.2031 56.4219 58.2031
Q50.1406 66.2188 39.4062 66.2188
M39.4062 74.2188
Q54.7344 74.2188 63.9062 63.9375
Q73.0938 53.6562 73.0938 36.375
Q73.0938 19.1406 63.9062 8.85938
Q54.7344 -1.42188 39.4062 -1.42188
Q24.0312 -1.42188 14.8125 8.82812
Q5.60938 19.0938 5.60938 36.375
Q5.60938 53.6562 14.8125 63.9375
Q24.0312 74.2188 39.4062 74.2188" id="BitstreamVeraSans-Roman-4f"/>
     <path d="
M41.1094 46.2969
Q39.5938 47.1719 37.8125 47.5781
Q36.0312 48 33.8906 48
Q26.2656 48 22.1875 43.0469
Q18.1094 38.0938 18.1094 28.8125
L18.1094 0
L9.07812 0
L9.07812 54.6875
L18.1094 54.6875
L18.1094 46.1875
Q20.9531 51.1719 25.4844 53.5781
Q30.0312 56 36.5312 56
Q37.4531 56 38.5781 55.875
Q39.7031 55.7656 41.0625 55.5156
z
" id="BitstreamVeraSans-Roman-72"/>
     <path d="
M52 44.1875
Q55.375 50.25 60.0625 53.125
Q64.75 56 71.0938 56
Q79.6406 56 84.2812 50.0156
Q88.9219 44.0469 88.9219 33.0156
L88.9219 0
L79.8906 0
L79.8906 32.7188
Q79.8906 40.5781 77.0938 44.375
Q74.3125 48.1875 68.6094 48.1875
Q61.625 48.1875 57.5625 43.5469
Q53.5156 38.9219 53.5156 30.9062
L53.5156 0
L44.4844 0
L44.4844 32.7188
Q44.4844 40.625 41.7031 44.4062
Q38.9219 48.1875 33.1094 48.1875
Q26.2188 48.1875 22.1562 43.5312
Q18.1094 38.875 18.1094 30.9062
L18.1094 0
L9.07812 0
L9.07812 54.6875
L18.1094 54.6875
L18.1094 46.1875
Q21.1875 51.2188 25.4844 53.6094
Q29.7812 56 35.6875 56
Q41.6562 56 45.8281 52.9688
Q50 49.9531 52 44.1875" id="BitstreamVeraSans-Roman-6d"/>
     <path d="
M9.42188 75.9844
L18.4062 75.9844
L18.4062 0
L9.42188 0
z
" id="BitstreamVeraSans-Roman-6c"/>
     <path d="
M2.98438 54.6875
L12.5 54.6875
L29.5938 8.79688
L46.6875 54.6875
L56.2031 54.6875
L35.6875 0
L23.4844 0
z
" id="BitstreamVeraSans-Roman-76"/>
     <path d="
M53.5156 70.5156
L53.5156 60.8906
Q47.9062 63.5781 42.9219 64.8906
Q37.9375 66.2188 33.2969 66.2188
Q25.25 66.2188 20.875 63.0938
Q16.5 59.9688 16.5 54.2031
Q16.5 49.3594 19.4062 46.8906
Q22.3125 44.4375 30.4219 42.9219
L36.375 41.7031
Q47.4062 39.5938 52.6562 34.2969
Q57.9062 29 57.9062 20.125
Q57.9062 9.51562 50.7969 4.04688
Q43.7031 -1.42188 29.9844 -1.42188
Q24.8125 -1.42188 18.9688 -0.25
Q13.1406 0.921875 6.89062 3.21875
L6.89062 13.375
Q12.8906 10.0156 18.6562 8.29688
Q24.4219 6.59375 29.9844 6.59375
Q38.4219 6.59375 43.0156 9.90625
Q47.6094 13.2344 47.6094 19.3906
Q47.6094 24.75 44.3125 27.7812
Q41.0156 30.8125 33.5 32.3281
L27.4844 33.5
Q16.4531 35.6875 11.5156 40.375
Q6.59375 45.0625 6.59375 53.4219
Q6.59375 63.0938 13.4062 68.6562
Q20.2188 74.2188 32.1719 74.2188
Q37.3125 74.2188 42.625 73.2812
Q47.9531 72.3594 53.5156 70.5156" id="BitstreamVeraSans-Roman-53"/>
     <path d="
M9.42188 54.6875
L18.4062 54.6875
L18.4062 0
L9.42188 0
z

M9.42188 75.9844
L18.4062 75.9844
L18.4062 64.5938
L9.42188 64.5938
z
" id="BitstreamVeraSans-Roman-69"/>
     <path d="
M56.2031 29.5938
L56.2031 25.2031
L14.8906 25.2031
Q15.4844 15.9219 20.4844 11.0625
Q25.4844 6.20312 34.4219 6.20312
Q39.5938 6.20312 44.4531 7.46875
Q49.3125 8.73438 54.1094 11.2812
L54.1094 2.78125
Q49.2656 0.734375 44.1875 -0.34375
Q39.1094 -1.42188 33.8906 -1.42188
Q20.7969 -1.42188 13.1562 6.1875
Q5.51562 13.8125 5.51562 26.8125
Q5.51562 40.2344 12.7656 48.1094
Q20.0156 56 32.3281 56
Q43.3594 56 49.7812 48.8906
Q56.2031 41.7969 56.2031 29.5938
M47.2188 32.2344
Q47.125 39.5938 43.0938 43.9844
Q39.0625 48.3906 32.4219 48.3906
Q24.9062 48.3906 20.3906 44.1406
Q15.875 39.8906 15.1875 32.1719
z
" id="BitstreamVeraSans-Roman-65"/>
     <path d="
M45.4062 46.3906
L45.4062 75.9844
L54.3906 75.9844
L54.3906 0
L45.4062 0
L45.4062 8.20312
Q42.5781 3.32812 38.25 0.953125
Q33.9375 -1.42188 27.875 -1.42188
Q17.9688 -1.42188 11.7344 6.48438
Q5.51562 14.4062 5.51562 27.2969
Q5.51562 40.1875 11.7344 48.0938
Q17.9688 56 27.875 56
Q33.9375 56 38.25 53.625
Q42.5781 51.2656 45.4062 46.3906
M14.7969 27.2969
Q14.7969 17.3906 18.875 11.75
Q22.9531 6.10938 30.0781 6.10938
Q37.2031 6.10938 41.2969 11.75
Q45.4062 17.3906 45.4062 27.2969
Q45.4062 37.2031 41.2969 42.8438
Q37.2031 48.4844 30.0781 48.4844
Q22.9531 48.4844 18.875 42.8438
Q14.7969 37.2031 14.7969 27.2969" id="BitstreamVeraSans-Roman-64"/>
     <path d="
M18.3125 70.2188
L18.3125 54.6875
L36.8125 54.6875
L36.8125 47.7031
L18.3125 47.7031
L18.3125 18.0156
Q18.3125 11.3281 20.1406 9.42188
Q21.9688 7.51562 27.5938 7.51562
L36.8125 7.51562
L36.8125 0
L27.5938 0
Q17.1875 0 13.2344 3.875
Q9.28125 7.76562 9.28125 18.0156
L9.28125 47.7031
L2.6875 47.7031
L2.6875 54.6875
L9.28125 54.6875
L9.28125 70.2188
z
" id="BitstreamVeraSans-Roman-74"/>
     <path d="
M8.5 21.5781
L8.5 54.6875
L17.4844 54.6875
L17.4844 21.9219
Q17.4844 14.1562 20.5 10.2656
Q23.5312 6.39062 29.5938 6.39062
Q36.8594 6.39062 41.0781 11.0312
Q45.3125 15.6719 45.3125 23.6875
L45.3125 54.6875
L54.2969 54.6875
L54.2969 0
L45.3125 0
L45.3125 8.40625
Q42.0469 3.42188 37.7188 1
Q33.4062 -1.42188 27.6875 -1.42188
Q18.2656 -1.42188 13.375 4.4375
Q8.5 10.2969 8.5 21.5781" id="BitstreamVeraSans-Roman-75"/>
     <path d="
M34.2812 27.4844
Q23.3906 27.4844 19.1875 25
Q14.9844 22.5156 14.9844 16.5
Q14.9844 11.7188 18.1406 8.90625
Q21.2969 6.10938 26.7031 6.10938
Q34.1875 6.10938 38.7031 11.4062
Q43.2188 16.7031 43.2188 25.4844
L43.2188 27.4844
z

M52.2031 31.2031
L52.2031 0
L43.2188 0
L43.2188 8.29688
Q40.1406 3.32812 35.5469 0.953125
Q30.9531 -1.42188 24.3125 -1.42188
Q15.9219 -1.42188 10.9531 3.29688
Q6 8.01562 6 15.9219
Q6 25.1406 12.1719 29.8281
Q18.3594 34.5156 30.6094 34.5156
L43.2188 34.5156
L43.2188 35.4062
Q43.2188 41.6094 39.1406 45
Q35.0625 48.3906 27.6875 48.3906
Q23 48.3906 18.5469 47.2656
Q14.1094 46.1406 10.0156 43.8906
L10.0156 52.2031
Q14.9375 54.1094 19.5781 55.0469
Q24.2188 56 28.6094 56
Q40.4844 56 46.3438 49.8438
Q52.2031 43.7031 52.2031 31.2031" id="BitstreamVeraSans-Roman-61"/>
     <path d="
M44.2812 53.0781
L44.2812 44.5781
Q40.4844 46.5312 36.375 47.5
Q32.2812 48.4844 27.875 48.4844
Q21.1875 48.4844 17.8438 46.4375
Q14.5 44.3906 14.5 40.2812
Q14.5 37.1562 16.8906 35.375
Q19.2812 33.5938 26.5156 31.9844
L29.5938 31.2969
Q39.1562 29.25 43.1875 25.5156
Q47.2188 21.7812 47.2188 15.0938
Q47.2188 7.46875 41.1875 3.01562
Q35.1562 -1.42188 24.6094 -1.42188
Q20.2188 -1.42188 15.4531 -0.5625
Q10.6875 0.296875 5.42188 2
L5.42188 11.2812
Q10.4062 8.6875 15.2344 7.39062
Q20.0625 6.10938 24.8125 6.10938
Q31.1562 6.10938 34.5625 8.28125
Q37.9844 10.4531 37.9844 14.4062
Q37.9844 18.0625 35.5156 20.0156
Q33.0625 21.9688 24.7031 23.7812
L21.5781 24.5156
Q13.2344 26.2656 9.51562 29.9062
Q5.8125 33.5469 5.8125 39.8906
Q5.8125 47.6094 11.2812 51.7969
Q16.75 56 26.8125 56
Q31.7812 56 36.1719 55.2656
Q40.5781 54.5469 44.2812 53.0781" id="BitstreamVeraSans-Roman-73"/>
     <path d="
M48.6875 27.2969
Q48.6875 37.2031 44.6094 42.8438
Q40.5312 48.4844 33.4062 48.4844
Q26.2656 48.4844 22.1875 42.8438
Q18.1094 37.2031 18.1094 27.2969
Q18.1094 17.3906 22.1875 11.75
Q26.2656 6.10938 33.4062 6.10938
Q40.5312 6.10938 44.6094 11.75
Q48.6875 17.3906 48.6875 27.2969
M18.1094 46.3906
Q20.9531 51.2656 25.2656 53.625
Q29.5938 56 35.5938 56
Q45.5625 56 51.7812 48.0938
Q58.0156 40.1875 58.0156 27.2969
Q58.0156 14.4062 51.7812 6.48438
Q45.5625 -1.42188 35.5938 -1.42188
Q29.5938 -1.42188 25.2656 0.953125
Q20.9531 3.32812 18.1094 8.20312
L18.1094 0
L9.07812 0
L9.07812 75.9844
L18.1094 75.9844
z
" id="BitstreamVeraSans-Roman-62"/>
    </defs>
    <g transform="translate(188.326125 38.2)scale(0.144 -0.144)">
     <use xlink:href="#BitstreamVeraSans-Roman-53"/>
     <use x="63.4765625" xlink:href="#BitstreamVeraSans-Roman-69"/>
     <use x="91.259765625" xlink:href="#BitstreamVeraSans-Roman-6d"/>
     <use x="188.671875" xlink:href="#BitstreamVeraSans-Roman-75"/>
     <use x="252.05078125" xlink:href="#BitstreamVeraSans-Roman-6c"/>
     <use x="279.833984375" xlink:href="#BitstreamVeraSans-Roman-61"/>
     <use x="341.11328125" xlink:href="#BitstreamVeraSans-Roman-74"/>
     <use x="380.322265625" xlink:href="#BitstreamVeraSans-Roman-65"/>
     <use x="441.845703125" xlink:href="#BitstreamVeraSans-Roman-64"/>
     <use x="505.322265625" xlink:href="#BitstreamVeraSans-Roman-20"/>
     <use x="537.109375" xlink:href="#BitstreamVeraSans-Roman-76"/>
     <use x="596.2890625" xlink:href="#BitstreamVeraSans-Roman-73"/>
     <use x="648.388671875" xlink:href="#BitstreamVeraSans-Roman-20"/>
     <use x="680.17578125" xlink:href="#BitstreamVeraSans-Roman-4f"/>
     <use x="758.88671875" xlink:href="#BitstreamVeraSans-Roman-62"/>
     <use x="822.36328125" xlink:href="#BitstreamVeraSans-Roman-73"/>
     <use x="874.462890625" xlink:href="#BitstreamVeraSans-Roman-65"/>
     <use x="935.986328125" xlink:href="#BitstreamVeraSans-Roman-72"/>
     <use x="977.099609375" xlink:href="#BitstreamVeraSans-Roman-76"/>
     <use x="1036.27929688" xlink:href="#BitstreamVeraSans-Roman-65"/>
     <use x="1097.80273438" xlink:href="#BitstreamVeraSans-Roman-64"/>
     <use x="1161.27929688" xlink:href="#BitstreamVeraSans-Roman-20"/>
     <use x="1193.06640625" xlink:href="#BitstreamVeraSans-Roman-73"/>
     <use x="1245.16601562" xlink:href="#BitstreamVeraSans-Roman-65"/>
     <use x="1306.68945312" xlink:href="#BitstreamVeraSans-Roman-72"/>
     <use x="1347.80273438" xlink:href="#BitstreamVeraSans-Roman-69"/>
     <use x="1375.5859375" xlink:href="#BitstreamVeraSans-Roman-65"/>
     <use x="1437.109375" xlink:href="#BitstreamVeraSans-Roman-73"/>
    </g>
   </g>
   <g id="legend_1">
    <g id="patch_7">
     <path d="
M392.256 96.993
L511.2 96.993
L511.2 50.4
L392.256 50.4
z
" style="fill:#ffffff;stroke:#000000;stroke-linejoin:miter;"/>
    </g>
    <g id="line2d_63">
     <path d="
M402.336 62.0617
L422.496 62.0617" style="fill:none;stroke:#000000;stroke-linecap:square;"/>
    </g>
    <g id="line2d_64"/>
    <g id="text_11">
     <!-- $median\; S$ -->
     <defs>
      <path d="
M7.71875 1.70312
Q7.71875 2.29688 7.8125 2.59375
L15.2812 32.4219
Q16.0156 35.2031 16.0156 37.3125
Q16.0156 41.6094 13.0938 41.6094
Q9.96875 41.6094 8.45312 37.8594
Q6.9375 34.125 5.51562 28.4219
Q5.51562 28.125 5.21875 27.9531
Q4.9375 27.7812 4.6875 27.7812
L3.51562 27.7812
Q3.17188 27.7812 2.92188 28.1406
Q2.6875 28.5156 2.6875 28.8125
Q3.76562 33.1562 4.76562 36.1719
Q5.76562 39.2031 7.89062 41.6875
Q10.0156 44.1875 13.1875 44.1875
Q16.9375 44.1875 19.8125 41.8125
Q22.7031 39.4531 22.7031 35.7969
Q25.6875 39.7031 29.6875 41.9375
Q33.6875 44.1875 38.1875 44.1875
Q41.75 44.1875 44.3281 42.9688
Q46.9219 41.75 48.3594 39.2812
Q49.8125 36.8125 49.8125 33.4062
Q49.8125 29.2969 47.9688 23.4844
Q46.1406 17.6719 43.4062 10.5
Q42 7.23438 42 4.5
Q42 1.51562 44.2812 1.51562
Q48.1875 1.51562 50.7969 5.70312
Q53.4219 9.90625 54.5 14.7031
Q54.6875 15.2812 55.3281 15.2812
L56.5 15.2812
Q56.8906 15.2812 57.1562 15.0312
Q57.4219 14.7969 57.4219 14.4062
Q57.4219 14.3125 57.3281 14.1094
Q55.9531 8.45312 52.5625 3.65625
Q49.1719 -1.125 44.0938 -1.125
Q40.5781 -1.125 38.0781 1.29688
Q35.5938 3.71875 35.5938 7.17188
Q35.5938 9.03125 36.375 11.0781
Q37.6406 14.3594 39.2812 18.8906
Q40.9219 23.4375 41.9688 27.5781
Q43.0156 31.7344 43.0156 34.9062
Q43.0156 37.7031 41.8594 39.6562
Q40.7188 41.6094 37.9844 41.6094
Q34.3281 41.6094 31.25 39.9844
Q28.1719 38.375 25.875 35.7188
Q23.5781 33.0625 21.6875 29.3906
L14.8906 2.20312
Q14.5469 0.828125 13.3438 -0.140625
Q12.1562 -1.125 10.6875 -1.125
Q9.46875 -1.125 8.59375 -0.34375
Q7.71875 0.4375 7.71875 1.70312" id="Cmmi10-6e"/>
      <path d="
M7.71875 1.70312
Q7.71875 2.29688 7.8125 2.59375
L15.2812 32.4219
Q16.0156 35.2031 16.0156 37.3125
Q16.0156 41.6094 13.0938 41.6094
Q9.96875 41.6094 8.45312 37.8594
Q6.9375 34.125 5.51562 28.4219
Q5.51562 28.125 5.21875 27.9531
Q4.9375 27.7812 4.6875 27.7812
L3.51562 27.7812
Q3.17188 27.7812 2.92188 28.1406
Q2.6875 28.5156 2.6875 28.8125
Q3.76562 33.1562 4.76562 36.1719
Q5.76562 39.2031 7.89062 41.6875
Q10.0156 44.1875 13.1875 44.1875
Q16.9375 44.1875 19.8125 41.8125
Q22.7031 39.4531 22.7031 35.7969
Q25.6875 39.7031 29.6875 41.9375
Q33.6875 44.1875 38.1875 44.1875
Q42.9219 44.1875 46.3594 41.7656
Q49.8125 39.3594 49.8125 34.9062
Q52.875 39.2656 57 41.7188
Q61.1406 44.1875 66.0156 44.1875
Q71.1875 44.1875 74.3281 41.375
Q77.4844 38.5781 77.4844 33.4062
Q77.4844 29.2969 75.6562 23.4844
Q73.8281 17.6719 71.0938 10.5
Q69.6719 7.03125 69.6719 4.5
Q69.6719 1.51562 72.0156 1.51562
Q75.9219 1.51562 78.5156 5.70312
Q81.1094 9.90625 82.1719 14.7031
Q82.4688 15.2812 83.0156 15.2812
L84.1875 15.2812
Q84.5781 15.2812 84.8438 15.0156
Q85.1094 14.75 85.1094 14.4062
Q85.1094 14.3125 85.0156 14.1094
Q83.6406 8.45312 80.25 3.65625
Q76.8594 -1.125 71.7812 -1.125
Q68.2656 -1.125 65.7656 1.29688
Q63.2812 3.71875 63.2812 7.17188
Q63.2812 8.9375 64.1094 11.0781
Q66.9375 18.6094 68.8125 24.5156
Q70.7031 30.4219 70.7031 34.9062
Q70.7031 37.7031 69.5781 39.6562
Q68.4531 41.6094 65.8281 41.6094
Q60.3594 41.6094 56.3438 38.25
Q52.3438 34.9062 49.4219 29.3906
Q49.2188 28.4219 49.125 27.875
L42.6719 2.20312
Q42.3281 0.828125 41.125 -0.140625
Q39.9375 -1.125 38.4844 -1.125
Q37.3125 -1.125 36.4062 -0.34375
Q35.5 0.4375 35.5 1.70312
Q35.5 2.29688 35.5938 2.59375
L42 28.0781
Q43.0156 32.1719 43.0156 34.9062
Q43.0156 37.7031 41.8594 39.6562
Q40.7188 41.6094 37.9844 41.6094
Q34.3281 41.6094 31.25 39.9844
Q28.1719 38.375 25.875 35.7188
Q23.5781 33.0625 21.6875 29.3906
L14.8906 2.20312
Q14.5469 0.828125 13.3438 -0.140625
Q12.1562 -1.125 10.6875 -1.125
Q9.46875 -1.125 8.59375 -0.34375
Q7.71875 0.4375 7.71875 1.70312" id="Cmmi10-6d"/>
      <path d="
M6.10938 -2.20312
Q5.8125 -2.20312 5.5625 -1.85938
Q5.32812 -1.51562 5.32812 -1.21875
L11.0781 22.125
Q11.2812 22.7031 11.9219 22.7031
L13.0938 22.7031
Q13.4844 22.7031 13.7031 22.4062
Q13.9219 22.125 13.9219 21.6875
Q13.0938 18.2656 13.0938 15.5781
Q13.0938 8.34375 18.0625 4.82812
Q23.0469 1.3125 30.6094 1.3125
Q33.8906 1.3125 37.0625 2.92188
Q40.2344 4.54688 42.5938 7.125
Q44.9688 9.71875 46.375 12.9062
Q47.7969 16.1094 47.7969 19.3906
Q47.7969 22.9062 45.9375 25.6562
Q44.0938 28.4219 40.8281 29.2031
L28.6094 32.4219
Q23.6875 33.7344 20.75 37.7188
Q17.8281 41.7031 17.8281 46.6875
Q17.8281 52.6875 21.3906 58.25
Q24.9531 63.8125 30.6875 67.1562
Q36.4219 70.5156 42.3906 70.5156
Q46.9688 70.5156 50.7969 68.8281
Q54.6406 67.1406 56.6875 63.4844
L62.4062 70.2188
Q62.9844 70.5156 63.0938 70.5156
L63.7188 70.5156
Q64.1094 70.5156 64.3438 70.1719
Q64.5938 69.8281 64.5938 69.4844
L58.7969 46.2969
Q58.6406 45.6094 58.0156 45.6094
L56.7812 45.6094
Q55.9062 45.6094 55.9062 46.6875
Q56.3906 49.8594 56.3906 52.2031
Q56.3906 56.8438 54.7969 60.2812
Q53.2188 63.7188 50.0156 65.5
Q46.8281 67.2812 42.0938 67.2812
Q38.0938 67.2812 34.125 64.9844
Q30.1719 62.7031 27.7344 58.8906
Q25.2969 55.0781 25.2969 50.9844
Q25.2969 47.75 27.1719 45.2656
Q29.0469 42.7812 32.1719 41.8906
L44.3906 38.7188
Q47.7031 37.8438 50.1719 35.625
Q52.6406 33.4062 53.9062 30.3438
Q55.1719 27.2969 55.1719 23.6875
Q55.1719 18.9531 53.1719 14.3281
Q51.1719 9.71875 47.5781 5.90625
Q44 2.09375 39.4531 -0.046875
Q34.9062 -2.20312 30.1719 -2.20312
Q18.2656 -2.20312 13.0938 4.78125
L7.51562 -1.90625
Q6.9375 -2.20312 6.78125 -2.20312
z
" id="Cmmi10-53"/>
      <path d="
M17.3906 -1.125
Q11.0781 -1.125 7.4375 3.64062
Q3.8125 8.40625 3.8125 14.8906
Q3.8125 21.2969 7.125 28.1719
Q10.4531 35.0625 16.0938 39.625
Q21.7344 44.1875 28.2188 44.1875
Q31.2031 44.1875 33.5469 42.5781
Q35.8906 40.9688 37.2031 38.1875
Q38.3281 42.1875 41.6094 42.1875
Q42.875 42.1875 43.7188 41.4219
Q44.5781 40.6719 44.5781 39.4062
Q44.5781 39.1094 44.5469 38.9531
Q44.5312 38.8125 44.4844 38.625
L37.5 10.6875
Q36.8125 7.71875 36.8125 5.8125
Q36.8125 1.51562 39.7031 1.51562
Q42.8281 1.51562 44.4531 5.48438
Q46.0938 9.46875 47.2188 14.7031
Q47.4062 15.2812 48 15.2812
L49.2188 15.2812
Q49.6094 15.2812 49.8438 14.9375
Q50.0938 14.5938 50.0938 14.3125
Q48.3438 7.32812 46.2656 3.09375
Q44.1875 -1.125 39.5 -1.125
Q36.1406 -1.125 33.5469 0.84375
Q30.9531 2.82812 30.3281 6.10938
Q23.875 -1.125 17.3906 -1.125
M17.4844 1.51562
Q21.0938 1.51562 24.4844 4.21875
Q27.875 6.9375 30.3281 10.5938
Q30.4219 10.6875 30.4219 10.8906
L35.7969 32.625
L35.8906 32.9062
Q35.2969 36.4688 33.3125 39.0312
Q31.3438 41.6094 27.9844 41.6094
Q24.6094 41.6094 21.7031 38.8438
Q18.7969 36.0781 16.7969 32.3281
Q14.8438 28.3281 13.0625 21.3438
Q11.2812 14.3594 11.2812 10.5
Q11.2812 7.03125 12.7656 4.26562
Q14.2656 1.51562 17.4844 1.51562" id="Cmmi10-61"/>
      <path d="
M20.125 -1.125
Q15.3281 -1.125 11.7344 1.35938
Q8.15625 3.85938 6.26562 8.07812
Q4.39062 12.3125 4.39062 17
Q4.39062 24.125 7.98438 30.3906
Q11.5781 36.6719 17.7188 40.4219
Q23.875 44.1875 30.9062 44.1875
Q35.2031 44.1875 38.4062 41.9688
Q41.6094 39.75 41.6094 35.5938
Q41.6094 29.8281 37.0156 27.0156
Q32.4219 24.2188 26.6562 23.5625
Q20.9062 22.9062 13.9219 22.9062
L13.625 22.9062
Q12.0156 16.9375 12.0156 12.7031
Q12.0156 8.25 14.0625 4.875
Q16.1094 1.51562 20.3125 1.51562
Q26.2656 1.51562 31.75 4.25
Q37.25 6.98438 40.7188 11.8125
Q41.0156 12.1094 41.5 12.1094
Q42 12.1094 42.5 11.5469
Q43.0156 10.9844 43.0156 10.5
Q43.0156 10.1094 42.8281 9.90625
Q39.1562 4.78125 32.9531 1.82812
Q26.7656 -1.125 20.125 -1.125
M14.2031 25.4844
Q20.0156 25.4844 24.9531 26.0156
Q29.8906 26.5625 33.8906 28.7344
Q37.8906 30.9062 37.8906 35.5
Q37.8906 37.3594 36.8594 38.75
Q35.8438 40.1406 34.2031 40.875
Q32.5625 41.6094 30.8125 41.6094
Q26.5625 41.6094 23.1719 39.3125
Q19.7812 37.0156 17.5781 33.3281
Q15.375 29.6406 14.2031 25.4844" id="Cmmi10-65"/>
      <path d="
M17.3906 -1.125
Q11.0781 -1.125 7.4375 3.64062
Q3.8125 8.40625 3.8125 14.8906
Q3.8125 21.2969 7.125 28.1719
Q10.4531 35.0625 16.0938 39.625
Q21.7344 44.1875 28.2188 44.1875
Q31.1562 44.1875 33.5156 42.5469
Q35.8906 40.9219 37.2031 38.1875
L42.8281 60.5
Q43.2188 62.2031 43.3125 63.1875
Q43.3125 64.7969 36.8125 64.7969
Q35.7969 64.7969 35.7969 66.1094
Q35.8438 66.3594 36.0156 66.9844
Q36.1875 67.625 36.4531 67.9688
Q36.7188 68.3125 37.2031 68.3125
L50.6875 69.3906
Q51.9062 69.3906 51.9062 68.1094
L37.5 10.5938
Q36.8125 8.9375 36.8125 5.8125
Q36.8125 1.51562 39.7031 1.51562
Q42.8281 1.51562 44.4531 5.48438
Q46.0938 9.46875 47.2188 14.7031
Q47.4062 15.2812 48 15.2812
L49.2188 15.2812
Q49.6094 15.2812 49.8438 14.9375
Q50.0938 14.5938 50.0938 14.3125
Q48.3438 7.32812 46.2656 3.09375
Q44.1875 -1.125 39.5 -1.125
Q36.1406 -1.125 33.5469 0.84375
Q30.9531 2.82812 30.3281 6.10938
Q23.875 -1.125 17.3906 -1.125
M17.4844 1.51562
Q21.0938 1.51562 24.4844 4.21875
Q27.875 6.9375 30.3281 10.5938
Q30.4219 10.6875 30.4219 10.9844
L35.8906 33.0156
Q35.2969 36.5312 33.2969 39.0625
Q31.2969 41.6094 27.9844 41.6094
Q24.6094 41.6094 21.7031 38.8438
Q18.7969 36.0781 16.7969 32.3281
Q14.8438 28.3281 13.0625 21.3438
Q11.2812 14.3594 11.2812 10.5
Q11.2812 7.03125 12.7656 4.26562
Q14.2656 1.51562 17.4844 1.51562" id="Cmmi10-64"/>
      <path d="
M7.8125 7.17188
Q7.8125 9.03125 8.59375 11.0781
L16.7031 32.625
Q18.0156 36.2812 18.0156 38.625
Q18.0156 41.6094 15.8281 41.6094
Q11.8594 41.6094 9.29688 37.5312
Q6.73438 33.4531 5.51562 28.4219
Q5.32812 27.7812 4.6875 27.7812
L3.51562 27.7812
Q2.6875 27.7812 2.6875 28.7188
L2.6875 29
Q4.29688 34.9688 7.60938 39.5781
Q10.9375 44.1875 16.0156 44.1875
Q19.5781 44.1875 22.0469 41.8438
Q24.5156 39.5 24.5156 35.8906
Q24.5156 34.0312 23.6875 31.9844
L15.5781 10.5
Q14.2031 7.17188 14.2031 4.5
Q14.2031 1.51562 16.5 1.51562
Q20.4062 1.51562 23.0156 5.6875
Q25.6406 9.85938 26.7031 14.7031
Q26.9062 15.2812 27.4844 15.2812
L28.7188 15.2812
Q29.1094 15.2812 29.3438 15.0156
Q29.5938 14.75 29.5938 14.4062
Q29.5938 14.3125 29.5 14.1094
Q28.125 8.45312 24.7344 3.65625
Q21.3438 -1.125 16.3125 -1.125
Q12.7969 -1.125 10.2969 1.29688
Q7.8125 3.71875 7.8125 7.17188
M19.0938 60.5938
Q19.0938 62.7031 20.8438 64.4062
Q22.6094 66.1094 24.7031 66.1094
Q26.4219 66.1094 27.5156 65.0625
Q28.6094 64.0156 28.6094 62.4062
Q28.6094 60.1562 26.8281 58.4688
Q25.0469 56.7812 22.9062 56.7812
Q21.2969 56.7812 20.1875 57.875
Q19.0938 58.9844 19.0938 60.5938" id="Cmmi10-69"/>
     </defs>
     <g transform="translate(438.336 67.10175)scale(0.144 -0.144)">
      <use transform="translate(0.0 0.484375)" xlink:href="#Cmmi10-6d"/>
      <use transform="translate(87.79296875 0.484375)" xlink:href="#Cmmi10-65"/>
      <use transform="translate(134.27734375 0.484375)" xlink:href="#Cmmi10-64"/>
      <use transform="translate(186.279296875 0.484375)" xlink:href="#Cmmi10-69"/>
      <use transform="translate(220.703125 0.484375)" xlink:href="#Cmmi10-61"/>
      <use transform="translate(273.486328125 0.484375)" xlink:href="#Cmmi10-6e"/>
      <use transform="translate(403.73046875 0.484375)" xlink:href="#Cmmi10-53"/>
     </g>
    </g>
    <g id="line2d_65">
     <path d="
M402.336 83.1982
L422.496 83.1982" style="fill:none;stroke:#000000;stroke-dasharray:6.000000,6.000000;stroke-dashoffset:0.0;"/>
    </g>
    <g id="line2d_66"/>
    <g id="text_12">
     <!-- $mean\; S$ -->
     <g transform="translate(438.336 88.23825)scale(0.144 -0.144)">
      <use transform="translate(0.0 0.484375)" xlink:href="#Cmmi10-6d"/>
      <use transform="translate(87.79296875 0.484375)" xlink:href="#Cmmi10-65"/>
      <use transform="translate(134.27734375 0.484375)" xlink:href="#Cmmi10-61"/>
      <use transform="translate(187.060546875 0.484375)" xlink:href="#Cmmi10-6e"/>
      <use transform="translate(317.3046875 0.484375)" xlink:href="#Cmmi10-53"/>
     </g>
    </g>
   </g>
  </g>
  <g id="axes_2">
   <g id="patch_8">
    <path d="
M72 345.6
L518.4 345.6
L518.4 208.145
L72 208.145
z
" style="fill:#ffffff;"/>
   </g>
   <g id="PolyCollection_2">
    <defs>
     <path d="
M72 -87.6531
L72 -87.6531
L81.1102 -87.4342
L90.2204 -87.1852
L99.3306 -87.1605
L108.441 -87.2744
L117.551 -87.4078
L126.661 -87.4285
L135.771 -87.4849
L144.882 -87.6079
L153.992 -87.7104
L163.102 -87.8641
L172.212 -88.0881
L181.322 -88.2839
L190.433 -88.5007
L199.543 -89.5559
L208.653 -92.4343
L217.763 -96.3978
L226.873 -98.4888
L235.984 -99.0755
L245.094 -100.241
L254.204 -104.066
L263.314 -115.096
L272.424 -138.706
L281.535 -171.011
L290.645 -196.54
L299.755 -206.432
L308.865 -201.749
L317.976 -193.094
L327.086 -187.692
L336.196 -185.551
L345.306 -181.771
L354.416 -173.398
L363.527 -162.339
L372.637 -149.008
L381.747 -135.283
L390.857 -122.908
L399.967 -113.528
L409.078 -106.552
L418.188 -101.139
L427.298 -97.0034
L436.408 -93.8199
L445.518 -91.6067
L454.629 -90.0816
L463.739 -89.0722
L472.849 -88.44
L481.959 -88.0077
L491.069 -87.5856
L500.18 -87.2333
L509.29 -86.985
L518.4 -86.8578
L518.4 -88.0845
L518.4 -88.0845
L509.29 -88.3816
L500.18 -89.1087
L491.069 -90.0945
L481.959 -91.1671
L472.849 -92.1349
L463.739 -93.5094
L454.629 -95.7334
L445.518 -98.9677
L436.408 -103.484
L427.298 -109.695
L418.188 -117.225
L409.078 -126.413
L399.967 -137.55
L390.857 -151.693
L381.747 -169.373
L372.637 -186.951
L363.527 -201.561
L354.416 -210.928
L345.306 -216.358
L336.196 -215.102
L327.086 -212.028
L317.976 -214.127
L308.865 -221.456
L299.755 -223.206
L290.645 -211.01
L281.535 -181.277
L272.424 -144.824
L263.314 -118.314
L254.204 -106.017
L245.094 -101.751
L235.984 -100.433
L226.873 -99.7772
L217.763 -97.4506
L208.653 -93.0784
L199.543 -89.8691
L190.433 -88.7043
L181.322 -88.4554
L172.212 -88.2244
L163.102 -87.9816
L153.992 -87.8034
L144.882 -87.6901
L135.771 -87.5513
L126.661 -87.4778
L117.551 -87.449
L108.441 -87.3024
L99.3306 -87.1767
L90.2204 -87.194
L81.1102 -87.4395
L72 -87.6531
z
" id="maae3364fb5" style="stroke:#000000;stroke-opacity:0.2;"/>
    </defs>
    <g clip-path="url(#pf128fae7d4)">
     <use style="fill:#008000;fill-opacity:0.2;stroke:#000000;stroke-opacity:0.2;" x="0.0" xlink:href="#maae3364fb5" y="432.0"/>
    </g>
   </g>
   <g id="line2d_67">
    <defs>
     <path d="
M0 3
C0.795609 3 1.55874 2.6839 2.12132 2.12132
C2.6839 1.55874 3 0.795609 3 0
C3 -0.795609 2.6839 -1.55874 2.12132 -2.12132
C1.55874 -2.6839 0.795609 -3 0 -3
C-0.795609 -3 -1.55874 -2.6839 -2.12132 -2.12132
C-2.6839 -1.55874 -3 -0.795609 -3 0
C-3 0.795609 -2.6839 1.55874 -2.12132 2.12132
C-1.55874 2.6839 -0.795609 3 0 3
z
" id="mf1e9a9e4ae" style="stroke:#000000;stroke-width:0.5;"/>
    </defs>
    <g clip-path="url(#pf128fae7d4)">
     <use style="fill:#0000ff;stroke:#000000;stroke-width:0.5;" x="71.9999999999" xlink:href="#mf1e9a9e4ae" y="344.346941979"/>
     <use style="fill:#0000ff;stroke:#000000;stroke-width:0.5;" x="81.1102040815" xlink:href="#mf1e9a9e4ae" y="344.848165187"/>
     <use style="fill:#0000ff;stroke:#000000;stroke-width:0.5;" x="90.2204081631" xlink:href="#mf1e9a9e4ae" y="344.722859385"/>
     <use style="fill:#0000ff;stroke:#000000;stroke-width:0.5;" x="99.3306122448" xlink:href="#mf1e9a9e4ae" y="343.971024573"/>
     <use style="fill:#0000ff;stroke:#000000;stroke-width:0.5;" x="108.440816326" xlink:href="#mf1e9a9e4ae" y="344.346941979"/>
     <use style="fill:#0000ff;stroke:#000000;stroke-width:0.5;" x="117.551020408" xlink:href="#mf1e9a9e4ae" y="344.221636177"/>
     <use style="fill:#0000ff;stroke:#000000;stroke-width:0.5;" x="126.66122449" xlink:href="#mf1e9a9e4ae" y="344.346941979"/>
     <use style="fill:#0000ff;stroke:#000000;stroke-width:0.5;" x="135.771428571" xlink:href="#mf1e9a9e4ae" y="343.595107166"/>
     <use style="fill:#0000ff;stroke:#000000;stroke-width:0.5;" x="144.881632653" xlink:href="#mf1e9a9e4ae" y="344.096330375"/>
     <use style="fill:#0000ff;stroke:#000000;stroke-width:0.5;" x="153.991836735" xlink:href="#mf1e9a9e4ae" y="343.720412969"/>
     <use style="fill:#0000ff;stroke:#000000;stroke-width:0.5;" x="163.102040816" xlink:href="#mf1e9a9e4ae" y="343.093883958"/>
     <use style="fill:#0000ff;stroke:#000000;stroke-width:0.5;" x="172.212244898" xlink:href="#mf1e9a9e4ae" y="342.968578156"/>
     <use style="fill:#0000ff;stroke:#000000;stroke-width:0.5;" x="181.322448979" xlink:href="#mf1e9a9e4ae" y="343.469801364"/>
     <use style="fill:#0000ff;stroke:#000000;stroke-width:0.5;" x="190.432653061" xlink:href="#mf1e9a9e4ae" y="341.840825937"/>
     <use style="fill:#0000ff;stroke:#000000;stroke-width:0.5;" x="199.542857143" xlink:href="#mf1e9a9e4ae" y="337.580428666"/>
     <use style="fill:#0000ff;stroke:#000000;stroke-width:0.5;" x="208.653061224" xlink:href="#mf1e9a9e4ae" y="334.071866207"/>
     <use style="fill:#0000ff;stroke:#000000;stroke-width:0.5;" x="217.763265306" xlink:href="#mf1e9a9e4ae" y="333.946560405"/>
     <use style="fill:#0000ff;stroke:#000000;stroke-width:0.5;" x="226.873469388" xlink:href="#mf1e9a9e4ae" y="336.076759041"/>
     <use style="fill:#0000ff;stroke:#000000;stroke-width:0.5;" x="235.983673469" xlink:href="#mf1e9a9e4ae" y="332.192279176"/>
     <use style="fill:#0000ff;stroke:#000000;stroke-width:0.5;" x="245.093877551" xlink:href="#mf1e9a9e4ae" y="329.310245727"/>
     <use style="fill:#0000ff;stroke:#000000;stroke-width:0.5;" x="254.204081633" xlink:href="#mf1e9a9e4ae" y="321.458927966"/>
     <use style="fill:#0000ff;stroke:#000000;stroke-width:0.5;" x="263.314285714" xlink:href="#mf1e9a9e4ae" y="298.562241088"/>
     <use style="fill:#0000ff;stroke:#000000;stroke-width:0.5;" x="272.424489796" xlink:href="#mf1e9a9e4ae" y="274.421169054"/>
     <use style="fill:#0000ff;stroke:#000000;stroke-width:0.5;" x="281.534693877" xlink:href="#mf1e9a9e4ae" y="263.221702646"/>
     <use style="fill:#0000ff;stroke:#000000;stroke-width:0.5;" x="290.644897959" xlink:href="#mf1e9a9e4ae" y="255.382076161"/>
     <use style="fill:#0000ff;stroke:#000000;stroke-width:0.5;" x="299.755102041" xlink:href="#mf1e9a9e4ae" y="254.26212952"/>
     <use style="fill:#0000ff;stroke:#000000;stroke-width:0.5;" x="308.865306122" xlink:href="#mf1e9a9e4ae" y="267.203735146"/>
     <use style="fill:#0000ff;stroke:#000000;stroke-width:0.5;" x="317.975510204" xlink:href="#mf1e9a9e4ae" y="251.648920691"/>
     <use style="fill:#0000ff;stroke:#000000;stroke-width:0.5;" x="327.085714286" xlink:href="#mf1e9a9e4ae" y="236.965175846"/>
     <use style="fill:#0000ff;stroke:#000000;stroke-width:0.5;" x="336.195918367" xlink:href="#mf1e9a9e4ae" y="237.089614361"/>
     <use style="fill:#0000ff;stroke:#000000;stroke-width:0.5;" x="345.306122449" xlink:href="#mf1e9a9e4ae" y="235.596352174"/>
     <use style="fill:#0000ff;stroke:#000000;stroke-width:0.5;" x="354.416326531" xlink:href="#mf1e9a9e4ae" y="233.480897408"/>
     <use style="fill:#0000ff;stroke:#000000;stroke-width:0.5;" x="363.526530612" xlink:href="#mf1e9a9e4ae" y="240.698331315"/>
     <use style="fill:#0000ff;stroke:#000000;stroke-width:0.5;" x="372.636734694" xlink:href="#mf1e9a9e4ae" y="269.070312881"/>
     <use style="fill:#0000ff;stroke:#000000;stroke-width:0.5;" x="381.746938775" xlink:href="#mf1e9a9e4ae" y="270.190259522"/>
     <use style="fill:#0000ff;stroke:#000000;stroke-width:0.5;" x="390.857142857" xlink:href="#mf1e9a9e4ae" y="292.091438275"/>
     <use style="fill:#0000ff;stroke:#000000;stroke-width:0.5;" x="399.967346939" xlink:href="#mf1e9a9e4ae" y="295.451278197"/>
     <use style="fill:#0000ff;stroke:#000000;stroke-width:0.5;" x="409.07755102" xlink:href="#mf1e9a9e4ae" y="306.277429058"/>
     <use style="fill:#0000ff;stroke:#000000;stroke-width:0.5;" x="418.187755102" xlink:href="#mf1e9a9e4ae" y="314.614809606"/>
     <use style="fill:#0000ff;stroke:#000000;stroke-width:0.5;" x="427.297959184" xlink:href="#mf1e9a9e4ae" y="324.943206404"/>
     <use style="fill:#0000ff;stroke:#000000;stroke-width:0.5;" x="436.408163265" xlink:href="#mf1e9a9e4ae" y="326.063153044"/>
     <use style="fill:#0000ff;stroke:#000000;stroke-width:0.5;" x="445.518367347" xlink:href="#mf1e9a9e4ae" y="331.787324764"/>
     <use style="fill:#0000ff;stroke:#000000;stroke-width:0.5;" x="454.628571428" xlink:href="#mf1e9a9e4ae" y="335.396041717"/>
     <use style="fill:#0000ff;stroke:#000000;stroke-width:0.5;" x="463.73877551" xlink:href="#mf1e9a9e4ae" y="334.276095077"/>
     <use style="fill:#0000ff;stroke:#000000;stroke-width:0.5;" x="472.848979592" xlink:href="#mf1e9a9e4ae" y="333.778341014"/>
     <use style="fill:#0000ff;stroke:#000000;stroke-width:0.5;" x="481.959183673" xlink:href="#mf1e9a9e4ae" y="339.751389765"/>
     <use style="fill:#0000ff;stroke:#000000;stroke-width:0.5;" x="491.069387755" xlink:href="#mf1e9a9e4ae" y="340.373582343"/>
     <use style="fill:#0000ff;stroke:#000000;stroke-width:0.5;" x="500.179591837" xlink:href="#mf1e9a9e4ae" y="339.626951249"/>
     <use style="fill:#0000ff;stroke:#000000;stroke-width:0.5;" x="509.289795918" xlink:href="#mf1e9a9e4ae" y="343.360106718"/>
     <use style="fill:#0000ff;stroke:#000000;stroke-width:0.5;" x="518.4" xlink:href="#mf1e9a9e4ae" y="339.129197187"/>
    </g>
   </g>
   <g id="line2d_68">
    <path clip-path="url(#pf128fae7d4)" d="
M72 344.347
L81.1102 344.566
L90.2204 344.814
L99.3306 344.839
L108.441 344.725
L117.551 344.591
L126.661 344.57
L135.771 344.51
L144.882 344.382
L153.992 344.283
L163.102 344.124
L172.212 343.906
L181.322 343.701
L190.433 343.476
L199.543 342.416
L208.653 339.477
L217.763 335.476
L226.873 333.355
L235.984 332.745
L245.094 331.525
L254.204 327.577
L263.314 316.217
L272.424 291.459
L281.535 256.924
L290.645 228.917
L299.755 216.725
L308.865 218.921
L317.976 226.242
L327.086 230.808
L336.196 230.945
L345.306 233.641
L354.416 241.332
L363.527 251.808
L372.637 266.343
L381.747 282.107
L390.857 297.132
L399.967 308.715
L409.078 317.556
L418.188 324.544
L427.298 330.09
L436.408 334.489
L445.518 337.63
L454.629 339.83
L463.739 341.31
L472.849 342.231
L481.959 342.88
L491.069 343.548
L500.18 344.133
L509.29 344.549
L518.4 344.748" style="fill:none;stroke:#000000;stroke-linecap:square;"/>
   </g>
   <g id="line2d_69">
    <path clip-path="url(#pf128fae7d4)" d="
M72 344.347
L81.1102 344.564
L90.2204 344.812
L99.3306 344.835
L108.441 344.718
L117.551 344.58
L126.661 344.557
L135.771 344.494
L144.882 344.364
L153.992 344.261
L163.102 344.097
L172.212 343.872
L181.322 343.661
L190.433 343.429
L199.543 342.342
L208.653 339.349
L217.763 335.265
L226.873 333.101
L235.984 332.49
L245.094 331.261
L254.204 327.26
L263.314 315.723
L272.424 290.859
L281.535 256.518
L290.645 228.784
L299.755 216.511
L308.865 219.297
L317.976 227.143
L327.086 231.355
L336.196 231.718
L345.306 233.907
L354.416 241.686
L363.527 252.332
L372.637 266.465
L381.747 282.084
L390.857 296.899
L399.967 308.418
L409.078 317.254
L418.188 324.316
L427.298 329.906
L436.408 334.349
L445.518 337.513
L454.629 339.737
L463.739 341.241
L472.849 342.174
L481.959 342.826
L491.069 343.502
L500.18 344.095
L509.29 344.52
L518.4 344.719" style="fill:none;stroke:#000000;stroke-dasharray:6.000000,6.000000;stroke-dashoffset:0.0;"/>
   </g>
   <g id="patch_9">
    <path d="
M72 208.145
L518.4 208.145" style="fill:none;stroke:#000000;stroke-linecap:square;stroke-linejoin:miter;"/>
   </g>
   <g id="patch_10">
    <path d="
M518.4 345.6
L518.4 208.145" style="fill:none;stroke:#000000;stroke-linecap:square;stroke-linejoin:miter;"/>
   </g>
   <g id="patch_11">
    <path d="
M72 345.6
L518.4 345.6" style="fill:none;stroke:#000000;stroke-linecap:square;stroke-linejoin:miter;"/>
   </g>
   <g id="patch_12">
    <path d="
M72 345.6
L72 208.145" style="fill:none;stroke:#000000;stroke-linecap:square;stroke-linejoin:miter;"/>
   </g>
   <g id="matplotlib.axis_3">
    <g id="xtick_12">
     <g id="line2d_70">
      <path clip-path="url(#pf128fae7d4)" d="
M94.1248 345.6
L94.1248 208.145" style="fill:none;stroke:#000000;stroke-dasharray:1.000000,3.000000;stroke-dashoffset:0.0;stroke-width:0.5;"/>
     </g>
     <g id="line2d_71">
      <g>
       <use style="stroke:#000000;stroke-width:0.5;" x="94.1247813411" xlink:href="#m93b0483c22" y="345.6"/>
      </g>
     </g>
     <g id="line2d_72">
      <g>
       <use style="stroke:#000000;stroke-width:0.5;" x="94.1247813411" xlink:href="#m741efc42ff" y="208.145454545"/>
      </g>
     </g>
     <g id="text_13">
      <!-- Set 2005 -->
      <defs>
       <path d="
M10.7969 72.9062
L49.5156 72.9062
L49.5156 64.5938
L19.8281 64.5938
L19.8281 46.7344
Q21.9688 47.4688 24.1094 47.8281
Q26.2656 48.1875 28.4219 48.1875
Q40.625 48.1875 47.75 41.5
Q54.8906 34.8125 54.8906 23.3906
Q54.8906 11.625 47.5625 5.09375
Q40.2344 -1.42188 26.9062 -1.42188
Q22.3125 -1.42188 17.5469 -0.640625
Q12.7969 0.140625 7.71875 1.70312
L7.71875 11.625
Q12.1094 9.23438 16.7969 8.0625
Q21.4844 6.89062 26.7031 6.89062
Q35.1562 6.89062 40.0781 11.3281
Q45.0156 15.7656 45.0156 23.3906
Q45.0156 31 40.0781 35.4375
Q35.1562 39.8906 26.7031 39.8906
Q22.75 39.8906 18.8125 39.0156
Q14.8906 38.1406 10.7969 36.2812
z
" id="BitstreamVeraSans-Roman-35"/>
      </defs>
      <g transform="translate(62.6864860396 372.534976923)rotate(-30.0)scale(0.08 -0.08)">
       <use xlink:href="#BitstreamVeraSans-Roman-53"/>
       <use x="63.4765625" xlink:href="#BitstreamVeraSans-Roman-65"/>
       <use x="125.0" xlink:href="#BitstreamVeraSans-Roman-74"/>
       <use x="164.208984375" xlink:href="#BitstreamVeraSans-Roman-20"/>
       <use x="195.99609375" xlink:href="#BitstreamVeraSans-Roman-32"/>
       <use x="259.619140625" xlink:href="#BitstreamVeraSans-Roman-30"/>
       <use x="323.2421875" xlink:href="#BitstreamVeraSans-Roman-30"/>
       <use x="386.865234375" xlink:href="#BitstreamVeraSans-Roman-35"/>
      </g>
     </g>
    </g>
    <g id="xtick_13">
     <g id="line2d_73">
      <path clip-path="url(#pf128fae7d4)" d="
M133.169 345.6
L133.169 208.145" style="fill:none;stroke:#000000;stroke-dasharray:1.000000,3.000000;stroke-dashoffset:0.0;stroke-width:0.5;"/>
     </g>
     <g id="line2d_74">
      <g>
       <use style="stroke:#000000;stroke-width:0.5;" x="133.168513119" xlink:href="#m93b0483c22" y="345.6"/>
      </g>
     </g>
     <g id="line2d_75">
      <g>
       <use style="stroke:#000000;stroke-width:0.5;" x="133.168513119" xlink:href="#m741efc42ff" y="208.145454545"/>
      </g>
     </g>
     <g id="text_14">
      <!-- Out 2005 -->
      <g transform="translate(100.54701061 373.218101923)rotate(-30.0)scale(0.08 -0.08)">
       <use xlink:href="#BitstreamVeraSans-Roman-4f"/>
       <use x="78.7109375" xlink:href="#BitstreamVeraSans-Roman-75"/>
       <use x="142.08984375" xlink:href="#BitstreamVeraSans-Roman-74"/>
       <use x="181.298828125" xlink:href="#BitstreamVeraSans-Roman-20"/>
       <use x="213.0859375" xlink:href="#BitstreamVeraSans-Roman-32"/>
       <use x="276.708984375" xlink:href="#BitstreamVeraSans-Roman-30"/>
       <use x="340.33203125" xlink:href="#BitstreamVeraSans-Roman-30"/>
       <use x="403.955078125" xlink:href="#BitstreamVeraSans-Roman-35"/>
      </g>
     </g>
    </g>
    <g id="xtick_14">
     <g id="line2d_76">
      <path clip-path="url(#pf128fae7d4)" d="
M173.514 345.6
L173.514 208.145" style="fill:none;stroke:#000000;stroke-dasharray:1.000000,3.000000;stroke-dashoffset:0.0;stroke-width:0.5;"/>
     </g>
     <g id="line2d_77">
      <g>
       <use style="stroke:#000000;stroke-width:0.5;" x="173.513702624" xlink:href="#m93b0483c22" y="345.6"/>
      </g>
     </g>
     <g id="line2d_78">
      <g>
       <use style="stroke:#000000;stroke-width:0.5;" x="173.513702624" xlink:href="#m741efc42ff" y="208.145454545"/>
      </g>
     </g>
     <g id="text_15">
      <!-- Nov 2005 -->
      <defs>
       <path d="
M9.8125 72.9062
L23.0938 72.9062
L55.4219 11.9219
L55.4219 72.9062
L64.9844 72.9062
L64.9844 0
L51.7031 0
L19.3906 60.9844
L19.3906 0
L9.8125 0
z
" id="BitstreamVeraSans-Roman-4e"/>
       <path d="
M30.6094 48.3906
Q23.3906 48.3906 19.1875 42.75
Q14.9844 37.1094 14.9844 27.2969
Q14.9844 17.4844 19.1562 11.8438
Q23.3438 6.20312 30.6094 6.20312
Q37.7969 6.20312 41.9844 11.8594
Q46.1875 17.5312 46.1875 27.2969
Q46.1875 37.0156 41.9844 42.7031
Q37.7969 48.3906 30.6094 48.3906
M30.6094 56
Q42.3281 56 49.0156 48.375
Q55.7188 40.7656 55.7188 27.2969
Q55.7188 13.875 49.0156 6.21875
Q42.3281 -1.42188 30.6094 -1.42188
Q18.8438 -1.42188 12.1719 6.21875
Q5.51562 13.875 5.51562 27.2969
Q5.51562 40.7656 12.1719 48.375
Q18.8438 56 30.6094 56" id="BitstreamVeraSans-Roman-6f"/>
      </defs>
      <g transform="translate(139.929829385 373.773726923)rotate(-30.0)scale(0.08 -0.08)">
       <use xlink:href="#BitstreamVeraSans-Roman-4e"/>
       <use x="74.8046875" xlink:href="#BitstreamVeraSans-Roman-6f"/>
       <use x="135.986328125" xlink:href="#BitstreamVeraSans-Roman-76"/>
       <use x="195.166015625" xlink:href="#BitstreamVeraSans-Roman-20"/>
       <use x="226.953125" xlink:href="#BitstreamVeraSans-Roman-32"/>
       <use x="290.576171875" xlink:href="#BitstreamVeraSans-Roman-30"/>
       <use x="354.19921875" xlink:href="#BitstreamVeraSans-Roman-30"/>
       <use x="417.822265625" xlink:href="#BitstreamVeraSans-Roman-35"/>
      </g>
     </g>
    </g>
    <g id="xtick_15">
     <g id="line2d_79">
      <path clip-path="url(#pf128fae7d4)" d="
M212.557 345.6
L212.557 208.145" style="fill:none;stroke:#000000;stroke-dasharray:1.000000,3.000000;stroke-dashoffset:0.0;stroke-width:0.5;"/>
     </g>
     <g id="line2d_80">
      <g>
       <use style="stroke:#000000;stroke-width:0.5;" x="212.557434402" xlink:href="#m93b0483c22" y="345.6"/>
      </g>
     </g>
     <g id="line2d_81">
      <g>
       <use style="stroke:#000000;stroke-width:0.5;" x="212.557434402" xlink:href="#m741efc42ff" y="208.145454545"/>
      </g>
     </g>
     <g id="text_16">
      <!-- Dez 2005 -->
      <defs>
       <path d="
M19.6719 64.7969
L19.6719 8.10938
L31.5938 8.10938
Q46.6875 8.10938 53.6875 14.9375
Q60.6875 21.7812 60.6875 36.5312
Q60.6875 51.1719 53.6875 57.9844
Q46.6875 64.7969 31.5938 64.7969
z

M9.8125 72.9062
L30.0781 72.9062
Q51.2656 72.9062 61.1719 64.0938
Q71.0938 55.2812 71.0938 36.5312
Q71.0938 17.6719 61.125 8.82812
Q51.1719 0 30.0781 0
L9.8125 0
z
" id="BitstreamVeraSans-Roman-44"/>
       <path d="
M5.51562 54.6875
L48.1875 54.6875
L48.1875 46.4844
L14.4062 7.17188
L48.1875 7.17188
L48.1875 0
L4.29688 0
L4.29688 8.20312
L38.0938 47.5156
L5.51562 47.5156
z
" id="BitstreamVeraSans-Roman-7a"/>
      </defs>
      <g transform="translate(179.262597141 373.606851923)rotate(-30.0)scale(0.08 -0.08)">
       <use xlink:href="#BitstreamVeraSans-Roman-44"/>
       <use x="77.001953125" xlink:href="#BitstreamVeraSans-Roman-65"/>
       <use x="138.525390625" xlink:href="#BitstreamVeraSans-Roman-7a"/>
       <use x="191.015625" xlink:href="#BitstreamVeraSans-Roman-20"/>
       <use x="222.802734375" xlink:href="#BitstreamVeraSans-Roman-32"/>
       <use x="286.42578125" xlink:href="#BitstreamVeraSans-Roman-30"/>
       <use x="350.048828125" xlink:href="#BitstreamVeraSans-Roman-30"/>
       <use x="413.671875" xlink:href="#BitstreamVeraSans-Roman-35"/>
      </g>
     </g>
    </g>
    <g id="xtick_16">
     <g id="line2d_82">
      <path clip-path="url(#pf128fae7d4)" d="
M252.903 345.6
L252.903 208.145" style="fill:none;stroke:#000000;stroke-dasharray:1.000000,3.000000;stroke-dashoffset:0.0;stroke-width:0.5;"/>
     </g>
     <g id="line2d_83">
      <g>
       <use style="stroke:#000000;stroke-width:0.5;" x="252.902623907" xlink:href="#m93b0483c22" y="345.6"/>
      </g>
     </g>
     <g id="line2d_84">
      <g>
       <use style="stroke:#000000;stroke-width:0.5;" x="252.902623907" xlink:href="#m741efc42ff" y="208.145454545"/>
      </g>
     </g>
     <g id="text_17">
      <!-- Jan 2006 -->
      <defs>
       <path d="
M54.8906 33.0156
L54.8906 0
L45.9062 0
L45.9062 32.7188
Q45.9062 40.4844 42.875 44.3281
Q39.8438 48.1875 33.7969 48.1875
Q26.5156 48.1875 22.3125 43.5469
Q18.1094 38.9219 18.1094 30.9062
L18.1094 0
L9.07812 0
L9.07812 54.6875
L18.1094 54.6875
L18.1094 46.1875
Q21.3438 51.125 25.7031 53.5625
Q30.0781 56 35.7969 56
Q45.2188 56 50.0469 50.1719
Q54.8906 44.3438 54.8906 33.0156" id="BitstreamVeraSans-Roman-6e"/>
       <path d="
M9.8125 72.9062
L19.6719 72.9062
L19.6719 5.07812
Q19.6719 -8.10938 14.6719 -14.0625
Q9.67188 -20.0156 -1.42188 -20.0156
L-5.17188 -20.0156
L-5.17188 -11.7188
L-2.09375 -11.7188
Q4.4375 -11.7188 7.125 -8.04688
Q9.8125 -4.39062 9.8125 5.07812
z
" id="BitstreamVeraSans-Roman-4a"/>
      </defs>
      <g transform="translate(221.634286091 372.436851923)rotate(-30.0)scale(0.08 -0.08)">
       <use xlink:href="#BitstreamVeraSans-Roman-4a"/>
       <use x="29.4921875" xlink:href="#BitstreamVeraSans-Roman-61"/>
       <use x="90.771484375" xlink:href="#BitstreamVeraSans-Roman-6e"/>
       <use x="154.150390625" xlink:href="#BitstreamVeraSans-Roman-20"/>
       <use x="185.9375" xlink:href="#BitstreamVeraSans-Roman-32"/>
       <use x="249.560546875" xlink:href="#BitstreamVeraSans-Roman-30"/>
       <use x="313.18359375" xlink:href="#BitstreamVeraSans-Roman-30"/>
       <use x="376.806640625" xlink:href="#BitstreamVeraSans-Roman-36"/>
      </g>
     </g>
    </g>
    <g id="xtick_17">
     <g id="line2d_85">
      <path clip-path="url(#pf128fae7d4)" d="
M293.248 345.6
L293.248 208.145" style="fill:none;stroke:#000000;stroke-dasharray:1.000000,3.000000;stroke-dashoffset:0.0;stroke-width:0.5;"/>
     </g>
     <g id="line2d_86">
      <g>
       <use style="stroke:#000000;stroke-width:0.5;" x="293.247813411" xlink:href="#m93b0483c22" y="345.6"/>
      </g>
     </g>
     <g id="line2d_87">
      <g>
       <use style="stroke:#000000;stroke-width:0.5;" x="293.247813411" xlink:href="#m741efc42ff" y="208.145454545"/>
      </g>
     </g>
     <g id="text_18">
      <!-- Fev 2006 -->
      <defs>
       <path d="
M9.8125 72.9062
L51.7031 72.9062
L51.7031 64.5938
L19.6719 64.5938
L19.6719 43.1094
L48.5781 43.1094
L48.5781 34.8125
L19.6719 34.8125
L19.6719 0
L9.8125 0
z
" id="BitstreamVeraSans-Roman-46"/>
      </defs>
      <g transform="translate(261.050663349 372.973101923)rotate(-30.0)scale(0.08 -0.08)">
       <use xlink:href="#BitstreamVeraSans-Roman-46"/>
       <use x="52.01953125" xlink:href="#BitstreamVeraSans-Roman-65"/>
       <use x="113.54296875" xlink:href="#BitstreamVeraSans-Roman-76"/>
       <use x="172.72265625" xlink:href="#BitstreamVeraSans-Roman-20"/>
       <use x="204.509765625" xlink:href="#BitstreamVeraSans-Roman-32"/>
       <use x="268.1328125" xlink:href="#BitstreamVeraSans-Roman-30"/>
       <use x="331.755859375" xlink:href="#BitstreamVeraSans-Roman-30"/>
       <use x="395.37890625" xlink:href="#BitstreamVeraSans-Roman-36"/>
      </g>
     </g>
    </g>
    <g id="xtick_18">
     <g id="line2d_88">
      <path clip-path="url(#pf128fae7d4)" d="
M329.689 345.6
L329.689 208.145" style="fill:none;stroke:#000000;stroke-dasharray:1.000000,3.000000;stroke-dashoffset:0.0;stroke-width:0.5;"/>
     </g>
     <g id="line2d_89">
      <g>
       <use style="stroke:#000000;stroke-width:0.5;" x="329.688629738" xlink:href="#m93b0483c22" y="345.6"/>
      </g>
     </g>
     <g id="line2d_90">
      <g>
       <use style="stroke:#000000;stroke-width:0.5;" x="329.688629738" xlink:href="#m741efc42ff" y="208.145454545"/>
      </g>
     </g>
     <g id="text_19">
      <!-- Mar 2006 -->
      <defs>
       <path d="
M9.8125 72.9062
L24.5156 72.9062
L43.1094 23.2969
L61.8125 72.9062
L76.5156 72.9062
L76.5156 0
L66.8906 0
L66.8906 64.0156
L48.0938 14.0156
L38.1875 14.0156
L19.3906 64.0156
L19.3906 0
L9.8125 0
z
" id="BitstreamVeraSans-Roman-4d"/>
      </defs>
      <g transform="translate(296.387297286 373.610601923)rotate(-30.0)scale(0.08 -0.08)">
       <use xlink:href="#BitstreamVeraSans-Roman-4d"/>
       <use x="86.279296875" xlink:href="#BitstreamVeraSans-Roman-61"/>
       <use x="147.55859375" xlink:href="#BitstreamVeraSans-Roman-72"/>
       <use x="188.671875" xlink:href="#BitstreamVeraSans-Roman-20"/>
       <use x="220.458984375" xlink:href="#BitstreamVeraSans-Roman-32"/>
       <use x="284.08203125" xlink:href="#BitstreamVeraSans-Roman-30"/>
       <use x="347.705078125" xlink:href="#BitstreamVeraSans-Roman-30"/>
       <use x="411.328125" xlink:href="#BitstreamVeraSans-Roman-36"/>
      </g>
     </g>
    </g>
    <g id="xtick_19">
     <g id="line2d_91">
      <path clip-path="url(#pf128fae7d4)" d="
M370.034 345.6
L370.034 208.145" style="fill:none;stroke:#000000;stroke-dasharray:1.000000,3.000000;stroke-dashoffset:0.0;stroke-width:0.5;"/>
     </g>
     <g id="line2d_92">
      <g>
       <use style="stroke:#000000;stroke-width:0.5;" x="370.033819242" xlink:href="#m93b0483c22" y="345.6"/>
      </g>
     </g>
     <g id="line2d_93">
      <g>
       <use style="stroke:#000000;stroke-width:0.5;" x="370.033819242" xlink:href="#m741efc42ff" y="208.145454545"/>
      </g>
     </g>
     <g id="text_20">
      <!-- Abr 2006 -->
      <defs>
       <path d="
M34.1875 63.1875
L20.7969 26.9062
L47.6094 26.9062
z

M28.6094 72.9062
L39.7969 72.9062
L67.5781 0
L57.3281 0
L50.6875 18.7031
L17.8281 18.7031
L11.1875 0
L0.78125 0
z
" id="BitstreamVeraSans-Roman-41"/>
      </defs>
      <g transform="translate(337.818266141 372.983726923)rotate(-30.0)scale(0.08 -0.08)">
       <use xlink:href="#BitstreamVeraSans-Roman-41"/>
       <use x="68.408203125" xlink:href="#BitstreamVeraSans-Roman-62"/>
       <use x="131.884765625" xlink:href="#BitstreamVeraSans-Roman-72"/>
       <use x="172.998046875" xlink:href="#BitstreamVeraSans-Roman-20"/>
       <use x="204.78515625" xlink:href="#BitstreamVeraSans-Roman-32"/>
       <use x="268.408203125" xlink:href="#BitstreamVeraSans-Roman-30"/>
       <use x="332.03125" xlink:href="#BitstreamVeraSans-Roman-30"/>
       <use x="395.654296875" xlink:href="#BitstreamVeraSans-Roman-36"/>
      </g>
     </g>
    </g>
    <g id="xtick_20">
     <g id="line2d_94">
      <path clip-path="url(#pf128fae7d4)" d="
M409.078 345.6
L409.078 208.145" style="fill:none;stroke:#000000;stroke-dasharray:1.000000,3.000000;stroke-dashoffset:0.0;stroke-width:0.5;"/>
     </g>
     <g id="line2d_95">
      <g>
       <use style="stroke:#000000;stroke-width:0.5;" x="409.07755102" xlink:href="#m93b0483c22" y="345.6"/>
      </g>
     </g>
     <g id="line2d_96">
      <g>
       <use style="stroke:#000000;stroke-width:0.5;" x="409.07755102" xlink:href="#m741efc42ff" y="208.145454545"/>
      </g>
     </g>
     <g id="text_21">
      <!-- Mai 2006 -->
      <g transform="translate(376.699618156 373.077476923)rotate(-30.0)scale(0.08 -0.08)">
       <use xlink:href="#BitstreamVeraSans-Roman-4d"/>
       <use x="86.279296875" xlink:href="#BitstreamVeraSans-Roman-61"/>
       <use x="147.55859375" xlink:href="#BitstreamVeraSans-Roman-69"/>
       <use x="175.341796875" xlink:href="#BitstreamVeraSans-Roman-20"/>
       <use x="207.12890625" xlink:href="#BitstreamVeraSans-Roman-32"/>
       <use x="270.751953125" xlink:href="#BitstreamVeraSans-Roman-30"/>
       <use x="334.375" xlink:href="#BitstreamVeraSans-Roman-30"/>
       <use x="397.998046875" xlink:href="#BitstreamVeraSans-Roman-36"/>
      </g>
     </g>
    </g>
    <g id="xtick_21">
     <g id="line2d_97">
      <path clip-path="url(#pf128fae7d4)" d="
M449.423 345.6
L449.423 208.145" style="fill:none;stroke:#000000;stroke-dasharray:1.000000,3.000000;stroke-dashoffset:0.0;stroke-width:0.5;"/>
     </g>
     <g id="line2d_98">
      <g>
       <use style="stroke:#000000;stroke-width:0.5;" x="449.422740525" xlink:href="#m93b0483c22" y="345.6"/>
      </g>
     </g>
     <g id="line2d_99">
      <g>
       <use style="stroke:#000000;stroke-width:0.5;" x="449.422740525" xlink:href="#m741efc42ff" y="208.145454545"/>
      </g>
     </g>
     <g id="text_22">
      <!-- Jun 2006 -->
      <g transform="translate(418.009343454 372.520601923)rotate(-30.0)scale(0.08 -0.08)">
       <use xlink:href="#BitstreamVeraSans-Roman-4a"/>
       <use x="29.4921875" xlink:href="#BitstreamVeraSans-Roman-75"/>
       <use x="92.87109375" xlink:href="#BitstreamVeraSans-Roman-6e"/>
       <use x="156.25" xlink:href="#BitstreamVeraSans-Roman-20"/>
       <use x="188.037109375" xlink:href="#BitstreamVeraSans-Roman-32"/>
       <use x="251.66015625" xlink:href="#BitstreamVeraSans-Roman-30"/>
       <use x="315.283203125" xlink:href="#BitstreamVeraSans-Roman-30"/>
       <use x="378.90625" xlink:href="#BitstreamVeraSans-Roman-36"/>
      </g>
     </g>
    </g>
    <g id="xtick_22">
     <g id="line2d_100">
      <path clip-path="url(#pf128fae7d4)" d="
M488.466 345.6
L488.466 208.145" style="fill:none;stroke:#000000;stroke-dasharray:1.000000,3.000000;stroke-dashoffset:0.0;stroke-width:0.5;"/>
     </g>
     <g id="line2d_101">
      <g>
       <use style="stroke:#000000;stroke-width:0.5;" x="488.466472303" xlink:href="#m93b0483c22" y="345.6"/>
      </g>
     </g>
     <g id="line2d_102">
      <g>
       <use style="stroke:#000000;stroke-width:0.5;" x="488.466472303" xlink:href="#m741efc42ff" y="208.145454545"/>
      </g>
     </g>
     <g id="text_23">
      <!-- Jul 2006 -->
      <g transform="translate(459.519082569 371.096851923)rotate(-30.0)scale(0.08 -0.08)">
       <use xlink:href="#BitstreamVeraSans-Roman-4a"/>
       <use x="29.4921875" xlink:href="#BitstreamVeraSans-Roman-75"/>
       <use x="92.87109375" xlink:href="#BitstreamVeraSans-Roman-6c"/>
       <use x="120.654296875" xlink:href="#BitstreamVeraSans-Roman-20"/>
       <use x="152.44140625" xlink:href="#BitstreamVeraSans-Roman-32"/>
       <use x="216.064453125" xlink:href="#BitstreamVeraSans-Roman-30"/>
       <use x="279.6875" xlink:href="#BitstreamVeraSans-Roman-30"/>
       <use x="343.310546875" xlink:href="#BitstreamVeraSans-Roman-36"/>
      </g>
     </g>
    </g>
    <g id="text_24">
     <!-- days -->
     <defs>
      <path d="
M32.1719 -5.07812
Q28.375 -14.8438 24.75 -17.8125
Q21.1406 -20.7969 15.0938 -20.7969
L7.90625 -20.7969
L7.90625 -13.2812
L13.1875 -13.2812
Q16.8906 -13.2812 18.9375 -11.5156
Q21 -9.76562 23.4844 -3.21875
L25.0938 0.875
L2.98438 54.6875
L12.5 54.6875
L29.5938 11.9219
L46.6875 54.6875
L56.2031 54.6875
z
" id="BitstreamVeraSans-Roman-79"/>
     </defs>
     <g transform="translate(281.660625 389.332701689)scale(0.12 -0.12)">
      <use xlink:href="#BitstreamVeraSans-Roman-64"/>
      <use x="63.4765625" xlink:href="#BitstreamVeraSans-Roman-61"/>
      <use x="124.755859375" xlink:href="#BitstreamVeraSans-Roman-79"/>
      <use x="183.935546875" xlink:href="#BitstreamVeraSans-Roman-73"/>
     </g>
    </g>
   </g>
   <g id="matplotlib.axis_4">
    <g id="ytick_10">
     <g id="line2d_103">
      <path clip-path="url(#pf128fae7d4)" d="
M72 345.6
L518.4 345.6" style="fill:none;stroke:#000000;stroke-dasharray:1.000000,3.000000;stroke-dashoffset:0.0;stroke-width:0.5;"/>
     </g>
     <g id="line2d_104">
      <g>
       <use style="stroke:#000000;stroke-width:0.5;" x="72.0" xlink:href="#m728421d6d4" y="345.6"/>
      </g>
     </g>
     <g id="line2d_105">
      <g>
       <use style="stroke:#000000;stroke-width:0.5;" x="518.4" xlink:href="#mcb0005524f" y="345.6"/>
      </g>
     </g>
     <g id="text_25">
      <!-- 0 -->
      <g transform="translate(63.96875 347.8075)scale(0.08 -0.08)">
       <use xlink:href="#BitstreamVeraSans-Roman-30"/>
      </g>
     </g>
    </g>
    <g id="ytick_11">
     <g id="line2d_106">
      <path clip-path="url(#pf128fae7d4)" d="
M72 330.327
L518.4 330.327" style="fill:none;stroke:#000000;stroke-dasharray:1.000000,3.000000;stroke-dashoffset:0.0;stroke-width:0.5;"/>
     </g>
     <g id="line2d_107">
      <g>
       <use style="stroke:#000000;stroke-width:0.5;" x="72.0" xlink:href="#m728421d6d4" y="330.327272727"/>
      </g>
     </g>
     <g id="line2d_108">
      <g>
       <use style="stroke:#000000;stroke-width:0.5;" x="518.4" xlink:href="#mcb0005524f" y="330.327272727"/>
      </g>
     </g>
     <g id="text_26">
      <!-- 2e-05 -->
      <defs>
       <path d="
M4.89062 31.3906
L31.2031 31.3906
L31.2031 23.3906
L4.89062 23.3906
z
" id="BitstreamVeraSans-Roman-2d"/>
      </defs>
      <g transform="translate(46.20625 332.534772727)scale(0.08 -0.08)">
       <use xlink:href="#BitstreamVeraSans-Roman-32"/>
       <use x="63.623046875" xlink:href="#BitstreamVeraSans-Roman-65"/>
       <use x="125.146484375" xlink:href="#BitstreamVeraSans-Roman-2d"/>
       <use x="161.23046875" xlink:href="#BitstreamVeraSans-Roman-30"/>
       <use x="224.853515625" xlink:href="#BitstreamVeraSans-Roman-35"/>
      </g>
     </g>
    </g>
    <g id="ytick_12">
     <g id="line2d_109">
      <path clip-path="url(#pf128fae7d4)" d="
M72 315.055
L518.4 315.055" style="fill:none;stroke:#000000;stroke-dasharray:1.000000,3.000000;stroke-dashoffset:0.0;stroke-width:0.5;"/>
     </g>
     <g id="line2d_110">
      <g>
       <use style="stroke:#000000;stroke-width:0.5;" x="72.0" xlink:href="#m728421d6d4" y="315.054545455"/>
      </g>
     </g>
     <g id="line2d_111">
      <g>
       <use style="stroke:#000000;stroke-width:0.5;" x="518.4" xlink:href="#mcb0005524f" y="315.054545455"/>
      </g>
     </g>
     <g id="text_27">
      <!-- 4e-05 -->
      <g transform="translate(46.01125 317.262045455)scale(0.08 -0.08)">
       <use xlink:href="#BitstreamVeraSans-Roman-34"/>
       <use x="63.623046875" xlink:href="#BitstreamVeraSans-Roman-65"/>
       <use x="125.146484375" xlink:href="#BitstreamVeraSans-Roman-2d"/>
       <use x="161.23046875" xlink:href="#BitstreamVeraSans-Roman-30"/>
       <use x="224.853515625" xlink:href="#BitstreamVeraSans-Roman-35"/>
      </g>
     </g>
    </g>
    <g id="ytick_13">
     <g id="line2d_112">
      <path clip-path="url(#pf128fae7d4)" d="
M72 299.782
L518.4 299.782" style="fill:none;stroke:#000000;stroke-dasharray:1.000000,3.000000;stroke-dashoffset:0.0;stroke-width:0.5;"/>
     </g>
     <g id="line2d_113">
      <g>
       <use style="stroke:#000000;stroke-width:0.5;" x="72.0" xlink:href="#m728421d6d4" y="299.781818182"/>
      </g>
     </g>
     <g id="line2d_114">
      <g>
       <use style="stroke:#000000;stroke-width:0.5;" x="518.4" xlink:href="#mcb0005524f" y="299.781818182"/>
      </g>
     </g>
     <g id="text_28">
      <!-- 6e-05 -->
      <g transform="translate(46.17875 301.989318182)scale(0.08 -0.08)">
       <use xlink:href="#BitstreamVeraSans-Roman-36"/>
       <use x="63.623046875" xlink:href="#BitstreamVeraSans-Roman-65"/>
       <use x="125.146484375" xlink:href="#BitstreamVeraSans-Roman-2d"/>
       <use x="161.23046875" xlink:href="#BitstreamVeraSans-Roman-30"/>
       <use x="224.853515625" xlink:href="#BitstreamVeraSans-Roman-35"/>
      </g>
     </g>
    </g>
    <g id="ytick_14">
     <g id="line2d_115">
      <path clip-path="url(#pf128fae7d4)" d="
M72 284.509
L518.4 284.509" style="fill:none;stroke:#000000;stroke-dasharray:1.000000,3.000000;stroke-dashoffset:0.0;stroke-width:0.5;"/>
     </g>
     <g id="line2d_116">
      <g>
       <use style="stroke:#000000;stroke-width:0.5;" x="72.0" xlink:href="#m728421d6d4" y="284.509090909"/>
      </g>
     </g>
     <g id="line2d_117">
      <g>
       <use style="stroke:#000000;stroke-width:0.5;" x="518.4" xlink:href="#mcb0005524f" y="284.509090909"/>
      </g>
     </g>
     <g id="text_29">
      <!-- 8e-05 -->
      <g transform="translate(46.1625 286.716590909)scale(0.08 -0.08)">
       <use xlink:href="#BitstreamVeraSans-Roman-38"/>
       <use x="63.623046875" xlink:href="#BitstreamVeraSans-Roman-65"/>
       <use x="125.146484375" xlink:href="#BitstreamVeraSans-Roman-2d"/>
       <use x="161.23046875" xlink:href="#BitstreamVeraSans-Roman-30"/>
       <use x="224.853515625" xlink:href="#BitstreamVeraSans-Roman-35"/>
      </g>
     </g>
    </g>
    <g id="ytick_15">
     <g id="line2d_118">
      <path clip-path="url(#pf128fae7d4)" d="
M72 269.236
L518.4 269.236" style="fill:none;stroke:#000000;stroke-dasharray:1.000000,3.000000;stroke-dashoffset:0.0;stroke-width:0.5;"/>
     </g>
     <g id="line2d_119">
      <g>
       <use style="stroke:#000000;stroke-width:0.5;" x="72.0" xlink:href="#m728421d6d4" y="269.236363636"/>
      </g>
     </g>
     <g id="line2d_120">
      <g>
       <use style="stroke:#000000;stroke-width:0.5;" x="518.4" xlink:href="#mcb0005524f" y="269.236363636"/>
      </g>
     </g>
     <g id="text_30">
      <!-- 0.0001 -->
      <g transform="translate(41.27375 271.443863636)scale(0.08 -0.08)">
       <use xlink:href="#BitstreamVeraSans-Roman-30"/>
       <use x="63.623046875" xlink:href="#BitstreamVeraSans-Roman-2e"/>
       <use x="95.41015625" xlink:href="#BitstreamVeraSans-Roman-30"/>
       <use x="159.033203125" xlink:href="#BitstreamVeraSans-Roman-30"/>
       <use x="222.65625" xlink:href="#BitstreamVeraSans-Roman-30"/>
       <use x="286.279296875" xlink:href="#BitstreamVeraSans-Roman-31"/>
      </g>
     </g>
    </g>
    <g id="ytick_16">
     <g id="line2d_121">
      <path clip-path="url(#pf128fae7d4)" d="
M72 253.964
L518.4 253.964" style="fill:none;stroke:#000000;stroke-dasharray:1.000000,3.000000;stroke-dashoffset:0.0;stroke-width:0.5;"/>
     </g>
     <g id="line2d_122">
      <g>
       <use style="stroke:#000000;stroke-width:0.5;" x="72.0" xlink:href="#m728421d6d4" y="253.963636364"/>
      </g>
     </g>
     <g id="line2d_123">
      <g>
       <use style="stroke:#000000;stroke-width:0.5;" x="518.4" xlink:href="#mcb0005524f" y="253.963636364"/>
      </g>
     </g>
     <g id="text_31">
      <!-- 0.00012 -->
      <g transform="translate(36.24625 256.171136364)scale(0.08 -0.08)">
       <use xlink:href="#BitstreamVeraSans-Roman-30"/>
       <use x="63.623046875" xlink:href="#BitstreamVeraSans-Roman-2e"/>
       <use x="95.41015625" xlink:href="#BitstreamVeraSans-Roman-30"/>
       <use x="159.033203125" xlink:href="#BitstreamVeraSans-Roman-30"/>
       <use x="222.65625" xlink:href="#BitstreamVeraSans-Roman-30"/>
       <use x="286.279296875" xlink:href="#BitstreamVeraSans-Roman-31"/>
       <use x="349.90234375" xlink:href="#BitstreamVeraSans-Roman-32"/>
      </g>
     </g>
    </g>
    <g id="ytick_17">
     <g id="line2d_124">
      <path clip-path="url(#pf128fae7d4)" d="
M72 238.691
L518.4 238.691" style="fill:none;stroke:#000000;stroke-dasharray:1.000000,3.000000;stroke-dashoffset:0.0;stroke-width:0.5;"/>
     </g>
     <g id="line2d_125">
      <g>
       <use style="stroke:#000000;stroke-width:0.5;" x="72.0" xlink:href="#m728421d6d4" y="238.690909091"/>
      </g>
     </g>
     <g id="line2d_126">
      <g>
       <use style="stroke:#000000;stroke-width:0.5;" x="518.4" xlink:href="#mcb0005524f" y="238.690909091"/>
      </g>
     </g>
     <g id="text_32">
      <!-- 0.00014 -->
      <g transform="translate(35.89375 240.898409091)scale(0.08 -0.08)">
       <use xlink:href="#BitstreamVeraSans-Roman-30"/>
       <use x="63.623046875" xlink:href="#BitstreamVeraSans-Roman-2e"/>
       <use x="95.41015625" xlink:href="#BitstreamVeraSans-Roman-30"/>
       <use x="159.033203125" xlink:href="#BitstreamVeraSans-Roman-30"/>
       <use x="222.65625" xlink:href="#BitstreamVeraSans-Roman-30"/>
       <use x="286.279296875" xlink:href="#BitstreamVeraSans-Roman-31"/>
       <use x="349.90234375" xlink:href="#BitstreamVeraSans-Roman-34"/>
      </g>
     </g>
    </g>
    <g id="ytick_18">
     <g id="line2d_127">
      <path clip-path="url(#pf128fae7d4)" d="
M72 223.418
L518.4 223.418" style="fill:none;stroke:#000000;stroke-dasharray:1.000000,3.000000;stroke-dashoffset:0.0;stroke-width:0.5;"/>
     </g>
     <g id="line2d_128">
      <g>
       <use style="stroke:#000000;stroke-width:0.5;" x="72.0" xlink:href="#m728421d6d4" y="223.418181818"/>
      </g>
     </g>
     <g id="line2d_129">
      <g>
       <use style="stroke:#000000;stroke-width:0.5;" x="518.4" xlink:href="#mcb0005524f" y="223.418181818"/>
      </g>
     </g>
     <g id="text_33">
      <!-- 0.00016 -->
      <g transform="translate(35.94875 225.625681818)scale(0.08 -0.08)">
       <use xlink:href="#BitstreamVeraSans-Roman-30"/>
       <use x="63.623046875" xlink:href="#BitstreamVeraSans-Roman-2e"/>
       <use x="95.41015625" xlink:href="#BitstreamVeraSans-Roman-30"/>
       <use x="159.033203125" xlink:href="#BitstreamVeraSans-Roman-30"/>
       <use x="222.65625" xlink:href="#BitstreamVeraSans-Roman-30"/>
       <use x="286.279296875" xlink:href="#BitstreamVeraSans-Roman-31"/>
       <use x="349.90234375" xlink:href="#BitstreamVeraSans-Roman-36"/>
      </g>
     </g>
    </g>
    <g id="ytick_19">
     <g id="line2d_130">
      <path clip-path="url(#pf128fae7d4)" d="
M72 208.145
L518.4 208.145" style="fill:none;stroke:#000000;stroke-dasharray:1.000000,3.000000;stroke-dashoffset:0.0;stroke-width:0.5;"/>
     </g>
     <g id="line2d_131">
      <g>
       <use style="stroke:#000000;stroke-width:0.5;" x="72.0" xlink:href="#m728421d6d4" y="208.145454545"/>
      </g>
     </g>
     <g id="line2d_132">
      <g>
       <use style="stroke:#000000;stroke-width:0.5;" x="518.4" xlink:href="#mcb0005524f" y="208.145454545"/>
      </g>
     </g>
     <g id="text_34">
      <!-- 0.00018 -->
      <g transform="translate(35.9925 210.352954545)scale(0.08 -0.08)">
       <use xlink:href="#BitstreamVeraSans-Roman-30"/>
       <use x="63.623046875" xlink:href="#BitstreamVeraSans-Roman-2e"/>
       <use x="95.41015625" xlink:href="#BitstreamVeraSans-Roman-30"/>
       <use x="159.033203125" xlink:href="#BitstreamVeraSans-Roman-30"/>
       <use x="222.65625" xlink:href="#BitstreamVeraSans-Roman-30"/>
       <use x="286.279296875" xlink:href="#BitstreamVeraSans-Roman-31"/>
       <use x="349.90234375" xlink:href="#BitstreamVeraSans-Roman-38"/>
      </g>
     </g>
    </g>
   </g>
   <g id="legend_2">
    <g id="patch_13">
     <path d="
M384.624 283.075
L511.2 283.075
L511.2 215.345
L384.624 215.345
z
" style="fill:#ffffff;stroke:#000000;stroke-linejoin:miter;"/>
    </g>
    <g id="line2d_133"/>
    <g id="line2d_134">
     <g>
      <use style="fill:#0000ff;stroke:#000000;stroke-width:0.5;" x="394.704" xlink:href="#mf1e9a9e4ae" y="227.007204545"/>
      <use style="fill:#0000ff;stroke:#000000;stroke-width:0.5;" x="414.864" xlink:href="#mf1e9a9e4ae" y="227.007204545"/>
     </g>
    </g>
    <g id="text_35">
     <!-- $Observed\; I$ -->
     <defs>
      <path d="
M30.4219 -2.20312
Q22.9062 -2.20312 17.0938 1.23438
Q11.2812 4.6875 8.125 10.8125
Q4.98438 16.9375 4.98438 24.4219
Q4.98438 35.2969 11.1562 46.0938
Q17.3281 56.8906 27.4375 63.7031
Q37.5469 70.5156 48.5781 70.5156
Q54.2969 70.5156 59.0312 68.4531
Q63.7656 66.4062 67.0312 62.7656
Q70.3125 59.125 72.0938 54.2344
Q73.875 49.3594 73.875 43.6094
Q73.875 35.3594 70.3594 27.1719
Q66.8438 19 60.6094 12.2812
Q54.3906 5.5625 46.625 1.67188
Q38.875 -2.20312 30.4219 -2.20312
M31.2031 0.78125
Q38.4844 0.78125 44.7812 5.39062
Q51.0781 10.0156 55.5156 17.3125
Q59.9688 24.6094 62.3281 32.6406
Q64.7031 40.6719 64.7031 47.6094
Q64.7031 53.0312 62.8438 57.5469
Q60.9844 62.0625 57.125 64.8125
Q53.2656 67.5781 47.9062 67.5781
Q42.625 67.5781 37.6406 65.0312
Q32.6719 62.5 28.6094 58.2969
Q24.4688 54.0469 21.2344 47.7656
Q18.0156 41.5 16.3594 34.5938
Q14.7031 27.6875 14.7031 21.5781
Q14.7031 13.0938 18.875 6.9375
Q23.0469 0.78125 31.2031 0.78125" id="Cmmi10-4f"/>
      <path d="
M7.71875 1.70312
Q7.71875 2.29688 7.8125 2.59375
L15.2812 32.4219
Q16.0156 35.2031 16.0156 37.3125
Q16.0156 41.6094 13.0938 41.6094
Q9.96875 41.6094 8.45312 37.8594
Q6.9375 34.125 5.51562 28.4219
Q5.51562 28.125 5.21875 27.9531
Q4.9375 27.7812 4.6875 27.7812
L3.51562 27.7812
Q3.17188 27.7812 2.92188 28.1406
Q2.6875 28.5156 2.6875 28.8125
Q3.76562 33.1562 4.76562 36.1719
Q5.76562 39.2031 7.89062 41.6875
Q10.0156 44.1875 13.1875 44.1875
Q16.6562 44.1875 19.2656 42.1875
Q21.875 40.1875 22.5156 36.9219
Q25.0469 40.2344 28.2969 42.2031
Q31.5469 44.1875 35.4062 44.1875
Q38.5781 44.1875 40.9844 42.3281
Q43.4062 40.4844 43.4062 37.3125
Q43.4062 34.7656 41.8125 32.875
Q40.2344 31 37.5938 31
Q35.9844 31 34.8906 32
Q33.7969 33.0156 33.7969 34.625
Q33.7969 36.8125 35.4062 38.5469
Q37.0156 40.2812 39.1094 40.2812
Q37.5 41.6094 35.2031 41.6094
Q30.9062 41.6094 27.7344 38.5469
Q24.5625 35.5 22.0156 30.8125
L14.8906 2.20312
Q14.5469 0.828125 13.3438 -0.140625
Q12.1562 -1.125 10.6875 -1.125
Q9.46875 -1.125 8.59375 -0.34375
Q7.71875 0.4375 7.71875 1.70312" id="Cmmi10-72"/>
      <path d="
M8.6875 6.10938
Q11.375 1.51562 19.4844 1.51562
Q23 1.51562 26.1719 2.70312
Q29.3438 3.90625 31.4219 6.29688
Q33.5 8.6875 33.5 12.1094
Q33.5 14.7031 31.6406 16.3594
Q29.7812 18.0156 27.0938 18.6094
L21.6875 19.6719
Q17.9688 20.6094 15.5781 23.1406
Q13.1875 25.6875 13.1875 29.2969
Q13.1875 33.7344 15.5938 37.1562
Q18.0156 40.5781 21.9688 42.375
Q25.9219 44.1875 30.1719 44.1875
Q34.7188 44.1875 38.2969 42.0156
Q41.8906 39.8438 41.8906 35.5938
Q41.8906 33.2969 40.5938 31.5312
Q39.3125 29.7812 37.0156 29.7812
Q35.6875 29.7812 34.7344 30.6406
Q33.7969 31.5 33.7969 32.8125
Q33.7969 33.9844 34.4531 35.0781
Q35.1094 36.1875 36.2031 36.8438
Q37.3125 37.5 38.4844 37.5
Q37.5938 39.6562 35.1719 40.625
Q32.7656 41.6094 29.9844 41.6094
Q27.4375 41.6094 24.8906 40.5781
Q22.3594 39.5469 20.8125 37.5625
Q19.2812 35.5938 19.2812 32.9062
Q19.2812 31.1094 20.5469 29.7344
Q21.8281 28.375 23.6875 27.7812
L29.5 26.6094
Q32.2812 26.0312 34.5938 24.5312
Q36.9219 23.0469 38.25 20.7656
Q39.5938 18.5 39.5938 15.5781
Q39.5938 11.8594 37.5156 8.25
Q35.4531 4.64062 32.4219 2.48438
Q27.0938 -1.125 19.3906 -1.125
Q14.0625 -1.125 9.60938 1.3125
Q5.17188 3.76562 5.17188 8.59375
Q5.17188 11.3281 6.75 13.3438
Q8.34375 15.375 11.0781 15.375
Q12.7031 15.375 13.7969 14.3906
Q14.8906 13.4219 14.8906 11.8125
Q14.8906 9.51562 13.1719 7.8125
Q11.4688 6.10938 9.1875 6.10938
z
" id="Cmmi10-73"/>
      <path d="
M17.2812 -1.125
Q11.2344 -1.125 7.85938 3.60938
Q4.5 8.34375 4.5 14.7031
Q4.5 15.625 4.95312 18.3281
Q5.42188 21.0469 5.42188 21.6875
L15.0938 60.5
Q15.4844 62.2031 15.5781 63.1875
Q15.5781 64.7969 9.07812 64.7969
Q8.10938 64.7969 8.10938 66.1094
Q8.15625 66.3594 8.32812 66.9844
Q8.5 67.625 8.76562 67.9688
Q9.03125 68.3125 9.51562 68.3125
L23 69.3906
Q24.2188 69.3906 24.2188 68.1094
L16.7969 38.625
Q22.4688 44.1875 28.2188 44.1875
Q32.4688 44.1875 35.5156 41.9375
Q38.5781 39.7031 40.0938 36.0312
Q41.6094 32.375 41.6094 28.2188
Q41.6094 23.3906 39.7188 18.2344
Q37.8438 13.0938 34.5156 8.67188
Q31.2031 4.25 26.75 1.5625
Q22.3125 -1.125 17.2812 -1.125
M17.4844 1.51562
Q20.9062 1.51562 23.875 4.375
Q26.8594 7.23438 28.7188 10.7969
Q30.7188 14.7969 32.4531 21.6562
Q34.1875 28.5156 34.1875 32.625
Q34.1875 36.1875 32.6875 38.8906
Q31.2031 41.6094 27.9844 41.6094
Q24.3594 41.6094 21.0625 38.9375
Q17.7812 36.2812 15.2812 32.625
L12.5 21.2969
Q10.8906 14.9844 10.7969 11.1875
Q10.7969 7.42188 12.4219 4.46875
Q14.0625 1.51562 17.4844 1.51562" id="Cmmi10-62"/>
      <path d="
M10.6875 11.2812
Q10.6875 13.5312 11.2188 16.2031
Q11.7656 18.8906 12.2969 20.625
Q12.8438 22.3594 14.75 27.3906
Q16.6562 32.4219 16.7031 32.625
Q18.0156 36.2812 18.0156 38.625
Q18.0156 41.6094 15.8281 41.6094
Q11.8594 41.6094 9.29688 37.5312
Q6.73438 33.4531 5.51562 28.4219
Q5.32812 27.7812 4.6875 27.7812
L3.51562 27.7812
Q2.6875 27.7812 2.6875 28.7188
L2.6875 29
Q4.29688 34.9688 7.60938 39.5781
Q10.9375 44.1875 16.0156 44.1875
Q19.5781 44.1875 22.0469 41.8438
Q24.5156 39.5 24.5156 35.8906
Q24.5156 34.0312 23.6875 31.9844
Q21.7344 26.9062 20.6094 23.8438
Q19.4844 20.7969 18.5312 17.0156
Q17.5781 13.2344 17.5781 10.0156
Q17.5781 6.25 19.3125 3.875
Q21.0469 1.51562 24.7031 1.51562
Q31.6406 1.51562 37.2031 12.2031
Q38.9688 15.6719 40.5312 20.3594
Q42.0938 25.0469 42.0938 27.9844
Q42.0938 31 41.1094 32.6875
Q40.1406 34.375 38.5781 36.2031
Q37.0156 38.0312 37.0156 39.1094
Q37.0156 41.0625 38.625 42.6719
Q40.2344 44.2812 42.1875 44.2812
Q44.5781 44.2812 45.625 42.0781
Q46.6875 39.8906 46.6875 37.1094
Q46.6875 33.7969 45.7344 29.2031
Q44.7812 24.6094 43.0938 19.6719
Q41.4062 14.75 39.9844 11.9219
Q33.4062 -1.125 24.6094 -1.125
Q18.3125 -1.125 14.5 2.01562
Q10.6875 5.17188 10.6875 11.2812" id="Cmmi10-76"/>
      <path d="
M4.20312 0
Q3.21875 0 3.21875 1.3125
Q3.60938 3.51562 4.5 3.51562
Q10.4062 3.51562 12.5 3.90625
Q14.7969 4.4375 15.375 6.89062
L29.1094 61.8125
Q29.2969 62.7969 29.2969 63.0938
Q29.2969 63.7188 28.9688 63.9844
Q28.6562 64.2656 27.9844 64.4062
Q25.9844 64.7969 20.4062 64.7969
Q19.3906 64.7969 19.3906 66.1094
Q19.7344 67.3906 19.9219 67.8438
Q20.125 68.3125 21.0938 68.3125
L49.0312 68.3125
Q50 68.3125 50 67
Q49.9531 66.75 49.7969 66.1562
Q49.6562 65.5781 49.4062 65.1875
Q49.1719 64.7969 48.6875 64.7969
Q42.8281 64.7969 40.5781 64.4062
Q38.375 63.875 37.7969 61.375
L24.125 6.5
Q23.875 5.28125 23.875 5.17188
Q23.875 4.9375 23.9531 4.71875
Q24.0312 4.5 24.25 4.32812
Q24.4688 4.15625 24.6875 4.07812
Q24.9062 4 25.2031 3.90625
Q27.0938 3.51562 32.8125 3.51562
Q33.7969 3.51562 33.7969 2.20312
Q33.4531 0.78125 33.25 0.390625
Q33.0625 0 32.0781 0
z
" id="Cmmi10-49"/>
     </defs>
     <g transform="translate(430.704 232.047204545)scale(0.144 -0.144)">
      <use transform="translate(0.0 0.484375)" xlink:href="#Cmmi10-4f"/>
      <use transform="translate(76.220703125 0.484375)" xlink:href="#Cmmi10-62"/>
      <use transform="translate(119.140625 0.484375)" xlink:href="#Cmmi10-73"/>
      <use transform="translate(165.91796875 0.484375)" xlink:href="#Cmmi10-65"/>
      <use transform="translate(212.40234375 0.484375)" xlink:href="#Cmmi10-72"/>
      <use transform="translate(257.51953125 0.484375)" xlink:href="#Cmmi10-76"/>
      <use transform="translate(305.908203125 0.484375)" xlink:href="#Cmmi10-65"/>
      <use transform="translate(352.392578125 0.484375)" xlink:href="#Cmmi10-64"/>
      <use transform="translate(474.62890625 0.484375)" xlink:href="#Cmmi10-49"/>
     </g>
    </g>
    <g id="line2d_135">
     <path d="
M394.704 248.144
L414.864 248.144" style="fill:none;stroke:#000000;stroke-linecap:square;"/>
    </g>
    <g id="line2d_136"/>
    <g id="text_36">
     <!-- $median\; I$ -->
     <g transform="translate(430.704 253.183704545)scale(0.144 -0.144)">
      <use transform="translate(0.0 0.609375)" xlink:href="#Cmmi10-6d"/>
      <use transform="translate(87.79296875 0.609375)" xlink:href="#Cmmi10-65"/>
      <use transform="translate(134.27734375 0.609375)" xlink:href="#Cmmi10-64"/>
      <use transform="translate(186.279296875 0.609375)" xlink:href="#Cmmi10-69"/>
      <use transform="translate(220.703125 0.609375)" xlink:href="#Cmmi10-61"/>
      <use transform="translate(273.486328125 0.609375)" xlink:href="#Cmmi10-6e"/>
      <use transform="translate(403.73046875 0.609375)" xlink:href="#Cmmi10-49"/>
     </g>
    </g>
    <g id="line2d_137">
     <path d="
M394.704 269.28
L414.864 269.28" style="fill:none;stroke:#000000;stroke-dasharray:6.000000,6.000000;stroke-dashoffset:0.0;"/>
    </g>
    <g id="line2d_138"/>
    <g id="text_37">
     <!-- $mean\; I$ -->
     <g transform="translate(430.704 274.320204545)scale(0.144 -0.144)">
      <use transform="translate(0.0 0.6875)" xlink:href="#Cmmi10-6d"/>
      <use transform="translate(87.79296875 0.6875)" xlink:href="#Cmmi10-65"/>
      <use transform="translate(134.27734375 0.6875)" xlink:href="#Cmmi10-61"/>
      <use transform="translate(187.060546875 0.6875)" xlink:href="#Cmmi10-6e"/>
      <use transform="translate(317.3046875 0.6875)" xlink:href="#Cmmi10-49"/>
     </g>
    </g>
   </g>
  </g>
 </g>
 <defs>
  <clipPath id="pf128fae7d4">
   <rect height="137.454545455" width="446.4" x="72.0" y="208.145454545"/>
  </clipPath>
  <clipPath id="p93aeaf4644">
   <rect height="137.454545455" width="446.4" x="72.0" y="43.2"/>
  </clipPath>
 </defs>
</svg>
