<?xml version="1.0" encoding="utf-8" standalone="no"?>
<!DOCTYPE svg PUBLIC "-//W3C//DTD SVG 1.1//EN"
  "http://www.w3.org/Graphics/SVG/1.1/DTD/svg11.dtd">
<!-- Created with matplotlib (http://matplotlib.org/) -->
<svg height="432pt" version="1.1" viewBox="0 0 576 432" width="576pt" xmlns="http://www.w3.org/2000/svg" xmlns:xlink="http://www.w3.org/1999/xlink">
 <defs>
  <style type="text/css">
*{stroke-linecap:butt;stroke-linejoin:round;}
  </style>
 </defs>
 <g id="figure_1">
  <g id="patch_1">
   <path d="
M0 432
L576 432
L576 0
L0 0
z
" style="fill:#ffffff;"/>
  </g>
  <g id="axes_1">
   <g id="patch_2">
    <path d="
M72 132.141
L518.4 132.141
L518.4 43.2
L72 43.2
z
" style="fill:#ffffff;"/>
   </g>
   <g id="PolyCollection_1">
    <defs>
     <path d="
M236.28 -299.867
L183.6 -299.867
L183.6 -300.756
L183.6 -301.645
L183.6 -302.534
L183.6 -303.423
L183.6 -304.312
L183.6 -305.201
L183.6 -306.09
L183.6 -306.979
L183.6 -307.868
L183.6 -308.757
L183.6 -309.646
L183.6 -310.535
L183.6 -311.424
L183.6 -312.313
L183.6 -313.202
L183.6 -314.091
L183.6 -314.98
L183.6 -315.869
L183.6 -316.758
L183.6 -317.647
L183.6 -318.536
L183.6 -319.425
L183.6 -320.314
L183.6 -321.203
L183.6 -322.092
L183.6 -322.981
L183.6 -323.87
L183.6 -324.759
L183.6 -325.648
L183.6 -326.537
L183.6 -327.426
L183.6 -328.315
L183.6 -329.204
L183.6 -330.093
L183.6 -330.983
L183.6 -331.872
L183.6 -332.761
L183.6 -333.65
L183.6 -334.539
L183.6 -335.428
L183.6 -336.317
L183.6 -337.206
L183.6 -338.095
L183.6 -338.984
L183.6 -339.873
L183.6 -340.762
L183.6 -341.651
L183.6 -342.54
L183.6 -343.429
L183.6 -344.318
L183.6 -345.207
L183.6 -346.096
L183.6 -346.985
L183.6 -347.874
L183.6 -348.763
L183.6 -349.652
L183.6 -350.541
L183.6 -351.43
L183.6 -352.319
L183.6 -353.208
L183.6 -354.097
L183.6 -354.986
L183.6 -355.875
L183.6 -356.764
L183.6 -357.653
L183.6 -358.542
L183.6 -359.431
L183.6 -360.32
L183.6 -361.209
L183.6 -362.098
L183.6 -362.987
L183.6 -363.876
L183.6 -364.765
L183.6 -365.654
L183.6 -366.543
L183.6 -367.432
L183.6 -368.321
L183.6 -369.21
L183.6 -370.099
L183.6 -370.988
L183.6 -371.877
L183.6 -372.766
L183.6 -373.655
L183.6 -374.544
L183.6 -375.433
L183.6 -376.322
L183.6 -377.211
L183.6 -378.1
L183.6 -378.989
L183.6 -379.878
L183.6 -380.767
L183.6 -381.656
L183.6 -382.545
L183.6 -383.434
L183.6 -384.323
L183.6 -385.212
L183.6 -386.101
L183.6 -386.99
L183.6 -387.879
L244.328 -387.879
L244.328 -387.879
L251.733 -386.99
L258.532 -386.101
L264.544 -385.212
L269.671 -384.323
L273.894 -383.434
L277.271 -382.545
L279.909 -381.656
L281.952 -380.767
L283.548 -379.878
L284.834 -378.989
L285.92 -378.1
L286.883 -377.211
L287.768 -376.322
L288.585 -375.433
L289.328 -374.544
L289.976 -373.655
L290.508 -372.766
L290.907 -371.877
L291.174 -370.988
L291.324 -370.099
L291.389 -369.21
L291.414 -368.321
L291.448 -367.432
L291.54 -366.543
L291.726 -365.654
L292.025 -364.765
L292.433 -363.876
L292.928 -362.987
L293.469 -362.098
L294.007 -361.209
L294.49 -360.32
L294.871 -359.431
L295.116 -358.542
L295.2 -357.653
L295.113 -356.764
L294.854 -355.875
L294.434 -354.986
L293.868 -354.097
L293.178 -353.208
L292.39 -352.319
L291.531 -351.43
L290.631 -350.541
L289.716 -349.652
L288.81 -348.763
L287.931 -347.874
L287.09 -346.985
L286.295 -346.096
L285.551 -345.207
L284.865 -344.318
L284.247 -343.429
L283.711 -342.54
L283.275 -341.651
L282.96 -340.762
L282.785 -339.873
L282.765 -338.984
L282.905 -338.095
L283.2 -337.206
L283.635 -336.317
L284.181 -335.428
L284.805 -334.539
L285.473 -333.65
L286.151 -332.761
L286.818 -331.872
L287.462 -330.983
L288.083 -330.093
L288.687 -329.204
L289.282 -328.315
L289.871 -327.426
L290.445 -326.537
L290.981 -325.648
L291.447 -324.759
L291.803 -323.87
L292.013 -322.981
L292.052 -322.092
L291.91 -321.203
L291.598 -320.314
L291.144 -319.425
L290.585 -318.536
L289.964 -317.647
L289.317 -316.758
L288.674 -315.869
L288.05 -314.98
L287.448 -314.091
L286.859 -313.202
L286.263 -312.313
L285.626 -311.424
L284.902 -310.535
L284.023 -309.646
L282.901 -308.757
L281.422 -307.868
L279.457 -306.979
L276.863 -306.09
L273.512 -305.201
L269.302 -304.312
L264.184 -303.423
L258.183 -302.534
L251.4 -301.645
L244.017 -300.756
L236.28 -299.867
z
" id="C0_0_6043fc4826"/>
    </defs>
    <g clip-path="url(#pabb9301d13)">
     <use style="fill:#008000;fill-opacity:0.3;stroke:#000000;stroke-opacity:0.3;" x="0.0" xlink:href="#C0_0_6043fc4826" y="432.0"/>
    </g>
   </g>
   <g id="PolyCollection_2">
    <defs>
     <path d="
M130.92 -299.867
L183.6 -299.867
L183.6 -300.756
L183.6 -301.645
L183.6 -302.534
L183.6 -303.423
L183.6 -304.312
L183.6 -305.201
L183.6 -306.09
L183.6 -306.979
L183.6 -307.868
L183.6 -308.757
L183.6 -309.646
L183.6 -310.535
L183.6 -311.424
L183.6 -312.313
L183.6 -313.202
L183.6 -314.091
L183.6 -314.98
L183.6 -315.869
L183.6 -316.758
L183.6 -317.647
L183.6 -318.536
L183.6 -319.425
L183.6 -320.314
L183.6 -321.203
L183.6 -322.092
L183.6 -322.981
L183.6 -323.87
L183.6 -324.759
L183.6 -325.648
L183.6 -326.537
L183.6 -327.426
L183.6 -328.315
L183.6 -329.204
L183.6 -330.093
L183.6 -330.983
L183.6 -331.872
L183.6 -332.761
L183.6 -333.65
L183.6 -334.539
L183.6 -335.428
L183.6 -336.317
L183.6 -337.206
L183.6 -338.095
L183.6 -338.984
L183.6 -339.873
L183.6 -340.762
L183.6 -341.651
L183.6 -342.54
L183.6 -343.429
L183.6 -344.318
L183.6 -345.207
L183.6 -346.096
L183.6 -346.985
L183.6 -347.874
L183.6 -348.763
L183.6 -349.652
L183.6 -350.541
L183.6 -351.43
L183.6 -352.319
L183.6 -353.208
L183.6 -354.097
L183.6 -354.986
L183.6 -355.875
L183.6 -356.764
L183.6 -357.653
L183.6 -358.542
L183.6 -359.431
L183.6 -360.32
L183.6 -361.209
L183.6 -362.098
L183.6 -362.987
L183.6 -363.876
L183.6 -364.765
L183.6 -365.654
L183.6 -366.543
L183.6 -367.432
L183.6 -368.321
L183.6 -369.21
L183.6 -370.099
L183.6 -370.988
L183.6 -371.877
L183.6 -372.766
L183.6 -373.655
L183.6 -374.544
L183.6 -375.433
L183.6 -376.322
L183.6 -377.211
L183.6 -378.1
L183.6 -378.989
L183.6 -379.878
L183.6 -380.767
L183.6 -381.656
L183.6 -382.545
L183.6 -383.434
L183.6 -384.323
L183.6 -385.212
L183.6 -386.101
L183.6 -386.99
L183.6 -387.879
L122.872 -387.879
L122.872 -387.879
L115.467 -386.99
L108.668 -386.101
L102.656 -385.212
L97.529 -384.323
L93.3055 -383.434
L89.9294 -382.545
L87.2906 -381.656
L85.2478 -380.767
L83.652 -379.878
L82.3663 -378.989
L81.2802 -378.1
L80.3166 -377.211
L79.4324 -376.322
L78.6146 -375.433
L77.8716 -374.544
L77.2235 -373.655
L76.6923 -372.766
L76.2927 -371.877
L76.0258 -370.988
L75.8758 -370.099
L75.8108 -369.21
L75.7861 -368.321
L75.7516 -367.432
L75.6596 -366.543
L75.4737 -365.654
L75.1754 -364.765
L74.7671 -363.876
L74.2724 -362.987
L73.7312 -362.098
L73.1934 -361.209
L72.7104 -360.32
L72.3286 -359.431
L72.084 -358.542
L72 -357.653
L72.0873 -356.764
L72.3456 -355.875
L72.7658 -354.986
L73.3316 -354.097
L74.0216 -353.208
L74.8101 -352.319
L75.6689 -351.43
L76.5692 -350.541
L77.4839 -349.652
L78.3899 -348.763
L79.2694 -347.874
L80.1104 -346.985
L80.9054 -346.096
L81.6489 -345.207
L82.3345 -344.318
L82.9526 -343.429
L83.4888 -342.54
L83.9248 -341.651
L84.24 -340.762
L84.415 -339.873
L84.4354 -338.984
L84.2953 -338.095
L83.9998 -337.206
L83.5653 -336.317
L83.0191 -335.428
L82.3946 -334.539
L81.7273 -333.65
L81.0489 -332.761
L80.3819 -331.872
L79.7379 -330.983
L79.1173 -330.093
L78.5133 -329.204
L77.9179 -328.315
L77.3291 -327.426
L76.7554 -326.537
L76.219 -325.648
L75.7532 -324.759
L75.3971 -323.87
L75.1869 -322.981
L75.1483 -322.092
L75.2899 -321.203
L75.6015 -320.314
L76.0558 -319.425
L76.6146 -318.536
L77.2361 -317.647
L77.8826 -316.758
L78.5257 -315.869
L79.1497 -314.98
L79.7517 -314.091
L80.3407 -313.202
L80.9373 -312.313
L81.574 -311.424
L82.2984 -310.535
L83.1772 -309.646
L84.2994 -308.757
L85.7776 -307.868
L87.7434 -306.979
L90.3365 -306.09
L93.688 -305.201
L97.8983 -304.312
L103.016 -303.423
L109.017 -302.534
L115.8 -301.645
L123.183 -300.756
L130.92 -299.867
z
" id="C1_0_7c4a96941c"/>
    </defs>
    <g clip-path="url(#pabb9301d13)">
     <use style="fill:#008000;fill-opacity:0.3;stroke:#000000;stroke-opacity:0.3;" x="0.0" xlink:href="#C1_0_7c4a96941c" y="432.0"/>
    </g>
   </g>
   <g id="PolyCollection_3">
    <defs>
     <path d="
M518.4 -299.936
L406.8 -299.936
L406.8 -300.384
L406.8 -300.833
L406.8 -301.281
L406.8 -301.73
L406.8 -302.178
L406.8 -302.626
L406.8 -303.075
L406.8 -303.523
L406.8 -303.972
L406.8 -304.42
L406.8 -304.868
L406.8 -305.317
L406.8 -305.765
L406.8 -306.213
L406.8 -306.662
L406.8 -307.11
L406.8 -307.559
L406.8 -308.007
L406.8 -308.455
L406.8 -308.904
L406.8 -309.352
L406.8 -309.801
L406.8 -310.249
L406.8 -310.697
L406.8 -311.146
L406.8 -311.594
L406.8 -312.042
L406.8 -312.491
L406.8 -312.939
L406.8 -313.388
L406.8 -313.836
L406.8 -314.284
L406.8 -314.733
L406.8 -315.181
L406.8 -315.63
L406.8 -316.078
L406.8 -316.526
L406.8 -316.975
L406.8 -317.423
L406.8 -317.872
L406.8 -318.32
L406.8 -318.768
L406.8 -319.217
L406.8 -319.665
L406.8 -320.113
L406.8 -320.562
L406.8 -321.01
L406.8 -321.459
L406.8 -321.907
L406.8 -322.355
L406.8 -322.804
L406.8 -323.252
L406.8 -323.701
L406.8 -324.149
L406.8 -324.597
L406.8 -325.046
L406.8 -325.494
L406.8 -325.943
L406.8 -326.391
L406.8 -326.839
L406.8 -327.288
L406.8 -327.736
L406.8 -328.184
L406.8 -328.633
L406.8 -329.081
L406.8 -329.53
L406.8 -329.978
L406.8 -330.426
L406.8 -330.875
L406.8 -331.323
L406.8 -331.772
L406.8 -332.22
L406.8 -332.668
L406.8 -333.117
L406.8 -333.565
L406.8 -334.013
L406.8 -334.462
L406.8 -334.91
L406.8 -335.359
L406.8 -335.807
L406.8 -336.255
L406.8 -336.704
L406.8 -337.152
L406.8 -337.601
L406.8 -338.049
L406.8 -338.497
L406.8 -338.946
L406.8 -339.394
L406.8 -339.843
L406.8 -340.291
L406.8 -340.739
L406.8 -341.188
L406.8 -341.636
L406.8 -342.084
L406.8 -342.533
L406.8 -342.981
L406.8 -343.43
L406.8 -343.878
L406.8 -344.326
L406.917 -344.326
L406.917 -344.326
L406.891 -343.878
L406.849 -343.43
L406.818 -342.981
L406.808 -342.533
L406.815 -342.084
L406.836 -341.636
L406.864 -341.188
L406.879 -340.739
L406.871 -340.291
L406.85 -339.843
L406.834 -339.394
L406.826 -338.946
L406.825 -338.497
L406.842 -338.049
L406.898 -337.601
L407.013 -337.152
L407.185 -336.704
L407.36 -336.255
L407.436 -335.807
L407.36 -335.359
L407.188 -334.91
L407.026 -334.462
L406.93 -334.013
L406.888 -333.565
L406.861 -333.117
L406.835 -332.668
L406.816 -332.22
L406.817 -331.772
L406.843 -331.323
L406.892 -330.875
L406.935 -330.426
L406.933 -329.978
L406.888 -329.53
L406.839 -329.081
L406.812 -328.633
L406.802 -328.184
L406.8 -327.736
L406.801 -327.288
L406.804 -326.839
L406.814 -326.391
L406.833 -325.943
L406.861 -325.494
L406.906 -325.046
L406.973 -324.597
L407.032 -324.149
L407.031 -323.701
L406.965 -323.252
L406.897 -322.804
L406.877 -322.355
L406.894 -321.907
L406.901 -321.459
L406.877 -321.01
L406.843 -320.562
L406.826 -320.113
L406.831 -319.665
L406.84 -319.217
L406.837 -318.768
L406.824 -318.32
L406.81 -317.872
L406.804 -317.423
L406.804 -316.975
L406.812 -316.526
L406.833 -316.078
L406.86 -315.63
L406.883 -315.181
L406.891 -314.733
L406.884 -314.284
L406.862 -313.836
L406.834 -313.388
L406.813 -312.939
L406.804 -312.491
L406.801 -312.042
L406.8 -311.594
L406.8 -311.146
L406.803 -310.697
L406.825 -310.249
L406.921 -309.801
L407.208 -309.352
L407.754 -308.904
L408.36 -308.455
L408.605 -308.007
L408.307 -307.559
L407.738 -307.11
L407.259 -306.662
L406.994 -306.213
L406.893 -305.765
L406.912 -305.317
L407.093 -304.868
L407.492 -304.42
L408.004 -303.972
L408.3 -303.523
L408.137 -303.075
L407.858 -302.626
L408.922 -302.178
L415.446 -301.73
L435.309 -301.281
L472.425 -300.833
L510.459 -300.384
L518.4 -299.936
z
" id="C2_0_4f85f21388"/>
    </defs>
    <g clip-path="url(#pabb9301d13)">
     <use style="fill:#bfbf00;fill-opacity:0.3;stroke:#000000;stroke-opacity:0.3;" x="0.0" xlink:href="#C2_0_4f85f21388" y="432.0"/>
    </g>
   </g>
   <g id="PolyCollection_4">
    <defs>
     <path d="
M295.2 -299.936
L406.8 -299.936
L406.8 -300.384
L406.8 -300.833
L406.8 -301.281
L406.8 -301.73
L406.8 -302.178
L406.8 -302.626
L406.8 -303.075
L406.8 -303.523
L406.8 -303.972
L406.8 -304.42
L406.8 -304.868
L406.8 -305.317
L406.8 -305.765
L406.8 -306.213
L406.8 -306.662
L406.8 -307.11
L406.8 -307.559
L406.8 -308.007
L406.8 -308.455
L406.8 -308.904
L406.8 -309.352
L406.8 -309.801
L406.8 -310.249
L406.8 -310.697
L406.8 -311.146
L406.8 -311.594
L406.8 -312.042
L406.8 -312.491
L406.8 -312.939
L406.8 -313.388
L406.8 -313.836
L406.8 -314.284
L406.8 -314.733
L406.8 -315.181
L406.8 -315.63
L406.8 -316.078
L406.8 -316.526
L406.8 -316.975
L406.8 -317.423
L406.8 -317.872
L406.8 -318.32
L406.8 -318.768
L406.8 -319.217
L406.8 -319.665
L406.8 -320.113
L406.8 -320.562
L406.8 -321.01
L406.8 -321.459
L406.8 -321.907
L406.8 -322.355
L406.8 -322.804
L406.8 -323.252
L406.8 -323.701
L406.8 -324.149
L406.8 -324.597
L406.8 -325.046
L406.8 -325.494
L406.8 -325.943
L406.8 -326.391
L406.8 -326.839
L406.8 -327.288
L406.8 -327.736
L406.8 -328.184
L406.8 -328.633
L406.8 -329.081
L406.8 -329.53
L406.8 -329.978
L406.8 -330.426
L406.8 -330.875
L406.8 -331.323
L406.8 -331.772
L406.8 -332.22
L406.8 -332.668
L406.8 -333.117
L406.8 -333.565
L406.8 -334.013
L406.8 -334.462
L406.8 -334.91
L406.8 -335.359
L406.8 -335.807
L406.8 -336.255
L406.8 -336.704
L406.8 -337.152
L406.8 -337.601
L406.8 -338.049
L406.8 -338.497
L406.8 -338.946
L406.8 -339.394
L406.8 -339.843
L406.8 -340.291
L406.8 -340.739
L406.8 -341.188
L406.8 -341.636
L406.8 -342.084
L406.8 -342.533
L406.8 -342.981
L406.8 -343.43
L406.8 -343.878
L406.8 -344.326
L406.683 -344.326
L406.683 -344.326
L406.709 -343.878
L406.751 -343.43
L406.782 -342.981
L406.792 -342.533
L406.785 -342.084
L406.764 -341.636
L406.736 -341.188
L406.721 -340.739
L406.729 -340.291
L406.75 -339.843
L406.766 -339.394
L406.774 -338.946
L406.775 -338.497
L406.758 -338.049
L406.702 -337.601
L406.587 -337.152
L406.415 -336.704
L406.24 -336.255
L406.164 -335.807
L406.24 -335.359
L406.412 -334.91
L406.574 -334.462
L406.67 -334.013
L406.712 -333.565
L406.739 -333.117
L406.765 -332.668
L406.784 -332.22
L406.783 -331.772
L406.757 -331.323
L406.708 -330.875
L406.665 -330.426
L406.667 -329.978
L406.712 -329.53
L406.761 -329.081
L406.788 -328.633
L406.798 -328.184
L406.8 -327.736
L406.799 -327.288
L406.796 -326.839
L406.786 -326.391
L406.767 -325.943
L406.739 -325.494
L406.694 -325.046
L406.627 -324.597
L406.568 -324.149
L406.569 -323.701
L406.635 -323.252
L406.703 -322.804
L406.723 -322.355
L406.706 -321.907
L406.699 -321.459
L406.723 -321.01
L406.757 -320.562
L406.774 -320.113
L406.769 -319.665
L406.76 -319.217
L406.763 -318.768
L406.776 -318.32
L406.79 -317.872
L406.796 -317.423
L406.796 -316.975
L406.788 -316.526
L406.767 -316.078
L406.74 -315.63
L406.717 -315.181
L406.709 -314.733
L406.716 -314.284
L406.738 -313.836
L406.766 -313.388
L406.787 -312.939
L406.796 -312.491
L406.799 -312.042
L406.8 -311.594
L406.8 -311.146
L406.797 -310.697
L406.775 -310.249
L406.679 -309.801
L406.392 -309.352
L405.846 -308.904
L405.24 -308.455
L404.995 -308.007
L405.293 -307.559
L405.862 -307.11
L406.341 -306.662
L406.606 -306.213
L406.707 -305.765
L406.688 -305.317
L406.507 -304.868
L406.108 -304.42
L405.596 -303.972
L405.3 -303.523
L405.463 -303.075
L405.742 -302.626
L404.678 -302.178
L398.154 -301.73
L378.291 -301.281
L341.175 -300.833
L303.141 -300.384
L295.2 -299.936
z
" id="C3_0_861456ca92"/>
    </defs>
    <g clip-path="url(#pabb9301d13)">
     <use style="fill:#bfbf00;fill-opacity:0.3;stroke:#000000;stroke-opacity:0.3;" x="0.0" xlink:href="#C3_0_861456ca92" y="432.0"/>
    </g>
   </g>
   <g id="matplotlib.axis_1">
    <g id="xtick_1">
     <g id="line2d_1">
      <path clip-path="url(#pabb9301d13)" d="
M72 132.141
L72 43.2" style="fill:none;stroke:#000000;stroke-dasharray:1.000000,3.000000;stroke-dashoffset:0.0;stroke-width:0.5;"/>
     </g>
     <g id="line2d_2">
      <defs>
       <path d="
M0 0
L0 -4" id="m93b0483c22" style="stroke:#000000;stroke-width:0.5;"/>
      </defs>
      <g>
       <use style="stroke:#000000;stroke-width:0.5;" x="72.0" xlink:href="#m93b0483c22" y="132.141176471"/>
      </g>
     </g>
     <g id="line2d_3">
      <defs>
       <path d="
M0 0
L0 4" id="m741efc42ff" style="stroke:#000000;stroke-width:0.5;"/>
      </defs>
      <g>
       <use style="stroke:#000000;stroke-width:0.5;" x="72.0" xlink:href="#m741efc42ff" y="43.2"/>
      </g>
     </g>
    </g>
    <g id="xtick_2">
     <g id="line2d_4">
      <path clip-path="url(#pabb9301d13)" d="
M127.8 132.141
L127.8 43.2" style="fill:none;stroke:#000000;stroke-dasharray:1.000000,3.000000;stroke-dashoffset:0.0;stroke-width:0.5;"/>
     </g>
     <g id="line2d_5">
      <g>
       <use style="stroke:#000000;stroke-width:0.5;" x="127.800000012" xlink:href="#m93b0483c22" y="132.141176471"/>
      </g>
     </g>
     <g id="line2d_6">
      <g>
       <use style="stroke:#000000;stroke-width:0.5;" x="127.800000012" xlink:href="#m741efc42ff" y="43.2"/>
      </g>
     </g>
    </g>
    <g id="xtick_3">
     <g id="line2d_7">
      <path clip-path="url(#pabb9301d13)" d="
M183.6 132.141
L183.6 43.2" style="fill:none;stroke:#000000;stroke-dasharray:1.000000,3.000000;stroke-dashoffset:0.0;stroke-width:0.5;"/>
     </g>
     <g id="line2d_8">
      <g>
       <use style="stroke:#000000;stroke-width:0.5;" x="183.599999994" xlink:href="#m93b0483c22" y="132.141176471"/>
      </g>
     </g>
     <g id="line2d_9">
      <g>
       <use style="stroke:#000000;stroke-width:0.5;" x="183.599999994" xlink:href="#m741efc42ff" y="43.2"/>
      </g>
     </g>
    </g>
    <g id="xtick_4">
     <g id="line2d_10">
      <path clip-path="url(#pabb9301d13)" d="
M239.4 132.141
L239.4 43.2" style="fill:none;stroke:#000000;stroke-dasharray:1.000000,3.000000;stroke-dashoffset:0.0;stroke-width:0.5;"/>
     </g>
     <g id="line2d_11">
      <g>
       <use style="stroke:#000000;stroke-width:0.5;" x="239.400000006" xlink:href="#m93b0483c22" y="132.141176471"/>
      </g>
     </g>
     <g id="line2d_12">
      <g>
       <use style="stroke:#000000;stroke-width:0.5;" x="239.400000006" xlink:href="#m741efc42ff" y="43.2"/>
      </g>
     </g>
    </g>
    <g id="xtick_5">
     <g id="line2d_13">
      <path clip-path="url(#pabb9301d13)" d="
M295.2 132.141
L295.2 43.2" style="fill:none;stroke:#000000;stroke-dasharray:1.000000,3.000000;stroke-dashoffset:0.0;stroke-width:0.5;"/>
     </g>
     <g id="line2d_14">
      <g>
       <use style="stroke:#000000;stroke-width:0.5;" x="295.199999988" xlink:href="#m93b0483c22" y="132.141176471"/>
      </g>
     </g>
     <g id="line2d_15">
      <g>
       <use style="stroke:#000000;stroke-width:0.5;" x="295.199999988" xlink:href="#m741efc42ff" y="43.2"/>
      </g>
     </g>
    </g>
    <g id="xtick_6">
     <g id="line2d_16">
      <path clip-path="url(#pabb9301d13)" d="
M351 132.141
L351 43.2" style="fill:none;stroke:#000000;stroke-dasharray:1.000000,3.000000;stroke-dashoffset:0.0;stroke-width:0.5;"/>
     </g>
     <g id="line2d_17">
      <g>
       <use style="stroke:#000000;stroke-width:0.5;" x="351.0" xlink:href="#m93b0483c22" y="132.141176471"/>
      </g>
     </g>
     <g id="line2d_18">
      <g>
       <use style="stroke:#000000;stroke-width:0.5;" x="351.0" xlink:href="#m741efc42ff" y="43.2"/>
      </g>
     </g>
    </g>
    <g id="xtick_7">
     <g id="line2d_19">
      <path clip-path="url(#pabb9301d13)" d="
M406.8 132.141
L406.8 43.2" style="fill:none;stroke:#000000;stroke-dasharray:1.000000,3.000000;stroke-dashoffset:0.0;stroke-width:0.5;"/>
     </g>
     <g id="line2d_20">
      <g>
       <use style="stroke:#000000;stroke-width:0.5;" x="406.800000012" xlink:href="#m93b0483c22" y="132.141176471"/>
      </g>
     </g>
     <g id="line2d_21">
      <g>
       <use style="stroke:#000000;stroke-width:0.5;" x="406.800000012" xlink:href="#m741efc42ff" y="43.2"/>
      </g>
     </g>
    </g>
    <g id="xtick_8">
     <g id="line2d_22">
      <path clip-path="url(#pabb9301d13)" d="
M462.6 132.141
L462.6 43.2" style="fill:none;stroke:#000000;stroke-dasharray:1.000000,3.000000;stroke-dashoffset:0.0;stroke-width:0.5;"/>
     </g>
     <g id="line2d_23">
      <g>
       <use style="stroke:#000000;stroke-width:0.5;" x="462.599999994" xlink:href="#m93b0483c22" y="132.141176471"/>
      </g>
     </g>
     <g id="line2d_24">
      <g>
       <use style="stroke:#000000;stroke-width:0.5;" x="462.599999994" xlink:href="#m741efc42ff" y="43.2"/>
      </g>
     </g>
    </g>
    <g id="xtick_9">
     <g id="line2d_25">
      <path clip-path="url(#pabb9301d13)" d="
M518.4 132.141
L518.4 43.2" style="fill:none;stroke:#000000;stroke-dasharray:1.000000,3.000000;stroke-dashoffset:0.0;stroke-width:0.5;"/>
     </g>
     <g id="line2d_26">
      <g>
       <use style="stroke:#000000;stroke-width:0.5;" x="518.400000006" xlink:href="#m93b0483c22" y="132.141176471"/>
      </g>
     </g>
     <g id="line2d_27">
      <g>
       <use style="stroke:#000000;stroke-width:0.5;" x="518.400000006" xlink:href="#m741efc42ff" y="43.2"/>
      </g>
     </g>
    </g>
   </g>
   <g id="matplotlib.axis_2">
    <g id="ytick_1">
     <g id="line2d_28">
      <path clip-path="url(#pabb9301d13)" d="
M72 132.141
L518.4 132.141" style="fill:none;stroke:#000000;stroke-dasharray:1.000000,3.000000;stroke-dashoffset:0.0;stroke-width:0.5;"/>
     </g>
     <g id="line2d_29">
      <defs>
       <path d="
M0 0
L4 0" id="m728421d6d4" style="stroke:#000000;stroke-width:0.5;"/>
      </defs>
      <g>
       <use style="stroke:#000000;stroke-width:0.5;" x="72.0" xlink:href="#m728421d6d4" y="132.141176471"/>
      </g>
     </g>
     <g id="line2d_30">
      <defs>
       <path d="
M0 0
L-4 0" id="mcb0005524f" style="stroke:#000000;stroke-width:0.5;"/>
      </defs>
      <g>
       <use style="stroke:#000000;stroke-width:0.5;" x="518.4" xlink:href="#mcb0005524f" y="132.141176471"/>
      </g>
     </g>
     <g id="text_1">
      <!-- 0 -->
      <defs>
       <path d="
M4.15625 35.2969
Q4.15625 48 6.76562 55.7344
Q9.375 63.4844 14.5156 67.6719
Q19.6719 71.875 27.4844 71.875
Q33.25 71.875 37.5938 69.5469
Q41.9375 67.2344 44.7656 62.8594
Q47.6094 58.5 49.2188 52.2188
Q50.8281 45.9531 50.8281 35.2969
Q50.8281 22.7031 48.2344 14.9688
Q45.6562 7.23438 40.5 3
Q35.3594 -1.21875 27.4844 -1.21875
Q17.1406 -1.21875 11.2344 6.20312
Q4.15625 15.1406 4.15625 35.2969
M13.1875 35.2969
Q13.1875 17.6719 17.3125 11.8281
Q21.4375 6 27.4844 6
Q33.5469 6 37.6719 11.8594
Q41.7969 17.7188 41.7969 35.2969
Q41.7969 52.9844 37.6719 58.7812
Q33.5469 64.5938 27.3906 64.5938
Q21.3438 64.5938 17.7188 59.4688
Q13.1875 52.9375 13.1875 35.2969" id="ArialMT-30"/>
      </defs>
      <g transform="translate(64.26625 134.209301471)scale(0.08 -0.08)">
       <use xlink:href="#ArialMT-30"/>
      </g>
     </g>
    </g>
    <g id="ytick_2">
     <g id="line2d_31">
      <path clip-path="url(#pabb9301d13)" d="
M72 114.353
L518.4 114.353" style="fill:none;stroke:#000000;stroke-dasharray:1.000000,3.000000;stroke-dashoffset:0.0;stroke-width:0.5;"/>
     </g>
     <g id="line2d_32">
      <g>
       <use style="stroke:#000000;stroke-width:0.5;" x="72.0" xlink:href="#m728421d6d4" y="114.352941176"/>
      </g>
     </g>
     <g id="line2d_33">
      <g>
       <use style="stroke:#000000;stroke-width:0.5;" x="518.4" xlink:href="#mcb0005524f" y="114.352941176"/>
      </g>
     </g>
     <g id="text_2">
      <!-- 0.2 -->
      <defs>
       <path d="
M9.07812 0
L9.07812 10.0156
L19.0938 10.0156
L19.0938 0
z
" id="ArialMT-2e"/>
       <path d="
M50.3438 8.45312
L50.3438 0
L3.03125 0
Q2.9375 3.17188 4.04688 6.10938
Q5.85938 10.9375 9.82812 15.625
Q13.8125 20.3125 21.3438 26.4688
Q33.0156 36.0312 37.1094 41.625
Q41.2188 47.2188 41.2188 52.2031
Q41.2188 57.4219 37.4688 61
Q33.7344 64.5938 27.7344 64.5938
Q21.3906 64.5938 17.5781 60.7812
Q13.7656 56.9844 13.7188 50.25
L4.6875 51.1719
Q5.60938 61.2812 11.6562 66.5781
Q17.7188 71.875 27.9375 71.875
Q38.2344 71.875 44.2344 66.1562
Q50.25 60.4531 50.25 52
Q50.25 47.7031 48.4844 43.5469
Q46.7344 39.4062 42.6562 34.8125
Q38.5781 30.2188 29.1094 22.2188
Q21.1875 15.5781 18.9375 13.2031
Q16.7031 10.8438 15.2344 8.45312
z
" id="ArialMT-32"/>
      </defs>
      <g transform="translate(57.63375 116.421066176)scale(0.08 -0.08)">
       <use xlink:href="#ArialMT-30"/>
       <use x="55.615234375" xlink:href="#ArialMT-2e"/>
       <use x="83.3984375" xlink:href="#ArialMT-32"/>
      </g>
     </g>
    </g>
    <g id="ytick_3">
     <g id="line2d_34">
      <path clip-path="url(#pabb9301d13)" d="
M72 96.5647
L518.4 96.5647" style="fill:none;stroke:#000000;stroke-dasharray:1.000000,3.000000;stroke-dashoffset:0.0;stroke-width:0.5;"/>
     </g>
     <g id="line2d_35">
      <g>
       <use style="stroke:#000000;stroke-width:0.5;" x="72.0" xlink:href="#m728421d6d4" y="96.5647058824"/>
      </g>
     </g>
     <g id="line2d_36">
      <g>
       <use style="stroke:#000000;stroke-width:0.5;" x="518.4" xlink:href="#mcb0005524f" y="96.5647058824"/>
      </g>
     </g>
     <g id="text_3">
      <!-- 0.4 -->
      <defs>
       <path d="
M32.3281 0
L32.3281 17.1406
L1.26562 17.1406
L1.26562 25.2031
L33.9375 71.5781
L41.1094 71.5781
L41.1094 25.2031
L50.7812 25.2031
L50.7812 17.1406
L41.1094 17.1406
L41.1094 0
z

M32.3281 25.2031
L32.3281 57.4688
L9.90625 25.2031
z
" id="ArialMT-34"/>
      </defs>
      <g transform="translate(57.59875 98.6328308824)scale(0.08 -0.08)">
       <use xlink:href="#ArialMT-30"/>
       <use x="55.615234375" xlink:href="#ArialMT-2e"/>
       <use x="83.3984375" xlink:href="#ArialMT-34"/>
      </g>
     </g>
    </g>
    <g id="ytick_4">
     <g id="line2d_37">
      <path clip-path="url(#pabb9301d13)" d="
M72 78.7765
L518.4 78.7765" style="fill:none;stroke:#000000;stroke-dasharray:1.000000,3.000000;stroke-dashoffset:0.0;stroke-width:0.5;"/>
     </g>
     <g id="line2d_38">
      <g>
       <use style="stroke:#000000;stroke-width:0.5;" x="72.0" xlink:href="#m728421d6d4" y="78.7764705882"/>
      </g>
     </g>
     <g id="line2d_39">
      <g>
       <use style="stroke:#000000;stroke-width:0.5;" x="518.4" xlink:href="#mcb0005524f" y="78.7764705882"/>
      </g>
     </g>
     <g id="text_4">
      <!-- 0.6 -->
      <defs>
       <path d="
M49.75 54.0469
L41.0156 53.375
Q39.8438 58.5469 37.7031 60.8906
Q34.125 64.6562 28.9062 64.6562
Q24.7031 64.6562 21.5312 62.3125
Q17.3906 59.2812 14.9844 53.4688
Q12.5938 47.6562 12.5 36.9219
Q15.6719 41.75 20.2656 44.0938
Q24.8594 46.4375 29.8906 46.4375
Q38.6719 46.4375 44.8438 39.9688
Q51.0312 33.5 51.0312 23.25
Q51.0312 16.5 48.125 10.7188
Q45.2188 4.9375 40.1406 1.85938
Q35.0625 -1.21875 28.6094 -1.21875
Q17.625 -1.21875 10.6875 6.85938
Q3.76562 14.9375 3.76562 33.5
Q3.76562 54.25 11.4219 63.6719
Q18.1094 71.875 29.4375 71.875
Q37.8906 71.875 43.2812 67.1406
Q48.6875 62.4062 49.75 54.0469
M13.875 23.1875
Q13.875 18.6562 15.7969 14.5
Q17.7188 10.3594 21.1875 8.17188
Q24.6562 6 28.4688 6
Q34.0312 6 38.0312 10.4844
Q42.0469 14.9844 42.0469 22.7031
Q42.0469 30.125 38.0781 34.3906
Q34.125 38.6719 28.125 38.6719
Q22.1719 38.6719 18.0156 34.3906
Q13.875 30.125 13.875 23.1875" id="ArialMT-36"/>
      </defs>
      <g transform="translate(57.57875 80.8445955882)scale(0.08 -0.08)">
       <use xlink:href="#ArialMT-30"/>
       <use x="55.615234375" xlink:href="#ArialMT-2e"/>
       <use x="83.3984375" xlink:href="#ArialMT-36"/>
      </g>
     </g>
    </g>
    <g id="ytick_5">
     <g id="line2d_40">
      <path clip-path="url(#pabb9301d13)" d="
M72 60.9882
L518.4 60.9882" style="fill:none;stroke:#000000;stroke-dasharray:1.000000,3.000000;stroke-dashoffset:0.0;stroke-width:0.5;"/>
     </g>
     <g id="line2d_41">
      <g>
       <use style="stroke:#000000;stroke-width:0.5;" x="72.0" xlink:href="#m728421d6d4" y="60.9882352941"/>
      </g>
     </g>
     <g id="line2d_42">
      <g>
       <use style="stroke:#000000;stroke-width:0.5;" x="518.4" xlink:href="#mcb0005524f" y="60.9882352941"/>
      </g>
     </g>
     <g id="text_5">
      <!-- 0.8 -->
      <defs>
       <path d="
M17.6719 38.8125
Q12.2031 40.8281 9.5625 44.5312
Q6.9375 48.25 6.9375 53.4219
Q6.9375 61.2344 12.5469 66.5469
Q18.1719 71.875 27.4844 71.875
Q36.8594 71.875 42.5781 66.4219
Q48.2969 60.9844 48.2969 53.1719
Q48.2969 48.1875 45.6719 44.5
Q43.0625 40.8281 37.75 38.8125
Q44.3438 36.6719 47.7812 31.875
Q51.2188 27.0938 51.2188 20.4531
Q51.2188 11.2812 44.7188 5.03125
Q38.2344 -1.21875 27.6406 -1.21875
Q17.0469 -1.21875 10.5469 5.04688
Q4.04688 11.3281 4.04688 20.7031
Q4.04688 27.6875 7.59375 32.3906
Q11.1406 37.1094 17.6719 38.8125
M15.9219 53.7188
Q15.9219 48.6406 19.1875 45.4062
Q22.4688 42.1875 27.6875 42.1875
Q32.7656 42.1875 36.0156 45.375
Q39.2656 48.5781 39.2656 53.2188
Q39.2656 58.0625 35.9062 61.3594
Q32.5625 64.6562 27.5938 64.6562
Q22.5625 64.6562 19.2344 61.4219
Q15.9219 58.2031 15.9219 53.7188
M13.0938 20.6562
Q13.0938 16.8906 14.875 13.375
Q16.6562 9.85938 20.1719 7.92188
Q23.6875 6 27.7344 6
Q34.0312 6 38.125 10.0469
Q42.2344 14.1094 42.2344 20.3594
Q42.2344 26.7031 38.0156 30.8594
Q33.7969 35.0156 27.4375 35.0156
Q21.2344 35.0156 17.1562 30.9062
Q13.0938 26.8125 13.0938 20.6562" id="ArialMT-38"/>
      </defs>
      <g transform="translate(57.56375 63.0563602941)scale(0.08 -0.08)">
       <use xlink:href="#ArialMT-30"/>
       <use x="55.615234375" xlink:href="#ArialMT-2e"/>
       <use x="83.3984375" xlink:href="#ArialMT-38"/>
      </g>
     </g>
    </g>
    <g id="ytick_6">
     <g id="line2d_43">
      <path clip-path="url(#pabb9301d13)" d="
M72 43.2
L518.4 43.2" style="fill:none;stroke:#000000;stroke-dasharray:1.000000,3.000000;stroke-dashoffset:0.0;stroke-width:0.5;"/>
     </g>
     <g id="line2d_44">
      <g>
       <use style="stroke:#000000;stroke-width:0.5;" x="72.0" xlink:href="#m728421d6d4" y="43.2"/>
      </g>
     </g>
     <g id="line2d_45">
      <g>
       <use style="stroke:#000000;stroke-width:0.5;" x="518.4" xlink:href="#mcb0005524f" y="43.2"/>
      </g>
     </g>
     <g id="text_6">
      <!-- 1 -->
      <defs>
       <path d="
M37.25 0
L28.4688 0
L28.4688 56
Q25.2969 52.9844 20.1406 49.9531
Q14.9844 46.9219 10.8906 45.4062
L10.8906 53.9062
Q18.2656 57.375 23.7812 62.2969
Q29.2969 67.2344 31.5938 71.875
L37.25 71.875
z
" id="ArialMT-31"/>
      </defs>
      <g transform="translate(65.89125 45.268125)scale(0.08 -0.08)">
       <use xlink:href="#ArialMT-31"/>
      </g>
     </g>
    </g>
    <g id="text_7">
     <!-- s_1996_1 -->
     <defs>
      <path d="
M5.46875 16.5469
L13.9219 17.3281
Q14.9844 11.375 18.0156 8.6875
Q21.0469 6 25.7812 6
Q29.8281 6 32.875 7.85938
Q35.9375 9.71875 37.8906 12.8125
Q39.8438 15.9219 41.1562 21.1875
Q42.4844 26.4688 42.4844 31.9375
Q42.4844 32.5156 42.4375 33.6875
Q39.7969 29.5 35.2344 26.875
Q30.6719 24.2656 25.3438 24.2656
Q16.4531 24.2656 10.2969 30.7031
Q4.15625 37.1562 4.15625 47.7031
Q4.15625 58.5938 10.5781 65.2344
Q17 71.875 26.6562 71.875
Q33.6406 71.875 39.4219 68.1094
Q45.2188 64.3594 48.2188 57.3906
Q51.2188 50.4375 51.2188 37.25
Q51.2188 23.5312 48.2344 15.4062
Q45.2656 7.28125 39.375 3.03125
Q33.5 -1.21875 25.5938 -1.21875
Q17.1875 -1.21875 11.8594 3.4375
Q6.54688 8.10938 5.46875 16.5469
M41.4531 48.1406
Q41.4531 55.7188 37.4219 60.1562
Q33.4062 64.5938 27.7344 64.5938
Q21.875 64.5938 17.5312 59.8125
Q13.1875 55.0312 13.1875 47.4062
Q13.1875 40.5781 17.3125 36.2969
Q21.4375 32.0312 27.4844 32.0312
Q33.5938 32.0312 37.5156 36.2969
Q41.4531 40.5781 41.4531 48.1406" id="ArialMT-39"/>
      <path d="
M-1.51562 -19.875
L-1.51562 -13.5312
L56.7344 -13.5312
L56.7344 -19.875
z
" id="ArialMT-5f"/>
      <path d="
M3.07812 15.4844
L11.7656 16.8438
Q12.5 11.625 15.8438 8.84375
Q19.1875 6.0625 25.2031 6.0625
Q31.25 6.0625 34.1719 8.51562
Q37.1094 10.9844 37.1094 14.3125
Q37.1094 17.2812 34.5156 19
Q32.7188 20.1719 25.5312 21.9688
Q15.875 24.4219 12.1406 26.2031
Q8.40625 27.9844 6.46875 31.125
Q4.54688 34.2812 4.54688 38.0938
Q4.54688 41.5469 6.125 44.5
Q7.71875 47.4688 10.4531 49.4219
Q12.5 50.9219 16.0312 51.9688
Q19.5781 53.0312 23.6406 53.0312
Q29.7344 53.0312 34.3438 51.2656
Q38.9688 49.5156 41.1562 46.5
Q43.3594 43.5 44.1875 38.4844
L35.5938 37.3125
Q35.0156 41.3125 32.2031 43.5469
Q29.3906 45.7969 24.2656 45.7969
Q18.2188 45.7969 15.625 43.7969
Q13.0312 41.7969 13.0312 39.1094
Q13.0312 37.4062 14.1094 36.0312
Q15.1875 34.625 17.4844 33.6875
Q18.7969 33.2031 25.25 31.4531
Q34.5781 28.9531 38.25 27.3594
Q41.9375 25.7812 44.0312 22.75
Q46.1406 19.7344 46.1406 15.2344
Q46.1406 10.8438 43.5781 6.95312
Q41.0156 3.07812 36.1719 0.953125
Q31.3438 -1.17188 25.25 -1.17188
Q15.1406 -1.17188 9.84375 3.03125
Q4.54688 7.23438 3.07812 15.4844" id="ArialMT-73"/>
     </defs>
     <g transform="translate(50.17875 112.740275735)rotate(-90.0)scale(0.12 -0.12)">
      <use xlink:href="#ArialMT-73"/>
      <use x="50.0" xlink:href="#ArialMT-5f"/>
      <use x="105.615234375" xlink:href="#ArialMT-31"/>
      <use x="161.23046875" xlink:href="#ArialMT-39"/>
      <use x="216.845703125" xlink:href="#ArialMT-39"/>
      <use x="272.4609375" xlink:href="#ArialMT-36"/>
      <use x="328.076171875" xlink:href="#ArialMT-5f"/>
      <use x="383.69140625" xlink:href="#ArialMT-31"/>
     </g>
    </g>
   </g>
   <g id="patch_3">
    <path d="
M72 43.2
L518.4 43.2" style="fill:none;stroke:#000000;"/>
   </g>
   <g id="patch_4">
    <path d="
M518.4 132.141
L518.4 43.2" style="fill:none;stroke:#000000;"/>
   </g>
   <g id="patch_5">
    <path d="
M72 132.141
L518.4 132.141" style="fill:none;stroke:#000000;"/>
   </g>
   <g id="patch_6">
    <path d="
M72 132.141
L72 43.2" style="fill:none;stroke:#000000;"/>
   </g>
  </g>
  <g id="axes_2">
   <g id="patch_7">
    <path d="
M72 238.871
L518.4 238.871
L518.4 149.929
L72 149.929
z
" style="fill:#ffffff;"/>
   </g>
   <g id="PolyCollection_5">
    <defs>
     <path d="
M238.405 -193.147
L183.6 -193.147
L183.6 -194.036
L183.6 -194.925
L183.6 -195.814
L183.6 -196.703
L183.6 -197.592
L183.6 -198.481
L183.6 -199.37
L183.6 -200.259
L183.6 -201.148
L183.6 -202.037
L183.6 -202.926
L183.6 -203.815
L183.6 -204.704
L183.6 -205.593
L183.6 -206.482
L183.6 -207.371
L183.6 -208.26
L183.6 -209.149
L183.6 -210.038
L183.6 -210.927
L183.6 -211.816
L183.6 -212.705
L183.6 -213.594
L183.6 -214.483
L183.6 -215.372
L183.6 -216.261
L183.6 -217.15
L183.6 -218.039
L183.6 -218.928
L183.6 -219.817
L183.6 -220.706
L183.6 -221.595
L183.6 -222.484
L183.6 -223.373
L183.6 -224.262
L183.6 -225.151
L183.6 -226.04
L183.6 -226.929
L183.6 -227.818
L183.6 -228.707
L183.6 -229.596
L183.6 -230.485
L183.6 -231.374
L183.6 -232.263
L183.6 -233.152
L183.6 -234.041
L183.6 -234.93
L183.6 -235.819
L183.6 -236.708
L183.6 -237.597
L183.6 -238.487
L183.6 -239.376
L183.6 -240.265
L183.6 -241.154
L183.6 -242.043
L183.6 -242.932
L183.6 -243.821
L183.6 -244.71
L183.6 -245.599
L183.6 -246.488
L183.6 -247.377
L183.6 -248.266
L183.6 -249.155
L183.6 -250.044
L183.6 -250.933
L183.6 -251.822
L183.6 -252.711
L183.6 -253.6
L183.6 -254.489
L183.6 -255.378
L183.6 -256.267
L183.6 -257.156
L183.6 -258.045
L183.6 -258.934
L183.6 -259.823
L183.6 -260.712
L183.6 -261.601
L183.6 -262.49
L183.6 -263.379
L183.6 -264.268
L183.6 -265.157
L183.6 -266.046
L183.6 -266.935
L183.6 -267.824
L183.6 -268.713
L183.6 -269.602
L183.6 -270.491
L183.6 -271.38
L183.6 -272.269
L183.6 -273.158
L183.6 -274.047
L183.6 -274.936
L183.6 -275.825
L183.6 -276.714
L183.6 -277.603
L183.6 -278.492
L183.6 -279.381
L183.6 -280.27
L183.6 -281.159
L243.258 -281.159
L243.258 -281.159
L250.534 -280.27
L257.261 -279.381
L263.264 -278.492
L268.443 -277.603
L272.777 -276.714
L276.314 -275.825
L279.16 -274.936
L281.453 -274.047
L283.342 -273.158
L284.963 -272.269
L286.425 -271.38
L287.801 -270.491
L289.12 -269.602
L290.379 -268.713
L291.546 -267.824
L292.575 -266.935
L293.416 -266.046
L294.029 -265.157
L294.388 -264.268
L294.485 -263.379
L294.333 -262.49
L293.956 -261.601
L293.395 -260.712
L292.695 -259.823
L291.903 -258.934
L291.072 -258.045
L290.249 -257.156
L289.484 -256.267
L288.822 -255.378
L288.304 -254.489
L287.963 -253.6
L287.823 -252.711
L287.891 -251.822
L288.156 -250.933
L288.591 -250.044
L289.151 -249.155
L289.783 -248.266
L290.424 -247.377
L291.017 -246.488
L291.511 -245.599
L291.869 -244.71
L292.071 -243.821
L292.113 -242.932
L292.006 -242.043
L291.774 -241.154
L291.447 -240.265
L291.057 -239.376
L290.633 -238.487
L290.201 -237.597
L289.774 -236.708
L289.356 -235.819
L288.941 -234.93
L288.516 -234.041
L288.065 -233.152
L287.574 -232.263
L287.032 -231.374
L286.44 -230.485
L285.808 -229.596
L285.156 -228.707
L284.513 -227.818
L283.911 -226.929
L283.384 -226.04
L282.965 -225.151
L282.68 -224.262
L282.549 -223.373
L282.585 -222.484
L282.79 -221.595
L283.164 -220.706
L283.697 -219.817
L284.378 -218.928
L285.189 -218.039
L286.111 -217.15
L287.122 -216.261
L288.196 -215.372
L289.302 -214.483
L290.407 -213.594
L291.473 -212.705
L292.463 -211.816
L293.341 -210.927
L294.075 -210.038
L294.639 -209.149
L295.018 -208.26
L295.2 -207.371
L295.18 -206.482
L294.952 -205.593
L294.499 -204.704
L293.794 -203.815
L292.783 -202.926
L291.392 -202.037
L289.517 -201.148
L287.042 -200.259
L283.841 -199.37
L279.807 -198.481
L274.863 -197.592
L268.991 -196.703
L262.243 -195.814
L254.751 -194.925
L246.717 -194.036
L238.405 -193.147
z
" id="C4_0_097d81ee4d"/>
    </defs>
    <g clip-path="url(#p82736d9a3e)">
     <use style="fill:#008000;fill-opacity:0.3;stroke:#000000;stroke-opacity:0.3;" x="0.0" xlink:href="#C4_0_097d81ee4d" y="432.0"/>
    </g>
   </g>
   <g id="PolyCollection_6">
    <defs>
     <path d="
M128.795 -193.147
L183.6 -193.147
L183.6 -194.036
L183.6 -194.925
L183.6 -195.814
L183.6 -196.703
L183.6 -197.592
L183.6 -198.481
L183.6 -199.37
L183.6 -200.259
L183.6 -201.148
L183.6 -202.037
L183.6 -202.926
L183.6 -203.815
L183.6 -204.704
L183.6 -205.593
L183.6 -206.482
L183.6 -207.371
L183.6 -208.26
L183.6 -209.149
L183.6 -210.038
L183.6 -210.927
L183.6 -211.816
L183.6 -212.705
L183.6 -213.594
L183.6 -214.483
L183.6 -215.372
L183.6 -216.261
L183.6 -217.15
L183.6 -218.039
L183.6 -218.928
L183.6 -219.817
L183.6 -220.706
L183.6 -221.595
L183.6 -222.484
L183.6 -223.373
L183.6 -224.262
L183.6 -225.151
L183.6 -226.04
L183.6 -226.929
L183.6 -227.818
L183.6 -228.707
L183.6 -229.596
L183.6 -230.485
L183.6 -231.374
L183.6 -232.263
L183.6 -233.152
L183.6 -234.041
L183.6 -234.93
L183.6 -235.819
L183.6 -236.708
L183.6 -237.597
L183.6 -238.487
L183.6 -239.376
L183.6 -240.265
L183.6 -241.154
L183.6 -242.043
L183.6 -242.932
L183.6 -243.821
L183.6 -244.71
L183.6 -245.599
L183.6 -246.488
L183.6 -247.377
L183.6 -248.266
L183.6 -249.155
L183.6 -250.044
L183.6 -250.933
L183.6 -251.822
L183.6 -252.711
L183.6 -253.6
L183.6 -254.489
L183.6 -255.378
L183.6 -256.267
L183.6 -257.156
L183.6 -258.045
L183.6 -258.934
L183.6 -259.823
L183.6 -260.712
L183.6 -261.601
L183.6 -262.49
L183.6 -263.379
L183.6 -264.268
L183.6 -265.157
L183.6 -266.046
L183.6 -266.935
L183.6 -267.824
L183.6 -268.713
L183.6 -269.602
L183.6 -270.491
L183.6 -271.38
L183.6 -272.269
L183.6 -273.158
L183.6 -274.047
L183.6 -274.936
L183.6 -275.825
L183.6 -276.714
L183.6 -277.603
L183.6 -278.492
L183.6 -279.381
L183.6 -280.27
L183.6 -281.159
L123.942 -281.159
L123.942 -281.159
L116.666 -280.27
L109.939 -279.381
L103.936 -278.492
L98.7569 -277.603
L94.4234 -276.714
L90.8859 -275.825
L88.0399 -274.936
L85.7468 -274.047
L83.8583 -273.158
L82.2372 -272.269
L80.7747 -271.38
L79.3992 -270.491
L78.0797 -269.602
L76.8208 -268.713
L75.6539 -267.824
L74.6254 -266.935
L73.784 -266.046
L73.1709 -265.157
L72.812 -264.268
L72.7146 -263.379
L72.8674 -262.49
L73.2436 -261.601
L73.8048 -260.712
L74.5054 -259.823
L75.2966 -258.934
L76.1283 -258.045
L76.9509 -257.156
L77.7162 -256.267
L78.3784 -255.378
L78.8965 -254.489
L79.2367 -253.6
L79.3768 -252.711
L79.3093 -251.822
L79.0443 -250.933
L78.6094 -250.044
L78.0486 -249.155
L77.4173 -248.266
L76.7758 -247.377
L76.183 -246.488
L75.689 -245.599
L75.3309 -244.71
L75.1289 -243.821
L75.0869 -242.932
L75.1935 -242.043
L75.4257 -241.154
L75.7532 -240.265
L76.1435 -239.376
L76.5665 -238.487
L76.9987 -237.597
L77.4258 -236.708
L77.8439 -235.819
L78.2589 -234.93
L78.6838 -234.041
L79.1346 -233.152
L79.6263 -232.263
L80.168 -231.374
L80.7598 -230.485
L81.3918 -229.596
L82.0436 -228.707
L82.6872 -227.818
L83.2894 -226.929
L83.816 -226.04
L84.2351 -225.151
L84.5199 -224.262
L84.6506 -223.373
L84.6153 -222.484
L84.4097 -221.595
L84.0361 -220.706
L83.5028 -219.817
L82.8225 -218.928
L82.0113 -218.039
L81.0888 -217.15
L80.0776 -216.261
L79.0039 -215.372
L77.8979 -214.483
L76.7934 -213.594
L75.7273 -212.705
L74.7372 -211.816
L73.8593 -210.927
L73.1254 -210.038
L72.5607 -209.149
L72.1823 -208.26
L72 -207.371
L72.0198 -206.482
L72.2484 -205.593
L72.7006 -204.704
L73.4062 -203.815
L74.4166 -202.926
L75.8085 -202.037
L77.6829 -201.148
L80.1584 -200.259
L83.3586 -199.37
L87.3931 -198.481
L92.3368 -197.592
L98.2088 -196.703
L104.957 -195.814
L112.449 -194.925
L120.483 -194.036
L128.795 -193.147
z
" id="C5_0_e42d1595bc"/>
    </defs>
    <g clip-path="url(#p82736d9a3e)">
     <use style="fill:#008000;fill-opacity:0.3;stroke:#000000;stroke-opacity:0.3;" x="0.0" xlink:href="#C5_0_e42d1595bc" y="432.0"/>
    </g>
   </g>
   <g id="PolyCollection_7">
    <defs>
     <path d="
M468.227 -193.15
L406.8 -193.15
L406.8 -193.957
L406.8 -194.765
L406.8 -195.573
L406.8 -196.38
L406.8 -197.188
L406.8 -197.996
L406.8 -198.804
L406.8 -199.611
L406.8 -200.419
L406.8 -201.227
L406.8 -202.035
L406.8 -202.842
L406.8 -203.65
L406.8 -204.458
L406.8 -205.265
L406.8 -206.073
L406.8 -206.881
L406.8 -207.689
L406.8 -208.496
L406.8 -209.304
L406.8 -210.112
L406.8 -210.92
L406.8 -211.727
L406.8 -212.535
L406.8 -213.343
L406.8 -214.151
L406.8 -214.958
L406.8 -215.766
L406.8 -216.574
L406.8 -217.381
L406.8 -218.189
L406.8 -218.997
L406.8 -219.805
L406.8 -220.612
L406.8 -221.42
L406.8 -222.228
L406.8 -223.036
L406.8 -223.843
L406.8 -224.651
L406.8 -225.459
L406.8 -226.266
L406.8 -227.074
L406.8 -227.882
L406.8 -228.69
L406.8 -229.497
L406.8 -230.305
L406.8 -231.113
L406.8 -231.921
L406.8 -232.728
L406.8 -233.536
L406.8 -234.344
L406.8 -235.151
L406.8 -235.959
L406.8 -236.767
L406.8 -237.575
L406.8 -238.382
L406.8 -239.19
L406.8 -239.998
L406.8 -240.806
L406.8 -241.613
L406.8 -242.421
L406.8 -243.229
L406.8 -244.036
L406.8 -244.844
L406.8 -245.652
L406.8 -246.46
L406.8 -247.267
L406.8 -248.075
L406.8 -248.883
L406.8 -249.691
L406.8 -250.498
L406.8 -251.306
L406.8 -252.114
L406.8 -252.922
L406.8 -253.729
L406.8 -254.537
L406.8 -255.345
L406.8 -256.152
L406.8 -256.96
L406.8 -257.768
L406.8 -258.576
L406.8 -259.383
L406.8 -260.191
L406.8 -260.999
L406.8 -261.807
L406.8 -262.614
L406.8 -263.422
L406.8 -264.23
L406.8 -265.037
L406.8 -265.845
L406.8 -266.653
L406.8 -267.461
L406.8 -268.268
L406.8 -269.076
L406.8 -269.884
L406.8 -270.692
L406.8 -271.499
L406.8 -272.307
L406.8 -273.115
L406.935 -273.115
L406.935 -273.115
L406.888 -272.307
L406.843 -271.499
L406.816 -270.692
L406.804 -269.884
L406.801 -269.076
L406.8 -268.268
L406.8 -267.461
L406.8 -266.653
L406.8 -265.845
L406.8 -265.037
L406.8 -264.23
L406.8 -263.422
L406.8 -262.614
L406.8 -261.807
L406.8 -260.999
L406.8 -260.191
L406.8 -259.383
L406.8 -258.576
L406.8 -257.768
L406.8 -256.96
L406.8 -256.152
L406.8 -255.345
L406.8 -254.537
L406.8 -253.729
L406.8 -252.922
L406.8 -252.114
L406.8 -251.306
L406.8 -250.498
L406.8 -249.691
L406.801 -248.883
L406.803 -248.075
L406.812 -247.267
L406.831 -246.46
L406.862 -245.652
L406.893 -244.844
L406.906 -244.036
L406.896 -243.229
L406.886 -242.421
L406.909 -241.613
L406.984 -240.806
L407.102 -239.998
L407.235 -239.19
L407.368 -238.382
L407.519 -237.575
L407.738 -236.767
L408.075 -235.959
L408.551 -235.151
L409.125 -234.344
L409.655 -233.536
L409.934 -232.728
L409.896 -231.921
L409.774 -231.113
L409.875 -230.305
L410.186 -229.497
L410.379 -228.69
L410.229 -227.882
L409.895 -227.074
L409.757 -226.266
L410.116 -225.459
L410.988 -224.651
L412.036 -223.843
L412.706 -223.036
L412.685 -222.228
L412.219 -221.42
L411.864 -220.612
L411.955 -219.805
L412.35 -218.997
L412.651 -218.189
L412.637 -217.381
L412.485 -216.574
L412.553 -215.766
L413.041 -214.958
L413.939 -214.151
L415.257 -213.343
L417.155 -212.535
L419.766 -211.727
L422.857 -210.92
L425.718 -210.112
L427.621 -209.304
L428.541 -208.496
L429.292 -207.689
L430.868 -206.881
L433.724 -206.073
L437.638 -205.265
L441.989 -204.458
L446.093 -203.65
L449.46 -202.842
L452.073 -202.035
L454.702 -201.227
L458.978 -200.419
L466.902 -199.611
L479.391 -198.804
L494.638 -197.996
L508.524 -197.188
L517.203 -196.38
L518.4 -195.573
L510.464 -194.765
L492.774 -193.957
L468.227 -193.15
z
" id="C6_0_221ffd75d5"/>
    </defs>
    <g clip-path="url(#p82736d9a3e)">
     <use style="fill:#bfbf00;fill-opacity:0.3;stroke:#000000;stroke-opacity:0.3;" x="0.0" xlink:href="#C6_0_221ffd75d5" y="432.0"/>
    </g>
   </g>
   <g id="PolyCollection_8">
    <defs>
     <path d="
M345.373 -193.15
L406.8 -193.15
L406.8 -193.957
L406.8 -194.765
L406.8 -195.573
L406.8 -196.38
L406.8 -197.188
L406.8 -197.996
L406.8 -198.804
L406.8 -199.611
L406.8 -200.419
L406.8 -201.227
L406.8 -202.035
L406.8 -202.842
L406.8 -203.65
L406.8 -204.458
L406.8 -205.265
L406.8 -206.073
L406.8 -206.881
L406.8 -207.689
L406.8 -208.496
L406.8 -209.304
L406.8 -210.112
L406.8 -210.92
L406.8 -211.727
L406.8 -212.535
L406.8 -213.343
L406.8 -214.151
L406.8 -214.958
L406.8 -215.766
L406.8 -216.574
L406.8 -217.381
L406.8 -218.189
L406.8 -218.997
L406.8 -219.805
L406.8 -220.612
L406.8 -221.42
L406.8 -222.228
L406.8 -223.036
L406.8 -223.843
L406.8 -224.651
L406.8 -225.459
L406.8 -226.266
L406.8 -227.074
L406.8 -227.882
L406.8 -228.69
L406.8 -229.497
L406.8 -230.305
L406.8 -231.113
L406.8 -231.921
L406.8 -232.728
L406.8 -233.536
L406.8 -234.344
L406.8 -235.151
L406.8 -235.959
L406.8 -236.767
L406.8 -237.575
L406.8 -238.382
L406.8 -239.19
L406.8 -239.998
L406.8 -240.806
L406.8 -241.613
L406.8 -242.421
L406.8 -243.229
L406.8 -244.036
L406.8 -244.844
L406.8 -245.652
L406.8 -246.46
L406.8 -247.267
L406.8 -248.075
L406.8 -248.883
L406.8 -249.691
L406.8 -250.498
L406.8 -251.306
L406.8 -252.114
L406.8 -252.922
L406.8 -253.729
L406.8 -254.537
L406.8 -255.345
L406.8 -256.152
L406.8 -256.96
L406.8 -257.768
L406.8 -258.576
L406.8 -259.383
L406.8 -260.191
L406.8 -260.999
L406.8 -261.807
L406.8 -262.614
L406.8 -263.422
L406.8 -264.23
L406.8 -265.037
L406.8 -265.845
L406.8 -266.653
L406.8 -267.461
L406.8 -268.268
L406.8 -269.076
L406.8 -269.884
L406.8 -270.692
L406.8 -271.499
L406.8 -272.307
L406.8 -273.115
L406.665 -273.115
L406.665 -273.115
L406.712 -272.307
L406.757 -271.499
L406.784 -270.692
L406.796 -269.884
L406.799 -269.076
L406.8 -268.268
L406.8 -267.461
L406.8 -266.653
L406.8 -265.845
L406.8 -265.037
L406.8 -264.23
L406.8 -263.422
L406.8 -262.614
L406.8 -261.807
L406.8 -260.999
L406.8 -260.191
L406.8 -259.383
L406.8 -258.576
L406.8 -257.768
L406.8 -256.96
L406.8 -256.152
L406.8 -255.345
L406.8 -254.537
L406.8 -253.729
L406.8 -252.922
L406.8 -252.114
L406.8 -251.306
L406.8 -250.498
L406.8 -249.691
L406.799 -248.883
L406.797 -248.075
L406.788 -247.267
L406.769 -246.46
L406.738 -245.652
L406.707 -244.844
L406.694 -244.036
L406.704 -243.229
L406.714 -242.421
L406.691 -241.613
L406.616 -240.806
L406.498 -239.998
L406.365 -239.19
L406.232 -238.382
L406.081 -237.575
L405.862 -236.767
L405.525 -235.959
L405.049 -235.151
L404.475 -234.344
L403.945 -233.536
L403.666 -232.728
L403.704 -231.921
L403.826 -231.113
L403.725 -230.305
L403.414 -229.497
L403.221 -228.69
L403.371 -227.882
L403.705 -227.074
L403.843 -226.266
L403.484 -225.459
L402.612 -224.651
L401.564 -223.843
L400.894 -223.036
L400.915 -222.228
L401.381 -221.42
L401.736 -220.612
L401.645 -219.805
L401.25 -218.997
L400.949 -218.189
L400.963 -217.381
L401.115 -216.574
L401.047 -215.766
L400.559 -214.958
L399.661 -214.151
L398.343 -213.343
L396.445 -212.535
L393.834 -211.727
L390.743 -210.92
L387.882 -210.112
L385.979 -209.304
L385.059 -208.496
L384.308 -207.689
L382.732 -206.881
L379.876 -206.073
L375.962 -205.265
L371.611 -204.458
L367.507 -203.65
L364.14 -202.842
L361.527 -202.035
L358.898 -201.227
L354.622 -200.419
L346.698 -199.611
L334.209 -198.804
L318.962 -197.996
L305.076 -197.188
L296.397 -196.38
L295.2 -195.573
L303.136 -194.765
L320.826 -193.957
L345.373 -193.15
z
" id="C7_0_37c0aea873"/>
    </defs>
    <g clip-path="url(#p82736d9a3e)">
     <use style="fill:#bfbf00;fill-opacity:0.3;stroke:#000000;stroke-opacity:0.3;" x="0.0" xlink:href="#C7_0_37c0aea873" y="432.0"/>
    </g>
   </g>
   <g id="matplotlib.axis_3">
    <g id="xtick_10">
     <g id="line2d_46">
      <path clip-path="url(#p82736d9a3e)" d="
M72 238.871
L72 149.929" style="fill:none;stroke:#000000;stroke-dasharray:1.000000,3.000000;stroke-dashoffset:0.0;stroke-width:0.5;"/>
     </g>
     <g id="line2d_47">
      <g>
       <use style="stroke:#000000;stroke-width:0.5;" x="72.0" xlink:href="#m93b0483c22" y="238.870588235"/>
      </g>
     </g>
     <g id="line2d_48">
      <g>
       <use style="stroke:#000000;stroke-width:0.5;" x="72.0" xlink:href="#m741efc42ff" y="149.929411765"/>
      </g>
     </g>
    </g>
    <g id="xtick_11">
     <g id="line2d_49">
      <path clip-path="url(#p82736d9a3e)" d="
M127.8 238.871
L127.8 149.929" style="fill:none;stroke:#000000;stroke-dasharray:1.000000,3.000000;stroke-dashoffset:0.0;stroke-width:0.5;"/>
     </g>
     <g id="line2d_50">
      <g>
       <use style="stroke:#000000;stroke-width:0.5;" x="127.800000012" xlink:href="#m93b0483c22" y="238.870588235"/>
      </g>
     </g>
     <g id="line2d_51">
      <g>
       <use style="stroke:#000000;stroke-width:0.5;" x="127.800000012" xlink:href="#m741efc42ff" y="149.929411765"/>
      </g>
     </g>
    </g>
    <g id="xtick_12">
     <g id="line2d_52">
      <path clip-path="url(#p82736d9a3e)" d="
M183.6 238.871
L183.6 149.929" style="fill:none;stroke:#000000;stroke-dasharray:1.000000,3.000000;stroke-dashoffset:0.0;stroke-width:0.5;"/>
     </g>
     <g id="line2d_53">
      <g>
       <use style="stroke:#000000;stroke-width:0.5;" x="183.599999994" xlink:href="#m93b0483c22" y="238.870588235"/>
      </g>
     </g>
     <g id="line2d_54">
      <g>
       <use style="stroke:#000000;stroke-width:0.5;" x="183.599999994" xlink:href="#m741efc42ff" y="149.929411765"/>
      </g>
     </g>
    </g>
    <g id="xtick_13">
     <g id="line2d_55">
      <path clip-path="url(#p82736d9a3e)" d="
M239.4 238.871
L239.4 149.929" style="fill:none;stroke:#000000;stroke-dasharray:1.000000,3.000000;stroke-dashoffset:0.0;stroke-width:0.5;"/>
     </g>
     <g id="line2d_56">
      <g>
       <use style="stroke:#000000;stroke-width:0.5;" x="239.400000006" xlink:href="#m93b0483c22" y="238.870588235"/>
      </g>
     </g>
     <g id="line2d_57">
      <g>
       <use style="stroke:#000000;stroke-width:0.5;" x="239.400000006" xlink:href="#m741efc42ff" y="149.929411765"/>
      </g>
     </g>
    </g>
    <g id="xtick_14">
     <g id="line2d_58">
      <path clip-path="url(#p82736d9a3e)" d="
M295.2 238.871
L295.2 149.929" style="fill:none;stroke:#000000;stroke-dasharray:1.000000,3.000000;stroke-dashoffset:0.0;stroke-width:0.5;"/>
     </g>
     <g id="line2d_59">
      <g>
       <use style="stroke:#000000;stroke-width:0.5;" x="295.199999988" xlink:href="#m93b0483c22" y="238.870588235"/>
      </g>
     </g>
     <g id="line2d_60">
      <g>
       <use style="stroke:#000000;stroke-width:0.5;" x="295.199999988" xlink:href="#m741efc42ff" y="149.929411765"/>
      </g>
     </g>
    </g>
    <g id="xtick_15">
     <g id="line2d_61">
      <path clip-path="url(#p82736d9a3e)" d="
M351 238.871
L351 149.929" style="fill:none;stroke:#000000;stroke-dasharray:1.000000,3.000000;stroke-dashoffset:0.0;stroke-width:0.5;"/>
     </g>
     <g id="line2d_62">
      <g>
       <use style="stroke:#000000;stroke-width:0.5;" x="351.0" xlink:href="#m93b0483c22" y="238.870588235"/>
      </g>
     </g>
     <g id="line2d_63">
      <g>
       <use style="stroke:#000000;stroke-width:0.5;" x="351.0" xlink:href="#m741efc42ff" y="149.929411765"/>
      </g>
     </g>
    </g>
    <g id="xtick_16">
     <g id="line2d_64">
      <path clip-path="url(#p82736d9a3e)" d="
M406.8 238.871
L406.8 149.929" style="fill:none;stroke:#000000;stroke-dasharray:1.000000,3.000000;stroke-dashoffset:0.0;stroke-width:0.5;"/>
     </g>
     <g id="line2d_65">
      <g>
       <use style="stroke:#000000;stroke-width:0.5;" x="406.800000012" xlink:href="#m93b0483c22" y="238.870588235"/>
      </g>
     </g>
     <g id="line2d_66">
      <g>
       <use style="stroke:#000000;stroke-width:0.5;" x="406.800000012" xlink:href="#m741efc42ff" y="149.929411765"/>
      </g>
     </g>
    </g>
    <g id="xtick_17">
     <g id="line2d_67">
      <path clip-path="url(#p82736d9a3e)" d="
M462.6 238.871
L462.6 149.929" style="fill:none;stroke:#000000;stroke-dasharray:1.000000,3.000000;stroke-dashoffset:0.0;stroke-width:0.5;"/>
     </g>
     <g id="line2d_68">
      <g>
       <use style="stroke:#000000;stroke-width:0.5;" x="462.599999994" xlink:href="#m93b0483c22" y="238.870588235"/>
      </g>
     </g>
     <g id="line2d_69">
      <g>
       <use style="stroke:#000000;stroke-width:0.5;" x="462.599999994" xlink:href="#m741efc42ff" y="149.929411765"/>
      </g>
     </g>
    </g>
    <g id="xtick_18">
     <g id="line2d_70">
      <path clip-path="url(#p82736d9a3e)" d="
M518.4 238.871
L518.4 149.929" style="fill:none;stroke:#000000;stroke-dasharray:1.000000,3.000000;stroke-dashoffset:0.0;stroke-width:0.5;"/>
     </g>
     <g id="line2d_71">
      <g>
       <use style="stroke:#000000;stroke-width:0.5;" x="518.400000006" xlink:href="#m93b0483c22" y="238.870588235"/>
      </g>
     </g>
     <g id="line2d_72">
      <g>
       <use style="stroke:#000000;stroke-width:0.5;" x="518.400000006" xlink:href="#m741efc42ff" y="149.929411765"/>
      </g>
     </g>
    </g>
   </g>
   <g id="matplotlib.axis_4">
    <g id="ytick_7">
     <g id="line2d_73">
      <path clip-path="url(#p82736d9a3e)" d="
M72 238.871
L518.4 238.871" style="fill:none;stroke:#000000;stroke-dasharray:1.000000,3.000000;stroke-dashoffset:0.0;stroke-width:0.5;"/>
     </g>
     <g id="line2d_74">
      <g>
       <use style="stroke:#000000;stroke-width:0.5;" x="72.0" xlink:href="#m728421d6d4" y="238.870588235"/>
      </g>
     </g>
     <g id="line2d_75">
      <g>
       <use style="stroke:#000000;stroke-width:0.5;" x="518.4" xlink:href="#mcb0005524f" y="238.870588235"/>
      </g>
     </g>
     <g id="text_8">
      <!-- 0 -->
      <g transform="translate(64.26625 240.938713235)scale(0.08 -0.08)">
       <use xlink:href="#ArialMT-30"/>
      </g>
     </g>
    </g>
    <g id="ytick_8">
     <g id="line2d_76">
      <path clip-path="url(#p82736d9a3e)" d="
M72 221.082
L518.4 221.082" style="fill:none;stroke:#000000;stroke-dasharray:1.000000,3.000000;stroke-dashoffset:0.0;stroke-width:0.5;"/>
     </g>
     <g id="line2d_77">
      <g>
       <use style="stroke:#000000;stroke-width:0.5;" x="72.0" xlink:href="#m728421d6d4" y="221.082352941"/>
      </g>
     </g>
     <g id="line2d_78">
      <g>
       <use style="stroke:#000000;stroke-width:0.5;" x="518.4" xlink:href="#mcb0005524f" y="221.082352941"/>
      </g>
     </g>
     <g id="text_9">
      <!-- 1e-06 -->
      <defs>
       <path d="
M3.17188 21.4844
L3.17188 30.3281
L30.1719 30.3281
L30.1719 21.4844
z
" id="ArialMT-2d"/>
       <path d="
M42.0938 16.7031
L51.1719 15.5781
Q49.0312 7.625 43.2188 3.21875
Q37.4062 -1.17188 28.375 -1.17188
Q17 -1.17188 10.3281 5.82812
Q3.65625 12.8438 3.65625 25.4844
Q3.65625 38.5781 10.3906 45.7969
Q17.1406 53.0312 27.875 53.0312
Q38.2812 53.0312 44.875 45.9531
Q51.4688 38.875 51.4688 26.0312
Q51.4688 25.25 51.4219 23.6875
L12.75 23.6875
Q13.2344 15.1406 17.5781 10.5938
Q21.9219 6.0625 28.4219 6.0625
Q33.25 6.0625 36.6719 8.59375
Q40.0938 11.1406 42.0938 16.7031
M13.2344 30.9062
L42.1875 30.9062
Q41.6094 37.4531 38.875 40.7188
Q34.6719 45.7969 27.9844 45.7969
Q21.9219 45.7969 17.7969 41.75
Q13.6719 37.7031 13.2344 30.9062" id="ArialMT-65"/>
      </defs>
      <g transform="translate(48.77875 223.150477941)scale(0.08 -0.08)">
       <use xlink:href="#ArialMT-31"/>
       <use x="55.615234375" xlink:href="#ArialMT-65"/>
       <use x="111.23046875" xlink:href="#ArialMT-2d"/>
       <use x="144.53125" xlink:href="#ArialMT-30"/>
       <use x="200.146484375" xlink:href="#ArialMT-36"/>
      </g>
     </g>
    </g>
    <g id="ytick_9">
     <g id="line2d_79">
      <path clip-path="url(#p82736d9a3e)" d="
M72 203.294
L518.4 203.294" style="fill:none;stroke:#000000;stroke-dasharray:1.000000,3.000000;stroke-dashoffset:0.0;stroke-width:0.5;"/>
     </g>
     <g id="line2d_80">
      <g>
       <use style="stroke:#000000;stroke-width:0.5;" x="72.0" xlink:href="#m728421d6d4" y="203.294117647"/>
      </g>
     </g>
     <g id="line2d_81">
      <g>
       <use style="stroke:#000000;stroke-width:0.5;" x="518.4" xlink:href="#mcb0005524f" y="203.294117647"/>
      </g>
     </g>
     <g id="text_10">
      <!-- 2e-06 -->
      <g transform="translate(48.1425 205.362242647)scale(0.08 -0.08)">
       <use xlink:href="#ArialMT-32"/>
       <use x="55.615234375" xlink:href="#ArialMT-65"/>
       <use x="111.23046875" xlink:href="#ArialMT-2d"/>
       <use x="144.53125" xlink:href="#ArialMT-30"/>
       <use x="200.146484375" xlink:href="#ArialMT-36"/>
      </g>
     </g>
    </g>
    <g id="ytick_10">
     <g id="line2d_82">
      <path clip-path="url(#p82736d9a3e)" d="
M72 185.506
L518.4 185.506" style="fill:none;stroke:#000000;stroke-dasharray:1.000000,3.000000;stroke-dashoffset:0.0;stroke-width:0.5;"/>
     </g>
     <g id="line2d_83">
      <g>
       <use style="stroke:#000000;stroke-width:0.5;" x="72.0" xlink:href="#m728421d6d4" y="185.505882353"/>
      </g>
     </g>
     <g id="line2d_84">
      <g>
       <use style="stroke:#000000;stroke-width:0.5;" x="518.4" xlink:href="#mcb0005524f" y="185.505882353"/>
      </g>
     </g>
     <g id="text_11">
      <!-- 3e-06 -->
      <defs>
       <path d="
M4.20312 18.8906
L12.9844 20.0625
Q14.5 12.5938 18.1406 9.29688
Q21.7812 6 27 6
Q33.2031 6 37.4688 10.2969
Q41.75 14.5938 41.75 20.9531
Q41.75 27 37.7969 30.9219
Q33.8438 34.8594 27.7344 34.8594
Q25.25 34.8594 21.5312 33.8906
L22.5156 41.6094
Q23.3906 41.5 23.9219 41.5
Q29.5469 41.5 34.0312 44.4219
Q38.5312 47.3594 38.5312 53.4688
Q38.5312 58.2969 35.25 61.4688
Q31.9844 64.6562 26.8125 64.6562
Q21.6875 64.6562 18.2656 61.4219
Q14.8438 58.2031 13.875 51.7656
L5.07812 53.3281
Q6.6875 62.1562 12.3906 67.0156
Q18.1094 71.875 26.6094 71.875
Q32.4688 71.875 37.3906 69.3594
Q42.3281 66.8438 44.9375 62.5
Q47.5625 58.1562 47.5625 53.2656
Q47.5625 48.6406 45.0625 44.8281
Q42.5781 41.0156 37.7031 38.7656
Q44.0469 37.3125 47.5625 32.6875
Q51.0781 28.0781 51.0781 21.1406
Q51.0781 11.7656 44.2344 5.25
Q37.4062 -1.26562 26.9531 -1.26562
Q17.5312 -1.26562 11.2969 4.34375
Q5.07812 9.96875 4.20312 18.8906" id="ArialMT-33"/>
      </defs>
      <g transform="translate(48.24375 187.574007353)scale(0.08 -0.08)">
       <use xlink:href="#ArialMT-33"/>
       <use x="55.615234375" xlink:href="#ArialMT-65"/>
       <use x="111.23046875" xlink:href="#ArialMT-2d"/>
       <use x="144.53125" xlink:href="#ArialMT-30"/>
       <use x="200.146484375" xlink:href="#ArialMT-36"/>
      </g>
     </g>
    </g>
    <g id="ytick_11">
     <g id="line2d_85">
      <path clip-path="url(#p82736d9a3e)" d="
M72 167.718
L518.4 167.718" style="fill:none;stroke:#000000;stroke-dasharray:1.000000,3.000000;stroke-dashoffset:0.0;stroke-width:0.5;"/>
     </g>
     <g id="line2d_86">
      <g>
       <use style="stroke:#000000;stroke-width:0.5;" x="72.0" xlink:href="#m728421d6d4" y="167.717647059"/>
      </g>
     </g>
     <g id="line2d_87">
      <g>
       <use style="stroke:#000000;stroke-width:0.5;" x="518.4" xlink:href="#mcb0005524f" y="167.717647059"/>
      </g>
     </g>
     <g id="text_12">
      <!-- 4e-06 -->
      <g transform="translate(48.00875 169.785772059)scale(0.08 -0.08)">
       <use xlink:href="#ArialMT-34"/>
       <use x="55.615234375" xlink:href="#ArialMT-65"/>
       <use x="111.23046875" xlink:href="#ArialMT-2d"/>
       <use x="144.53125" xlink:href="#ArialMT-30"/>
       <use x="200.146484375" xlink:href="#ArialMT-36"/>
      </g>
     </g>
    </g>
    <g id="ytick_12">
     <g id="line2d_88">
      <path clip-path="url(#p82736d9a3e)" d="
M72 149.929
L518.4 149.929" style="fill:none;stroke:#000000;stroke-dasharray:1.000000,3.000000;stroke-dashoffset:0.0;stroke-width:0.5;"/>
     </g>
     <g id="line2d_89">
      <g>
       <use style="stroke:#000000;stroke-width:0.5;" x="72.0" xlink:href="#m728421d6d4" y="149.929411765"/>
      </g>
     </g>
     <g id="line2d_90">
      <g>
       <use style="stroke:#000000;stroke-width:0.5;" x="518.4" xlink:href="#mcb0005524f" y="149.929411765"/>
      </g>
     </g>
     <g id="text_13">
      <!-- 5e-06 -->
      <defs>
       <path d="
M4.15625 18.75
L13.375 19.5312
Q14.4062 12.7969 18.1406 9.39062
Q21.875 6 27.1562 6
Q33.5 6 37.8906 10.7812
Q42.2812 15.5781 42.2812 23.4844
Q42.2812 31 38.0625 35.3438
Q33.8438 39.7031 27 39.7031
Q22.75 39.7031 19.3281 37.7656
Q15.9219 35.8438 13.9688 32.7656
L5.71875 33.8438
L12.6406 70.6094
L48.25 70.6094
L48.25 62.2031
L19.6719 62.2031
L15.8281 42.9688
Q22.2656 47.4688 29.3438 47.4688
Q38.7188 47.4688 45.1562 40.9688
Q51.6094 34.4688 51.6094 24.2656
Q51.6094 14.5469 45.9531 7.46875
Q39.0625 -1.21875 27.1562 -1.21875
Q17.3906 -1.21875 11.2031 4.25
Q5.03125 9.71875 4.15625 18.75" id="ArialMT-35"/>
      </defs>
      <g transform="translate(48.24 151.997536765)scale(0.08 -0.08)">
       <use xlink:href="#ArialMT-35"/>
       <use x="55.615234375" xlink:href="#ArialMT-65"/>
       <use x="111.23046875" xlink:href="#ArialMT-2d"/>
       <use x="144.53125" xlink:href="#ArialMT-30"/>
       <use x="200.146484375" xlink:href="#ArialMT-36"/>
      </g>
     </g>
    </g>
    <g id="text_14">
     <!-- m -->
     <defs>
      <path d="
M6.59375 0
L6.59375 51.8594
L14.4531 51.8594
L14.4531 44.5781
Q16.8906 48.3906 20.9375 50.7031
Q25 53.0312 30.1719 53.0312
Q35.9375 53.0312 39.625 50.6406
Q43.3125 48.25 44.8281 43.9531
Q50.9844 53.0312 60.8438 53.0312
Q68.5625 53.0312 72.7031 48.75
Q76.8594 44.4844 76.8594 35.5938
L76.8594 0
L68.1094 0
L68.1094 32.6719
Q68.1094 37.9375 67.25 40.25
Q66.4062 42.5781 64.1562 43.9844
Q61.9219 45.4062 58.8906 45.4062
Q53.4219 45.4062 49.7969 41.7656
Q46.1875 38.1406 46.1875 30.125
L46.1875 0
L37.4062 0
L37.4062 33.6875
Q37.4062 39.5469 35.25 42.4688
Q33.1094 45.4062 28.2188 45.4062
Q24.5156 45.4062 21.3594 43.4531
Q18.2188 41.5 16.7969 37.7344
Q15.375 33.9844 15.375 26.9062
L15.375 0
z
" id="ArialMT-6d"/>
     </defs>
     <g transform="translate(40.62375 198.6159375)rotate(-90.0)scale(0.12 -0.12)">
      <use xlink:href="#ArialMT-6d"/>
     </g>
    </g>
   </g>
   <g id="patch_8">
    <path d="
M72 149.929
L518.4 149.929" style="fill:none;stroke:#000000;"/>
   </g>
   <g id="patch_9">
    <path d="
M518.4 238.871
L518.4 149.929" style="fill:none;stroke:#000000;"/>
   </g>
   <g id="patch_10">
    <path d="
M72 238.871
L518.4 238.871" style="fill:none;stroke:#000000;"/>
   </g>
   <g id="patch_11">
    <path d="
M72 238.871
L72 149.929" style="fill:none;stroke:#000000;"/>
   </g>
  </g>
  <g id="axes_3">
   <g id="patch_12">
    <path d="
M72 345.6
L518.4 345.6
L518.4 256.659
L72 256.659
z
" style="fill:#ffffff;"/>
   </g>
   <g id="PolyCollection_9">
    <defs>
     <path d="
M238.64 -86.414
L183.6 -86.414
L183.6 -87.3032
L183.6 -88.1924
L183.6 -89.0815
L183.6 -89.9707
L183.6 -90.8599
L183.6 -91.7491
L183.6 -92.6383
L183.6 -93.5275
L183.6 -94.4167
L183.6 -95.3059
L183.6 -96.1951
L183.6 -97.0843
L183.6 -97.9735
L183.6 -98.8627
L183.6 -99.7519
L183.6 -100.641
L183.6 -101.53
L183.6 -102.419
L183.6 -103.309
L183.6 -104.198
L183.6 -105.087
L183.6 -105.976
L183.6 -106.865
L183.6 -107.755
L183.6 -108.644
L183.6 -109.533
L183.6 -110.422
L183.6 -111.311
L183.6 -112.201
L183.6 -113.09
L183.6 -113.979
L183.6 -114.868
L183.6 -115.757
L183.6 -116.647
L183.6 -117.536
L183.6 -118.425
L183.6 -119.314
L183.6 -120.203
L183.6 -121.093
L183.6 -121.982
L183.6 -122.871
L183.6 -123.76
L183.6 -124.649
L183.6 -125.539
L183.6 -126.428
L183.6 -127.317
L183.6 -128.206
L183.6 -129.095
L183.6 -129.984
L183.6 -130.874
L183.6 -131.763
L183.6 -132.652
L183.6 -133.541
L183.6 -134.43
L183.6 -135.32
L183.6 -136.209
L183.6 -137.098
L183.6 -137.987
L183.6 -138.876
L183.6 -139.766
L183.6 -140.655
L183.6 -141.544
L183.6 -142.433
L183.6 -143.322
L183.6 -144.212
L183.6 -145.101
L183.6 -145.99
L183.6 -146.879
L183.6 -147.768
L183.6 -148.658
L183.6 -149.547
L183.6 -150.436
L183.6 -151.325
L183.6 -152.214
L183.6 -153.104
L183.6 -153.993
L183.6 -154.882
L183.6 -155.771
L183.6 -156.66
L183.6 -157.549
L183.6 -158.439
L183.6 -159.328
L183.6 -160.217
L183.6 -161.106
L183.6 -161.995
L183.6 -162.885
L183.6 -163.774
L183.6 -164.663
L183.6 -165.552
L183.6 -166.441
L183.6 -167.331
L183.6 -168.22
L183.6 -169.109
L183.6 -169.998
L183.6 -170.887
L183.6 -171.777
L183.6 -172.666
L183.6 -173.555
L183.6 -174.444
L240.176 -174.444
L240.176 -174.444
L247.598 -173.555
L254.622 -172.666
L261.063 -171.777
L266.792 -170.887
L271.743 -169.998
L275.904 -169.109
L279.313 -168.22
L282.048 -167.331
L284.207 -166.441
L285.899 -165.552
L287.23 -164.663
L288.295 -163.774
L289.164 -162.885
L289.882 -161.995
L290.471 -161.106
L290.931 -160.217
L291.251 -159.328
L291.423 -158.439
L291.452 -157.549
L291.364 -156.66
L291.211 -155.771
L291.059 -154.882
L290.984 -153.993
L291.051 -153.104
L291.301 -152.214
L291.738 -151.325
L292.327 -150.436
L292.993 -149.547
L293.638 -148.658
L294.151 -147.768
L294.43 -146.879
L294.396 -145.99
L294.003 -145.101
L293.252 -144.212
L292.183 -143.322
L290.878 -142.433
L289.448 -141.544
L288.018 -140.655
L286.714 -139.766
L285.644 -138.876
L284.886 -137.987
L284.474 -137.098
L284.4 -136.209
L284.612 -135.32
L285.029 -134.43
L285.556 -133.541
L286.101 -132.652
L286.589 -131.763
L286.977 -130.874
L287.252 -129.984
L287.434 -129.095
L287.565 -128.206
L287.699 -127.317
L287.886 -126.428
L288.17 -125.539
L288.574 -124.649
L289.104 -123.76
L289.744 -122.871
L290.469 -121.982
L291.241 -121.093
L292.021 -120.203
L292.771 -119.314
L293.458 -118.425
L294.054 -117.536
L294.539 -116.647
L294.897 -115.757
L295.119 -114.868
L295.2 -113.979
L295.138 -113.09
L294.936 -112.201
L294.6 -111.311
L294.139 -110.422
L293.567 -109.533
L292.899 -108.644
L292.152 -107.755
L291.346 -106.865
L290.501 -105.976
L289.64 -105.087
L288.788 -104.198
L287.975 -103.309
L287.234 -102.419
L286.601 -101.53
L286.105 -100.641
L285.766 -99.7519
L285.578 -98.8627
L285.507 -97.9735
L285.477 -97.0843
L285.371 -96.1951
L285.031 -95.3059
L284.274 -94.4167
L282.9 -93.5275
L280.723 -92.6383
L277.585 -91.7491
L273.388 -90.8599
L268.109 -89.9707
L261.808 -89.0815
L254.636 -88.1924
L246.818 -87.3032
L238.64 -86.414
z
" id="C8_0_c10e2d7fa4"/>
    </defs>
    <g clip-path="url(#pb641915bdd)">
     <use style="fill:#008000;fill-opacity:0.3;stroke:#000000;stroke-opacity:0.3;" x="0.0" xlink:href="#C8_0_c10e2d7fa4" y="432.0"/>
    </g>
   </g>
   <g id="PolyCollection_10">
    <defs>
     <path d="
M128.56 -86.414
L183.6 -86.414
L183.6 -87.3032
L183.6 -88.1924
L183.6 -89.0815
L183.6 -89.9707
L183.6 -90.8599
L183.6 -91.7491
L183.6 -92.6383
L183.6 -93.5275
L183.6 -94.4167
L183.6 -95.3059
L183.6 -96.1951
L183.6 -97.0843
L183.6 -97.9735
L183.6 -98.8627
L183.6 -99.7519
L183.6 -100.641
L183.6 -101.53
L183.6 -102.419
L183.6 -103.309
L183.6 -104.198
L183.6 -105.087
L183.6 -105.976
L183.6 -106.865
L183.6 -107.755
L183.6 -108.644
L183.6 -109.533
L183.6 -110.422
L183.6 -111.311
L183.6 -112.201
L183.6 -113.09
L183.6 -113.979
L183.6 -114.868
L183.6 -115.757
L183.6 -116.647
L183.6 -117.536
L183.6 -118.425
L183.6 -119.314
L183.6 -120.203
L183.6 -121.093
L183.6 -121.982
L183.6 -122.871
L183.6 -123.76
L183.6 -124.649
L183.6 -125.539
L183.6 -126.428
L183.6 -127.317
L183.6 -128.206
L183.6 -129.095
L183.6 -129.984
L183.6 -130.874
L183.6 -131.763
L183.6 -132.652
L183.6 -133.541
L183.6 -134.43
L183.6 -135.32
L183.6 -136.209
L183.6 -137.098
L183.6 -137.987
L183.6 -138.876
L183.6 -139.766
L183.6 -140.655
L183.6 -141.544
L183.6 -142.433
L183.6 -143.322
L183.6 -144.212
L183.6 -145.101
L183.6 -145.99
L183.6 -146.879
L183.6 -147.768
L183.6 -148.658
L183.6 -149.547
L183.6 -150.436
L183.6 -151.325
L183.6 -152.214
L183.6 -153.104
L183.6 -153.993
L183.6 -154.882
L183.6 -155.771
L183.6 -156.66
L183.6 -157.549
L183.6 -158.439
L183.6 -159.328
L183.6 -160.217
L183.6 -161.106
L183.6 -161.995
L183.6 -162.885
L183.6 -163.774
L183.6 -164.663
L183.6 -165.552
L183.6 -166.441
L183.6 -167.331
L183.6 -168.22
L183.6 -169.109
L183.6 -169.998
L183.6 -170.887
L183.6 -171.777
L183.6 -172.666
L183.6 -173.555
L183.6 -174.444
L127.024 -174.444
L127.024 -174.444
L119.602 -173.555
L112.578 -172.666
L106.137 -171.777
L100.408 -170.887
L95.4571 -169.998
L91.2963 -169.109
L87.8866 -168.22
L85.1521 -167.331
L82.9934 -166.441
L81.3013 -165.552
L79.9696 -164.663
L78.905 -163.774
L78.0363 -162.885
L77.3176 -161.995
L76.7286 -161.106
L76.2691 -160.217
L75.9492 -159.328
L75.7773 -158.439
L75.7483 -157.549
L75.8358 -156.66
L75.9895 -155.771
L76.1411 -154.882
L76.2161 -153.993
L76.1489 -153.104
L75.899 -152.214
L75.4618 -151.325
L74.8734 -150.436
L74.207 -149.547
L73.5622 -148.658
L73.0488 -147.768
L72.7697 -146.879
L72.8044 -145.99
L73.1968 -145.101
L73.9485 -144.212
L75.0173 -143.322
L76.3221 -142.433
L77.7524 -141.544
L79.1823 -140.655
L80.4863 -139.766
L81.5558 -138.876
L82.314 -137.987
L82.7256 -137.098
L82.8001 -136.209
L82.5884 -135.32
L82.1713 -134.43
L81.6442 -133.541
L81.0994 -132.652
L80.6109 -131.763
L80.2234 -130.874
L79.9482 -129.984
L79.7659 -129.095
L79.6346 -128.206
L79.5013 -127.317
L79.3135 -126.428
L79.0297 -125.539
L78.6256 -124.649
L78.0964 -123.76
L77.4557 -122.871
L76.7313 -121.982
L75.9594 -121.093
L75.1794 -120.203
L74.4293 -119.314
L73.7424 -118.425
L73.1462 -117.536
L72.6614 -116.647
L72.303 -115.757
L72.0808 -114.868
L72 -113.979
L72.062 -113.09
L72.2642 -112.201
L72.6005 -111.311
L73.0611 -110.422
L73.6332 -109.533
L74.3012 -108.644
L75.0477 -107.755
L75.8537 -106.865
L76.6987 -105.976
L77.5602 -105.087
L78.4123 -104.198
L79.2254 -103.309
L79.9659 -102.419
L80.5992 -101.53
L81.0948 -100.641
L81.4344 -99.7519
L81.6219 -98.8627
L81.693 -97.9735
L81.723 -97.0843
L81.8293 -96.1951
L82.1685 -95.3059
L82.926 -94.4167
L84.2995 -93.5275
L86.4774 -92.6383
L89.6151 -91.7491
L93.8116 -90.8599
L99.0912 -89.9707
L105.392 -89.0815
L112.564 -88.1924
L120.382 -87.3032
L128.56 -86.414
z
" id="C9_0_77486c2f97"/>
    </defs>
    <g clip-path="url(#pb641915bdd)">
     <use style="fill:#008000;fill-opacity:0.3;stroke:#000000;stroke-opacity:0.3;" x="0.0" xlink:href="#C9_0_77486c2f97" y="432.0"/>
    </g>
   </g>
   <g id="PolyCollection_11">
    <defs>
     <path d="
M444.149 -86.4825
L406.8 -86.4825
L406.8 -87.3695
L406.8 -88.2565
L406.8 -89.1435
L406.8 -90.0305
L406.8 -90.9175
L406.8 -91.8045
L406.8 -92.6915
L406.8 -93.5785
L406.8 -94.4655
L406.8 -95.3524
L406.8 -96.2394
L406.8 -97.1264
L406.8 -98.0134
L406.8 -98.9004
L406.8 -99.7874
L406.8 -100.674
L406.8 -101.561
L406.8 -102.448
L406.8 -103.335
L406.8 -104.222
L406.8 -105.109
L406.8 -105.996
L406.8 -106.883
L406.8 -107.77
L406.8 -108.657
L406.8 -109.544
L406.8 -110.431
L406.8 -111.318
L406.8 -112.205
L406.8 -113.092
L406.8 -113.979
L406.8 -114.866
L406.8 -115.753
L406.8 -116.64
L406.8 -117.527
L406.8 -118.414
L406.8 -119.301
L406.8 -120.188
L406.8 -121.075
L406.8 -121.962
L406.8 -122.849
L406.8 -123.736
L406.8 -124.623
L406.8 -125.51
L406.8 -126.397
L406.8 -127.284
L406.8 -128.171
L406.8 -129.058
L406.8 -129.945
L406.8 -130.832
L406.8 -131.719
L406.8 -132.606
L406.8 -133.493
L406.8 -134.38
L406.8 -135.267
L406.8 -136.154
L406.8 -137.041
L406.8 -137.928
L406.8 -138.815
L406.8 -139.702
L406.8 -140.589
L406.8 -141.476
L406.8 -142.363
L406.8 -143.25
L406.8 -144.137
L406.8 -145.024
L406.8 -145.911
L406.8 -146.798
L406.8 -147.685
L406.8 -148.572
L406.8 -149.459
L406.8 -150.346
L406.8 -151.233
L406.8 -152.12
L406.8 -153.007
L406.8 -153.894
L406.8 -154.781
L406.8 -155.668
L406.8 -156.555
L406.8 -157.442
L406.8 -158.329
L406.8 -159.216
L406.8 -160.103
L406.8 -160.99
L406.8 -161.877
L406.8 -162.764
L406.8 -163.651
L406.8 -164.538
L406.8 -165.425
L406.8 -166.312
L406.8 -167.199
L406.8 -168.086
L406.8 -168.973
L406.8 -169.86
L406.8 -170.747
L406.8 -171.634
L406.8 -172.521
L406.8 -173.408
L406.8 -174.295
L406.8 -175.182
L462.115 -175.182
L462.115 -175.182
L471.816 -174.295
L481.351 -173.408
L490.33 -172.521
L498.398 -171.634
L505.272 -170.747
L510.756 -169.86
L514.755 -168.973
L517.272 -168.086
L518.4 -167.199
L518.307 -166.312
L517.216 -165.425
L515.38 -164.538
L513.052 -163.651
L510.467 -162.764
L507.818 -161.877
L505.246 -160.99
L502.843 -160.103
L500.656 -159.216
L498.706 -158.329
L496.998 -157.442
L495.539 -156.555
L494.343 -155.668
L493.432 -154.781
L492.837 -153.894
L492.588 -153.007
L492.706 -152.12
L493.204 -151.233
L494.072 -150.346
L495.284 -149.459
L496.793 -148.572
L498.534 -147.685
L500.426 -146.798
L502.374 -145.911
L504.275 -145.024
L506.024 -144.137
L507.518 -143.25
L508.667 -142.363
L509.405 -141.476
L509.709 -140.589
L509.603 -139.702
L509.172 -138.815
L508.553 -137.928
L507.93 -137.041
L507.501 -136.154
L507.449 -135.267
L507.905 -134.38
L508.919 -133.493
L510.442 -132.606
L512.32 -131.719
L514.319 -130.832
L516.148 -129.945
L517.513 -129.058
L518.157 -128.171
L517.91 -127.284
L516.712 -126.397
L514.632 -125.51
L511.851 -124.623
L508.64 -123.736
L505.311 -122.849
L502.173 -121.962
L499.488 -121.075
L497.434 -120.188
L496.093 -119.301
L495.448 -118.414
L495.405 -117.527
L495.814 -116.64
L496.505 -115.753
L497.308 -114.866
L498.072 -113.979
L498.679 -113.092
L499.041 -112.205
L499.095 -111.318
L498.802 -110.431
L498.146 -109.544
L497.128 -108.657
L495.774 -107.77
L494.136 -106.883
L492.289 -105.996
L490.33 -105.109
L488.364 -104.222
L486.496 -103.335
L484.818 -102.448
L483.4 -101.561
L482.279 -100.674
L481.463 -99.7874
L480.924 -98.9004
L480.605 -98.0134
L480.416 -97.1264
L480.24 -96.2394
L479.935 -95.3524
L479.341 -94.4655
L478.289 -93.5785
L476.621 -92.6915
L474.202 -91.8045
L470.948 -90.9175
L466.841 -90.0305
L461.94 -89.1435
L456.38 -88.2565
L450.368 -87.3695
L444.149 -86.4825
z
" id="Ca_0_c3a508074a"/>
    </defs>
    <g clip-path="url(#pb641915bdd)">
     <use style="fill:#bfbf00;fill-opacity:0.3;stroke:#000000;stroke-opacity:0.3;" x="0.0" xlink:href="#Ca_0_c3a508074a" y="432.0"/>
    </g>
   </g>
   <g id="PolyCollection_12">
    <defs>
     <path d="
M369.451 -86.4825
L406.8 -86.4825
L406.8 -87.3695
L406.8 -88.2565
L406.8 -89.1435
L406.8 -90.0305
L406.8 -90.9175
L406.8 -91.8045
L406.8 -92.6915
L406.8 -93.5785
L406.8 -94.4655
L406.8 -95.3524
L406.8 -96.2394
L406.8 -97.1264
L406.8 -98.0134
L406.8 -98.9004
L406.8 -99.7874
L406.8 -100.674
L406.8 -101.561
L406.8 -102.448
L406.8 -103.335
L406.8 -104.222
L406.8 -105.109
L406.8 -105.996
L406.8 -106.883
L406.8 -107.77
L406.8 -108.657
L406.8 -109.544
L406.8 -110.431
L406.8 -111.318
L406.8 -112.205
L406.8 -113.092
L406.8 -113.979
L406.8 -114.866
L406.8 -115.753
L406.8 -116.64
L406.8 -117.527
L406.8 -118.414
L406.8 -119.301
L406.8 -120.188
L406.8 -121.075
L406.8 -121.962
L406.8 -122.849
L406.8 -123.736
L406.8 -124.623
L406.8 -125.51
L406.8 -126.397
L406.8 -127.284
L406.8 -128.171
L406.8 -129.058
L406.8 -129.945
L406.8 -130.832
L406.8 -131.719
L406.8 -132.606
L406.8 -133.493
L406.8 -134.38
L406.8 -135.267
L406.8 -136.154
L406.8 -137.041
L406.8 -137.928
L406.8 -138.815
L406.8 -139.702
L406.8 -140.589
L406.8 -141.476
L406.8 -142.363
L406.8 -143.25
L406.8 -144.137
L406.8 -145.024
L406.8 -145.911
L406.8 -146.798
L406.8 -147.685
L406.8 -148.572
L406.8 -149.459
L406.8 -150.346
L406.8 -151.233
L406.8 -152.12
L406.8 -153.007
L406.8 -153.894
L406.8 -154.781
L406.8 -155.668
L406.8 -156.555
L406.8 -157.442
L406.8 -158.329
L406.8 -159.216
L406.8 -160.103
L406.8 -160.99
L406.8 -161.877
L406.8 -162.764
L406.8 -163.651
L406.8 -164.538
L406.8 -165.425
L406.8 -166.312
L406.8 -167.199
L406.8 -168.086
L406.8 -168.973
L406.8 -169.86
L406.8 -170.747
L406.8 -171.634
L406.8 -172.521
L406.8 -173.408
L406.8 -174.295
L406.8 -175.182
L351.485 -175.182
L351.485 -175.182
L341.784 -174.295
L332.249 -173.408
L323.27 -172.521
L315.202 -171.634
L308.328 -170.747
L302.844 -169.86
L298.845 -168.973
L296.328 -168.086
L295.2 -167.199
L295.293 -166.312
L296.384 -165.425
L298.22 -164.538
L300.548 -163.651
L303.133 -162.764
L305.782 -161.877
L308.354 -160.99
L310.757 -160.103
L312.944 -159.216
L314.894 -158.329
L316.602 -157.442
L318.061 -156.555
L319.257 -155.668
L320.168 -154.781
L320.763 -153.894
L321.012 -153.007
L320.894 -152.12
L320.396 -151.233
L319.528 -150.346
L318.316 -149.459
L316.807 -148.572
L315.066 -147.685
L313.174 -146.798
L311.226 -145.911
L309.325 -145.024
L307.576 -144.137
L306.082 -143.25
L304.933 -142.363
L304.195 -141.476
L303.891 -140.589
L303.997 -139.702
L304.428 -138.815
L305.047 -137.928
L305.67 -137.041
L306.099 -136.154
L306.151 -135.267
L305.695 -134.38
L304.681 -133.493
L303.158 -132.606
L301.28 -131.719
L299.281 -130.832
L297.452 -129.945
L296.087 -129.058
L295.443 -128.171
L295.69 -127.284
L296.888 -126.397
L298.968 -125.51
L301.749 -124.623
L304.96 -123.736
L308.289 -122.849
L311.427 -121.962
L314.112 -121.075
L316.166 -120.188
L317.507 -119.301
L318.152 -118.414
L318.195 -117.527
L317.786 -116.64
L317.095 -115.753
L316.292 -114.866
L315.528 -113.979
L314.921 -113.092
L314.559 -112.205
L314.505 -111.318
L314.798 -110.431
L315.454 -109.544
L316.472 -108.657
L317.826 -107.77
L319.464 -106.883
L321.311 -105.996
L323.27 -105.109
L325.236 -104.222
L327.104 -103.335
L328.782 -102.448
L330.2 -101.561
L331.321 -100.674
L332.137 -99.7874
L332.676 -98.9004
L332.995 -98.0134
L333.184 -97.1264
L333.36 -96.2394
L333.665 -95.3524
L334.259 -94.4655
L335.311 -93.5785
L336.979 -92.6915
L339.398 -91.8045
L342.652 -90.9175
L346.759 -90.0305
L351.66 -89.1435
L357.22 -88.2565
L363.232 -87.3695
L369.451 -86.4825
z
" id="Cb_0_5ae225b4f1"/>
    </defs>
    <g clip-path="url(#pb641915bdd)">
     <use style="fill:#bfbf00;fill-opacity:0.3;stroke:#000000;stroke-opacity:0.3;" x="0.0" xlink:href="#Cb_0_5ae225b4f1" y="432.0"/>
    </g>
   </g>
   <g id="matplotlib.axis_5">
    <g id="xtick_19">
     <g id="line2d_91">
      <path clip-path="url(#pb641915bdd)" d="
M72 345.6
L72 256.659" style="fill:none;stroke:#000000;stroke-dasharray:1.000000,3.000000;stroke-dashoffset:0.0;stroke-width:0.5;"/>
     </g>
     <g id="line2d_92">
      <g>
       <use style="stroke:#000000;stroke-width:0.5;" x="72.0" xlink:href="#m93b0483c22" y="345.6"/>
      </g>
     </g>
     <g id="line2d_93">
      <g>
       <use style="stroke:#000000;stroke-width:0.5;" x="72.0" xlink:href="#m741efc42ff" y="256.658823529"/>
      </g>
     </g>
     <g id="text_15">
      <!-- 728860 -->
      <defs>
       <path d="
M4.73438 62.2031
L4.73438 70.6562
L51.0781 70.6562
L51.0781 63.8125
Q44.2344 56.5469 37.5156 44.4844
Q30.8125 32.4219 27.1562 19.6719
Q24.5156 10.6875 23.7812 0
L14.75 0
Q14.8906 8.45312 18.0625 20.4062
Q21.2344 32.375 27.1719 43.4844
Q33.1094 54.5938 39.7969 62.2031
z
" id="ArialMT-37"/>
      </defs>
      <g transform="translate(48.7478787481 367.524702968)rotate(-30.0)scale(0.08 -0.08)">
       <use xlink:href="#ArialMT-37"/>
       <use x="55.615234375" xlink:href="#ArialMT-32"/>
       <use x="111.23046875" xlink:href="#ArialMT-38"/>
       <use x="166.845703125" xlink:href="#ArialMT-38"/>
       <use x="222.4609375" xlink:href="#ArialMT-36"/>
       <use x="278.076171875" xlink:href="#ArialMT-30"/>
      </g>
     </g>
    </g>
    <g id="xtick_20">
     <g id="line2d_94">
      <path clip-path="url(#pb641915bdd)" d="
M127.8 345.6
L127.8 256.659" style="fill:none;stroke:#000000;stroke-dasharray:1.000000,3.000000;stroke-dashoffset:0.0;stroke-width:0.5;"/>
     </g>
     <g id="line2d_95">
      <g>
       <use style="stroke:#000000;stroke-width:0.5;" x="127.800000012" xlink:href="#m93b0483c22" y="345.6"/>
      </g>
     </g>
     <g id="line2d_96">
      <g>
       <use style="stroke:#000000;stroke-width:0.5;" x="127.800000012" xlink:href="#m741efc42ff" y="256.658823529"/>
      </g>
     </g>
     <g id="text_16">
      <!-- 728861 -->
      <g transform="translate(105.488598855 366.981577968)rotate(-30.0)scale(0.08 -0.08)">
       <use xlink:href="#ArialMT-37"/>
       <use x="55.615234375" xlink:href="#ArialMT-32"/>
       <use x="111.23046875" xlink:href="#ArialMT-38"/>
       <use x="166.845703125" xlink:href="#ArialMT-38"/>
       <use x="222.4609375" xlink:href="#ArialMT-36"/>
       <use x="278.076171875" xlink:href="#ArialMT-31"/>
      </g>
     </g>
    </g>
    <g id="xtick_21">
     <g id="line2d_97">
      <path clip-path="url(#pb641915bdd)" d="
M183.6 345.6
L183.6 256.659" style="fill:none;stroke:#000000;stroke-dasharray:1.000000,3.000000;stroke-dashoffset:0.0;stroke-width:0.5;"/>
     </g>
     <g id="line2d_98">
      <g>
       <use style="stroke:#000000;stroke-width:0.5;" x="183.599999994" xlink:href="#m93b0483c22" y="345.6"/>
      </g>
     </g>
     <g id="line2d_99">
      <g>
       <use style="stroke:#000000;stroke-width:0.5;" x="183.599999994" xlink:href="#m741efc42ff" y="256.658823529"/>
      </g>
     </g>
     <g id="text_17">
      <!-- 728861 -->
      <g transform="translate(161.288598837 366.981577968)rotate(-30.0)scale(0.08 -0.08)">
       <use xlink:href="#ArialMT-37"/>
       <use x="55.615234375" xlink:href="#ArialMT-32"/>
       <use x="111.23046875" xlink:href="#ArialMT-38"/>
       <use x="166.845703125" xlink:href="#ArialMT-38"/>
       <use x="222.4609375" xlink:href="#ArialMT-36"/>
       <use x="278.076171875" xlink:href="#ArialMT-31"/>
      </g>
     </g>
    </g>
    <g id="xtick_22">
     <g id="line2d_100">
      <path clip-path="url(#pb641915bdd)" d="
M239.4 345.6
L239.4 256.659" style="fill:none;stroke:#000000;stroke-dasharray:1.000000,3.000000;stroke-dashoffset:0.0;stroke-width:0.5;"/>
     </g>
     <g id="line2d_101">
      <g>
       <use style="stroke:#000000;stroke-width:0.5;" x="239.400000006" xlink:href="#m93b0483c22" y="345.6"/>
      </g>
     </g>
     <g id="line2d_102">
      <g>
       <use style="stroke:#000000;stroke-width:0.5;" x="239.400000006" xlink:href="#m741efc42ff" y="256.658823529"/>
      </g>
     </g>
     <g id="text_18">
      <!-- 728861 -->
      <g transform="translate(217.088598849 366.981577968)rotate(-30.0)scale(0.08 -0.08)">
       <use xlink:href="#ArialMT-37"/>
       <use x="55.615234375" xlink:href="#ArialMT-32"/>
       <use x="111.23046875" xlink:href="#ArialMT-38"/>
       <use x="166.845703125" xlink:href="#ArialMT-38"/>
       <use x="222.4609375" xlink:href="#ArialMT-36"/>
       <use x="278.076171875" xlink:href="#ArialMT-31"/>
      </g>
     </g>
    </g>
    <g id="xtick_23">
     <g id="line2d_103">
      <path clip-path="url(#pb641915bdd)" d="
M295.2 345.6
L295.2 256.659" style="fill:none;stroke:#000000;stroke-dasharray:1.000000,3.000000;stroke-dashoffset:0.0;stroke-width:0.5;"/>
     </g>
     <g id="line2d_104">
      <g>
       <use style="stroke:#000000;stroke-width:0.5;" x="295.199999988" xlink:href="#m93b0483c22" y="345.6"/>
      </g>
     </g>
     <g id="line2d_105">
      <g>
       <use style="stroke:#000000;stroke-width:0.5;" x="295.199999988" xlink:href="#m741efc42ff" y="256.658823529"/>
      </g>
     </g>
     <g id="text_19">
      <!-- 728862 -->
      <g transform="translate(271.981437221 367.505327968)rotate(-30.0)scale(0.08 -0.08)">
       <use xlink:href="#ArialMT-37"/>
       <use x="55.615234375" xlink:href="#ArialMT-32"/>
       <use x="111.23046875" xlink:href="#ArialMT-38"/>
       <use x="166.845703125" xlink:href="#ArialMT-38"/>
       <use x="222.4609375" xlink:href="#ArialMT-36"/>
       <use x="278.076171875" xlink:href="#ArialMT-32"/>
      </g>
     </g>
    </g>
    <g id="xtick_24">
     <g id="line2d_106">
      <path clip-path="url(#pb641915bdd)" d="
M351 345.6
L351 256.659" style="fill:none;stroke:#000000;stroke-dasharray:1.000000,3.000000;stroke-dashoffset:0.0;stroke-width:0.5;"/>
     </g>
     <g id="line2d_107">
      <g>
       <use style="stroke:#000000;stroke-width:0.5;" x="351.0" xlink:href="#m93b0483c22" y="345.6"/>
      </g>
     </g>
     <g id="line2d_108">
      <g>
       <use style="stroke:#000000;stroke-width:0.5;" x="351.0" xlink:href="#m741efc42ff" y="256.658823529"/>
      </g>
     </g>
     <g id="text_20">
      <!-- 728862 -->
      <g transform="translate(327.781437233 367.505327968)rotate(-30.0)scale(0.08 -0.08)">
       <use xlink:href="#ArialMT-37"/>
       <use x="55.615234375" xlink:href="#ArialMT-32"/>
       <use x="111.23046875" xlink:href="#ArialMT-38"/>
       <use x="166.845703125" xlink:href="#ArialMT-38"/>
       <use x="222.4609375" xlink:href="#ArialMT-36"/>
       <use x="278.076171875" xlink:href="#ArialMT-32"/>
      </g>
     </g>
    </g>
    <g id="xtick_25">
     <g id="line2d_109">
      <path clip-path="url(#pb641915bdd)" d="
M406.8 345.6
L406.8 256.659" style="fill:none;stroke:#000000;stroke-dasharray:1.000000,3.000000;stroke-dashoffset:0.0;stroke-width:0.5;"/>
     </g>
     <g id="line2d_110">
      <g>
       <use style="stroke:#000000;stroke-width:0.5;" x="406.800000012" xlink:href="#m93b0483c22" y="345.6"/>
      </g>
     </g>
     <g id="line2d_111">
      <g>
       <use style="stroke:#000000;stroke-width:0.5;" x="406.800000012" xlink:href="#m741efc42ff" y="256.658823529"/>
      </g>
     </g>
     <g id="text_21">
      <!-- 728862 -->
      <g transform="translate(383.581437244 367.505327968)rotate(-30.0)scale(0.08 -0.08)">
       <use xlink:href="#ArialMT-37"/>
       <use x="55.615234375" xlink:href="#ArialMT-32"/>
       <use x="111.23046875" xlink:href="#ArialMT-38"/>
       <use x="166.845703125" xlink:href="#ArialMT-38"/>
       <use x="222.4609375" xlink:href="#ArialMT-36"/>
       <use x="278.076171875" xlink:href="#ArialMT-32"/>
      </g>
     </g>
    </g>
    <g id="xtick_26">
     <g id="line2d_112">
      <path clip-path="url(#pb641915bdd)" d="
M462.6 345.6
L462.6 256.659" style="fill:none;stroke:#000000;stroke-dasharray:1.000000,3.000000;stroke-dashoffset:0.0;stroke-width:0.5;"/>
     </g>
     <g id="line2d_113">
      <g>
       <use style="stroke:#000000;stroke-width:0.5;" x="462.599999994" xlink:href="#m93b0483c22" y="345.6"/>
      </g>
     </g>
     <g id="line2d_114">
      <g>
       <use style="stroke:#000000;stroke-width:0.5;" x="462.599999994" xlink:href="#m741efc42ff" y="256.658823529"/>
      </g>
     </g>
     <g id="text_22">
      <!-- 728862 -->
      <g transform="translate(439.381437227 367.505327968)rotate(-30.0)scale(0.08 -0.08)">
       <use xlink:href="#ArialMT-37"/>
       <use x="55.615234375" xlink:href="#ArialMT-32"/>
       <use x="111.23046875" xlink:href="#ArialMT-38"/>
       <use x="166.845703125" xlink:href="#ArialMT-38"/>
       <use x="222.4609375" xlink:href="#ArialMT-36"/>
       <use x="278.076171875" xlink:href="#ArialMT-32"/>
      </g>
     </g>
    </g>
    <g id="xtick_27">
     <g id="line2d_115">
      <path clip-path="url(#pb641915bdd)" d="
M518.4 345.6
L518.4 256.659" style="fill:none;stroke:#000000;stroke-dasharray:1.000000,3.000000;stroke-dashoffset:0.0;stroke-width:0.5;"/>
     </g>
     <g id="line2d_116">
      <g>
       <use style="stroke:#000000;stroke-width:0.5;" x="518.400000006" xlink:href="#m93b0483c22" y="345.6"/>
      </g>
     </g>
     <g id="line2d_117">
      <g>
       <use style="stroke:#000000;stroke-width:0.5;" x="518.400000006" xlink:href="#m741efc42ff" y="256.658823529"/>
      </g>
     </g>
     <g id="text_23">
      <!-- 728862 -->
      <g transform="translate(495.181437238 367.505327968)rotate(-30.0)scale(0.08 -0.08)">
       <use xlink:href="#ArialMT-37"/>
       <use x="55.615234375" xlink:href="#ArialMT-32"/>
       <use x="111.23046875" xlink:href="#ArialMT-38"/>
       <use x="166.845703125" xlink:href="#ArialMT-38"/>
       <use x="222.4609375" xlink:href="#ArialMT-36"/>
       <use x="278.076171875" xlink:href="#ArialMT-32"/>
      </g>
     </g>
    </g>
    <g id="text_24">
     <!-- windows -->
     <defs>
      <path d="
M6.64062 61.4688
L6.64062 71.5781
L15.4375 71.5781
L15.4375 61.4688
z

M6.64062 0
L6.64062 51.8594
L15.4375 51.8594
L15.4375 0
z
" id="ArialMT-69"/>
      <path d="
M16.1562 0
L0.296875 51.8594
L9.375 51.8594
L17.625 21.9219
L20.7031 10.7969
Q20.9062 11.625 23.3906 21.4844
L31.6406 51.8594
L40.6719 51.8594
L48.4375 21.7812
L51.0312 11.8594
L54 21.875
L62.8906 51.8594
L71.4375 51.8594
L55.2188 0
L46.0938 0
L37.8438 31.0625
L35.8438 39.8906
L25.3438 0
z
" id="ArialMT-77"/>
      <path d="
M3.32812 25.9219
Q3.32812 40.3281 11.3281 47.2656
Q18.0156 53.0312 27.6406 53.0312
Q38.3281 53.0312 45.1094 46.0156
Q51.9062 39.0156 51.9062 26.6562
Q51.9062 16.6562 48.9062 10.9062
Q45.9062 5.17188 40.1562 2
Q34.4219 -1.17188 27.6406 -1.17188
Q16.75 -1.17188 10.0312 5.8125
Q3.32812 12.7969 3.32812 25.9219
M12.3594 25.9219
Q12.3594 15.9688 16.7031 11.0156
Q21.0469 6.0625 27.6406 6.0625
Q34.1875 6.0625 38.5312 11.0312
Q42.875 16.0156 42.875 26.2188
Q42.875 35.8438 38.5 40.7969
Q34.125 45.75 27.6406 45.75
Q21.0469 45.75 16.7031 40.8125
Q12.3594 35.8906 12.3594 25.9219" id="ArialMT-6f"/>
      <path d="
M6.59375 0
L6.59375 51.8594
L14.5 51.8594
L14.5 44.4844
Q20.2188 53.0312 31 53.0312
Q35.6875 53.0312 39.625 51.3438
Q43.5625 49.6562 45.5156 46.9219
Q47.4688 44.1875 48.25 40.4375
Q48.7344 37.9844 48.7344 31.8906
L48.7344 0
L39.9375 0
L39.9375 31.5469
Q39.9375 36.9219 38.9062 39.5781
Q37.8906 42.2344 35.2812 43.8125
Q32.6719 45.4062 29.1562 45.4062
Q23.5312 45.4062 19.4531 41.8438
Q15.375 38.2812 15.375 28.3281
L15.375 0
z
" id="ArialMT-6e"/>
      <path d="
M40.2344 0
L40.2344 6.54688
Q35.2969 -1.17188 25.7344 -1.17188
Q19.5312 -1.17188 14.3281 2.25
Q9.125 5.67188 6.26562 11.7969
Q3.42188 17.9219 3.42188 25.875
Q3.42188 33.6406 6 39.9688
Q8.59375 46.2969 13.7656 49.6562
Q18.9531 53.0312 25.3438 53.0312
Q30.0312 53.0312 33.6875 51.0469
Q37.3594 49.0781 39.6562 45.9062
L39.6562 71.5781
L48.3906 71.5781
L48.3906 0
z

M12.4531 25.875
Q12.4531 15.9219 16.6406 10.9844
Q20.8438 6.0625 26.5625 6.0625
Q32.3281 6.0625 36.3438 10.7656
Q40.375 15.4844 40.375 25.1406
Q40.375 35.7969 36.2656 40.7656
Q32.1719 45.75 26.1719 45.75
Q20.3125 45.75 16.375 40.9688
Q12.4531 36.1875 12.4531 25.875" id="ArialMT-64"/>
     </defs>
     <g transform="translate(272.4403125 382.49105836)scale(0.12 -0.12)">
      <use xlink:href="#ArialMT-77"/>
      <use x="72.216796875" xlink:href="#ArialMT-69"/>
      <use x="94.43359375" xlink:href="#ArialMT-6e"/>
      <use x="150.048828125" xlink:href="#ArialMT-64"/>
      <use x="205.6640625" xlink:href="#ArialMT-6f"/>
      <use x="261.279296875" xlink:href="#ArialMT-77"/>
      <use x="333.49609375" xlink:href="#ArialMT-73"/>
     </g>
    </g>
   </g>
   <g id="matplotlib.axis_6">
    <g id="ytick_13">
     <g id="line2d_118">
      <path clip-path="url(#pb641915bdd)" d="
M72 345.6
L518.4 345.6" style="fill:none;stroke:#000000;stroke-dasharray:1.000000,3.000000;stroke-dashoffset:0.0;stroke-width:0.5;"/>
     </g>
     <g id="line2d_119">
      <g>
       <use style="stroke:#000000;stroke-width:0.5;" x="72.0" xlink:href="#m728421d6d4" y="345.6"/>
      </g>
     </g>
     <g id="line2d_120">
      <g>
       <use style="stroke:#000000;stroke-width:0.5;" x="518.4" xlink:href="#mcb0005524f" y="345.6"/>
      </g>
     </g>
     <g id="text_25">
      <!-- 0.9999 -->
      <g transform="translate(44.2175 347.668125)scale(0.08 -0.08)">
       <use xlink:href="#ArialMT-30"/>
       <use x="55.615234375" xlink:href="#ArialMT-2e"/>
       <use x="83.3984375" xlink:href="#ArialMT-39"/>
       <use x="139.013671875" xlink:href="#ArialMT-39"/>
       <use x="194.62890625" xlink:href="#ArialMT-39"/>
       <use x="250.244140625" xlink:href="#ArialMT-39"/>
      </g>
     </g>
    </g>
    <g id="ytick_14">
     <g id="line2d_121">
      <path clip-path="url(#pb641915bdd)" d="
M72 323.365
L518.4 323.365" style="fill:none;stroke:#000000;stroke-dasharray:1.000000,3.000000;stroke-dashoffset:0.0;stroke-width:0.5;"/>
     </g>
     <g id="line2d_122">
      <g>
       <use style="stroke:#000000;stroke-width:0.5;" x="72.0" xlink:href="#m728421d6d4" y="323.364705882"/>
      </g>
     </g>
     <g id="line2d_123">
      <g>
       <use style="stroke:#000000;stroke-width:0.5;" x="518.4" xlink:href="#mcb0005524f" y="323.364705882"/>
      </g>
     </g>
     <g id="text_26">
      <!-- 0.99995 -->
      <g transform="translate(39.7375 325.432830882)scale(0.08 -0.08)">
       <use xlink:href="#ArialMT-30"/>
       <use x="55.615234375" xlink:href="#ArialMT-2e"/>
       <use x="83.3984375" xlink:href="#ArialMT-39"/>
       <use x="139.013671875" xlink:href="#ArialMT-39"/>
       <use x="194.62890625" xlink:href="#ArialMT-39"/>
       <use x="250.244140625" xlink:href="#ArialMT-39"/>
       <use x="305.859375" xlink:href="#ArialMT-35"/>
      </g>
     </g>
    </g>
    <g id="ytick_15">
     <g id="line2d_124">
      <path clip-path="url(#pb641915bdd)" d="
M72 301.129
L518.4 301.129" style="fill:none;stroke:#000000;stroke-dasharray:1.000000,3.000000;stroke-dashoffset:0.0;stroke-width:0.5;"/>
     </g>
     <g id="line2d_125">
      <g>
       <use style="stroke:#000000;stroke-width:0.5;" x="72.0" xlink:href="#m728421d6d4" y="301.129411765"/>
      </g>
     </g>
     <g id="line2d_126">
      <g>
       <use style="stroke:#000000;stroke-width:0.5;" x="518.4" xlink:href="#mcb0005524f" y="301.129411765"/>
      </g>
     </g>
     <g id="text_27">
      <!-- 1 -->
      <g transform="translate(65.89125 303.197536765)scale(0.08 -0.08)">
       <use xlink:href="#ArialMT-31"/>
      </g>
     </g>
    </g>
    <g id="ytick_16">
     <g id="line2d_127">
      <path clip-path="url(#pb641915bdd)" d="
M72 278.894
L518.4 278.894" style="fill:none;stroke:#000000;stroke-dasharray:1.000000,3.000000;stroke-dashoffset:0.0;stroke-width:0.5;"/>
     </g>
     <g id="line2d_128">
      <g>
       <use style="stroke:#000000;stroke-width:0.5;" x="72.0" xlink:href="#m728421d6d4" y="278.894117647"/>
      </g>
     </g>
     <g id="line2d_129">
      <g>
       <use style="stroke:#000000;stroke-width:0.5;" x="518.4" xlink:href="#mcb0005524f" y="278.894117647"/>
      </g>
     </g>
     <g id="text_28">
      <!-- 1.00005 -->
      <g transform="translate(40.27625 280.962242647)scale(0.08 -0.08)">
       <use xlink:href="#ArialMT-31"/>
       <use x="55.615234375" xlink:href="#ArialMT-2e"/>
       <use x="83.3984375" xlink:href="#ArialMT-30"/>
       <use x="139.013671875" xlink:href="#ArialMT-30"/>
       <use x="194.62890625" xlink:href="#ArialMT-30"/>
       <use x="250.244140625" xlink:href="#ArialMT-30"/>
       <use x="305.859375" xlink:href="#ArialMT-35"/>
      </g>
     </g>
    </g>
    <g id="ytick_17">
     <g id="line2d_130">
      <path clip-path="url(#pb641915bdd)" d="
M72 256.659
L518.4 256.659" style="fill:none;stroke:#000000;stroke-dasharray:1.000000,3.000000;stroke-dashoffset:0.0;stroke-width:0.5;"/>
     </g>
     <g id="line2d_131">
      <g>
       <use style="stroke:#000000;stroke-width:0.5;" x="72.0" xlink:href="#m728421d6d4" y="256.658823529"/>
      </g>
     </g>
     <g id="line2d_132">
      <g>
       <use style="stroke:#000000;stroke-width:0.5;" x="518.4" xlink:href="#mcb0005524f" y="256.658823529"/>
      </g>
     </g>
     <g id="text_29">
      <!-- 1.0001 -->
      <g transform="translate(45.87375 258.726948529)scale(0.08 -0.08)">
       <use xlink:href="#ArialMT-31"/>
       <use x="55.615234375" xlink:href="#ArialMT-2e"/>
       <use x="83.3984375" xlink:href="#ArialMT-30"/>
       <use x="139.013671875" xlink:href="#ArialMT-30"/>
       <use x="194.62890625" xlink:href="#ArialMT-30"/>
       <use x="250.244140625" xlink:href="#ArialMT-31"/>
      </g>
     </g>
    </g>
    <g id="text_30">
     <!-- tau -->
     <defs>
      <path d="
M25.7812 7.85938
L27.0469 0.09375
Q23.3438 -0.6875 20.4062 -0.6875
Q15.625 -0.6875 12.9844 0.828125
Q10.3594 2.34375 9.28125 4.8125
Q8.20312 7.28125 8.20312 15.1875
L8.20312 45.0156
L1.76562 45.0156
L1.76562 51.8594
L8.20312 51.8594
L8.20312 64.7031
L16.9375 69.9688
L16.9375 51.8594
L25.7812 51.8594
L25.7812 45.0156
L16.9375 45.0156
L16.9375 14.7031
Q16.9375 10.9375 17.4062 9.85938
Q17.875 8.79688 18.9219 8.15625
Q19.9688 7.51562 21.9219 7.51562
Q23.3906 7.51562 25.7812 7.85938" id="ArialMT-74"/>
      <path d="
M40.5781 0
L40.5781 7.625
Q34.5156 -1.17188 24.125 -1.17188
Q19.5312 -1.17188 15.5469 0.578125
Q11.5781 2.34375 9.64062 5
Q7.71875 7.67188 6.9375 11.5312
Q6.39062 14.1094 6.39062 19.7344
L6.39062 51.8594
L15.1875 51.8594
L15.1875 23.0938
Q15.1875 16.2188 15.7188 13.8125
Q16.5469 10.3594 19.2344 8.375
Q21.9219 6.39062 25.875 6.39062
Q29.8281 6.39062 33.2969 8.42188
Q36.7656 10.4531 38.2031 13.9375
Q39.6562 17.4375 39.6562 24.0781
L39.6562 51.8594
L48.4375 51.8594
L48.4375 0
z
" id="ArialMT-75"/>
      <path d="
M40.4375 6.39062
Q35.5469 2.25 31.0312 0.53125
Q26.5156 -1.17188 21.3438 -1.17188
Q12.7969 -1.17188 8.20312 3
Q3.60938 7.17188 3.60938 13.6719
Q3.60938 17.4844 5.34375 20.625
Q7.07812 23.7812 9.89062 25.6875
Q12.7031 27.5938 16.2188 28.5625
Q18.7969 29.25 24.0312 29.8906
Q34.6719 31.1562 39.7031 32.9062
Q39.75 34.7188 39.75 35.2031
Q39.75 40.5781 37.25 42.7812
Q33.8906 45.75 27.25 45.75
Q21.0469 45.75 18.0938 43.5781
Q15.1406 41.4062 13.7188 35.8906
L5.125 37.0625
Q6.29688 42.5781 8.98438 45.9688
Q11.6719 49.3594 16.75 51.1875
Q21.8281 53.0312 28.5156 53.0312
Q35.1562 53.0312 39.2969 51.4688
Q43.4531 49.9062 45.4062 47.5312
Q47.3594 45.1719 48.1406 41.5469
Q48.5781 39.3125 48.5781 33.4531
L48.5781 21.7344
Q48.5781 9.46875 49.1406 6.21875
Q49.7031 2.98438 51.375 0
L42.1875 0
Q40.8281 2.73438 40.4375 6.39062
M39.7031 26.0312
Q34.9062 24.0781 25.3438 22.7031
Q19.9219 21.9219 17.6719 20.9375
Q15.4375 19.9688 14.2031 18.0938
Q12.9844 16.2188 12.9844 13.9219
Q12.9844 10.4062 15.6406 8.0625
Q18.3125 5.71875 23.4375 5.71875
Q28.5156 5.71875 32.4688 7.9375
Q36.4219 10.1562 38.2812 14.0156
Q39.7031 17 39.7031 22.7969
z
" id="ArialMT-61"/>
     </defs>
     <g transform="translate(32.3525 308.933161765)rotate(-90.0)scale(0.12 -0.12)">
      <use xlink:href="#ArialMT-74"/>
      <use x="27.783203125" xlink:href="#ArialMT-61"/>
      <use x="83.3984375" xlink:href="#ArialMT-75"/>
     </g>
    </g>
   </g>
   <g id="patch_13">
    <path d="
M72 256.659
L518.4 256.659" style="fill:none;stroke:#000000;"/>
   </g>
   <g id="patch_14">
    <path d="
M518.4 345.6
L518.4 256.659" style="fill:none;stroke:#000000;"/>
   </g>
   <g id="patch_15">
    <path d="
M72 345.6
L518.4 345.6" style="fill:none;stroke:#000000;"/>
   </g>
   <g id="patch_16">
    <path d="
M72 345.6
L72 256.659" style="fill:none;stroke:#000000;"/>
   </g>
  </g>
 </g>
 <defs>
  <clipPath id="pabb9301d13">
   <rect height="88.9411764706" width="446.4" x="72.0" y="43.2"/>
  </clipPath>
  <clipPath id="p82736d9a3e">
   <rect height="88.9411764706" width="446.4" x="72.0" y="149.929411765"/>
  </clipPath>
  <clipPath id="pb641915bdd">
   <rect height="88.9411764706" width="446.4" x="72.0" y="256.658823529"/>
  </clipPath>
 </defs>
</svg>
